M48
;GenerationSoftware,Autodesk,EAGLE,9.5.2*%
;CreationDate,2020-04-23T18:10:22Z*%
FMAT,2
ICI,OFF
METRIC,TZ,000.000
T4C0.800
T3C0.813
T2C1.016
T1C1.100
%
G90
M71
T1
X4600Y-43280
X8100Y-43280
X16665Y-43280
X20165Y-43280
X52860Y-43280
X43660Y-43280
X40160Y-43280
X-3330Y-43280
X-6830Y-43280
X-14760Y-43280
X-18260Y-43280
X56360Y-43280
X32230Y-43280
X28730Y-43280
T2
X49530Y-34290
X46990Y-34290
X44450Y-34290
X41910Y-34290
X39370Y-34290
X52070Y-34290
X54610Y-34290
X57150Y-34290
X57150Y-21590
X54610Y-21590
X52070Y-21590
X49530Y-21590
X46990Y-21590
X44450Y-21590
X41910Y-21590
X39370Y-21590
X-20320Y-34290
X-17780Y-34290
X-15240Y-34290
X-12700Y-34290
X-10160Y-34290
X-7620Y-34290
X-5080Y-34290
X-2540Y-34290
X-2540Y-21590
X-5080Y-21590
X-7620Y-21590
X-10160Y-21590
X-12700Y-21590
X-15240Y-21590
X-17780Y-21590
X-20320Y-21590
T3
X29210Y-1270
X36830Y-1270
X50800Y-6350
X50800Y-3810
X58420Y-3810
X58420Y-6350
X50800Y-1270
X58420Y-1270
X-17780Y-1270
X-17780Y-8890
X2540Y-1270
X2540Y-8890
X27940Y-13970
X24130Y-8890
X45720Y-1270
X45720Y-8890
X-13970Y-13970
X-11430Y-13970
X0Y-13970
X2540Y-13970
X21590Y-13970
X24130Y-13970
X45720Y-13970
X43180Y-13970
X36830Y-6350
X36830Y-3810
X29210Y-3810
X29210Y-6350
X15240Y-1270
X7620Y-1270
X15240Y-6350
X15240Y-3810
X7620Y-3810
X7620Y-6350
X-5080Y-1270
X-12700Y-1270
X-5080Y-6350
X-5080Y-3810
X-12700Y-3810
X-12700Y-6350
X6350Y-13970
X8890Y-13970
X-17780Y-13970
X-20320Y-13970
X58420Y-13970
X55880Y-13970
X36830Y-13970
X34290Y-13970
X15240Y-13970
X12700Y-13970
X-5081Y-13928
X-7619Y-14012
X52070Y-13970
X49530Y-13970
X30480Y-13970
X24130Y-1270
T4
X17399Y-24130
X14859Y-24130
X33909Y-29210
X33909Y-26670
X33909Y-24130
X33909Y-20320
X31369Y-20320
X28829Y-20320
X26289Y-20320
X23749Y-20320
X21209Y-20320
X18669Y-20320
X16129Y-20320
X13589Y-20320
X11049Y-20320
X8509Y-20320
X5969Y-20320
X33909Y-35560
X31369Y-35560
X28829Y-35560
X26289Y-35560
X23749Y-35560
X21209Y-35560
X18669Y-35560
X16129Y-35560
X13589Y-35560
X11049Y-35560
X8509Y-35560
X3429Y-21590
X3429Y-24130
X3429Y-26670
X3429Y-29210
X3429Y-31750
X3429Y-34290
X5969Y-35560
M30