M48
;GenerationSoftware,Autodesk,EAGLE,9.5.2*%
;CreationDate,2020-10-20T19:00:05Z*%
FMAT,2
ICI,OFF
METRIC,TZ,000.000
T5C0.350
T4C0.800
T3C0.813
T2C1.016
T1C1.100
%
G90
M71
T1
X-16530Y-39790
X-19030Y-39790
X-7600Y-39790
X-5100Y-39790
X53360Y-39790
X55860Y-39790
X41930Y-39790
X44430Y-39790
X30500Y-39790
X33000Y-39790
X19070Y-39790
X21570Y-39790
X3830Y-39790
X6330Y-39790
T2
X46990Y-21590
X49530Y-21590
X52070Y-21590
X54610Y-21590
X57150Y-21590
X57150Y-34290
X54610Y-34290
X52070Y-34290
X49530Y-34290
X46990Y-34290
X44450Y-34290
X41910Y-34290
X39370Y-34290
X44450Y-21590
X41910Y-21590
X39370Y-21590
X16510Y-34290
X19050Y-34290
X21590Y-34290
X24130Y-34290
X26670Y-34290
X29210Y-34290
X31750Y-34290
X34290Y-34290
X34290Y-21590
X31750Y-21590
X29210Y-21590
X26670Y-21590
X24130Y-21590
X21590Y-21590
X19050Y-21590
X16510Y-21590
T3
X47535Y-3810
X47535Y-6350
X36285Y-1270
X47535Y-1270
X-20320Y0
X-20320Y-7620
X-2540Y0
X49530Y-13970
X15240Y0
X15240Y-7620
X33020Y0
X33020Y-7620
X30480Y-13970
X27940Y-13970
X8890Y-13970
X6350Y-13970
X45720Y-13970
X43180Y-13970
X24130Y-13970
X21590Y-13970
X2540Y-13970
X0Y-13970
X-11430Y-13970
X-13970Y-13970
X53340Y0
X53340Y-7620
X57150Y-7620
X57150Y0
X36285Y-3810
X36285Y-6350
X29755Y-1270
X18505Y-1270
X29755Y-6350
X29755Y-3810
X18505Y-3810
X18505Y-6350
X11975Y-1270
X725Y-1270
X11975Y-6350
X11975Y-3810
X725Y-3810
X725Y-6350
X-5805Y-1270
X-17055Y-1270
X-5805Y-6350
X-5805Y-3810
X-17055Y-3810
X-17055Y-6350
X-17780Y-13970
X-20320Y-13970
X58420Y-13970
X55880Y-13970
X36830Y-13970
X34290Y-13970
X15240Y-13970
X12700Y-13970
X-5081Y-13928
X-7619Y-14012
X52070Y-13970
X-2540Y-7620
T4
X-6731Y-24130
X-9271Y-24130
X9779Y-29210
X9779Y-26670
X9779Y-24130
X9779Y-20320
X7239Y-20320
X4699Y-20320
X2159Y-20320
X-381Y-20320
X-2921Y-20320
X-5461Y-20320
X-8001Y-20320
X-10541Y-20320
X-13081Y-20320
X-15621Y-20320
X-18161Y-20320
X9779Y-35560
X7239Y-35560
X4699Y-35560
X2159Y-35560
X-381Y-35560
X-2921Y-35560
X-5461Y-35560
X-8001Y-35560
X-10541Y-35560
X-13081Y-35560
X-15621Y-35560
X-18161Y-35560
X-20701Y-21590
X-20701Y-24130
X-20701Y-26670
X-20701Y-29210
X-20701Y-31750
X-20701Y-34290
T5
X12065Y-36830
X11112Y-11747
M30