M48
;GenerationSoftware,Autodesk,EAGLE,9.6.2*%
;CreationDate,2021-02-24T16:23:08Z*%
FMAT,2
ICI,OFF
METRIC,TZ,000.000
T9C0.254
T8C0.730
T7C0.762
T6C0.813
T5C1.000
T4C1.016
T3C1.026
T2C1.100
T1C3.200
%
G90
M71
T1
X3000Y51000
X3000Y3000
X87000Y51000
X87000Y3000
T2
X84800Y35250
X72570Y5510
X75070Y5510
X52963Y5510
X55463Y5510
X33357Y5510
X35857Y5510
X13750Y5510
X16250Y5510
X5130Y26155
X5130Y23655
X5200Y16000
X5200Y13500
X84800Y37750
T3
X10030Y8950
X29530Y8950
T4
X4000Y40022
X15584Y37228
X15584Y40022
X32959Y37228
X32959Y40022
X61919Y37228
X61919Y40022
X50335Y37228
X50335Y40022
X67000Y25620
X69540Y25620
X72080Y25620
X74620Y25620
X77160Y25620
X79700Y25620
X27167Y40022
X64460Y25620
X61920Y25620
X59380Y25620
X56840Y25620
X54300Y25620
X51760Y25620
X49220Y25620
X82240Y25620
X67000Y10380
X64460Y10380
X61920Y10380
X59380Y10380
X54300Y10380
X69540Y10380
X72080Y10380
X74620Y10380
X77160Y10380
X79700Y10380
X82240Y10380
X84780Y10380
X51760Y10380
X49220Y10380
X84780Y25620
X22730Y14030
X42230Y8950
X42230Y11490
X42230Y14030
X42230Y16570
X42230Y19110
X42230Y21650
X42230Y24190
X42230Y26730
X29530Y26730
X29530Y24190
X29530Y21650
X29530Y19110
X29530Y16570
X29530Y14030
X29530Y11490
X22730Y8950
X22730Y11490
X56840Y10380
X22730Y16570
X22730Y19110
X22730Y21650
X22730Y24190
X22730Y26730
X10030Y26730
X10030Y24190
X10030Y21650
X10030Y19110
X10030Y16570
X10030Y14030
X10030Y11490
X56127Y37228
X56127Y40022
X44543Y37228
X44543Y40022
X27167Y37228
X9792Y37228
X9792Y40022
X67711Y37228
X67711Y40022
X38751Y37228
X38751Y40022
X21376Y37228
X21376Y40022
X4000Y37228
T5
X74730Y39060
X77270Y39060
X77270Y31440
X74730Y31440
T6
X28117Y51050
X61560Y21500
X48003Y51050
X48003Y43430
X28117Y43430
X8230Y51050
X67890Y43430
X8230Y43430
X61560Y18500
X53940Y18500
X53940Y21500
X67890Y51050
T7
X40500Y8000
X46500Y10000
T8
X42917Y49530
X23250Y49530
X82250Y44450
X51083Y46990
X82250Y46990
X51083Y49530
X62583Y49530
X62583Y46990
X70750Y44450
X70750Y46990
X70750Y49530
X62583Y44450
X31417Y44450
X31417Y46990
X31417Y49530
X11750Y49530
X42917Y46990
X42917Y44450
X11750Y44450
X11750Y46990
X51083Y44450
X23250Y46990
X23250Y44450
X82250Y49530
T9
X62500Y35500
X60500Y35000
X42000Y3500
X20000Y31500
X61000Y16500
X33500Y13000
X13500Y33000
X11500Y32000
X56500Y24000
M30