G04 EAGLE Gerber RS-274X export*
G75*
%MOMM*%
%FSLAX34Y34*%
%LPD*%
%INTop Copper*%
%IPPOS*%
%AMOC8*
5,1,8,0,0,1.08239X$1,22.5*%
G01*
%ADD10P,1.319650X8X292.500000*%
%ADD11C,1.650000*%
%ADD12C,1.095000*%
%ADD13C,1.524000*%
%ADD14R,1.524000X1.524000*%
%ADD15C,1.539241*%
%ADD16C,2.032000*%
%ADD17R,1.580000X1.580000*%
%ADD18C,1.580000*%
%ADD19P,1.319650X8X202.500000*%
%ADD20P,1.319650X8X22.500000*%
%ADD21C,0.152400*%
%ADD22C,0.304800*%
%ADD23C,0.508000*%
%ADD24C,0.762000*%
%ADD25C,1.143000*%

G36*
X852566Y3818D02*
X852566Y3818D01*
X852614Y3817D01*
X852687Y3838D01*
X852761Y3850D01*
X852804Y3873D01*
X852850Y3887D01*
X852912Y3930D01*
X852979Y3966D01*
X853012Y4000D01*
X853051Y4028D01*
X853096Y4089D01*
X853148Y4144D01*
X853168Y4187D01*
X853197Y4226D01*
X853220Y4298D01*
X853252Y4367D01*
X853257Y4415D01*
X853272Y4460D01*
X853271Y4536D01*
X853279Y4611D01*
X853269Y4658D01*
X853268Y4706D01*
X853243Y4778D01*
X853227Y4852D01*
X853202Y4893D01*
X853186Y4938D01*
X853139Y4998D01*
X853101Y5063D01*
X853064Y5094D01*
X853034Y5132D01*
X852931Y5208D01*
X852914Y5223D01*
X852907Y5225D01*
X852899Y5231D01*
X851579Y5994D01*
X845993Y11579D01*
X842044Y18420D01*
X839999Y26050D01*
X839999Y33950D01*
X842044Y41580D01*
X845993Y48421D01*
X851579Y54007D01*
X858420Y57956D01*
X866050Y60001D01*
X873950Y60001D01*
X881580Y57956D01*
X888421Y54007D01*
X894006Y48421D01*
X894769Y47101D01*
X894799Y47063D01*
X894822Y47021D01*
X894876Y46969D01*
X894925Y46910D01*
X894965Y46885D01*
X895000Y46852D01*
X895069Y46820D01*
X895133Y46780D01*
X895180Y46768D01*
X895223Y46748D01*
X895298Y46740D01*
X895372Y46722D01*
X895420Y46726D01*
X895467Y46721D01*
X895542Y46737D01*
X895617Y46744D01*
X895661Y46763D01*
X895708Y46773D01*
X895773Y46812D01*
X895842Y46843D01*
X895878Y46875D01*
X895919Y46899D01*
X895968Y46957D01*
X896024Y47008D01*
X896048Y47050D01*
X896079Y47086D01*
X896107Y47157D01*
X896144Y47223D01*
X896153Y47270D01*
X896171Y47315D01*
X896185Y47443D01*
X896189Y47465D01*
X896188Y47471D01*
X896189Y47481D01*
X896189Y492519D01*
X896182Y492566D01*
X896183Y492614D01*
X896162Y492687D01*
X896150Y492761D01*
X896127Y492804D01*
X896113Y492850D01*
X896070Y492912D01*
X896034Y492979D01*
X896000Y493012D01*
X895972Y493051D01*
X895911Y493096D01*
X895856Y493148D01*
X895813Y493168D01*
X895774Y493197D01*
X895702Y493220D01*
X895633Y493252D01*
X895585Y493257D01*
X895540Y493272D01*
X895464Y493271D01*
X895389Y493279D01*
X895342Y493269D01*
X895294Y493268D01*
X895222Y493243D01*
X895148Y493227D01*
X895107Y493202D01*
X895062Y493186D01*
X895002Y493139D01*
X894937Y493101D01*
X894906Y493064D01*
X894868Y493034D01*
X894792Y492931D01*
X894777Y492914D01*
X894775Y492907D01*
X894769Y492899D01*
X894006Y491579D01*
X888421Y485993D01*
X881580Y482044D01*
X873950Y479999D01*
X866050Y479999D01*
X858420Y482044D01*
X851579Y485993D01*
X845993Y491579D01*
X842044Y498420D01*
X839999Y506050D01*
X839999Y513950D01*
X842044Y521580D01*
X845993Y528421D01*
X851579Y534006D01*
X852899Y534769D01*
X852937Y534799D01*
X852979Y534822D01*
X853031Y534876D01*
X853090Y534925D01*
X853115Y534965D01*
X853148Y535000D01*
X853180Y535069D01*
X853220Y535133D01*
X853232Y535180D01*
X853252Y535223D01*
X853260Y535298D01*
X853278Y535372D01*
X853274Y535420D01*
X853279Y535467D01*
X853263Y535542D01*
X853256Y535617D01*
X853237Y535661D01*
X853227Y535708D01*
X853188Y535773D01*
X853157Y535842D01*
X853125Y535878D01*
X853101Y535919D01*
X853043Y535968D01*
X852992Y536024D01*
X852950Y536048D01*
X852914Y536079D01*
X852843Y536107D01*
X852777Y536144D01*
X852730Y536153D01*
X852685Y536171D01*
X852557Y536185D01*
X852535Y536189D01*
X852529Y536188D01*
X852519Y536189D01*
X47481Y536189D01*
X47434Y536182D01*
X47386Y536183D01*
X47313Y536162D01*
X47239Y536150D01*
X47196Y536127D01*
X47150Y536113D01*
X47088Y536070D01*
X47021Y536034D01*
X46988Y536000D01*
X46949Y535972D01*
X46904Y535911D01*
X46852Y535856D01*
X46832Y535813D01*
X46803Y535774D01*
X46780Y535702D01*
X46748Y535633D01*
X46743Y535585D01*
X46728Y535540D01*
X46729Y535464D01*
X46721Y535389D01*
X46731Y535342D01*
X46732Y535294D01*
X46757Y535222D01*
X46773Y535148D01*
X46798Y535107D01*
X46814Y535062D01*
X46861Y535002D01*
X46899Y534937D01*
X46936Y534906D01*
X46966Y534868D01*
X47069Y534792D01*
X47086Y534777D01*
X47093Y534775D01*
X47101Y534769D01*
X48421Y534006D01*
X54007Y528421D01*
X57956Y521580D01*
X60001Y513950D01*
X60001Y506050D01*
X57956Y498420D01*
X54007Y491579D01*
X48421Y485993D01*
X41580Y482044D01*
X33950Y479999D01*
X26050Y479999D01*
X18420Y482044D01*
X11579Y485993D01*
X5994Y491579D01*
X5231Y492899D01*
X5201Y492937D01*
X5178Y492979D01*
X5124Y493031D01*
X5075Y493090D01*
X5035Y493115D01*
X5000Y493148D01*
X4931Y493180D01*
X4867Y493220D01*
X4820Y493232D01*
X4777Y493252D01*
X4702Y493260D01*
X4628Y493278D01*
X4580Y493274D01*
X4533Y493279D01*
X4458Y493263D01*
X4383Y493256D01*
X4339Y493237D01*
X4292Y493227D01*
X4227Y493188D01*
X4158Y493157D01*
X4122Y493125D01*
X4081Y493101D01*
X4032Y493043D01*
X3976Y492992D01*
X3952Y492950D01*
X3921Y492914D01*
X3893Y492843D01*
X3856Y492777D01*
X3847Y492730D01*
X3829Y492685D01*
X3815Y492557D01*
X3811Y492535D01*
X3812Y492529D01*
X3811Y492519D01*
X3811Y47481D01*
X3818Y47434D01*
X3817Y47386D01*
X3838Y47313D01*
X3850Y47239D01*
X3873Y47196D01*
X3887Y47150D01*
X3930Y47088D01*
X3966Y47021D01*
X4000Y46988D01*
X4028Y46949D01*
X4089Y46904D01*
X4144Y46852D01*
X4187Y46832D01*
X4226Y46803D01*
X4298Y46780D01*
X4367Y46748D01*
X4415Y46743D01*
X4460Y46728D01*
X4536Y46729D01*
X4611Y46721D01*
X4658Y46731D01*
X4706Y46732D01*
X4778Y46757D01*
X4852Y46773D01*
X4893Y46798D01*
X4938Y46814D01*
X4998Y46861D01*
X5063Y46899D01*
X5094Y46936D01*
X5132Y46966D01*
X5208Y47069D01*
X5223Y47086D01*
X5225Y47093D01*
X5231Y47101D01*
X5994Y48421D01*
X11579Y54007D01*
X18420Y57956D01*
X26050Y60001D01*
X33950Y60001D01*
X41580Y57956D01*
X48421Y54007D01*
X54007Y48421D01*
X57956Y41580D01*
X60001Y33950D01*
X60001Y26050D01*
X57956Y18420D01*
X54007Y11579D01*
X48421Y5994D01*
X47101Y5231D01*
X47063Y5201D01*
X47021Y5178D01*
X46969Y5124D01*
X46910Y5075D01*
X46885Y5035D01*
X46852Y5000D01*
X46820Y4931D01*
X46780Y4867D01*
X46768Y4820D01*
X46748Y4777D01*
X46740Y4702D01*
X46722Y4628D01*
X46726Y4580D01*
X46721Y4533D01*
X46737Y4458D01*
X46744Y4383D01*
X46763Y4339D01*
X46773Y4292D01*
X46812Y4227D01*
X46843Y4158D01*
X46875Y4122D01*
X46899Y4081D01*
X46957Y4032D01*
X47008Y3976D01*
X47050Y3952D01*
X47086Y3921D01*
X47157Y3893D01*
X47223Y3856D01*
X47270Y3847D01*
X47315Y3829D01*
X47443Y3815D01*
X47465Y3811D01*
X47471Y3812D01*
X47481Y3811D01*
X852519Y3811D01*
X852566Y3818D01*
G37*
%LPC*%
G36*
X114053Y27713D02*
X114053Y27713D01*
X82713Y59053D01*
X82713Y225947D01*
X92478Y235712D01*
X92490Y235729D01*
X92506Y235741D01*
X92562Y235829D01*
X92622Y235912D01*
X92628Y235931D01*
X92639Y235948D01*
X92664Y236049D01*
X92694Y236147D01*
X92694Y236167D01*
X92699Y236187D01*
X92691Y236290D01*
X92688Y236393D01*
X92681Y236412D01*
X92680Y236432D01*
X92639Y236527D01*
X92604Y236624D01*
X92591Y236640D01*
X92583Y236658D01*
X92562Y236684D01*
X91155Y240081D01*
X91155Y243719D01*
X92547Y247080D01*
X95120Y249653D01*
X98481Y251045D01*
X102119Y251045D01*
X105480Y249653D01*
X108053Y247080D01*
X109445Y243719D01*
X109445Y240081D01*
X108053Y236720D01*
X105480Y234147D01*
X102119Y232755D01*
X98481Y232755D01*
X97189Y233290D01*
X97075Y233317D01*
X96962Y233346D01*
X96956Y233345D01*
X96950Y233347D01*
X96833Y233336D01*
X96717Y233327D01*
X96711Y233324D01*
X96705Y233324D01*
X96597Y233276D01*
X96490Y233230D01*
X96484Y233226D01*
X96480Y233224D01*
X96466Y233211D01*
X96359Y233125D01*
X87510Y224276D01*
X87457Y224202D01*
X87397Y224132D01*
X87385Y224102D01*
X87366Y224076D01*
X87339Y223989D01*
X87305Y223904D01*
X87301Y223863D01*
X87294Y223841D01*
X87295Y223809D01*
X87287Y223737D01*
X87287Y61263D01*
X87301Y61172D01*
X87309Y61082D01*
X87321Y61052D01*
X87326Y61020D01*
X87369Y60939D01*
X87405Y60855D01*
X87431Y60823D01*
X87442Y60802D01*
X87465Y60780D01*
X87510Y60724D01*
X106414Y41820D01*
X106472Y41778D01*
X106524Y41729D01*
X106571Y41707D01*
X106613Y41677D01*
X106682Y41656D01*
X106747Y41625D01*
X106799Y41620D01*
X106849Y41604D01*
X106920Y41606D01*
X106991Y41598D01*
X107042Y41609D01*
X107094Y41611D01*
X107162Y41635D01*
X107232Y41650D01*
X107277Y41677D01*
X107325Y41695D01*
X107381Y41740D01*
X107443Y41777D01*
X107477Y41816D01*
X107517Y41849D01*
X107556Y41909D01*
X107603Y41964D01*
X107622Y42012D01*
X107650Y42056D01*
X107668Y42125D01*
X107695Y42192D01*
X107703Y42263D01*
X107711Y42294D01*
X107709Y42318D01*
X107713Y42358D01*
X107713Y78737D01*
X107699Y78828D01*
X107691Y78918D01*
X107679Y78948D01*
X107674Y78980D01*
X107631Y79061D01*
X107595Y79145D01*
X107569Y79177D01*
X107558Y79198D01*
X107535Y79220D01*
X107490Y79276D01*
X105572Y81194D01*
X105476Y81263D01*
X105383Y81332D01*
X105377Y81334D01*
X105372Y81338D01*
X105261Y81372D01*
X105149Y81408D01*
X105143Y81408D01*
X105137Y81410D01*
X105020Y81407D01*
X104903Y81406D01*
X104896Y81404D01*
X104891Y81404D01*
X104874Y81397D01*
X104742Y81359D01*
X102134Y80279D01*
X98466Y80279D01*
X95077Y81683D01*
X92483Y84277D01*
X91079Y87666D01*
X91079Y91334D01*
X92483Y94723D01*
X95077Y97317D01*
X98466Y98721D01*
X102134Y98721D01*
X105523Y97317D01*
X108117Y94723D01*
X109521Y91334D01*
X109521Y87666D01*
X108558Y85341D01*
X108531Y85227D01*
X108503Y85114D01*
X108503Y85107D01*
X108502Y85101D01*
X108513Y84985D01*
X108522Y84868D01*
X108524Y84863D01*
X108525Y84856D01*
X108572Y84749D01*
X108618Y84642D01*
X108623Y84636D01*
X108625Y84632D01*
X108637Y84618D01*
X108723Y84511D01*
X112287Y80947D01*
X112287Y43048D01*
X112290Y43028D01*
X112288Y43009D01*
X112310Y42907D01*
X112326Y42805D01*
X112336Y42788D01*
X112340Y42768D01*
X112393Y42679D01*
X112442Y42588D01*
X112456Y42574D01*
X112466Y42557D01*
X112545Y42490D01*
X112620Y42418D01*
X112638Y42410D01*
X112653Y42397D01*
X112749Y42358D01*
X112843Y42315D01*
X112863Y42313D01*
X112881Y42305D01*
X113048Y42287D01*
X418737Y42287D01*
X418828Y42301D01*
X418918Y42309D01*
X418948Y42321D01*
X418980Y42326D01*
X419061Y42369D01*
X419145Y42405D01*
X419177Y42431D01*
X419198Y42442D01*
X419220Y42465D01*
X419276Y42510D01*
X469003Y92236D01*
X469059Y92315D01*
X469121Y92391D01*
X469131Y92415D01*
X469146Y92436D01*
X469175Y92529D01*
X469210Y92620D01*
X469211Y92646D01*
X469218Y92671D01*
X469216Y92769D01*
X469220Y92866D01*
X469213Y92891D01*
X469212Y92917D01*
X469179Y93009D01*
X469151Y93102D01*
X469137Y93124D01*
X469128Y93148D01*
X469067Y93224D01*
X469011Y93304D01*
X468990Y93320D01*
X468974Y93340D01*
X468892Y93393D01*
X468814Y93451D01*
X468789Y93459D01*
X468767Y93473D01*
X468673Y93497D01*
X468580Y93527D01*
X468554Y93527D01*
X468528Y93533D01*
X468432Y93526D01*
X468334Y93525D01*
X468303Y93516D01*
X468283Y93514D01*
X468253Y93501D01*
X468173Y93478D01*
X466440Y92760D01*
X463560Y92760D01*
X460899Y93862D01*
X458862Y95899D01*
X457760Y98560D01*
X457760Y99380D01*
X457746Y99470D01*
X457738Y99561D01*
X457726Y99591D01*
X457721Y99623D01*
X457678Y99703D01*
X457642Y99787D01*
X457616Y99819D01*
X457605Y99840D01*
X457582Y99862D01*
X457537Y99918D01*
X426021Y131434D01*
X425926Y131503D01*
X425832Y131572D01*
X425826Y131574D01*
X425821Y131578D01*
X425710Y131612D01*
X425598Y131649D01*
X425592Y131649D01*
X425586Y131650D01*
X425469Y131647D01*
X425353Y131646D01*
X425345Y131644D01*
X425340Y131644D01*
X425323Y131638D01*
X425191Y131600D01*
X424119Y131155D01*
X420481Y131155D01*
X417120Y132547D01*
X414547Y135120D01*
X413155Y138481D01*
X413155Y142119D01*
X414547Y145480D01*
X417120Y148053D01*
X420481Y149445D01*
X424119Y149445D01*
X427480Y148053D01*
X430053Y145480D01*
X431445Y142119D01*
X431445Y141415D01*
X431459Y141325D01*
X431467Y141234D01*
X431479Y141204D01*
X431484Y141172D01*
X431527Y141092D01*
X431563Y141008D01*
X431589Y140976D01*
X431600Y140955D01*
X431623Y140933D01*
X431668Y140877D01*
X465082Y107463D01*
X465156Y107410D01*
X465225Y107350D01*
X465255Y107338D01*
X465282Y107319D01*
X465368Y107292D01*
X465453Y107258D01*
X465494Y107254D01*
X465517Y107247D01*
X465549Y107248D01*
X465620Y107240D01*
X466440Y107240D01*
X469101Y106138D01*
X471138Y104101D01*
X471249Y103833D01*
X471300Y103750D01*
X471346Y103664D01*
X471364Y103646D01*
X471378Y103624D01*
X471454Y103561D01*
X471524Y103494D01*
X471548Y103483D01*
X471568Y103467D01*
X471659Y103432D01*
X471747Y103391D01*
X471773Y103388D01*
X471797Y103379D01*
X471895Y103374D01*
X471991Y103364D01*
X472017Y103369D01*
X472043Y103368D01*
X472137Y103395D01*
X472232Y103416D01*
X472254Y103429D01*
X472279Y103437D01*
X472359Y103492D01*
X472443Y103542D01*
X472460Y103562D01*
X472481Y103577D01*
X472540Y103655D01*
X472603Y103729D01*
X472613Y103753D01*
X472628Y103774D01*
X472658Y103867D01*
X472695Y103957D01*
X472698Y103990D01*
X472704Y104008D01*
X472704Y104041D01*
X472713Y104124D01*
X472713Y115947D01*
X474053Y117287D01*
X488737Y117287D01*
X488828Y117301D01*
X488918Y117309D01*
X488948Y117321D01*
X488980Y117326D01*
X489061Y117369D01*
X489145Y117405D01*
X489177Y117431D01*
X489198Y117442D01*
X489220Y117465D01*
X489276Y117510D01*
X552490Y180724D01*
X552543Y180798D01*
X552603Y180868D01*
X552615Y180898D01*
X552634Y180924D01*
X552661Y181011D01*
X552695Y181096D01*
X552699Y181137D01*
X552706Y181159D01*
X552705Y181191D01*
X552713Y181263D01*
X552713Y195947D01*
X554276Y197510D01*
X558180Y201414D01*
X558222Y201472D01*
X558271Y201524D01*
X558293Y201571D01*
X558323Y201613D01*
X558344Y201682D01*
X558375Y201747D01*
X558380Y201799D01*
X558396Y201849D01*
X558394Y201920D01*
X558402Y201991D01*
X558391Y202042D01*
X558389Y202094D01*
X558365Y202162D01*
X558350Y202232D01*
X558323Y202277D01*
X558305Y202325D01*
X558260Y202381D01*
X558223Y202443D01*
X558184Y202477D01*
X558151Y202517D01*
X558091Y202556D01*
X558036Y202603D01*
X557988Y202622D01*
X557944Y202650D01*
X557875Y202668D01*
X557808Y202695D01*
X557737Y202703D01*
X557706Y202711D01*
X557682Y202709D01*
X557642Y202713D01*
X430616Y202713D01*
X430592Y202709D01*
X430568Y202712D01*
X430471Y202690D01*
X430373Y202674D01*
X430352Y202662D01*
X430328Y202657D01*
X430243Y202605D01*
X430156Y202558D01*
X430139Y202541D01*
X430118Y202528D01*
X430055Y202452D01*
X429986Y202380D01*
X429976Y202358D01*
X429961Y202340D01*
X429925Y202247D01*
X429883Y202157D01*
X429880Y202133D01*
X429871Y202111D01*
X429866Y202011D01*
X429856Y201913D01*
X429861Y201889D01*
X429859Y201865D01*
X429887Y201770D01*
X429908Y201672D01*
X429920Y201651D01*
X429927Y201628D01*
X429983Y201547D01*
X430034Y201461D01*
X430052Y201445D01*
X430066Y201426D01*
X430145Y201366D01*
X430221Y201301D01*
X430243Y201292D01*
X430262Y201278D01*
X430419Y201217D01*
X430901Y201088D01*
X431480Y200753D01*
X431953Y200280D01*
X432288Y199701D01*
X432461Y199054D01*
X432461Y192623D01*
X423062Y192623D01*
X423042Y192620D01*
X423023Y192622D01*
X422921Y192600D01*
X422819Y192583D01*
X422802Y192574D01*
X422782Y192570D01*
X422693Y192517D01*
X422602Y192468D01*
X422588Y192454D01*
X422571Y192444D01*
X422504Y192365D01*
X422433Y192290D01*
X422424Y192272D01*
X422411Y192257D01*
X422373Y192161D01*
X422329Y192067D01*
X422327Y192047D01*
X422319Y192029D01*
X422301Y191862D01*
X422301Y191099D01*
X422299Y191099D01*
X422299Y191862D01*
X422297Y191873D01*
X422298Y191879D01*
X422296Y191887D01*
X422298Y191901D01*
X422276Y192003D01*
X422259Y192105D01*
X422250Y192122D01*
X422246Y192142D01*
X422193Y192231D01*
X422144Y192322D01*
X422130Y192336D01*
X422120Y192353D01*
X422041Y192420D01*
X421966Y192491D01*
X421948Y192500D01*
X421933Y192513D01*
X421837Y192552D01*
X421743Y192595D01*
X421723Y192597D01*
X421705Y192605D01*
X421538Y192623D01*
X412139Y192623D01*
X412139Y199054D01*
X412312Y199701D01*
X412647Y200280D01*
X413120Y200753D01*
X413699Y201088D01*
X414181Y201217D01*
X414203Y201227D01*
X414227Y201231D01*
X414315Y201277D01*
X414405Y201318D01*
X414423Y201334D01*
X414444Y201346D01*
X414513Y201417D01*
X414586Y201485D01*
X414597Y201506D01*
X414614Y201524D01*
X414656Y201614D01*
X414703Y201701D01*
X414707Y201725D01*
X414717Y201747D01*
X414728Y201846D01*
X414745Y201944D01*
X414742Y201968D01*
X414744Y201991D01*
X414723Y202088D01*
X414708Y202187D01*
X414697Y202208D01*
X414692Y202232D01*
X414641Y202317D01*
X414596Y202406D01*
X414578Y202422D01*
X414566Y202443D01*
X414491Y202508D01*
X414419Y202577D01*
X414397Y202587D01*
X414379Y202603D01*
X414287Y202640D01*
X414197Y202683D01*
X414173Y202686D01*
X414151Y202695D01*
X413984Y202713D01*
X411263Y202713D01*
X411172Y202699D01*
X411082Y202691D01*
X411052Y202679D01*
X411020Y202674D01*
X410939Y202631D01*
X410855Y202595D01*
X410823Y202569D01*
X410802Y202558D01*
X410780Y202535D01*
X410724Y202490D01*
X339288Y131054D01*
X339235Y130980D01*
X339175Y130910D01*
X339163Y130880D01*
X339144Y130854D01*
X339117Y130767D01*
X339083Y130682D01*
X339079Y130641D01*
X339072Y130619D01*
X339073Y130587D01*
X339065Y130516D01*
X339065Y128316D01*
X336684Y125935D01*
X333316Y125935D01*
X330935Y128316D01*
X330935Y131684D01*
X333316Y134065D01*
X335516Y134065D01*
X335606Y134079D01*
X335697Y134087D01*
X335726Y134099D01*
X335758Y134104D01*
X335839Y134147D01*
X335923Y134183D01*
X335955Y134209D01*
X335976Y134220D01*
X335998Y134243D01*
X336054Y134288D01*
X407490Y205724D01*
X409053Y207287D01*
X416819Y207287D01*
X416915Y207302D01*
X417013Y207312D01*
X417037Y207322D01*
X417062Y207326D01*
X417148Y207372D01*
X417237Y207412D01*
X417257Y207429D01*
X417280Y207442D01*
X417347Y207512D01*
X417418Y207578D01*
X417431Y207601D01*
X417449Y207620D01*
X417490Y207708D01*
X417537Y207794D01*
X417542Y207819D01*
X417553Y207843D01*
X417563Y207940D01*
X417581Y208036D01*
X417577Y208062D01*
X417580Y208087D01*
X417559Y208183D01*
X417545Y208279D01*
X417533Y208302D01*
X417527Y208328D01*
X417477Y208411D01*
X417433Y208498D01*
X417415Y208517D01*
X417401Y208539D01*
X417327Y208602D01*
X417258Y208671D01*
X417229Y208686D01*
X417214Y208699D01*
X417184Y208711D01*
X417123Y208745D01*
X414547Y211320D01*
X413155Y214681D01*
X413155Y218319D01*
X414547Y221680D01*
X417120Y224253D01*
X420481Y225645D01*
X424119Y225645D01*
X427480Y224253D01*
X430053Y221680D01*
X431445Y218319D01*
X431445Y214681D01*
X430053Y211320D01*
X427475Y208743D01*
X427406Y208700D01*
X427320Y208654D01*
X427303Y208636D01*
X427280Y208622D01*
X427218Y208547D01*
X427151Y208476D01*
X427140Y208452D01*
X427123Y208432D01*
X427089Y208341D01*
X427047Y208253D01*
X427045Y208227D01*
X427035Y208203D01*
X427031Y208105D01*
X427020Y208009D01*
X427026Y207983D01*
X427025Y207957D01*
X427052Y207864D01*
X427073Y207768D01*
X427086Y207746D01*
X427093Y207721D01*
X427149Y207641D01*
X427199Y207557D01*
X427219Y207540D01*
X427233Y207519D01*
X427312Y207461D01*
X427386Y207397D01*
X427410Y207387D01*
X427431Y207372D01*
X427523Y207342D01*
X427614Y207305D01*
X427646Y207302D01*
X427665Y207296D01*
X427698Y207296D01*
X427781Y207287D01*
X533061Y207287D01*
X533132Y207298D01*
X533204Y207300D01*
X533253Y207318D01*
X533304Y207326D01*
X533367Y207360D01*
X533435Y207385D01*
X533475Y207417D01*
X533521Y207442D01*
X533571Y207494D01*
X533627Y207538D01*
X533655Y207582D01*
X533691Y207620D01*
X533721Y207685D01*
X533760Y207745D01*
X533772Y207796D01*
X533794Y207843D01*
X533802Y207914D01*
X533820Y207984D01*
X533816Y208036D01*
X533822Y208087D01*
X533806Y208158D01*
X533801Y208229D01*
X533780Y208277D01*
X533769Y208328D01*
X533732Y208389D01*
X533704Y208455D01*
X533660Y208511D01*
X533643Y208539D01*
X533625Y208554D01*
X533600Y208586D01*
X530763Y211423D01*
X530763Y213477D01*
X538638Y213477D01*
X538658Y213480D01*
X538677Y213478D01*
X538779Y213500D01*
X538881Y213517D01*
X538898Y213526D01*
X538918Y213530D01*
X539007Y213583D01*
X539098Y213632D01*
X539112Y213646D01*
X539129Y213656D01*
X539196Y213735D01*
X539267Y213810D01*
X539276Y213828D01*
X539289Y213843D01*
X539327Y213939D01*
X539371Y214033D01*
X539373Y214053D01*
X539381Y214071D01*
X539399Y214238D01*
X539399Y215001D01*
X539401Y215001D01*
X539401Y214238D01*
X539404Y214218D01*
X539402Y214199D01*
X539424Y214097D01*
X539441Y213995D01*
X539450Y213978D01*
X539454Y213958D01*
X539507Y213869D01*
X539556Y213778D01*
X539570Y213764D01*
X539580Y213747D01*
X539659Y213680D01*
X539734Y213609D01*
X539752Y213600D01*
X539767Y213587D01*
X539863Y213548D01*
X539957Y213505D01*
X539977Y213503D01*
X539995Y213495D01*
X540162Y213477D01*
X548037Y213477D01*
X548037Y211423D01*
X545200Y208586D01*
X545159Y208528D01*
X545109Y208476D01*
X545087Y208429D01*
X545057Y208387D01*
X545036Y208318D01*
X545006Y208253D01*
X545000Y208201D01*
X544985Y208151D01*
X544986Y208080D01*
X544978Y208009D01*
X544990Y207958D01*
X544991Y207906D01*
X545016Y207838D01*
X545031Y207768D01*
X545057Y207723D01*
X545075Y207675D01*
X545120Y207619D01*
X545157Y207557D01*
X545196Y207523D01*
X545229Y207483D01*
X545289Y207444D01*
X545344Y207397D01*
X545392Y207378D01*
X545436Y207350D01*
X545505Y207332D01*
X545572Y207305D01*
X545643Y207297D01*
X545674Y207289D01*
X545698Y207291D01*
X545739Y207287D01*
X556952Y207287D01*
X556972Y207290D01*
X556991Y207288D01*
X557093Y207310D01*
X557195Y207326D01*
X557212Y207336D01*
X557232Y207340D01*
X557321Y207393D01*
X557412Y207442D01*
X557426Y207456D01*
X557443Y207466D01*
X557510Y207545D01*
X557582Y207620D01*
X557590Y207638D01*
X557603Y207653D01*
X557642Y207749D01*
X557685Y207843D01*
X557687Y207863D01*
X557695Y207881D01*
X557713Y208048D01*
X557713Y220947D01*
X586378Y249612D01*
X586390Y249629D01*
X586406Y249641D01*
X586462Y249728D01*
X586522Y249812D01*
X586528Y249831D01*
X586539Y249848D01*
X586564Y249948D01*
X586594Y250047D01*
X586594Y250067D01*
X586599Y250086D01*
X586591Y250189D01*
X586588Y250293D01*
X586581Y250312D01*
X586580Y250332D01*
X586539Y250426D01*
X586504Y250524D01*
X586491Y250540D01*
X586483Y250558D01*
X586378Y250689D01*
X586047Y251020D01*
X584655Y254381D01*
X584655Y258019D01*
X586047Y261380D01*
X588620Y263953D01*
X591981Y265345D01*
X595619Y265345D01*
X598980Y263953D01*
X601553Y261380D01*
X602945Y258019D01*
X602945Y254381D01*
X601553Y251020D01*
X598980Y248447D01*
X595619Y247055D01*
X591981Y247055D01*
X591255Y247356D01*
X591190Y247371D01*
X591138Y247392D01*
X591076Y247399D01*
X591028Y247411D01*
X591021Y247411D01*
X591015Y247412D01*
X590984Y247409D01*
X590971Y247411D01*
X590960Y247411D01*
X590908Y247402D01*
X590899Y247401D01*
X590782Y247392D01*
X590777Y247390D01*
X590770Y247389D01*
X590736Y247374D01*
X590717Y247371D01*
X590655Y247338D01*
X590556Y247296D01*
X590550Y247291D01*
X590546Y247289D01*
X590532Y247276D01*
X590518Y247266D01*
X590500Y247256D01*
X590480Y247235D01*
X590425Y247191D01*
X562510Y219276D01*
X562457Y219202D01*
X562397Y219132D01*
X562385Y219102D01*
X562366Y219076D01*
X562339Y218989D01*
X562305Y218904D01*
X562301Y218863D01*
X562294Y218841D01*
X562295Y218809D01*
X562287Y218737D01*
X562287Y207358D01*
X562298Y207288D01*
X562300Y207216D01*
X562318Y207167D01*
X562326Y207116D01*
X562360Y207052D01*
X562385Y206985D01*
X562417Y206944D01*
X562442Y206898D01*
X562493Y206849D01*
X562538Y206793D01*
X562582Y206765D01*
X562620Y206729D01*
X562685Y206699D01*
X562745Y206660D01*
X562796Y206647D01*
X562843Y206625D01*
X562914Y206617D01*
X562984Y206600D01*
X563036Y206604D01*
X563087Y206598D01*
X563158Y206613D01*
X563229Y206619D01*
X563277Y206639D01*
X563328Y206650D01*
X563389Y206687D01*
X563455Y206715D01*
X563511Y206760D01*
X563539Y206777D01*
X563554Y206794D01*
X563586Y206820D01*
X610015Y253249D01*
X610084Y253344D01*
X610153Y253438D01*
X610155Y253444D01*
X610159Y253449D01*
X610193Y253560D01*
X610230Y253672D01*
X610229Y253678D01*
X610231Y253684D01*
X610228Y253801D01*
X610227Y253918D01*
X610225Y253925D01*
X610225Y253930D01*
X610219Y253948D01*
X610180Y254079D01*
X610055Y254381D01*
X610055Y258019D01*
X611447Y261380D01*
X614020Y263953D01*
X617381Y265345D01*
X621019Y265345D01*
X624380Y263953D01*
X626953Y261380D01*
X628345Y258019D01*
X628345Y254381D01*
X626953Y251020D01*
X624380Y248447D01*
X621019Y247055D01*
X617381Y247055D01*
X614020Y248447D01*
X613389Y249078D01*
X613373Y249090D01*
X613360Y249106D01*
X613273Y249162D01*
X613189Y249222D01*
X613170Y249228D01*
X613153Y249239D01*
X613053Y249264D01*
X612954Y249294D01*
X612934Y249294D01*
X612915Y249299D01*
X612812Y249291D01*
X612708Y249288D01*
X612689Y249281D01*
X612670Y249280D01*
X612575Y249239D01*
X612477Y249204D01*
X612462Y249191D01*
X612443Y249183D01*
X612312Y249078D01*
X557510Y194276D01*
X557457Y194202D01*
X557397Y194132D01*
X557385Y194102D01*
X557366Y194076D01*
X557339Y193989D01*
X557305Y193904D01*
X557301Y193863D01*
X557294Y193841D01*
X557295Y193809D01*
X557287Y193737D01*
X557287Y179053D01*
X492510Y114276D01*
X492478Y114245D01*
X492436Y114186D01*
X492387Y114134D01*
X492365Y114087D01*
X492335Y114045D01*
X492314Y113976D01*
X492283Y113911D01*
X492278Y113859D01*
X492262Y113810D01*
X492264Y113738D01*
X492256Y113667D01*
X492267Y113616D01*
X492269Y113564D01*
X492293Y113496D01*
X492308Y113426D01*
X492335Y113382D01*
X492353Y113333D01*
X492398Y113277D01*
X492435Y113215D01*
X492474Y113181D01*
X492507Y113141D01*
X492567Y113102D01*
X492622Y113055D01*
X492670Y113036D01*
X492713Y113008D01*
X492783Y112990D01*
X492850Y112963D01*
X492921Y112955D01*
X492952Y112947D01*
X492975Y112949D01*
X493016Y112945D01*
X494019Y112945D01*
X497380Y111553D01*
X499953Y108980D01*
X501345Y105619D01*
X501345Y101981D01*
X499953Y98620D01*
X497380Y96047D01*
X494019Y94655D01*
X490381Y94655D01*
X487020Y96047D01*
X484447Y98620D01*
X483055Y101981D01*
X483055Y105619D01*
X484447Y108980D01*
X486881Y111414D01*
X486923Y111472D01*
X486972Y111524D01*
X486994Y111571D01*
X487025Y111613D01*
X487046Y111682D01*
X487076Y111747D01*
X487082Y111799D01*
X487097Y111849D01*
X487095Y111920D01*
X487103Y111991D01*
X487092Y112042D01*
X487091Y112094D01*
X487066Y112162D01*
X487051Y112232D01*
X487024Y112277D01*
X487006Y112325D01*
X486961Y112381D01*
X486925Y112443D01*
X486885Y112477D01*
X486853Y112517D01*
X486792Y112556D01*
X486738Y112603D01*
X486689Y112622D01*
X486646Y112650D01*
X486576Y112668D01*
X486510Y112695D01*
X486438Y112703D01*
X486407Y112711D01*
X486384Y112709D01*
X486343Y112713D01*
X478048Y112713D01*
X478028Y112710D01*
X478009Y112712D01*
X477907Y112690D01*
X477805Y112674D01*
X477788Y112664D01*
X477768Y112660D01*
X477679Y112607D01*
X477588Y112558D01*
X477574Y112544D01*
X477557Y112534D01*
X477490Y112455D01*
X477418Y112380D01*
X477410Y112362D01*
X477397Y112347D01*
X477358Y112251D01*
X477315Y112157D01*
X477313Y112137D01*
X477305Y112119D01*
X477287Y111952D01*
X477287Y94053D01*
X471820Y88586D01*
X471778Y88528D01*
X471729Y88476D01*
X471707Y88429D01*
X471677Y88387D01*
X471656Y88318D01*
X471625Y88253D01*
X471620Y88201D01*
X471604Y88151D01*
X471606Y88080D01*
X471598Y88009D01*
X471609Y87958D01*
X471611Y87906D01*
X471635Y87838D01*
X471650Y87768D01*
X471677Y87723D01*
X471695Y87675D01*
X471740Y87619D01*
X471777Y87557D01*
X471816Y87523D01*
X471849Y87483D01*
X471909Y87444D01*
X471964Y87397D01*
X472012Y87378D01*
X472056Y87350D01*
X472125Y87332D01*
X472192Y87305D01*
X472263Y87297D01*
X472294Y87289D01*
X472318Y87291D01*
X472358Y87287D01*
X611952Y87287D01*
X611972Y87290D01*
X611991Y87288D01*
X612093Y87310D01*
X612195Y87326D01*
X612212Y87336D01*
X612232Y87340D01*
X612321Y87393D01*
X612412Y87442D01*
X612426Y87456D01*
X612443Y87466D01*
X612510Y87545D01*
X612582Y87620D01*
X612590Y87638D01*
X612603Y87653D01*
X612642Y87749D01*
X612685Y87843D01*
X612687Y87863D01*
X612695Y87881D01*
X612713Y88048D01*
X612713Y97039D01*
X612699Y97129D01*
X612691Y97220D01*
X612679Y97250D01*
X612674Y97282D01*
X612631Y97362D01*
X612595Y97446D01*
X612569Y97478D01*
X612558Y97499D01*
X612535Y97521D01*
X612490Y97577D01*
X611447Y98620D01*
X610055Y101981D01*
X610055Y105619D01*
X611447Y108980D01*
X614020Y111553D01*
X617381Y112945D01*
X621019Y112945D01*
X624380Y111553D01*
X626953Y108980D01*
X628345Y105619D01*
X628345Y101981D01*
X626953Y98620D01*
X624380Y96047D01*
X621019Y94655D01*
X618048Y94655D01*
X618028Y94652D01*
X618009Y94654D01*
X617907Y94632D01*
X617805Y94616D01*
X617788Y94606D01*
X617768Y94602D01*
X617679Y94549D01*
X617588Y94500D01*
X617574Y94486D01*
X617557Y94476D01*
X617490Y94397D01*
X617418Y94322D01*
X617410Y94304D01*
X617397Y94289D01*
X617358Y94193D01*
X617315Y94099D01*
X617313Y94079D01*
X617305Y94061D01*
X617287Y93894D01*
X617287Y84053D01*
X615947Y82713D01*
X471263Y82713D01*
X471172Y82699D01*
X471082Y82691D01*
X471052Y82679D01*
X471020Y82674D01*
X470939Y82631D01*
X470855Y82595D01*
X470823Y82569D01*
X470802Y82558D01*
X470780Y82535D01*
X470724Y82490D01*
X424288Y36054D01*
X424235Y35980D01*
X424175Y35910D01*
X424163Y35880D01*
X424144Y35854D01*
X424117Y35767D01*
X424083Y35682D01*
X424079Y35641D01*
X424072Y35619D01*
X424073Y35587D01*
X424065Y35516D01*
X424065Y33048D01*
X424068Y33028D01*
X424066Y33009D01*
X424088Y32907D01*
X424104Y32805D01*
X424114Y32788D01*
X424118Y32768D01*
X424171Y32679D01*
X424220Y32588D01*
X424234Y32574D01*
X424244Y32557D01*
X424323Y32490D01*
X424398Y32418D01*
X424416Y32410D01*
X424431Y32397D01*
X424527Y32358D01*
X424621Y32315D01*
X424641Y32313D01*
X424659Y32305D01*
X424826Y32287D01*
X656952Y32287D01*
X656972Y32290D01*
X656991Y32288D01*
X657093Y32310D01*
X657195Y32326D01*
X657212Y32336D01*
X657232Y32340D01*
X657321Y32393D01*
X657412Y32442D01*
X657426Y32456D01*
X657443Y32466D01*
X657510Y32545D01*
X657582Y32620D01*
X657590Y32638D01*
X657603Y32653D01*
X657642Y32749D01*
X657685Y32843D01*
X657687Y32863D01*
X657695Y32881D01*
X657713Y33048D01*
X657713Y95947D01*
X661343Y99577D01*
X661410Y99670D01*
X661481Y99765D01*
X661482Y99771D01*
X661486Y99776D01*
X661520Y99887D01*
X661557Y99999D01*
X661557Y100005D01*
X661558Y100011D01*
X661555Y100128D01*
X661554Y100245D01*
X661552Y100252D01*
X661552Y100257D01*
X661546Y100275D01*
X661508Y100406D01*
X660855Y101981D01*
X660855Y105619D01*
X662247Y108980D01*
X664820Y111553D01*
X668181Y112945D01*
X671819Y112945D01*
X675180Y111553D01*
X677753Y108980D01*
X679145Y105619D01*
X679145Y101981D01*
X677753Y98620D01*
X675180Y96047D01*
X671819Y94655D01*
X668181Y94655D01*
X664909Y96011D01*
X664796Y96037D01*
X664682Y96066D01*
X664676Y96065D01*
X664670Y96067D01*
X664553Y96056D01*
X664437Y96047D01*
X664431Y96044D01*
X664425Y96044D01*
X664318Y95996D01*
X664210Y95950D01*
X664205Y95946D01*
X664200Y95944D01*
X664186Y95931D01*
X664079Y95846D01*
X662510Y94276D01*
X662457Y94202D01*
X662397Y94132D01*
X662385Y94102D01*
X662366Y94076D01*
X662339Y93989D01*
X662305Y93904D01*
X662301Y93863D01*
X662294Y93841D01*
X662295Y93809D01*
X662287Y93737D01*
X662287Y29053D01*
X660947Y27713D01*
X114053Y27713D01*
G37*
%LPD*%
%LPC*%
G36*
X845981Y94655D02*
X845981Y94655D01*
X842620Y96047D01*
X840047Y98620D01*
X838655Y101981D01*
X838655Y105619D01*
X839190Y106911D01*
X839217Y107025D01*
X839246Y107138D01*
X839245Y107144D01*
X839247Y107150D01*
X839236Y107267D01*
X839227Y107383D01*
X839224Y107389D01*
X839224Y107395D01*
X839176Y107503D01*
X839130Y107610D01*
X839126Y107616D01*
X839124Y107620D01*
X839111Y107634D01*
X839025Y107741D01*
X734276Y212490D01*
X734202Y212543D01*
X734132Y212603D01*
X734102Y212615D01*
X734076Y212634D01*
X733989Y212661D01*
X733904Y212695D01*
X733863Y212699D01*
X733841Y212706D01*
X733809Y212705D01*
X733737Y212713D01*
X623982Y212713D01*
X623962Y212710D01*
X623943Y212712D01*
X623841Y212690D01*
X623739Y212674D01*
X623722Y212664D01*
X623702Y212660D01*
X623613Y212607D01*
X623522Y212558D01*
X623508Y212544D01*
X623491Y212534D01*
X623424Y212455D01*
X623352Y212380D01*
X623344Y212362D01*
X623331Y212347D01*
X623292Y212251D01*
X623249Y212157D01*
X623247Y212137D01*
X623239Y212119D01*
X623221Y211952D01*
X623221Y211843D01*
X618757Y207379D01*
X612443Y207379D01*
X607979Y211843D01*
X607979Y218157D01*
X612443Y222621D01*
X618757Y222621D01*
X623221Y218157D01*
X623221Y218048D01*
X623224Y218028D01*
X623222Y218009D01*
X623244Y217907D01*
X623260Y217805D01*
X623270Y217788D01*
X623274Y217768D01*
X623327Y217679D01*
X623376Y217588D01*
X623390Y217574D01*
X623400Y217557D01*
X623479Y217490D01*
X623554Y217418D01*
X623572Y217410D01*
X623587Y217397D01*
X623683Y217358D01*
X623777Y217315D01*
X623797Y217313D01*
X623815Y217305D01*
X623982Y217287D01*
X731952Y217287D01*
X731972Y217290D01*
X731991Y217288D01*
X732093Y217310D01*
X732195Y217326D01*
X732212Y217336D01*
X732232Y217340D01*
X732321Y217393D01*
X732412Y217442D01*
X732426Y217456D01*
X732443Y217466D01*
X732510Y217545D01*
X732582Y217620D01*
X732590Y217638D01*
X732603Y217653D01*
X732642Y217749D01*
X732685Y217843D01*
X732687Y217863D01*
X732695Y217881D01*
X732713Y218048D01*
X732713Y295947D01*
X740442Y303676D01*
X740484Y303734D01*
X740533Y303786D01*
X740555Y303833D01*
X740585Y303875D01*
X740606Y303944D01*
X740637Y304009D01*
X740642Y304061D01*
X740658Y304111D01*
X740656Y304182D01*
X740664Y304253D01*
X740653Y304304D01*
X740651Y304356D01*
X740627Y304424D01*
X740612Y304494D01*
X740585Y304539D01*
X740567Y304587D01*
X740522Y304643D01*
X740485Y304705D01*
X740446Y304739D01*
X740413Y304779D01*
X740353Y304818D01*
X740298Y304865D01*
X740250Y304884D01*
X740206Y304912D01*
X740137Y304930D01*
X740070Y304957D01*
X739999Y304965D01*
X739968Y304973D01*
X739944Y304971D01*
X739904Y304975D01*
X738768Y304975D01*
X737875Y305868D01*
X737875Y322932D01*
X738768Y323825D01*
X756104Y323825D01*
X756174Y323836D01*
X756246Y323838D01*
X756295Y323856D01*
X756346Y323864D01*
X756410Y323898D01*
X756477Y323923D01*
X756518Y323955D01*
X756564Y323980D01*
X756613Y324032D01*
X756669Y324076D01*
X756697Y324120D01*
X756733Y324158D01*
X756763Y324223D01*
X756802Y324283D01*
X756815Y324334D01*
X756837Y324381D01*
X756845Y324452D01*
X756862Y324522D01*
X756858Y324574D01*
X756864Y324625D01*
X756849Y324696D01*
X756843Y324767D01*
X756823Y324815D01*
X756812Y324866D01*
X756775Y324927D01*
X756747Y324993D01*
X756702Y325049D01*
X756685Y325077D01*
X756668Y325092D01*
X756642Y325124D01*
X719276Y362490D01*
X719202Y362543D01*
X719132Y362603D01*
X719102Y362615D01*
X719076Y362634D01*
X718989Y362661D01*
X718904Y362695D01*
X718863Y362699D01*
X718841Y362706D01*
X718809Y362705D01*
X718737Y362713D01*
X684380Y362713D01*
X684290Y362699D01*
X684199Y362691D01*
X684170Y362679D01*
X684138Y362674D01*
X684057Y362631D01*
X683973Y362595D01*
X683941Y362569D01*
X683920Y362558D01*
X683898Y362535D01*
X683842Y362490D01*
X683726Y362374D01*
X679431Y360595D01*
X674783Y360595D01*
X670488Y362374D01*
X667201Y365661D01*
X665422Y369956D01*
X665422Y374604D01*
X667202Y378900D01*
X667228Y379013D01*
X667257Y379127D01*
X667256Y379133D01*
X667258Y379139D01*
X667247Y379256D01*
X667238Y379372D01*
X667235Y379378D01*
X667235Y379384D01*
X667187Y379492D01*
X667141Y379599D01*
X667137Y379604D01*
X667135Y379609D01*
X667122Y379623D01*
X667037Y379730D01*
X657713Y389053D01*
X657713Y415947D01*
X659276Y417510D01*
X671556Y429790D01*
X671568Y429806D01*
X671583Y429819D01*
X671639Y429906D01*
X671700Y429990D01*
X671705Y430009D01*
X671716Y430026D01*
X671742Y430126D01*
X671772Y430225D01*
X671771Y430245D01*
X671776Y430264D01*
X671768Y430367D01*
X671766Y430471D01*
X671759Y430489D01*
X671757Y430509D01*
X671717Y430604D01*
X671681Y430702D01*
X671669Y430717D01*
X671661Y430736D01*
X671556Y430867D01*
X671279Y431143D01*
X671279Y437457D01*
X675743Y441921D01*
X682057Y441921D01*
X686521Y437457D01*
X686521Y431143D01*
X682057Y426679D01*
X675695Y426679D01*
X675667Y426700D01*
X675648Y426705D01*
X675631Y426716D01*
X675531Y426742D01*
X675432Y426772D01*
X675412Y426771D01*
X675393Y426776D01*
X675290Y426768D01*
X675186Y426766D01*
X675167Y426759D01*
X675147Y426757D01*
X675052Y426717D01*
X674955Y426681D01*
X674939Y426669D01*
X674921Y426661D01*
X674790Y426556D01*
X662510Y414276D01*
X662457Y414202D01*
X662397Y414132D01*
X662385Y414102D01*
X662366Y414076D01*
X662339Y413989D01*
X662305Y413904D01*
X662301Y413863D01*
X662294Y413841D01*
X662295Y413809D01*
X662287Y413737D01*
X662287Y391263D01*
X662288Y391253D01*
X662288Y391248D01*
X662294Y391221D01*
X662301Y391172D01*
X662309Y391082D01*
X662321Y391052D01*
X662326Y391020D01*
X662369Y390939D01*
X662405Y390855D01*
X662431Y390823D01*
X662442Y390802D01*
X662465Y390780D01*
X662510Y390724D01*
X670524Y382710D01*
X670619Y382642D01*
X670713Y382572D01*
X670719Y382570D01*
X670724Y382566D01*
X670835Y382532D01*
X670947Y382495D01*
X670953Y382495D01*
X670959Y382494D01*
X671076Y382497D01*
X671193Y382498D01*
X671200Y382500D01*
X671205Y382500D01*
X671223Y382506D01*
X671354Y382544D01*
X674783Y383965D01*
X679431Y383965D01*
X683726Y382186D01*
X687013Y378899D01*
X688792Y374604D01*
X688792Y369956D01*
X688122Y368339D01*
X688112Y368295D01*
X688092Y368253D01*
X688084Y368176D01*
X688066Y368100D01*
X688070Y368054D01*
X688065Y368009D01*
X688082Y367932D01*
X688089Y367855D01*
X688108Y367813D01*
X688117Y367768D01*
X688157Y367701D01*
X688189Y367630D01*
X688220Y367596D01*
X688244Y367557D01*
X688303Y367506D01*
X688355Y367449D01*
X688396Y367427D01*
X688431Y367397D01*
X688503Y367368D01*
X688571Y367331D01*
X688616Y367322D01*
X688659Y367305D01*
X688795Y367290D01*
X688813Y367287D01*
X688818Y367288D01*
X688825Y367287D01*
X720947Y367287D01*
X762287Y325947D01*
X762287Y317715D01*
X762302Y317619D01*
X762312Y317522D01*
X762322Y317498D01*
X762326Y317472D01*
X762372Y317386D01*
X762412Y317297D01*
X762429Y317278D01*
X762442Y317255D01*
X762512Y317188D01*
X762578Y317116D01*
X762601Y317104D01*
X762620Y317086D01*
X762708Y317045D01*
X762794Y316998D01*
X762819Y316993D01*
X762843Y316982D01*
X762940Y316971D01*
X763036Y316954D01*
X763062Y316958D01*
X763087Y316955D01*
X763183Y316976D01*
X763279Y316990D01*
X763302Y317002D01*
X763328Y317007D01*
X763411Y317057D01*
X763498Y317101D01*
X763517Y317120D01*
X763539Y317133D01*
X763602Y317207D01*
X763670Y317277D01*
X763686Y317306D01*
X763699Y317320D01*
X763711Y317351D01*
X763751Y317424D01*
X764710Y319739D01*
X767361Y322390D01*
X770825Y323825D01*
X774575Y323825D01*
X778039Y322390D01*
X780690Y319739D01*
X782125Y316275D01*
X782125Y313048D01*
X782128Y313028D01*
X782126Y313009D01*
X782148Y312907D01*
X782164Y312805D01*
X782174Y312788D01*
X782178Y312768D01*
X782231Y312679D01*
X782280Y312588D01*
X782294Y312574D01*
X782304Y312557D01*
X782383Y312490D01*
X782458Y312418D01*
X782476Y312410D01*
X782491Y312397D01*
X782587Y312358D01*
X782681Y312315D01*
X782701Y312313D01*
X782719Y312305D01*
X782886Y312287D01*
X850947Y312287D01*
X852287Y310947D01*
X852287Y264748D01*
X852305Y264634D01*
X852323Y264517D01*
X852325Y264512D01*
X852326Y264506D01*
X852381Y264403D01*
X852434Y264298D01*
X852439Y264294D01*
X852442Y264288D01*
X852526Y264208D01*
X852610Y264126D01*
X852616Y264122D01*
X852620Y264119D01*
X852637Y264111D01*
X852757Y264045D01*
X852980Y263953D01*
X855553Y261380D01*
X856945Y258019D01*
X856945Y254381D01*
X855553Y251020D01*
X852980Y248447D01*
X849619Y247055D01*
X845981Y247055D01*
X842620Y248447D01*
X840047Y251020D01*
X838655Y254381D01*
X838655Y258019D01*
X840047Y261380D01*
X842620Y263953D01*
X845981Y265345D01*
X846952Y265345D01*
X846972Y265348D01*
X846991Y265346D01*
X847093Y265368D01*
X847195Y265384D01*
X847212Y265394D01*
X847232Y265398D01*
X847321Y265451D01*
X847412Y265500D01*
X847426Y265514D01*
X847443Y265524D01*
X847510Y265603D01*
X847582Y265678D01*
X847590Y265696D01*
X847603Y265711D01*
X847642Y265807D01*
X847685Y265901D01*
X847687Y265921D01*
X847695Y265939D01*
X847713Y266106D01*
X847713Y306952D01*
X847710Y306972D01*
X847712Y306991D01*
X847690Y307093D01*
X847674Y307195D01*
X847664Y307212D01*
X847660Y307232D01*
X847607Y307321D01*
X847558Y307412D01*
X847544Y307426D01*
X847534Y307443D01*
X847455Y307510D01*
X847380Y307582D01*
X847362Y307590D01*
X847347Y307603D01*
X847251Y307642D01*
X847157Y307685D01*
X847137Y307687D01*
X847119Y307695D01*
X846952Y307713D01*
X779657Y307713D01*
X779567Y307699D01*
X779476Y307691D01*
X779446Y307679D01*
X779414Y307674D01*
X779334Y307631D01*
X779250Y307595D01*
X779218Y307569D01*
X779197Y307558D01*
X779175Y307535D01*
X779119Y307490D01*
X778039Y306410D01*
X774575Y304975D01*
X770825Y304975D01*
X767361Y306410D01*
X764710Y309061D01*
X763751Y311376D01*
X763700Y311459D01*
X763654Y311545D01*
X763635Y311563D01*
X763622Y311585D01*
X763547Y311647D01*
X763476Y311714D01*
X763452Y311725D01*
X763432Y311742D01*
X763341Y311777D01*
X763253Y311818D01*
X763227Y311821D01*
X763203Y311830D01*
X763105Y311834D01*
X763009Y311845D01*
X762983Y311839D01*
X762957Y311841D01*
X762863Y311813D01*
X762768Y311793D01*
X762746Y311779D01*
X762721Y311772D01*
X762641Y311717D01*
X762557Y311667D01*
X762540Y311647D01*
X762519Y311632D01*
X762460Y311554D01*
X762397Y311480D01*
X762387Y311455D01*
X762372Y311434D01*
X762342Y311342D01*
X762305Y311252D01*
X762302Y311219D01*
X762296Y311201D01*
X762296Y311168D01*
X762287Y311085D01*
X762287Y271263D01*
X762301Y271172D01*
X762309Y271082D01*
X762321Y271052D01*
X762326Y271020D01*
X762369Y270939D01*
X762405Y270855D01*
X762431Y270823D01*
X762442Y270802D01*
X762465Y270780D01*
X762510Y270724D01*
X768084Y265150D01*
X768178Y265082D01*
X768272Y265012D01*
X768278Y265010D01*
X768283Y265007D01*
X768394Y264973D01*
X768506Y264936D01*
X768512Y264936D01*
X768518Y264934D01*
X768635Y264937D01*
X768752Y264939D01*
X768759Y264941D01*
X768764Y264941D01*
X768782Y264947D01*
X768913Y264985D01*
X769781Y265345D01*
X773419Y265345D01*
X776780Y263953D01*
X779353Y261380D01*
X780745Y258019D01*
X780745Y254381D01*
X779353Y251020D01*
X776780Y248447D01*
X773419Y247055D01*
X769781Y247055D01*
X766420Y248447D01*
X763847Y251020D01*
X762455Y254381D01*
X762455Y258019D01*
X763847Y261380D01*
X764078Y261611D01*
X764090Y261627D01*
X764106Y261640D01*
X764162Y261727D01*
X764222Y261811D01*
X764228Y261830D01*
X764239Y261847D01*
X764264Y261947D01*
X764294Y262046D01*
X764294Y262066D01*
X764299Y262085D01*
X764291Y262188D01*
X764288Y262292D01*
X764281Y262310D01*
X764280Y262330D01*
X764239Y262425D01*
X764204Y262523D01*
X764191Y262538D01*
X764183Y262557D01*
X764078Y262688D01*
X757713Y269053D01*
X757713Y305019D01*
X757702Y305090D01*
X757700Y305162D01*
X757682Y305211D01*
X757674Y305262D01*
X757640Y305325D01*
X757615Y305393D01*
X757583Y305433D01*
X757558Y305479D01*
X757506Y305529D01*
X757462Y305585D01*
X757418Y305613D01*
X757380Y305649D01*
X757315Y305679D01*
X757255Y305718D01*
X757204Y305730D01*
X757157Y305752D01*
X757086Y305760D01*
X757016Y305778D01*
X756964Y305774D01*
X756913Y305779D01*
X756842Y305764D01*
X756771Y305759D01*
X756723Y305738D01*
X756672Y305727D01*
X756611Y305690D01*
X756545Y305662D01*
X756489Y305617D01*
X756461Y305601D01*
X756446Y305583D01*
X756414Y305557D01*
X755832Y304975D01*
X748048Y304975D01*
X748028Y304972D01*
X748009Y304974D01*
X747907Y304952D01*
X747805Y304936D01*
X747788Y304926D01*
X747768Y304922D01*
X747679Y304869D01*
X747588Y304820D01*
X747574Y304806D01*
X747557Y304796D01*
X747490Y304717D01*
X747418Y304642D01*
X747410Y304624D01*
X747397Y304609D01*
X747358Y304513D01*
X747315Y304419D01*
X747313Y304399D01*
X747305Y304381D01*
X747287Y304214D01*
X747287Y304053D01*
X737510Y294276D01*
X737457Y294202D01*
X737397Y294132D01*
X737385Y294102D01*
X737366Y294076D01*
X737339Y293989D01*
X737305Y293904D01*
X737301Y293863D01*
X737294Y293841D01*
X737295Y293809D01*
X737287Y293737D01*
X737287Y262057D01*
X737298Y261986D01*
X737300Y261915D01*
X737318Y261866D01*
X737326Y261814D01*
X737360Y261751D01*
X737385Y261684D01*
X737417Y261643D01*
X737442Y261597D01*
X737494Y261548D01*
X737538Y261492D01*
X737582Y261463D01*
X737620Y261428D01*
X737685Y261397D01*
X737745Y261359D01*
X737796Y261346D01*
X737843Y261324D01*
X737914Y261316D01*
X737984Y261299D01*
X738036Y261303D01*
X738087Y261297D01*
X738158Y261312D01*
X738229Y261318D01*
X738277Y261338D01*
X738328Y261349D01*
X738389Y261386D01*
X738455Y261414D01*
X738511Y261459D01*
X738539Y261475D01*
X738554Y261493D01*
X738586Y261519D01*
X741020Y263953D01*
X744381Y265345D01*
X748019Y265345D01*
X751380Y263953D01*
X753953Y261380D01*
X755345Y258019D01*
X755345Y254381D01*
X753953Y251020D01*
X751380Y248447D01*
X748019Y247055D01*
X744381Y247055D01*
X741020Y248447D01*
X738586Y250881D01*
X738528Y250923D01*
X738476Y250972D01*
X738429Y250994D01*
X738387Y251025D01*
X738318Y251046D01*
X738253Y251076D01*
X738201Y251082D01*
X738151Y251097D01*
X738080Y251095D01*
X738009Y251103D01*
X737958Y251092D01*
X737906Y251091D01*
X737838Y251066D01*
X737768Y251051D01*
X737723Y251024D01*
X737675Y251006D01*
X737619Y250961D01*
X737557Y250925D01*
X737523Y250885D01*
X737483Y250853D01*
X737444Y250792D01*
X737397Y250738D01*
X737378Y250689D01*
X737350Y250646D01*
X737332Y250576D01*
X737305Y250510D01*
X737297Y250438D01*
X737289Y250407D01*
X737291Y250384D01*
X737287Y250343D01*
X737287Y216263D01*
X737301Y216172D01*
X737309Y216082D01*
X737321Y216052D01*
X737326Y216020D01*
X737369Y215939D01*
X737405Y215855D01*
X737431Y215823D01*
X737442Y215802D01*
X737465Y215780D01*
X737510Y215724D01*
X841612Y111622D01*
X841629Y111610D01*
X841641Y111594D01*
X841729Y111538D01*
X841812Y111478D01*
X841831Y111472D01*
X841848Y111461D01*
X841949Y111436D01*
X842047Y111406D01*
X842067Y111406D01*
X842087Y111401D01*
X842190Y111409D01*
X842293Y111412D01*
X842312Y111419D01*
X842332Y111420D01*
X842427Y111461D01*
X842524Y111496D01*
X842540Y111509D01*
X842558Y111517D01*
X842584Y111538D01*
X845981Y112945D01*
X849619Y112945D01*
X852980Y111553D01*
X855553Y108980D01*
X856945Y105619D01*
X856945Y101981D01*
X855553Y98620D01*
X852980Y96047D01*
X849619Y94655D01*
X845981Y94655D01*
G37*
%LPD*%
%LPC*%
G36*
X331623Y45325D02*
X331623Y45325D01*
X328030Y46813D01*
X325280Y49563D01*
X323792Y53156D01*
X323792Y53904D01*
X323789Y53924D01*
X323791Y53943D01*
X323769Y54045D01*
X323753Y54147D01*
X323743Y54164D01*
X323739Y54184D01*
X323686Y54273D01*
X323637Y54364D01*
X323623Y54378D01*
X323613Y54395D01*
X323534Y54462D01*
X323459Y54534D01*
X323441Y54542D01*
X323426Y54555D01*
X323330Y54594D01*
X323236Y54637D01*
X323216Y54639D01*
X323198Y54647D01*
X323031Y54665D01*
X283939Y54665D01*
X281978Y55477D01*
X260477Y76978D01*
X259665Y78939D01*
X259665Y102475D01*
X259651Y102565D01*
X259643Y102656D01*
X259631Y102686D01*
X259626Y102718D01*
X259583Y102798D01*
X259547Y102882D01*
X259521Y102914D01*
X259510Y102935D01*
X259487Y102957D01*
X259442Y103013D01*
X231021Y131434D01*
X230927Y131502D01*
X230832Y131572D01*
X230826Y131574D01*
X230821Y131578D01*
X230711Y131612D01*
X230599Y131649D01*
X230592Y131649D01*
X230586Y131650D01*
X230470Y131647D01*
X230353Y131646D01*
X230345Y131644D01*
X230340Y131644D01*
X230323Y131638D01*
X230191Y131600D01*
X229119Y131155D01*
X225481Y131155D01*
X222120Y132547D01*
X219547Y135120D01*
X218155Y138481D01*
X218155Y142119D01*
X219547Y145480D01*
X222120Y148053D01*
X225481Y149445D01*
X229119Y149445D01*
X232480Y148053D01*
X235053Y145480D01*
X236445Y142119D01*
X236445Y141415D01*
X236459Y141325D01*
X236467Y141234D01*
X236479Y141204D01*
X236484Y141172D01*
X236527Y141092D01*
X236563Y141008D01*
X236589Y140976D01*
X236600Y140955D01*
X236623Y140933D01*
X236668Y140877D01*
X267915Y109630D01*
X268366Y109179D01*
X268424Y109137D01*
X268476Y109087D01*
X268523Y109066D01*
X268565Y109035D01*
X268634Y109014D01*
X268699Y108984D01*
X268751Y108978D01*
X268801Y108963D01*
X268872Y108965D01*
X268943Y108957D01*
X268994Y108968D01*
X269046Y108969D01*
X269114Y108994D01*
X269184Y109009D01*
X269229Y109036D01*
X269277Y109054D01*
X269333Y109098D01*
X269395Y109135D01*
X269429Y109175D01*
X269469Y109207D01*
X269508Y109268D01*
X269555Y109322D01*
X269574Y109370D01*
X269602Y109414D01*
X269620Y109484D01*
X269647Y109550D01*
X269655Y109622D01*
X269663Y109653D01*
X269661Y109676D01*
X269665Y109717D01*
X269665Y117475D01*
X269651Y117565D01*
X269643Y117656D01*
X269631Y117686D01*
X269626Y117718D01*
X269583Y117798D01*
X269547Y117882D01*
X269521Y117914D01*
X269510Y117935D01*
X269487Y117957D01*
X269442Y118013D01*
X230738Y156717D01*
X230644Y156785D01*
X230550Y156855D01*
X230544Y156857D01*
X230538Y156861D01*
X230428Y156895D01*
X230316Y156931D01*
X230309Y156931D01*
X230303Y156933D01*
X230187Y156930D01*
X230070Y156929D01*
X230063Y156927D01*
X230058Y156927D01*
X230040Y156920D01*
X229909Y156882D01*
X229119Y156555D01*
X225481Y156555D01*
X222120Y157947D01*
X219547Y160520D01*
X218155Y163881D01*
X218155Y167519D01*
X219547Y170880D01*
X222120Y173453D01*
X225481Y174845D01*
X229119Y174845D01*
X232480Y173453D01*
X235053Y170880D01*
X236445Y167519D01*
X236445Y166415D01*
X236459Y166325D01*
X236467Y166234D01*
X236479Y166204D01*
X236484Y166172D01*
X236527Y166092D01*
X236563Y166008D01*
X236589Y165976D01*
X236600Y165955D01*
X236623Y165933D01*
X236668Y165877D01*
X279523Y123022D01*
X280335Y121061D01*
X280335Y87525D01*
X280336Y87515D01*
X280336Y87509D01*
X280342Y87478D01*
X280349Y87435D01*
X280357Y87344D01*
X280369Y87314D01*
X280374Y87282D01*
X280417Y87202D01*
X280453Y87118D01*
X280479Y87086D01*
X280490Y87065D01*
X280513Y87043D01*
X280558Y86987D01*
X291987Y75558D01*
X292061Y75505D01*
X292130Y75445D01*
X292160Y75433D01*
X292187Y75414D01*
X292273Y75387D01*
X292358Y75353D01*
X292399Y75349D01*
X292422Y75342D01*
X292454Y75343D01*
X292525Y75335D01*
X356061Y75335D01*
X358022Y74523D01*
X359523Y73022D01*
X360335Y71061D01*
X360335Y65457D01*
X360337Y65443D01*
X360336Y65433D01*
X360348Y65378D01*
X360354Y65342D01*
X360371Y65226D01*
X360373Y65220D01*
X360374Y65214D01*
X360429Y65111D01*
X360482Y65006D01*
X360487Y65002D01*
X360490Y64996D01*
X360574Y64917D01*
X360658Y64834D01*
X360664Y64830D01*
X360668Y64827D01*
X360685Y64819D01*
X360805Y64753D01*
X364104Y63387D01*
X366854Y60637D01*
X368342Y57044D01*
X368342Y53156D01*
X366854Y49563D01*
X364104Y46813D01*
X360511Y45325D01*
X356623Y45325D01*
X353030Y46813D01*
X350280Y49563D01*
X348792Y53156D01*
X348792Y57044D01*
X349603Y59002D01*
X349610Y59033D01*
X349625Y59062D01*
X349638Y59152D01*
X349659Y59241D01*
X349656Y59273D01*
X349661Y59305D01*
X349640Y59472D01*
X349565Y59781D01*
X349656Y60359D01*
X349656Y60392D01*
X349665Y60477D01*
X349665Y63904D01*
X349662Y63924D01*
X349664Y63943D01*
X349642Y64045D01*
X349626Y64147D01*
X349616Y64164D01*
X349612Y64184D01*
X349559Y64273D01*
X349510Y64364D01*
X349496Y64378D01*
X349486Y64395D01*
X349407Y64462D01*
X349332Y64534D01*
X349314Y64542D01*
X349299Y64555D01*
X349203Y64594D01*
X349109Y64637D01*
X349089Y64639D01*
X349071Y64647D01*
X348904Y64665D01*
X339663Y64665D01*
X339592Y64654D01*
X339521Y64652D01*
X339472Y64634D01*
X339420Y64626D01*
X339357Y64592D01*
X339290Y64567D01*
X339249Y64535D01*
X339203Y64510D01*
X339154Y64458D01*
X339098Y64414D01*
X339069Y64370D01*
X339034Y64332D01*
X339003Y64267D01*
X338965Y64207D01*
X338952Y64156D01*
X338930Y64109D01*
X338922Y64038D01*
X338905Y63968D01*
X338909Y63916D01*
X338903Y63865D01*
X338918Y63794D01*
X338924Y63723D01*
X338944Y63675D01*
X338955Y63624D01*
X338992Y63563D01*
X339020Y63497D01*
X339065Y63441D01*
X339081Y63413D01*
X339099Y63398D01*
X339125Y63366D01*
X341854Y60637D01*
X343342Y57044D01*
X343342Y53156D01*
X341854Y49563D01*
X339104Y46813D01*
X335511Y45325D01*
X331623Y45325D01*
G37*
%LPD*%
%LPC*%
G36*
X563316Y235935D02*
X563316Y235935D01*
X560935Y238316D01*
X560935Y240515D01*
X560921Y240606D01*
X560913Y240696D01*
X560901Y240726D01*
X560896Y240758D01*
X560853Y240839D01*
X560817Y240923D01*
X560791Y240955D01*
X560780Y240976D01*
X560757Y240998D01*
X560712Y241054D01*
X552713Y249053D01*
X552713Y251927D01*
X552698Y252023D01*
X552688Y252120D01*
X552678Y252144D01*
X552674Y252169D01*
X552628Y252255D01*
X552588Y252344D01*
X552571Y252364D01*
X552558Y252387D01*
X552488Y252454D01*
X552422Y252525D01*
X552399Y252538D01*
X552380Y252556D01*
X552292Y252597D01*
X552206Y252644D01*
X552181Y252649D01*
X552157Y252660D01*
X552060Y252670D01*
X551964Y252688D01*
X551938Y252684D01*
X551913Y252687D01*
X551817Y252666D01*
X551721Y252652D01*
X551698Y252640D01*
X551672Y252635D01*
X551589Y252585D01*
X551502Y252540D01*
X551483Y252522D01*
X551461Y252508D01*
X551398Y252434D01*
X551330Y252365D01*
X551314Y252336D01*
X551301Y252321D01*
X551289Y252291D01*
X551249Y252218D01*
X550753Y251020D01*
X548180Y248447D01*
X544819Y247055D01*
X541181Y247055D01*
X537820Y248447D01*
X535247Y251020D01*
X533855Y254381D01*
X533855Y258019D01*
X535247Y261380D01*
X537820Y263953D01*
X541181Y265345D01*
X544584Y265345D01*
X544654Y265356D01*
X544726Y265358D01*
X544775Y265376D01*
X544826Y265384D01*
X544890Y265418D01*
X544957Y265443D01*
X544998Y265475D01*
X545044Y265500D01*
X545093Y265552D01*
X545149Y265596D01*
X545177Y265640D01*
X545213Y265678D01*
X545243Y265743D01*
X545282Y265803D01*
X545295Y265854D01*
X545317Y265901D01*
X545325Y265972D01*
X545342Y266042D01*
X545338Y266094D01*
X545344Y266145D01*
X545329Y266216D01*
X545323Y266287D01*
X545303Y266335D01*
X545292Y266386D01*
X545255Y266447D01*
X545227Y266513D01*
X545182Y266569D01*
X545165Y266597D01*
X545148Y266612D01*
X545122Y266644D01*
X455538Y356228D01*
X455522Y356239D01*
X455510Y356255D01*
X455422Y356311D01*
X455339Y356371D01*
X455320Y356377D01*
X455303Y356388D01*
X455202Y356413D01*
X455103Y356444D01*
X455084Y356443D01*
X455064Y356448D01*
X454961Y356440D01*
X454858Y356437D01*
X454839Y356430D01*
X454819Y356429D01*
X454724Y356388D01*
X454627Y356353D01*
X454611Y356340D01*
X454593Y356333D01*
X454462Y356228D01*
X452510Y354276D01*
X450947Y352713D01*
X389053Y352713D01*
X387713Y354053D01*
X387713Y359834D01*
X387710Y359854D01*
X387712Y359873D01*
X387690Y359975D01*
X387674Y360077D01*
X387664Y360094D01*
X387660Y360114D01*
X387607Y360203D01*
X387558Y360294D01*
X387544Y360308D01*
X387534Y360325D01*
X387455Y360392D01*
X387380Y360464D01*
X387362Y360472D01*
X387347Y360485D01*
X387251Y360524D01*
X387157Y360567D01*
X387137Y360569D01*
X387119Y360577D01*
X386952Y360595D01*
X385189Y360595D01*
X380894Y362374D01*
X377607Y365661D01*
X375828Y369956D01*
X375828Y374604D01*
X377607Y378899D01*
X380894Y382186D01*
X385189Y383965D01*
X389837Y383965D01*
X394132Y382186D01*
X397419Y378899D01*
X399198Y374604D01*
X399198Y369956D01*
X397419Y365661D01*
X394132Y362374D01*
X392757Y361805D01*
X392657Y361743D01*
X392557Y361683D01*
X392553Y361678D01*
X392548Y361675D01*
X392473Y361585D01*
X392397Y361496D01*
X392395Y361490D01*
X392391Y361485D01*
X392349Y361377D01*
X392305Y361268D01*
X392304Y361260D01*
X392303Y361256D01*
X392302Y361238D01*
X392287Y361101D01*
X392287Y358048D01*
X392290Y358028D01*
X392288Y358009D01*
X392310Y357907D01*
X392326Y357805D01*
X392336Y357788D01*
X392340Y357768D01*
X392393Y357679D01*
X392442Y357588D01*
X392456Y357574D01*
X392466Y357557D01*
X392545Y357490D01*
X392620Y357418D01*
X392638Y357410D01*
X392653Y357397D01*
X392749Y357358D01*
X392843Y357315D01*
X392863Y357313D01*
X392881Y357305D01*
X393048Y357287D01*
X448737Y357287D01*
X448828Y357301D01*
X448918Y357309D01*
X448948Y357321D01*
X448980Y357326D01*
X449061Y357369D01*
X449145Y357405D01*
X449177Y357431D01*
X449198Y357442D01*
X449220Y357465D01*
X449276Y357510D01*
X452490Y360724D01*
X452912Y361145D01*
X452968Y361224D01*
X453030Y361300D01*
X453040Y361324D01*
X453055Y361345D01*
X453084Y361438D01*
X453119Y361529D01*
X453120Y361555D01*
X453127Y361580D01*
X453125Y361678D01*
X453129Y361775D01*
X453122Y361800D01*
X453121Y361826D01*
X453088Y361918D01*
X453061Y362011D01*
X453046Y362033D01*
X453037Y362057D01*
X452976Y362133D01*
X452920Y362213D01*
X452899Y362229D01*
X452883Y362249D01*
X452801Y362302D01*
X452723Y362360D01*
X452698Y362368D01*
X452676Y362382D01*
X452582Y362406D01*
X452489Y362436D01*
X452463Y362436D01*
X452438Y362442D01*
X452340Y362435D01*
X452243Y362434D01*
X452212Y362425D01*
X452192Y362423D01*
X452162Y362410D01*
X452082Y362387D01*
X447756Y360595D01*
X443108Y360595D01*
X438813Y362374D01*
X435526Y365661D01*
X433747Y369956D01*
X433747Y374604D01*
X435526Y378899D01*
X438813Y382186D01*
X443108Y383965D01*
X447756Y383965D01*
X449390Y383288D01*
X449503Y383262D01*
X449617Y383233D01*
X449623Y383233D01*
X449629Y383232D01*
X449746Y383243D01*
X449862Y383252D01*
X449868Y383254D01*
X449874Y383255D01*
X449982Y383303D01*
X450088Y383348D01*
X450094Y383353D01*
X450099Y383355D01*
X450112Y383368D01*
X450219Y383453D01*
X462490Y395724D01*
X462543Y395798D01*
X462603Y395868D01*
X462615Y395898D01*
X462634Y395924D01*
X462661Y396011D01*
X462695Y396096D01*
X462699Y396137D01*
X462706Y396159D01*
X462705Y396191D01*
X462713Y396263D01*
X462713Y495947D01*
X464276Y497510D01*
X472723Y505957D01*
X472734Y505973D01*
X472750Y505985D01*
X472806Y506072D01*
X472866Y506156D01*
X472872Y506175D01*
X472883Y506192D01*
X472908Y506292D01*
X472939Y506391D01*
X472938Y506411D01*
X472943Y506431D01*
X472935Y506534D01*
X472932Y506637D01*
X472925Y506656D01*
X472924Y506676D01*
X472883Y506771D01*
X472848Y506868D01*
X472835Y506884D01*
X472827Y506902D01*
X472723Y507033D01*
X472412Y507343D01*
X472412Y513657D01*
X476876Y518121D01*
X483190Y518121D01*
X487654Y513657D01*
X487654Y507343D01*
X483190Y502879D01*
X476803Y502879D01*
X476798Y502883D01*
X476697Y502908D01*
X476598Y502938D01*
X476578Y502938D01*
X476559Y502943D01*
X476456Y502935D01*
X476353Y502932D01*
X476334Y502925D01*
X476314Y502924D01*
X476219Y502883D01*
X476122Y502848D01*
X476106Y502835D01*
X476087Y502827D01*
X475957Y502723D01*
X467510Y494276D01*
X467457Y494202D01*
X467397Y494132D01*
X467385Y494102D01*
X467366Y494076D01*
X467339Y493989D01*
X467305Y493904D01*
X467301Y493863D01*
X467294Y493841D01*
X467295Y493809D01*
X467287Y493737D01*
X467287Y422358D01*
X467298Y422288D01*
X467300Y422216D01*
X467318Y422167D01*
X467326Y422116D01*
X467360Y422052D01*
X467385Y421985D01*
X467417Y421944D01*
X467442Y421898D01*
X467494Y421849D01*
X467538Y421793D01*
X467582Y421765D01*
X467620Y421729D01*
X467685Y421699D01*
X467745Y421660D01*
X467796Y421647D01*
X467843Y421625D01*
X467914Y421617D01*
X467984Y421600D01*
X468036Y421604D01*
X468087Y421598D01*
X468158Y421613D01*
X468229Y421619D01*
X468277Y421639D01*
X468328Y421650D01*
X468389Y421687D01*
X468455Y421715D01*
X468511Y421760D01*
X468539Y421777D01*
X468554Y421794D01*
X468586Y421820D01*
X469276Y422510D01*
X474623Y427857D01*
X474634Y427873D01*
X474650Y427885D01*
X474706Y427972D01*
X474766Y428056D01*
X474772Y428075D01*
X474783Y428092D01*
X474808Y428193D01*
X474839Y428291D01*
X474838Y428311D01*
X474843Y428331D01*
X474835Y428433D01*
X474832Y428537D01*
X474825Y428556D01*
X474824Y428576D01*
X474783Y428671D01*
X474748Y428768D01*
X474735Y428784D01*
X474727Y428802D01*
X474623Y428933D01*
X472412Y431143D01*
X472412Y437457D01*
X476876Y441921D01*
X483190Y441921D01*
X487654Y437457D01*
X487654Y431143D01*
X483190Y426679D01*
X480228Y426679D01*
X480138Y426665D01*
X480047Y426657D01*
X480018Y426645D01*
X479986Y426640D01*
X479905Y426597D01*
X479821Y426561D01*
X479789Y426535D01*
X479768Y426524D01*
X479746Y426501D01*
X479690Y426456D01*
X472510Y419276D01*
X472457Y419202D01*
X472397Y419132D01*
X472385Y419102D01*
X472366Y419076D01*
X472339Y418989D01*
X472305Y418904D01*
X472301Y418863D01*
X472294Y418841D01*
X472295Y418809D01*
X472287Y418737D01*
X472287Y374053D01*
X458772Y360538D01*
X458761Y360522D01*
X458745Y360510D01*
X458689Y360422D01*
X458629Y360339D01*
X458623Y360320D01*
X458612Y360303D01*
X458587Y360202D01*
X458556Y360103D01*
X458557Y360084D01*
X458552Y360064D01*
X458560Y359961D01*
X458563Y359858D01*
X458570Y359839D01*
X458571Y359819D01*
X458611Y359724D01*
X458647Y359627D01*
X458660Y359611D01*
X458667Y359593D01*
X458772Y359462D01*
X557287Y260947D01*
X557287Y251263D01*
X557301Y251172D01*
X557309Y251082D01*
X557321Y251052D01*
X557326Y251020D01*
X557369Y250939D01*
X557405Y250855D01*
X557431Y250823D01*
X557442Y250802D01*
X557465Y250780D01*
X557510Y250724D01*
X563946Y244288D01*
X564020Y244235D01*
X564090Y244175D01*
X564120Y244163D01*
X564146Y244144D01*
X564233Y244117D01*
X564318Y244083D01*
X564359Y244079D01*
X564381Y244072D01*
X564413Y244073D01*
X564485Y244065D01*
X566684Y244065D01*
X569065Y241684D01*
X569065Y238316D01*
X566684Y235935D01*
X563316Y235935D01*
G37*
%LPD*%
%LPC*%
G36*
X566581Y247055D02*
X566581Y247055D01*
X563220Y248447D01*
X560647Y251020D01*
X559255Y254381D01*
X559255Y258019D01*
X560061Y259963D01*
X560087Y260077D01*
X560116Y260190D01*
X560115Y260197D01*
X560117Y260203D01*
X560106Y260319D01*
X560097Y260436D01*
X560094Y260441D01*
X560094Y260448D01*
X560046Y260555D01*
X560000Y260662D01*
X559996Y260668D01*
X559994Y260672D01*
X559981Y260686D01*
X559896Y260793D01*
X543960Y276728D01*
X541951Y278737D01*
X541951Y353422D01*
X541937Y353512D01*
X541929Y353603D01*
X541917Y353633D01*
X541912Y353665D01*
X541869Y353745D01*
X541833Y353829D01*
X541807Y353861D01*
X541796Y353882D01*
X541773Y353904D01*
X541728Y353960D01*
X514310Y381379D01*
X514258Y381416D01*
X514212Y381461D01*
X514158Y381488D01*
X514110Y381522D01*
X514049Y381541D01*
X513991Y381569D01*
X513932Y381577D01*
X513875Y381595D01*
X513811Y381593D01*
X513748Y381601D01*
X513689Y381590D01*
X513629Y381588D01*
X513569Y381566D01*
X513506Y381554D01*
X513454Y381525D01*
X513398Y381504D01*
X513348Y381464D01*
X513292Y381432D01*
X513253Y381388D01*
X513206Y381350D01*
X513171Y381296D01*
X513129Y381249D01*
X513105Y381194D01*
X513073Y381143D01*
X513057Y381081D01*
X513032Y381023D01*
X513027Y380963D01*
X513013Y380905D01*
X513018Y380841D01*
X513013Y380777D01*
X513027Y380719D01*
X513032Y380660D01*
X513057Y380601D01*
X513072Y380539D01*
X513115Y380464D01*
X513128Y380433D01*
X513143Y380414D01*
X513155Y380393D01*
X514214Y378937D01*
X515121Y377155D01*
X515739Y375254D01*
X515969Y373803D01*
X504874Y373803D01*
X504874Y384898D01*
X506325Y384668D01*
X508226Y384050D01*
X510008Y383143D01*
X511464Y382084D01*
X511521Y382056D01*
X511573Y382018D01*
X511630Y382001D01*
X511684Y381974D01*
X511747Y381965D01*
X511808Y381946D01*
X511868Y381948D01*
X511927Y381939D01*
X511990Y381951D01*
X512054Y381952D01*
X512110Y381973D01*
X512169Y381984D01*
X512225Y382015D01*
X512285Y382037D01*
X512332Y382074D01*
X512384Y382103D01*
X512427Y382151D01*
X512477Y382191D01*
X512509Y382241D01*
X512550Y382285D01*
X512575Y382344D01*
X512610Y382398D01*
X512625Y382456D01*
X512649Y382510D01*
X512655Y382574D01*
X512670Y382636D01*
X512665Y382696D01*
X512671Y382755D01*
X512656Y382818D01*
X512651Y382881D01*
X512628Y382936D01*
X512614Y382995D01*
X512580Y383049D01*
X512555Y383108D01*
X512501Y383175D01*
X512483Y383203D01*
X512465Y383220D01*
X512450Y383239D01*
X507080Y388608D01*
X506985Y388677D01*
X506891Y388746D01*
X506885Y388748D01*
X506880Y388752D01*
X506769Y388786D01*
X506657Y388823D01*
X506651Y388823D01*
X506645Y388824D01*
X506528Y388821D01*
X506411Y388820D01*
X506404Y388818D01*
X506399Y388818D01*
X506382Y388812D01*
X506250Y388773D01*
X505675Y388535D01*
X501027Y388535D01*
X496732Y390314D01*
X493445Y393601D01*
X491666Y397896D01*
X491666Y402544D01*
X493445Y406839D01*
X496732Y410126D01*
X501027Y411905D01*
X505675Y411905D01*
X509970Y410126D01*
X513257Y406839D01*
X515036Y402544D01*
X515036Y397896D01*
X513257Y393601D01*
X512522Y392866D01*
X512510Y392850D01*
X512495Y392838D01*
X512439Y392750D01*
X512378Y392667D01*
X512373Y392648D01*
X512362Y392631D01*
X512336Y392530D01*
X512306Y392431D01*
X512307Y392411D01*
X512302Y392392D01*
X512310Y392289D01*
X512312Y392186D01*
X512319Y392167D01*
X512321Y392147D01*
X512361Y392052D01*
X512397Y391955D01*
X512409Y391939D01*
X512417Y391921D01*
X512522Y391790D01*
X548049Y356263D01*
X548049Y339198D01*
X548060Y339127D01*
X548062Y339056D01*
X548080Y339007D01*
X548088Y338955D01*
X548122Y338892D01*
X548147Y338825D01*
X548179Y338784D01*
X548204Y338738D01*
X548255Y338689D01*
X548300Y338633D01*
X548344Y338604D01*
X548382Y338569D01*
X548447Y338538D01*
X548507Y338500D01*
X548558Y338487D01*
X548605Y338465D01*
X548676Y338457D01*
X548746Y338440D01*
X548798Y338444D01*
X548849Y338438D01*
X548920Y338453D01*
X548991Y338459D01*
X549039Y338479D01*
X549090Y338490D01*
X549151Y338527D01*
X549217Y338555D01*
X549273Y338600D01*
X549301Y338616D01*
X549316Y338634D01*
X549348Y338660D01*
X607460Y396772D01*
X607528Y396866D01*
X607598Y396960D01*
X607600Y396966D01*
X607604Y396972D01*
X607638Y397083D01*
X607674Y397194D01*
X607674Y397201D01*
X607676Y397207D01*
X607673Y397323D01*
X607672Y397440D01*
X607670Y397447D01*
X607670Y397452D01*
X607663Y397470D01*
X607625Y397601D01*
X607503Y397896D01*
X607503Y402544D01*
X609282Y406839D01*
X612569Y410126D01*
X616481Y411746D01*
X616581Y411808D01*
X616681Y411868D01*
X616685Y411873D01*
X616690Y411876D01*
X616765Y411966D01*
X616841Y412055D01*
X616843Y412061D01*
X616847Y412065D01*
X616889Y412174D01*
X616933Y412283D01*
X616934Y412290D01*
X616935Y412295D01*
X616936Y412313D01*
X616951Y412450D01*
X616951Y436263D01*
X618960Y438272D01*
X620023Y439334D01*
X620034Y439351D01*
X620050Y439363D01*
X620106Y439450D01*
X620166Y439534D01*
X620172Y439553D01*
X620183Y439570D01*
X620208Y439670D01*
X620239Y439769D01*
X620238Y439789D01*
X620243Y439808D01*
X620235Y439911D01*
X620232Y440015D01*
X620226Y440034D01*
X620224Y440054D01*
X620184Y440149D01*
X620148Y440246D01*
X620135Y440262D01*
X620128Y440280D01*
X620023Y440411D01*
X619899Y440535D01*
X618833Y443108D01*
X618833Y445892D01*
X619899Y448465D01*
X621868Y450434D01*
X624441Y451500D01*
X627225Y451500D01*
X629798Y450434D01*
X631767Y448465D01*
X632833Y445892D01*
X632833Y443108D01*
X631767Y440535D01*
X629798Y438566D01*
X627225Y437500D01*
X627127Y437500D01*
X627037Y437486D01*
X626946Y437478D01*
X626916Y437466D01*
X626884Y437461D01*
X626804Y437418D01*
X626720Y437382D01*
X626688Y437356D01*
X626667Y437345D01*
X626645Y437322D01*
X626589Y437277D01*
X623272Y433960D01*
X623219Y433886D01*
X623159Y433817D01*
X623147Y433787D01*
X623128Y433760D01*
X623101Y433673D01*
X623067Y433589D01*
X623063Y433548D01*
X623056Y433525D01*
X623057Y433493D01*
X623049Y433422D01*
X623049Y411777D01*
X623068Y411662D01*
X623085Y411546D01*
X623087Y411540D01*
X623088Y411534D01*
X623143Y411432D01*
X623196Y411327D01*
X623201Y411322D01*
X623204Y411317D01*
X623288Y411237D01*
X623372Y411155D01*
X623378Y411151D01*
X623382Y411147D01*
X623399Y411140D01*
X623519Y411074D01*
X625807Y410126D01*
X629094Y406839D01*
X630873Y402544D01*
X630873Y397896D01*
X629094Y393601D01*
X625807Y390314D01*
X621512Y388535D01*
X616864Y388535D01*
X612569Y390314D01*
X611636Y391248D01*
X611620Y391259D01*
X611607Y391275D01*
X611520Y391331D01*
X611436Y391391D01*
X611417Y391397D01*
X611400Y391408D01*
X611300Y391433D01*
X611201Y391463D01*
X611181Y391463D01*
X611162Y391468D01*
X611059Y391460D01*
X610955Y391457D01*
X610936Y391450D01*
X610916Y391449D01*
X610822Y391408D01*
X610724Y391373D01*
X610708Y391360D01*
X610690Y391352D01*
X610559Y391248D01*
X548272Y328960D01*
X548219Y328886D01*
X548159Y328817D01*
X548147Y328787D01*
X548128Y328760D01*
X548101Y328673D01*
X548067Y328589D01*
X548063Y328548D01*
X548056Y328525D01*
X548057Y328493D01*
X548049Y328422D01*
X548049Y281578D01*
X548063Y281488D01*
X548071Y281397D01*
X548083Y281367D01*
X548088Y281335D01*
X548131Y281255D01*
X548167Y281171D01*
X548193Y281139D01*
X548204Y281118D01*
X548227Y281096D01*
X548272Y281040D01*
X564373Y264939D01*
X564467Y264871D01*
X564561Y264801D01*
X564568Y264799D01*
X564573Y264795D01*
X564683Y264761D01*
X564795Y264725D01*
X564802Y264725D01*
X564808Y264723D01*
X564924Y264726D01*
X565041Y264727D01*
X565049Y264729D01*
X565054Y264729D01*
X565071Y264736D01*
X565202Y264774D01*
X566581Y265345D01*
X570219Y265345D01*
X573580Y263953D01*
X576153Y261380D01*
X577545Y258019D01*
X577545Y254381D01*
X576153Y251020D01*
X573580Y248447D01*
X570219Y247055D01*
X566581Y247055D01*
G37*
%LPD*%
%LPC*%
G36*
X293481Y131155D02*
X293481Y131155D01*
X290120Y132547D01*
X287547Y135120D01*
X286155Y138481D01*
X286155Y142119D01*
X287547Y145480D01*
X290120Y148053D01*
X293481Y149445D01*
X297119Y149445D01*
X298780Y148757D01*
X298894Y148730D01*
X299007Y148701D01*
X299014Y148702D01*
X299020Y148700D01*
X299136Y148711D01*
X299253Y148720D01*
X299258Y148723D01*
X299265Y148723D01*
X299372Y148771D01*
X299479Y148817D01*
X299485Y148821D01*
X299489Y148823D01*
X299503Y148836D01*
X299610Y148922D01*
X346728Y196040D01*
X346781Y196114D01*
X346841Y196183D01*
X346853Y196213D01*
X346872Y196240D01*
X346899Y196327D01*
X346933Y196411D01*
X346937Y196452D01*
X346944Y196475D01*
X346943Y196507D01*
X346951Y196578D01*
X346951Y383422D01*
X346937Y383512D01*
X346929Y383603D01*
X346917Y383633D01*
X346912Y383665D01*
X346869Y383745D01*
X346833Y383829D01*
X346807Y383861D01*
X346796Y383882D01*
X346773Y383904D01*
X346728Y383960D01*
X338832Y391857D01*
X338816Y391868D01*
X338803Y391884D01*
X338722Y391936D01*
X338720Y391938D01*
X338718Y391938D01*
X338716Y391940D01*
X338632Y392000D01*
X338613Y392006D01*
X338596Y392017D01*
X338496Y392042D01*
X338397Y392072D01*
X338377Y392072D01*
X338358Y392077D01*
X338255Y392069D01*
X338151Y392066D01*
X338132Y392059D01*
X338113Y392058D01*
X338018Y392017D01*
X337920Y391982D01*
X337904Y391969D01*
X337886Y391961D01*
X337755Y391857D01*
X336213Y390314D01*
X331918Y388535D01*
X327270Y388535D01*
X322975Y390314D01*
X319688Y393601D01*
X317909Y397896D01*
X317909Y402544D01*
X319688Y406839D01*
X322975Y410126D01*
X327270Y411905D01*
X331918Y411905D01*
X336213Y410126D01*
X339500Y406839D01*
X341279Y402544D01*
X341279Y398348D01*
X341293Y398258D01*
X341301Y398167D01*
X341313Y398137D01*
X341318Y398105D01*
X341361Y398025D01*
X341397Y397941D01*
X341423Y397909D01*
X341434Y397888D01*
X341457Y397866D01*
X341502Y397810D01*
X353049Y386263D01*
X353049Y193737D01*
X303922Y144610D01*
X303854Y144516D01*
X303784Y144421D01*
X303782Y144415D01*
X303778Y144410D01*
X303744Y144299D01*
X303707Y144187D01*
X303708Y144181D01*
X303706Y144175D01*
X303709Y144058D01*
X303710Y143941D01*
X303712Y143934D01*
X303712Y143929D01*
X303718Y143912D01*
X303757Y143780D01*
X304445Y142119D01*
X304445Y138481D01*
X303053Y135120D01*
X300480Y132547D01*
X297119Y131155D01*
X293481Y131155D01*
G37*
%LPD*%
%LPC*%
G36*
X49356Y226775D02*
X49356Y226775D01*
X45763Y228263D01*
X43013Y231013D01*
X41525Y234606D01*
X41525Y238494D01*
X43013Y242087D01*
X45763Y244837D01*
X49356Y246325D01*
X53244Y246325D01*
X56837Y244837D01*
X59587Y242087D01*
X61075Y238494D01*
X61075Y238048D01*
X61078Y238028D01*
X61076Y238009D01*
X61098Y237907D01*
X61114Y237805D01*
X61124Y237788D01*
X61128Y237768D01*
X61181Y237679D01*
X61230Y237588D01*
X61244Y237574D01*
X61254Y237557D01*
X61333Y237490D01*
X61408Y237418D01*
X61426Y237410D01*
X61441Y237397D01*
X61537Y237358D01*
X61631Y237315D01*
X61651Y237313D01*
X61669Y237305D01*
X61836Y237287D01*
X81952Y237287D01*
X81972Y237290D01*
X81991Y237288D01*
X82093Y237310D01*
X82195Y237326D01*
X82212Y237336D01*
X82232Y237340D01*
X82321Y237393D01*
X82412Y237442D01*
X82426Y237456D01*
X82443Y237466D01*
X82510Y237545D01*
X82582Y237620D01*
X82590Y237638D01*
X82603Y237653D01*
X82642Y237749D01*
X82685Y237843D01*
X82687Y237863D01*
X82695Y237881D01*
X82713Y238048D01*
X82713Y257642D01*
X82702Y257712D01*
X82700Y257784D01*
X82682Y257833D01*
X82674Y257884D01*
X82640Y257948D01*
X82615Y258015D01*
X82583Y258056D01*
X82558Y258102D01*
X82506Y258151D01*
X82462Y258207D01*
X82418Y258235D01*
X82380Y258271D01*
X82315Y258301D01*
X82255Y258340D01*
X82204Y258353D01*
X82157Y258375D01*
X82086Y258383D01*
X82016Y258400D01*
X81964Y258396D01*
X81913Y258402D01*
X81842Y258387D01*
X81771Y258381D01*
X81723Y258361D01*
X81672Y258350D01*
X81611Y258313D01*
X81545Y258285D01*
X81489Y258240D01*
X81461Y258223D01*
X81446Y258206D01*
X81414Y258180D01*
X80947Y257713D01*
X60800Y257713D01*
X60685Y257694D01*
X60569Y257677D01*
X60563Y257675D01*
X60557Y257674D01*
X60454Y257619D01*
X60349Y257566D01*
X60345Y257561D01*
X60339Y257558D01*
X60260Y257474D01*
X60177Y257390D01*
X60173Y257384D01*
X60170Y257380D01*
X60162Y257363D01*
X60096Y257243D01*
X59587Y256013D01*
X56837Y253263D01*
X53244Y251775D01*
X49356Y251775D01*
X45763Y253263D01*
X43013Y256013D01*
X41525Y259606D01*
X41525Y263494D01*
X43013Y267087D01*
X45763Y269837D01*
X49356Y271325D01*
X53244Y271325D01*
X56837Y269837D01*
X59587Y267087D01*
X61075Y263494D01*
X61075Y263048D01*
X61078Y263028D01*
X61076Y263009D01*
X61098Y262907D01*
X61114Y262805D01*
X61124Y262788D01*
X61128Y262768D01*
X61181Y262679D01*
X61230Y262588D01*
X61244Y262574D01*
X61254Y262557D01*
X61333Y262490D01*
X61408Y262418D01*
X61426Y262410D01*
X61441Y262397D01*
X61537Y262358D01*
X61631Y262315D01*
X61651Y262313D01*
X61669Y262305D01*
X61836Y262287D01*
X76952Y262287D01*
X76972Y262290D01*
X76991Y262288D01*
X77093Y262310D01*
X77195Y262326D01*
X77212Y262336D01*
X77232Y262340D01*
X77321Y262393D01*
X77412Y262442D01*
X77426Y262456D01*
X77443Y262466D01*
X77510Y262545D01*
X77582Y262620D01*
X77590Y262638D01*
X77603Y262653D01*
X77642Y262749D01*
X77685Y262843D01*
X77687Y262863D01*
X77695Y262881D01*
X77713Y263048D01*
X77713Y285947D01*
X110712Y318946D01*
X110765Y319020D01*
X110825Y319090D01*
X110837Y319120D01*
X110856Y319146D01*
X110883Y319233D01*
X110917Y319318D01*
X110921Y319359D01*
X110928Y319381D01*
X110927Y319413D01*
X110935Y319485D01*
X110935Y321684D01*
X113316Y324065D01*
X116684Y324065D01*
X119065Y321684D01*
X119065Y319136D01*
X119076Y319066D01*
X119078Y318994D01*
X119096Y318945D01*
X119104Y318894D01*
X119138Y318830D01*
X119163Y318763D01*
X119195Y318722D01*
X119220Y318676D01*
X119272Y318627D01*
X119316Y318571D01*
X119360Y318543D01*
X119398Y318507D01*
X119463Y318477D01*
X119523Y318438D01*
X119574Y318425D01*
X119621Y318403D01*
X119692Y318395D01*
X119762Y318378D01*
X119814Y318382D01*
X119865Y318376D01*
X119936Y318391D01*
X120007Y318397D01*
X120055Y318417D01*
X120106Y318428D01*
X120167Y318465D01*
X120233Y318493D01*
X120289Y318538D01*
X120317Y318555D01*
X120332Y318572D01*
X120364Y318598D01*
X130712Y328946D01*
X130765Y329020D01*
X130825Y329090D01*
X130837Y329120D01*
X130856Y329146D01*
X130883Y329233D01*
X130917Y329318D01*
X130921Y329359D01*
X130928Y329381D01*
X130927Y329413D01*
X130935Y329485D01*
X130935Y331684D01*
X133316Y334065D01*
X136684Y334065D01*
X139065Y331684D01*
X139065Y328316D01*
X136684Y325935D01*
X134485Y325935D01*
X134394Y325921D01*
X134304Y325913D01*
X134274Y325901D01*
X134242Y325896D01*
X134161Y325853D01*
X134077Y325817D01*
X134045Y325791D01*
X134024Y325780D01*
X134002Y325757D01*
X133946Y325712D01*
X87510Y279276D01*
X87457Y279202D01*
X87397Y279132D01*
X87385Y279102D01*
X87366Y279076D01*
X87339Y278989D01*
X87305Y278904D01*
X87301Y278863D01*
X87294Y278841D01*
X87295Y278809D01*
X87287Y278737D01*
X87287Y234053D01*
X85947Y232713D01*
X60800Y232713D01*
X60685Y232694D01*
X60569Y232677D01*
X60563Y232675D01*
X60557Y232674D01*
X60454Y232619D01*
X60349Y232566D01*
X60345Y232561D01*
X60339Y232558D01*
X60260Y232474D01*
X60177Y232390D01*
X60173Y232384D01*
X60170Y232380D01*
X60162Y232363D01*
X60096Y232243D01*
X59587Y231013D01*
X56837Y228263D01*
X53244Y226775D01*
X49356Y226775D01*
G37*
%LPD*%
%LPC*%
G36*
X135556Y45325D02*
X135556Y45325D01*
X131963Y46813D01*
X129213Y49563D01*
X127725Y53156D01*
X127725Y57044D01*
X129213Y60637D01*
X131963Y63387D01*
X134195Y64311D01*
X134295Y64373D01*
X134395Y64433D01*
X134399Y64438D01*
X134404Y64441D01*
X134479Y64531D01*
X134555Y64620D01*
X134557Y64626D01*
X134561Y64630D01*
X134603Y64738D01*
X134647Y64848D01*
X134648Y64855D01*
X134649Y64860D01*
X134650Y64878D01*
X134665Y65015D01*
X134665Y91061D01*
X135477Y93022D01*
X136978Y94523D01*
X138939Y95335D01*
X219887Y95335D01*
X219977Y95349D01*
X220068Y95357D01*
X220098Y95369D01*
X220130Y95374D01*
X220210Y95417D01*
X220294Y95453D01*
X220326Y95479D01*
X220347Y95490D01*
X220369Y95513D01*
X220425Y95558D01*
X222120Y97253D01*
X225481Y98645D01*
X229119Y98645D01*
X232480Y97253D01*
X235053Y94680D01*
X236445Y91319D01*
X236445Y87681D01*
X235053Y84320D01*
X232480Y81747D01*
X229119Y80355D01*
X225481Y80355D01*
X222120Y81747D01*
X219485Y84382D01*
X219478Y84395D01*
X219473Y84399D01*
X219469Y84404D01*
X219380Y84479D01*
X219291Y84555D01*
X219285Y84557D01*
X219280Y84561D01*
X219171Y84603D01*
X219062Y84647D01*
X219055Y84648D01*
X219050Y84649D01*
X219032Y84650D01*
X218896Y84665D01*
X146096Y84665D01*
X146076Y84662D01*
X146057Y84664D01*
X145955Y84642D01*
X145853Y84626D01*
X145836Y84616D01*
X145816Y84612D01*
X145727Y84559D01*
X145636Y84510D01*
X145622Y84496D01*
X145605Y84486D01*
X145538Y84407D01*
X145466Y84332D01*
X145458Y84314D01*
X145445Y84299D01*
X145406Y84203D01*
X145363Y84109D01*
X145361Y84089D01*
X145353Y84071D01*
X145335Y83904D01*
X145335Y61404D01*
X145349Y61314D01*
X145357Y61223D01*
X145369Y61193D01*
X145374Y61161D01*
X145417Y61081D01*
X145453Y60997D01*
X145479Y60965D01*
X145490Y60944D01*
X145513Y60922D01*
X145558Y60866D01*
X145787Y60637D01*
X147275Y57044D01*
X147275Y53156D01*
X145787Y49563D01*
X143037Y46813D01*
X139444Y45325D01*
X135556Y45325D01*
G37*
%LPD*%
%LPC*%
G36*
X403560Y72760D02*
X403560Y72760D01*
X400899Y73862D01*
X398862Y75899D01*
X397760Y78560D01*
X397760Y81440D01*
X398862Y84101D01*
X399442Y84681D01*
X399495Y84755D01*
X399555Y84824D01*
X399567Y84854D01*
X399586Y84881D01*
X399613Y84968D01*
X399647Y85052D01*
X399651Y85093D01*
X399658Y85116D01*
X399657Y85148D01*
X399665Y85219D01*
X399665Y151061D01*
X400477Y153022D01*
X412932Y165477D01*
X412985Y165551D01*
X413045Y165620D01*
X413057Y165650D01*
X413076Y165677D01*
X413103Y165763D01*
X413137Y165848D01*
X413141Y165889D01*
X413148Y165912D01*
X413147Y165944D01*
X413155Y166015D01*
X413155Y167519D01*
X414547Y170880D01*
X417120Y173453D01*
X420481Y174845D01*
X424119Y174845D01*
X427480Y173453D01*
X430053Y170880D01*
X431445Y167519D01*
X431445Y163881D01*
X430053Y160520D01*
X427480Y157947D01*
X424119Y156555D01*
X420481Y156555D01*
X419974Y156765D01*
X419910Y156780D01*
X419852Y156804D01*
X419784Y156811D01*
X419747Y156820D01*
X419741Y156820D01*
X419735Y156821D01*
X419711Y156819D01*
X419686Y156822D01*
X419682Y156822D01*
X419604Y156809D01*
X419502Y156801D01*
X419496Y156799D01*
X419490Y156798D01*
X419463Y156786D01*
X419439Y156782D01*
X419365Y156743D01*
X419276Y156705D01*
X419270Y156700D01*
X419265Y156698D01*
X419251Y156685D01*
X419241Y156678D01*
X419222Y156667D01*
X419200Y156645D01*
X419145Y156600D01*
X410558Y148013D01*
X410505Y147939D01*
X410445Y147870D01*
X410433Y147840D01*
X410414Y147813D01*
X410387Y147727D01*
X410353Y147642D01*
X410349Y147601D01*
X410342Y147578D01*
X410343Y147546D01*
X410335Y147475D01*
X410335Y85219D01*
X410349Y85129D01*
X410357Y85038D01*
X410369Y85008D01*
X410374Y84976D01*
X410417Y84896D01*
X410453Y84812D01*
X410479Y84780D01*
X410490Y84759D01*
X410513Y84737D01*
X410558Y84681D01*
X411138Y84101D01*
X412240Y81440D01*
X412240Y78560D01*
X411138Y75899D01*
X409101Y73862D01*
X406440Y72760D01*
X403560Y72760D01*
G37*
%LPD*%
%LPC*%
G36*
X211432Y360595D02*
X211432Y360595D01*
X207137Y362374D01*
X203850Y365661D01*
X202071Y369956D01*
X202071Y374604D01*
X203850Y378899D01*
X207137Y382186D01*
X211432Y383965D01*
X216080Y383965D01*
X218899Y382797D01*
X219012Y382771D01*
X219126Y382742D01*
X219132Y382743D01*
X219138Y382741D01*
X219255Y382752D01*
X219371Y382761D01*
X219377Y382764D01*
X219383Y382764D01*
X219491Y382812D01*
X219597Y382857D01*
X219603Y382862D01*
X219608Y382864D01*
X219622Y382877D01*
X219728Y382962D01*
X232490Y395724D01*
X232543Y395798D01*
X232603Y395868D01*
X232615Y395898D01*
X232634Y395924D01*
X232661Y396011D01*
X232695Y396096D01*
X232699Y396137D01*
X232706Y396159D01*
X232705Y396191D01*
X232713Y396263D01*
X232713Y435947D01*
X232967Y436201D01*
X233009Y436259D01*
X233058Y436311D01*
X233080Y436358D01*
X233110Y436400D01*
X233131Y436469D01*
X233162Y436534D01*
X233167Y436586D01*
X233183Y436636D01*
X233181Y436707D01*
X233189Y436778D01*
X233178Y436829D01*
X233176Y436881D01*
X233152Y436949D01*
X233137Y437019D01*
X233110Y437064D01*
X233092Y437112D01*
X233047Y437168D01*
X233010Y437230D01*
X232971Y437264D01*
X232938Y437304D01*
X232878Y437343D01*
X232823Y437390D01*
X232775Y437409D01*
X232731Y437437D01*
X232662Y437455D01*
X232595Y437482D01*
X232524Y437490D01*
X232493Y437498D01*
X232469Y437496D01*
X232429Y437500D01*
X231108Y437500D01*
X228535Y438566D01*
X226566Y440535D01*
X225500Y443108D01*
X225500Y445892D01*
X226566Y448465D01*
X228535Y450434D01*
X231108Y451500D01*
X233892Y451500D01*
X236465Y450434D01*
X238434Y448465D01*
X239500Y445892D01*
X239500Y443108D01*
X238434Y440535D01*
X236485Y438586D01*
X236444Y438528D01*
X236394Y438476D01*
X236372Y438429D01*
X236342Y438387D01*
X236321Y438318D01*
X236291Y438253D01*
X236285Y438201D01*
X236269Y438151D01*
X236271Y438080D01*
X236263Y438009D01*
X236275Y437958D01*
X236276Y437906D01*
X236300Y437838D01*
X236316Y437768D01*
X236342Y437723D01*
X236360Y437675D01*
X236405Y437619D01*
X236442Y437557D01*
X236481Y437523D01*
X236514Y437483D01*
X236574Y437444D01*
X236629Y437397D01*
X236677Y437378D01*
X236721Y437350D01*
X236790Y437332D01*
X236857Y437305D01*
X236928Y437297D01*
X236959Y437289D01*
X236983Y437291D01*
X237024Y437287D01*
X273061Y437287D01*
X273151Y437301D01*
X273242Y437309D01*
X273272Y437321D01*
X273304Y437326D01*
X273385Y437369D01*
X273468Y437405D01*
X273501Y437431D01*
X273521Y437442D01*
X273543Y437465D01*
X273599Y437510D01*
X278010Y441921D01*
X284324Y441921D01*
X288788Y437457D01*
X288788Y431143D01*
X284324Y426679D01*
X278010Y426679D01*
X273546Y431143D01*
X273546Y431952D01*
X273543Y431972D01*
X273545Y431991D01*
X273523Y432093D01*
X273507Y432195D01*
X273497Y432212D01*
X273493Y432232D01*
X273440Y432321D01*
X273391Y432412D01*
X273377Y432426D01*
X273367Y432443D01*
X273288Y432510D01*
X273213Y432582D01*
X273195Y432590D01*
X273180Y432603D01*
X273084Y432642D01*
X272990Y432685D01*
X272970Y432687D01*
X272952Y432695D01*
X272785Y432713D01*
X238048Y432713D01*
X238028Y432710D01*
X238009Y432712D01*
X237907Y432690D01*
X237805Y432674D01*
X237788Y432664D01*
X237768Y432660D01*
X237679Y432607D01*
X237588Y432558D01*
X237574Y432544D01*
X237557Y432534D01*
X237490Y432455D01*
X237418Y432380D01*
X237410Y432362D01*
X237397Y432347D01*
X237358Y432251D01*
X237315Y432157D01*
X237313Y432137D01*
X237305Y432119D01*
X237287Y431952D01*
X237287Y394053D01*
X223436Y380202D01*
X223424Y380186D01*
X223408Y380173D01*
X223352Y380086D01*
X223292Y380002D01*
X223286Y379983D01*
X223275Y379966D01*
X223250Y379866D01*
X223220Y379767D01*
X223220Y379747D01*
X223215Y379728D01*
X223223Y379625D01*
X223226Y379521D01*
X223233Y379502D01*
X223234Y379482D01*
X223275Y379387D01*
X223310Y379290D01*
X223323Y379274D01*
X223331Y379256D01*
X223436Y379125D01*
X223662Y378899D01*
X225441Y374604D01*
X225441Y369956D01*
X223662Y365661D01*
X220375Y362374D01*
X216080Y360595D01*
X211432Y360595D01*
G37*
%LPD*%
%LPC*%
G36*
X269351Y360595D02*
X269351Y360595D01*
X265056Y362374D01*
X261769Y365661D01*
X259990Y369956D01*
X259990Y374604D01*
X261769Y378899D01*
X265056Y382186D01*
X269351Y383965D01*
X273999Y383965D01*
X278289Y382188D01*
X278357Y382172D01*
X278360Y382170D01*
X278365Y382170D01*
X278403Y382161D01*
X278516Y382133D01*
X278523Y382133D01*
X278529Y382132D01*
X278645Y382143D01*
X278762Y382152D01*
X278767Y382154D01*
X278774Y382155D01*
X278881Y382203D01*
X278988Y382248D01*
X278994Y382253D01*
X278998Y382255D01*
X279012Y382267D01*
X279059Y382304D01*
X279063Y382307D01*
X279068Y382312D01*
X279119Y382353D01*
X292490Y395724D01*
X292543Y395798D01*
X292603Y395868D01*
X292615Y395898D01*
X292634Y395924D01*
X292661Y396011D01*
X292695Y396096D01*
X292699Y396137D01*
X292706Y396159D01*
X292705Y396191D01*
X292713Y396263D01*
X292713Y480947D01*
X294276Y482510D01*
X306944Y495178D01*
X306997Y495252D01*
X307057Y495322D01*
X307069Y495352D01*
X307088Y495378D01*
X307115Y495465D01*
X307149Y495550D01*
X307153Y495591D01*
X307160Y495613D01*
X307159Y495645D01*
X307167Y495716D01*
X307167Y496692D01*
X308233Y499265D01*
X310202Y501234D01*
X312775Y502300D01*
X315559Y502300D01*
X318132Y501234D01*
X320101Y499265D01*
X321167Y496692D01*
X321167Y493908D01*
X320101Y491335D01*
X318132Y489366D01*
X315559Y488300D01*
X312775Y488300D01*
X310202Y489366D01*
X309439Y490129D01*
X309423Y490140D01*
X309411Y490156D01*
X309323Y490212D01*
X309239Y490272D01*
X309220Y490278D01*
X309204Y490289D01*
X309103Y490314D01*
X309004Y490345D01*
X308984Y490344D01*
X308965Y490349D01*
X308862Y490341D01*
X308758Y490338D01*
X308740Y490331D01*
X308720Y490330D01*
X308625Y490289D01*
X308527Y490254D01*
X308512Y490241D01*
X308494Y490234D01*
X308363Y490129D01*
X297510Y479276D01*
X297457Y479202D01*
X297397Y479132D01*
X297385Y479102D01*
X297366Y479076D01*
X297339Y478989D01*
X297305Y478904D01*
X297301Y478863D01*
X297294Y478841D01*
X297295Y478809D01*
X297287Y478738D01*
X297287Y394053D01*
X282102Y378868D01*
X282058Y378807D01*
X282027Y378774D01*
X282014Y378747D01*
X281964Y378680D01*
X281962Y378674D01*
X281959Y378669D01*
X281925Y378558D01*
X281888Y378446D01*
X281888Y378439D01*
X281886Y378433D01*
X281889Y378317D01*
X281890Y378200D01*
X281893Y378193D01*
X281893Y378188D01*
X281899Y378170D01*
X281937Y378039D01*
X283360Y374604D01*
X283360Y369956D01*
X281581Y365661D01*
X278294Y362374D01*
X273999Y360595D01*
X269351Y360595D01*
G37*
%LPD*%
%LPC*%
G36*
X718981Y247055D02*
X718981Y247055D01*
X715620Y248447D01*
X713047Y251020D01*
X711655Y254381D01*
X711655Y258019D01*
X713047Y261380D01*
X713678Y262011D01*
X713690Y262027D01*
X713706Y262040D01*
X713762Y262127D01*
X713822Y262211D01*
X713828Y262230D01*
X713839Y262247D01*
X713864Y262347D01*
X713894Y262446D01*
X713894Y262466D01*
X713899Y262485D01*
X713891Y262588D01*
X713888Y262692D01*
X713881Y262711D01*
X713880Y262730D01*
X713839Y262825D01*
X713804Y262923D01*
X713791Y262938D01*
X713783Y262957D01*
X713678Y263088D01*
X626054Y350712D01*
X625980Y350765D01*
X625910Y350825D01*
X625880Y350837D01*
X625854Y350856D01*
X625767Y350883D01*
X625682Y350917D01*
X625641Y350921D01*
X625619Y350928D01*
X625587Y350927D01*
X625515Y350935D01*
X623316Y350935D01*
X620935Y353316D01*
X620935Y356684D01*
X622860Y358608D01*
X622865Y358615D01*
X622871Y358620D01*
X622936Y358715D01*
X623003Y358808D01*
X623006Y358816D01*
X623010Y358822D01*
X623042Y358932D01*
X623076Y359043D01*
X623076Y359051D01*
X623078Y359059D01*
X623072Y359173D01*
X623069Y359289D01*
X623067Y359296D01*
X623066Y359304D01*
X623025Y359411D01*
X622985Y359520D01*
X622980Y359526D01*
X622977Y359534D01*
X622904Y359622D01*
X622831Y359712D01*
X622824Y359716D01*
X622819Y359722D01*
X622722Y359782D01*
X622624Y359845D01*
X622617Y359847D01*
X622610Y359851D01*
X622497Y359877D01*
X622386Y359905D01*
X622378Y359904D01*
X622370Y359906D01*
X622202Y359898D01*
X620711Y359662D01*
X620711Y370757D01*
X631806Y370757D01*
X631576Y369306D01*
X630958Y367405D01*
X630051Y365623D01*
X628875Y364006D01*
X627462Y362593D01*
X625845Y361417D01*
X624053Y360504D01*
X623998Y360464D01*
X623938Y360432D01*
X623899Y360392D01*
X623854Y360359D01*
X623815Y360303D01*
X623769Y360254D01*
X623745Y360203D01*
X623713Y360157D01*
X623694Y360093D01*
X623665Y360031D01*
X623659Y359975D01*
X623643Y359922D01*
X623645Y359854D01*
X623638Y359787D01*
X623650Y359732D01*
X623652Y359676D01*
X623676Y359612D01*
X623690Y359546D01*
X623719Y359498D01*
X623739Y359446D01*
X623782Y359393D01*
X623816Y359335D01*
X623859Y359299D01*
X623894Y359255D01*
X623952Y359219D01*
X624003Y359175D01*
X624055Y359154D01*
X624103Y359124D01*
X624168Y359109D01*
X624231Y359083D01*
X624310Y359075D01*
X624342Y359067D01*
X624363Y359069D01*
X624398Y359065D01*
X626684Y359065D01*
X629065Y356684D01*
X629065Y354485D01*
X629079Y354394D01*
X629087Y354304D01*
X629099Y354274D01*
X629104Y354242D01*
X629147Y354161D01*
X629183Y354077D01*
X629209Y354045D01*
X629220Y354024D01*
X629243Y354002D01*
X629288Y353946D01*
X717849Y265385D01*
X717944Y265316D01*
X718038Y265247D01*
X718044Y265245D01*
X718049Y265241D01*
X718160Y265207D01*
X718272Y265170D01*
X718278Y265171D01*
X718284Y265169D01*
X718401Y265172D01*
X718518Y265173D01*
X718525Y265175D01*
X718530Y265175D01*
X718548Y265181D01*
X718679Y265220D01*
X718981Y265345D01*
X722619Y265345D01*
X725980Y263953D01*
X728553Y261380D01*
X729945Y258019D01*
X729945Y254381D01*
X728553Y251020D01*
X725980Y248447D01*
X722619Y247055D01*
X718981Y247055D01*
G37*
%LPD*%
%LPC*%
G36*
X98481Y207355D02*
X98481Y207355D01*
X95120Y208747D01*
X92547Y211320D01*
X91155Y214681D01*
X91155Y218319D01*
X92547Y221680D01*
X95120Y224253D01*
X98481Y225645D01*
X102119Y225645D01*
X105391Y224289D01*
X105504Y224263D01*
X105618Y224234D01*
X105624Y224235D01*
X105630Y224233D01*
X105747Y224244D01*
X105863Y224253D01*
X105869Y224256D01*
X105875Y224256D01*
X105983Y224304D01*
X106090Y224350D01*
X106095Y224354D01*
X106100Y224356D01*
X106114Y224369D01*
X106221Y224454D01*
X195712Y313946D01*
X195765Y314020D01*
X195825Y314090D01*
X195837Y314120D01*
X195856Y314146D01*
X195883Y314233D01*
X195917Y314318D01*
X195921Y314359D01*
X195928Y314381D01*
X195927Y314413D01*
X195935Y314484D01*
X195935Y316684D01*
X198316Y319065D01*
X201684Y319065D01*
X204065Y316684D01*
X204065Y313316D01*
X201684Y310935D01*
X199484Y310935D01*
X199394Y310921D01*
X199303Y310913D01*
X199274Y310901D01*
X199242Y310896D01*
X199161Y310853D01*
X199077Y310817D01*
X199045Y310791D01*
X199024Y310780D01*
X199002Y310757D01*
X198946Y310712D01*
X108957Y220723D01*
X108889Y220629D01*
X108819Y220535D01*
X108817Y220529D01*
X108814Y220524D01*
X108780Y220412D01*
X108743Y220301D01*
X108743Y220295D01*
X108741Y220289D01*
X108745Y220172D01*
X108746Y220055D01*
X108748Y220048D01*
X108748Y220043D01*
X108754Y220025D01*
X108792Y219894D01*
X109445Y218319D01*
X109445Y214681D01*
X108053Y211320D01*
X105480Y208747D01*
X102119Y207355D01*
X98481Y207355D01*
G37*
%LPD*%
%LPC*%
G36*
X37676Y360595D02*
X37676Y360595D01*
X33381Y362374D01*
X30094Y365661D01*
X28315Y369956D01*
X28315Y374604D01*
X30094Y378899D01*
X33381Y382186D01*
X37676Y383965D01*
X42324Y383965D01*
X44263Y383162D01*
X44377Y383135D01*
X44490Y383106D01*
X44496Y383107D01*
X44503Y383105D01*
X44619Y383116D01*
X44735Y383126D01*
X44741Y383128D01*
X44747Y383129D01*
X44855Y383176D01*
X44962Y383222D01*
X44968Y383226D01*
X44972Y383229D01*
X44986Y383241D01*
X45093Y383327D01*
X57490Y395724D01*
X57543Y395798D01*
X57603Y395868D01*
X57615Y395898D01*
X57634Y395924D01*
X57661Y396011D01*
X57695Y396096D01*
X57699Y396137D01*
X57706Y396159D01*
X57705Y396191D01*
X57713Y396263D01*
X57713Y410947D01*
X59276Y412510D01*
X75756Y428990D01*
X75768Y429006D01*
X75783Y429019D01*
X75839Y429106D01*
X75900Y429190D01*
X75905Y429209D01*
X75916Y429226D01*
X75942Y429326D01*
X75972Y429425D01*
X75971Y429445D01*
X75976Y429464D01*
X75968Y429567D01*
X75966Y429671D01*
X75959Y429689D01*
X75957Y429709D01*
X75917Y429804D01*
X75881Y429902D01*
X75869Y429917D01*
X75861Y429936D01*
X75756Y430067D01*
X74679Y431143D01*
X74679Y437457D01*
X79143Y441921D01*
X85457Y441921D01*
X89921Y437457D01*
X89921Y431143D01*
X85457Y426679D01*
X80229Y426679D01*
X80138Y426665D01*
X80048Y426657D01*
X80018Y426645D01*
X79986Y426640D01*
X79905Y426597D01*
X79821Y426561D01*
X79789Y426535D01*
X79768Y426524D01*
X79746Y426501D01*
X79690Y426456D01*
X62510Y409276D01*
X62457Y409202D01*
X62397Y409132D01*
X62385Y409102D01*
X62366Y409076D01*
X62339Y408989D01*
X62305Y408904D01*
X62301Y408863D01*
X62294Y408841D01*
X62295Y408809D01*
X62287Y408737D01*
X62287Y394053D01*
X49058Y380824D01*
X49046Y380808D01*
X49030Y380795D01*
X48974Y380708D01*
X48914Y380624D01*
X48908Y380605D01*
X48897Y380588D01*
X48872Y380488D01*
X48842Y380389D01*
X48842Y380369D01*
X48837Y380350D01*
X48845Y380247D01*
X48848Y380143D01*
X48855Y380124D01*
X48856Y380104D01*
X48897Y380009D01*
X48932Y379912D01*
X48945Y379896D01*
X48953Y379878D01*
X49058Y379747D01*
X49906Y378899D01*
X51685Y374604D01*
X51685Y369956D01*
X49906Y365661D01*
X46619Y362374D01*
X42324Y360595D01*
X37676Y360595D01*
G37*
%LPD*%
%LPC*%
G36*
X693581Y247055D02*
X693581Y247055D01*
X690220Y248447D01*
X687647Y251020D01*
X686255Y254381D01*
X686255Y258019D01*
X687647Y261380D01*
X688478Y262211D01*
X688490Y262227D01*
X688506Y262240D01*
X688562Y262327D01*
X688622Y262411D01*
X688628Y262430D01*
X688639Y262447D01*
X688664Y262547D01*
X688694Y262646D01*
X688694Y262666D01*
X688699Y262685D01*
X688691Y262788D01*
X688688Y262892D01*
X688681Y262911D01*
X688680Y262930D01*
X688639Y263025D01*
X688604Y263123D01*
X688591Y263138D01*
X688583Y263157D01*
X688478Y263288D01*
X606054Y345712D01*
X605980Y345765D01*
X605910Y345825D01*
X605880Y345837D01*
X605854Y345856D01*
X605767Y345883D01*
X605682Y345917D01*
X605641Y345921D01*
X605619Y345928D01*
X605587Y345927D01*
X605515Y345935D01*
X603316Y345935D01*
X600935Y348316D01*
X600935Y351684D01*
X603316Y354065D01*
X606684Y354065D01*
X609065Y351684D01*
X609065Y349485D01*
X609079Y349394D01*
X609087Y349304D01*
X609099Y349274D01*
X609104Y349242D01*
X609147Y349161D01*
X609183Y349077D01*
X609209Y349045D01*
X609220Y349024D01*
X609243Y349002D01*
X609288Y348946D01*
X692732Y265502D01*
X692827Y265434D01*
X692921Y265364D01*
X692927Y265362D01*
X692932Y265358D01*
X693043Y265324D01*
X693155Y265288D01*
X693161Y265288D01*
X693167Y265286D01*
X693284Y265289D01*
X693401Y265290D01*
X693408Y265292D01*
X693413Y265292D01*
X693430Y265299D01*
X693562Y265337D01*
X693581Y265345D01*
X697219Y265345D01*
X700580Y263953D01*
X703153Y261380D01*
X704545Y258019D01*
X704545Y254381D01*
X703153Y251020D01*
X700580Y248447D01*
X697219Y247055D01*
X693581Y247055D01*
G37*
%LPD*%
%LPC*%
G36*
X642781Y94655D02*
X642781Y94655D01*
X639420Y96047D01*
X636847Y98620D01*
X635455Y101981D01*
X635455Y105619D01*
X636847Y108980D01*
X639420Y111553D01*
X642781Y112945D01*
X644396Y112945D01*
X644486Y112959D01*
X644577Y112967D01*
X644606Y112979D01*
X644638Y112984D01*
X644719Y113027D01*
X644803Y113063D01*
X644835Y113089D01*
X644856Y113100D01*
X644878Y113123D01*
X644934Y113168D01*
X647490Y115724D01*
X647543Y115798D01*
X647603Y115868D01*
X647615Y115898D01*
X647634Y115924D01*
X647661Y116011D01*
X647695Y116096D01*
X647699Y116137D01*
X647706Y116159D01*
X647705Y116191D01*
X647713Y116263D01*
X647713Y123737D01*
X647699Y123828D01*
X647691Y123918D01*
X647679Y123948D01*
X647674Y123980D01*
X647631Y124061D01*
X647595Y124145D01*
X647569Y124177D01*
X647558Y124198D01*
X647535Y124220D01*
X647490Y124276D01*
X611054Y160712D01*
X610980Y160765D01*
X610910Y160825D01*
X610880Y160837D01*
X610854Y160856D01*
X610767Y160883D01*
X610682Y160917D01*
X610641Y160921D01*
X610619Y160928D01*
X610587Y160927D01*
X610516Y160935D01*
X608316Y160935D01*
X605935Y163316D01*
X605935Y166684D01*
X608316Y169065D01*
X611684Y169065D01*
X614065Y166684D01*
X614065Y164484D01*
X614079Y164394D01*
X614087Y164303D01*
X614099Y164274D01*
X614104Y164242D01*
X614147Y164161D01*
X614183Y164077D01*
X614209Y164045D01*
X614220Y164024D01*
X614243Y164002D01*
X614288Y163946D01*
X650724Y127510D01*
X652287Y125947D01*
X652287Y114053D01*
X650322Y112088D01*
X650310Y112071D01*
X650294Y112059D01*
X650238Y111972D01*
X650178Y111888D01*
X650172Y111869D01*
X650161Y111852D01*
X650136Y111752D01*
X650106Y111653D01*
X650106Y111633D01*
X650101Y111614D01*
X650109Y111511D01*
X650112Y111407D01*
X650119Y111388D01*
X650120Y111368D01*
X650161Y111274D01*
X650196Y111176D01*
X650209Y111160D01*
X650217Y111142D01*
X650322Y111011D01*
X652353Y108980D01*
X653745Y105619D01*
X653745Y101981D01*
X652353Y98620D01*
X649780Y96047D01*
X646419Y94655D01*
X642781Y94655D01*
G37*
%LPD*%
%LPC*%
G36*
X49348Y146669D02*
X49348Y146669D01*
X44449Y148699D01*
X40699Y152449D01*
X38669Y157348D01*
X38669Y162652D01*
X40699Y167551D01*
X44449Y171301D01*
X49348Y173331D01*
X54652Y173331D01*
X59551Y171301D01*
X63301Y167551D01*
X65331Y162652D01*
X65331Y157348D01*
X63301Y152449D01*
X59551Y148699D01*
X54652Y146669D01*
X49348Y146669D01*
G37*
%LPD*%
%LPC*%
G36*
X224774Y229199D02*
X224774Y229199D01*
X220106Y231133D01*
X216533Y234706D01*
X214599Y239374D01*
X214599Y244426D01*
X216533Y249094D01*
X220106Y252667D01*
X224774Y254601D01*
X229826Y254601D01*
X234494Y252667D01*
X238067Y249094D01*
X240001Y244426D01*
X240001Y239374D01*
X238067Y234706D01*
X234494Y231133D01*
X229826Y229199D01*
X224774Y229199D01*
G37*
%LPD*%
%LPC*%
G36*
X419774Y229199D02*
X419774Y229199D01*
X415106Y231133D01*
X411533Y234706D01*
X409599Y239374D01*
X409599Y244426D01*
X411533Y249094D01*
X415106Y252667D01*
X419774Y254601D01*
X424826Y254601D01*
X429494Y252667D01*
X433067Y249094D01*
X435001Y244426D01*
X435001Y239374D01*
X433067Y234706D01*
X429494Y231133D01*
X424826Y229199D01*
X419774Y229199D01*
G37*
%LPD*%
%LPC*%
G36*
X489674Y243499D02*
X489674Y243499D01*
X485006Y245433D01*
X481433Y249006D01*
X479499Y253674D01*
X479499Y258726D01*
X481433Y263394D01*
X485006Y266967D01*
X489674Y268901D01*
X494726Y268901D01*
X499394Y266967D01*
X502967Y263394D01*
X504901Y258726D01*
X504901Y253674D01*
X502967Y249006D01*
X499394Y245433D01*
X494726Y243499D01*
X489674Y243499D01*
G37*
%LPD*%
%LPC*%
G36*
X95595Y360595D02*
X95595Y360595D01*
X91300Y362374D01*
X88013Y365661D01*
X86234Y369956D01*
X86234Y374604D01*
X88013Y378899D01*
X91300Y382186D01*
X95595Y383965D01*
X100243Y383965D01*
X104538Y382186D01*
X107825Y378899D01*
X109604Y374604D01*
X109604Y369956D01*
X107825Y365661D01*
X104538Y362374D01*
X100243Y360595D01*
X95595Y360595D01*
G37*
%LPD*%
%LPC*%
G36*
X153514Y388535D02*
X153514Y388535D01*
X149219Y390314D01*
X145932Y393601D01*
X144153Y397896D01*
X144153Y402544D01*
X145932Y406839D01*
X149219Y410126D01*
X153514Y411905D01*
X158162Y411905D01*
X162457Y410126D01*
X165744Y406839D01*
X167523Y402544D01*
X167523Y397896D01*
X165744Y393601D01*
X162457Y390314D01*
X158162Y388535D01*
X153514Y388535D01*
G37*
%LPD*%
%LPC*%
G36*
X558945Y360595D02*
X558945Y360595D01*
X554650Y362374D01*
X551363Y365661D01*
X549584Y369956D01*
X549584Y374604D01*
X551363Y378899D01*
X554650Y382186D01*
X558945Y383965D01*
X563593Y383965D01*
X567888Y382186D01*
X571175Y378899D01*
X572954Y374604D01*
X572954Y369956D01*
X571175Y365661D01*
X567888Y362374D01*
X563593Y360595D01*
X558945Y360595D01*
G37*
%LPD*%
%LPC*%
G36*
X414048Y258155D02*
X414048Y258155D01*
X413155Y259048D01*
X413155Y275552D01*
X414048Y276445D01*
X430552Y276445D01*
X431445Y275552D01*
X431445Y259048D01*
X430552Y258155D01*
X414048Y258155D01*
G37*
%LPD*%
%LPC*%
G36*
X219048Y258155D02*
X219048Y258155D01*
X218155Y259048D01*
X218155Y275552D01*
X219048Y276445D01*
X235552Y276445D01*
X236445Y275552D01*
X236445Y259048D01*
X235552Y258155D01*
X219048Y258155D01*
G37*
%LPD*%
%LPC*%
G36*
X50056Y125225D02*
X50056Y125225D01*
X46463Y126713D01*
X43713Y129463D01*
X42225Y133056D01*
X42225Y136944D01*
X43713Y140537D01*
X46463Y143287D01*
X50056Y144775D01*
X53944Y144775D01*
X57537Y143287D01*
X60287Y140537D01*
X61775Y136944D01*
X61775Y133056D01*
X60287Y129463D01*
X57537Y126713D01*
X53944Y125225D01*
X50056Y125225D01*
G37*
%LPD*%
%LPC*%
G36*
X160556Y45325D02*
X160556Y45325D01*
X156963Y46813D01*
X154213Y49563D01*
X152725Y53156D01*
X152725Y57044D01*
X154213Y60637D01*
X156963Y63387D01*
X160556Y64875D01*
X164444Y64875D01*
X168037Y63387D01*
X170787Y60637D01*
X172275Y57044D01*
X172275Y53156D01*
X170787Y49563D01*
X168037Y46813D01*
X164444Y45325D01*
X160556Y45325D01*
G37*
%LPD*%
%LPC*%
G36*
X748756Y45325D02*
X748756Y45325D01*
X745163Y46813D01*
X742413Y49563D01*
X740925Y53156D01*
X740925Y57044D01*
X742413Y60637D01*
X745163Y63387D01*
X748756Y64875D01*
X752644Y64875D01*
X756237Y63387D01*
X758987Y60637D01*
X760475Y57044D01*
X760475Y53156D01*
X758987Y49563D01*
X756237Y46813D01*
X752644Y45325D01*
X748756Y45325D01*
G37*
%LPD*%
%LPC*%
G36*
X723756Y45325D02*
X723756Y45325D01*
X720163Y46813D01*
X717413Y49563D01*
X715925Y53156D01*
X715925Y57044D01*
X717413Y60637D01*
X720163Y63387D01*
X723756Y64875D01*
X727644Y64875D01*
X731237Y63387D01*
X733987Y60637D01*
X735475Y57044D01*
X735475Y53156D01*
X733987Y49563D01*
X731237Y46813D01*
X727644Y45325D01*
X723756Y45325D01*
G37*
%LPD*%
%LPC*%
G36*
X846056Y367725D02*
X846056Y367725D01*
X842463Y369213D01*
X839713Y371963D01*
X838225Y375556D01*
X838225Y379444D01*
X839713Y383037D01*
X842463Y385787D01*
X846056Y387275D01*
X849944Y387275D01*
X853537Y385787D01*
X856287Y383037D01*
X857775Y379444D01*
X857775Y375556D01*
X856287Y371963D01*
X853537Y369213D01*
X849944Y367725D01*
X846056Y367725D01*
G37*
%LPD*%
%LPC*%
G36*
X552689Y45325D02*
X552689Y45325D01*
X549096Y46813D01*
X546346Y49563D01*
X544858Y53156D01*
X544858Y57044D01*
X546346Y60637D01*
X549096Y63387D01*
X552689Y64875D01*
X556577Y64875D01*
X560170Y63387D01*
X562920Y60637D01*
X564408Y57044D01*
X564408Y53156D01*
X562920Y49563D01*
X560170Y46813D01*
X556577Y45325D01*
X552689Y45325D01*
G37*
%LPD*%
%LPC*%
G36*
X527689Y45325D02*
X527689Y45325D01*
X524096Y46813D01*
X521346Y49563D01*
X519858Y53156D01*
X519858Y57044D01*
X521346Y60637D01*
X524096Y63387D01*
X527689Y64875D01*
X531577Y64875D01*
X535170Y63387D01*
X537920Y60637D01*
X539408Y57044D01*
X539408Y53156D01*
X537920Y49563D01*
X535170Y46813D01*
X531577Y45325D01*
X527689Y45325D01*
G37*
%LPD*%
%LPC*%
G36*
X846056Y342725D02*
X846056Y342725D01*
X842463Y344213D01*
X839713Y346963D01*
X838225Y350556D01*
X838225Y354444D01*
X839713Y358037D01*
X842463Y360787D01*
X846056Y362275D01*
X849944Y362275D01*
X853537Y360787D01*
X856287Y358037D01*
X857775Y354444D01*
X857775Y350556D01*
X856287Y346963D01*
X853537Y344213D01*
X849944Y342725D01*
X846056Y342725D01*
G37*
%LPD*%
%LPC*%
G36*
X745425Y381175D02*
X745425Y381175D01*
X741961Y382610D01*
X739310Y385261D01*
X737875Y388725D01*
X737875Y392475D01*
X739310Y395939D01*
X741961Y398590D01*
X745425Y400025D01*
X749175Y400025D01*
X752639Y398590D01*
X755290Y395939D01*
X756725Y392475D01*
X756725Y388725D01*
X755290Y385261D01*
X752639Y382610D01*
X749175Y381175D01*
X745425Y381175D01*
G37*
%LPD*%
%LPC*%
G36*
X770825Y381175D02*
X770825Y381175D01*
X767361Y382610D01*
X764710Y385261D01*
X763275Y388725D01*
X763275Y392475D01*
X764710Y395939D01*
X767361Y398590D01*
X770825Y400025D01*
X774575Y400025D01*
X778039Y398590D01*
X780690Y395939D01*
X782125Y392475D01*
X782125Y388725D01*
X780690Y385261D01*
X778039Y382610D01*
X774575Y381175D01*
X770825Y381175D01*
G37*
%LPD*%
%LPC*%
G36*
X293466Y80279D02*
X293466Y80279D01*
X290077Y81683D01*
X287483Y84277D01*
X286079Y87666D01*
X286079Y91334D01*
X287483Y94723D01*
X290077Y97317D01*
X293466Y98721D01*
X297134Y98721D01*
X300523Y97317D01*
X303117Y94723D01*
X304521Y91334D01*
X304521Y87666D01*
X303117Y84277D01*
X300523Y81683D01*
X297134Y80279D01*
X293466Y80279D01*
G37*
%LPD*%
%LPC*%
G36*
X225481Y105755D02*
X225481Y105755D01*
X222120Y107147D01*
X219547Y109720D01*
X218155Y113081D01*
X218155Y116719D01*
X219547Y120080D01*
X222120Y122653D01*
X225481Y124045D01*
X229119Y124045D01*
X232480Y122653D01*
X235053Y120080D01*
X236445Y116719D01*
X236445Y113081D01*
X235053Y109720D01*
X232480Y107147D01*
X229119Y105755D01*
X225481Y105755D01*
G37*
%LPD*%
%LPC*%
G36*
X293481Y105755D02*
X293481Y105755D01*
X290120Y107147D01*
X287547Y109720D01*
X286155Y113081D01*
X286155Y116719D01*
X287547Y120080D01*
X290120Y122653D01*
X293481Y124045D01*
X297119Y124045D01*
X300480Y122653D01*
X303053Y120080D01*
X304445Y116719D01*
X304445Y113081D01*
X303053Y109720D01*
X300480Y107147D01*
X297119Y105755D01*
X293481Y105755D01*
G37*
%LPD*%
%LPC*%
G36*
X420481Y105755D02*
X420481Y105755D01*
X417120Y107147D01*
X414547Y109720D01*
X413155Y113081D01*
X413155Y116719D01*
X414547Y120080D01*
X417120Y122653D01*
X420481Y124045D01*
X424119Y124045D01*
X427480Y122653D01*
X430053Y120080D01*
X431445Y116719D01*
X431445Y113081D01*
X430053Y109720D01*
X427480Y107147D01*
X424119Y105755D01*
X420481Y105755D01*
G37*
%LPD*%
%LPC*%
G36*
X795181Y94655D02*
X795181Y94655D01*
X791820Y96047D01*
X789247Y98620D01*
X787855Y101981D01*
X787855Y105619D01*
X789247Y108980D01*
X791820Y111553D01*
X795181Y112945D01*
X798819Y112945D01*
X802180Y111553D01*
X804753Y108980D01*
X806145Y105619D01*
X806145Y101981D01*
X804753Y98620D01*
X802180Y96047D01*
X798819Y94655D01*
X795181Y94655D01*
G37*
%LPD*%
%LPC*%
G36*
X820581Y94655D02*
X820581Y94655D01*
X817220Y96047D01*
X814647Y98620D01*
X813255Y101981D01*
X813255Y105619D01*
X814647Y108980D01*
X817220Y111553D01*
X820581Y112945D01*
X824219Y112945D01*
X827580Y111553D01*
X830153Y108980D01*
X831545Y105619D01*
X831545Y101981D01*
X830153Y98620D01*
X827580Y96047D01*
X824219Y94655D01*
X820581Y94655D01*
G37*
%LPD*%
%LPC*%
G36*
X591981Y94655D02*
X591981Y94655D01*
X588620Y96047D01*
X586047Y98620D01*
X584655Y101981D01*
X584655Y105619D01*
X586047Y108980D01*
X588620Y111553D01*
X591981Y112945D01*
X595619Y112945D01*
X598980Y111553D01*
X601553Y108980D01*
X602945Y105619D01*
X602945Y101981D01*
X601553Y98620D01*
X598980Y96047D01*
X595619Y94655D01*
X591981Y94655D01*
G37*
%LPD*%
%LPC*%
G36*
X541181Y94655D02*
X541181Y94655D01*
X537820Y96047D01*
X535247Y98620D01*
X533855Y101981D01*
X533855Y105619D01*
X535247Y108980D01*
X537820Y111553D01*
X541181Y112945D01*
X544819Y112945D01*
X548180Y111553D01*
X550753Y108980D01*
X552145Y105619D01*
X552145Y101981D01*
X550753Y98620D01*
X548180Y96047D01*
X544819Y94655D01*
X541181Y94655D01*
G37*
%LPD*%
%LPC*%
G36*
X693581Y94655D02*
X693581Y94655D01*
X690220Y96047D01*
X687647Y98620D01*
X686255Y101981D01*
X686255Y105619D01*
X687647Y108980D01*
X690220Y111553D01*
X693581Y112945D01*
X697219Y112945D01*
X700580Y111553D01*
X703153Y108980D01*
X704545Y105619D01*
X704545Y101981D01*
X703153Y98620D01*
X700580Y96047D01*
X697219Y94655D01*
X693581Y94655D01*
G37*
%LPD*%
%LPC*%
G36*
X718981Y94655D02*
X718981Y94655D01*
X715620Y96047D01*
X713047Y98620D01*
X711655Y101981D01*
X711655Y105619D01*
X713047Y108980D01*
X715620Y111553D01*
X718981Y112945D01*
X722619Y112945D01*
X725980Y111553D01*
X728553Y108980D01*
X729945Y105619D01*
X729945Y101981D01*
X728553Y98620D01*
X725980Y96047D01*
X722619Y94655D01*
X718981Y94655D01*
G37*
%LPD*%
%LPC*%
G36*
X744381Y94655D02*
X744381Y94655D01*
X741020Y96047D01*
X738447Y98620D01*
X737055Y101981D01*
X737055Y105619D01*
X738447Y108980D01*
X741020Y111553D01*
X744381Y112945D01*
X748019Y112945D01*
X751380Y111553D01*
X753953Y108980D01*
X755345Y105619D01*
X755345Y101981D01*
X753953Y98620D01*
X751380Y96047D01*
X748019Y94655D01*
X744381Y94655D01*
G37*
%LPD*%
%LPC*%
G36*
X769781Y94655D02*
X769781Y94655D01*
X766420Y96047D01*
X763847Y98620D01*
X762455Y101981D01*
X762455Y105619D01*
X763847Y108980D01*
X766420Y111553D01*
X769781Y112945D01*
X773419Y112945D01*
X776780Y111553D01*
X779353Y108980D01*
X780745Y105619D01*
X780745Y101981D01*
X779353Y98620D01*
X776780Y96047D01*
X773419Y94655D01*
X769781Y94655D01*
G37*
%LPD*%
%LPC*%
G36*
X515781Y94655D02*
X515781Y94655D01*
X512420Y96047D01*
X509847Y98620D01*
X508455Y101981D01*
X508455Y105619D01*
X509847Y108980D01*
X512420Y111553D01*
X515781Y112945D01*
X519419Y112945D01*
X522780Y111553D01*
X525353Y108980D01*
X526745Y105619D01*
X526745Y101981D01*
X525353Y98620D01*
X522780Y96047D01*
X519419Y94655D01*
X515781Y94655D01*
G37*
%LPD*%
%LPC*%
G36*
X420481Y80355D02*
X420481Y80355D01*
X417120Y81747D01*
X414547Y84320D01*
X413155Y87681D01*
X413155Y91319D01*
X414547Y94680D01*
X417120Y97253D01*
X420481Y98645D01*
X424119Y98645D01*
X427480Y97253D01*
X430053Y94680D01*
X431445Y91319D01*
X431445Y87681D01*
X430053Y84320D01*
X427480Y81747D01*
X424119Y80355D01*
X420481Y80355D01*
G37*
%LPD*%
%LPC*%
G36*
X98481Y105755D02*
X98481Y105755D01*
X95120Y107147D01*
X92547Y109720D01*
X91155Y113081D01*
X91155Y116719D01*
X92547Y120080D01*
X95120Y122653D01*
X98481Y124045D01*
X102119Y124045D01*
X105480Y122653D01*
X108053Y120080D01*
X109445Y116719D01*
X109445Y113081D01*
X108053Y109720D01*
X105480Y107147D01*
X102119Y105755D01*
X98481Y105755D01*
G37*
%LPD*%
%LPC*%
G36*
X642781Y247055D02*
X642781Y247055D01*
X639420Y248447D01*
X636847Y251020D01*
X635455Y254381D01*
X635455Y258019D01*
X636847Y261380D01*
X639420Y263953D01*
X642781Y265345D01*
X646419Y265345D01*
X649780Y263953D01*
X652353Y261380D01*
X653745Y258019D01*
X653745Y254381D01*
X652353Y251020D01*
X649780Y248447D01*
X646419Y247055D01*
X642781Y247055D01*
G37*
%LPD*%
%LPC*%
G36*
X668181Y247055D02*
X668181Y247055D01*
X664820Y248447D01*
X662247Y251020D01*
X660855Y254381D01*
X660855Y258019D01*
X662247Y261380D01*
X664820Y263953D01*
X668181Y265345D01*
X671819Y265345D01*
X675180Y263953D01*
X677753Y261380D01*
X679145Y258019D01*
X679145Y254381D01*
X677753Y251020D01*
X675180Y248447D01*
X671819Y247055D01*
X668181Y247055D01*
G37*
%LPD*%
%LPC*%
G36*
X820581Y247055D02*
X820581Y247055D01*
X817220Y248447D01*
X814647Y251020D01*
X813255Y254381D01*
X813255Y258019D01*
X814647Y261380D01*
X817220Y263953D01*
X820581Y265345D01*
X824219Y265345D01*
X827580Y263953D01*
X830153Y261380D01*
X831545Y258019D01*
X831545Y254381D01*
X830153Y251020D01*
X827580Y248447D01*
X824219Y247055D01*
X820581Y247055D01*
G37*
%LPD*%
%LPC*%
G36*
X795181Y247055D02*
X795181Y247055D01*
X791820Y248447D01*
X789247Y251020D01*
X787855Y254381D01*
X787855Y258019D01*
X789247Y261380D01*
X791820Y263953D01*
X795181Y265345D01*
X798819Y265345D01*
X802180Y263953D01*
X804753Y261380D01*
X806145Y258019D01*
X806145Y254381D01*
X804753Y251020D01*
X802180Y248447D01*
X798819Y247055D01*
X795181Y247055D01*
G37*
%LPD*%
%LPC*%
G36*
X293481Y232755D02*
X293481Y232755D01*
X290120Y234147D01*
X287547Y236720D01*
X286155Y240081D01*
X286155Y243719D01*
X287547Y247080D01*
X290120Y249653D01*
X293481Y251045D01*
X297119Y251045D01*
X300480Y249653D01*
X303053Y247080D01*
X304445Y243719D01*
X304445Y240081D01*
X303053Y236720D01*
X300480Y234147D01*
X297119Y232755D01*
X293481Y232755D01*
G37*
%LPD*%
%LPC*%
G36*
X293481Y207355D02*
X293481Y207355D01*
X290120Y208747D01*
X287547Y211320D01*
X286155Y214681D01*
X286155Y218319D01*
X287547Y221680D01*
X290120Y224253D01*
X293481Y225645D01*
X297119Y225645D01*
X300480Y224253D01*
X303053Y221680D01*
X304445Y218319D01*
X304445Y214681D01*
X303053Y211320D01*
X300480Y208747D01*
X297119Y207355D01*
X293481Y207355D01*
G37*
%LPD*%
%LPC*%
G36*
X225481Y207355D02*
X225481Y207355D01*
X222120Y208747D01*
X219547Y211320D01*
X218155Y214681D01*
X218155Y218319D01*
X219547Y221680D01*
X222120Y224253D01*
X225481Y225645D01*
X229119Y225645D01*
X232480Y224253D01*
X235053Y221680D01*
X236445Y218319D01*
X236445Y214681D01*
X235053Y211320D01*
X232480Y208747D01*
X229119Y207355D01*
X225481Y207355D01*
G37*
%LPD*%
%LPC*%
G36*
X293481Y181955D02*
X293481Y181955D01*
X290120Y183347D01*
X287547Y185920D01*
X286155Y189281D01*
X286155Y192919D01*
X287547Y196280D01*
X290120Y198853D01*
X293481Y200245D01*
X297119Y200245D01*
X300480Y198853D01*
X303053Y196280D01*
X304445Y192919D01*
X304445Y189281D01*
X303053Y185920D01*
X300480Y183347D01*
X297119Y181955D01*
X293481Y181955D01*
G37*
%LPD*%
%LPC*%
G36*
X98481Y181955D02*
X98481Y181955D01*
X95120Y183347D01*
X92547Y185920D01*
X91155Y189281D01*
X91155Y192919D01*
X92547Y196280D01*
X95120Y198853D01*
X98481Y200245D01*
X102119Y200245D01*
X105480Y198853D01*
X108053Y196280D01*
X109445Y192919D01*
X109445Y189281D01*
X108053Y185920D01*
X105480Y183347D01*
X102119Y181955D01*
X98481Y181955D01*
G37*
%LPD*%
%LPC*%
G36*
X98481Y131155D02*
X98481Y131155D01*
X95120Y132547D01*
X92547Y135120D01*
X91155Y138481D01*
X91155Y142119D01*
X92547Y145480D01*
X95120Y148053D01*
X98481Y149445D01*
X102119Y149445D01*
X105480Y148053D01*
X108053Y145480D01*
X109445Y142119D01*
X109445Y138481D01*
X108053Y135120D01*
X105480Y132547D01*
X102119Y131155D01*
X98481Y131155D01*
G37*
%LPD*%
%LPC*%
G36*
X98481Y156555D02*
X98481Y156555D01*
X95120Y157947D01*
X92547Y160520D01*
X91155Y163881D01*
X91155Y167519D01*
X92547Y170880D01*
X95120Y173453D01*
X98481Y174845D01*
X102119Y174845D01*
X105480Y173453D01*
X108053Y170880D01*
X109445Y167519D01*
X109445Y163881D01*
X108053Y160520D01*
X105480Y157947D01*
X102119Y156555D01*
X98481Y156555D01*
G37*
%LPD*%
%LPC*%
G36*
X293481Y156555D02*
X293481Y156555D01*
X290120Y157947D01*
X287547Y160520D01*
X286155Y163881D01*
X286155Y167519D01*
X287547Y170880D01*
X290120Y173453D01*
X293481Y174845D01*
X297119Y174845D01*
X300480Y173453D01*
X303053Y170880D01*
X304445Y167519D01*
X304445Y163881D01*
X303053Y160520D01*
X300480Y157947D01*
X297119Y156555D01*
X293481Y156555D01*
G37*
%LPD*%
%LPC*%
G36*
X675743Y502879D02*
X675743Y502879D01*
X671279Y507343D01*
X671279Y513657D01*
X675743Y518121D01*
X682057Y518121D01*
X686521Y513657D01*
X686521Y507343D01*
X682057Y502879D01*
X675743Y502879D01*
G37*
%LPD*%
%LPC*%
G36*
X79143Y502879D02*
X79143Y502879D01*
X74679Y507343D01*
X74679Y513657D01*
X79143Y518121D01*
X85457Y518121D01*
X89921Y513657D01*
X89921Y507343D01*
X85457Y502879D01*
X79143Y502879D01*
G37*
%LPD*%
%LPC*%
G36*
X278010Y502879D02*
X278010Y502879D01*
X273546Y507343D01*
X273546Y513657D01*
X278010Y518121D01*
X284324Y518121D01*
X288788Y513657D01*
X288788Y507343D01*
X284324Y502879D01*
X278010Y502879D01*
G37*
%LPD*%
%LPC*%
G36*
X612443Y177379D02*
X612443Y177379D01*
X607979Y181843D01*
X607979Y188157D01*
X612443Y192621D01*
X618757Y192621D01*
X623221Y188157D01*
X623221Y181843D01*
X618757Y177379D01*
X612443Y177379D01*
G37*
%LPD*%
%LPC*%
G36*
X509441Y488300D02*
X509441Y488300D01*
X506868Y489366D01*
X504899Y491335D01*
X503833Y493908D01*
X503833Y496692D01*
X504899Y499265D01*
X506868Y501234D01*
X509441Y502300D01*
X512225Y502300D01*
X514798Y501234D01*
X516767Y499265D01*
X517833Y496692D01*
X517833Y493908D01*
X516767Y491335D01*
X514798Y489366D01*
X512225Y488300D01*
X509441Y488300D01*
G37*
%LPD*%
%LPC*%
G36*
X624441Y488300D02*
X624441Y488300D01*
X621868Y489366D01*
X619899Y491335D01*
X618833Y493908D01*
X618833Y496692D01*
X619899Y499265D01*
X621868Y501234D01*
X624441Y502300D01*
X627225Y502300D01*
X629798Y501234D01*
X631767Y499265D01*
X632833Y496692D01*
X632833Y493908D01*
X631767Y491335D01*
X629798Y489366D01*
X627225Y488300D01*
X624441Y488300D01*
G37*
%LPD*%
%LPC*%
G36*
X116108Y488300D02*
X116108Y488300D01*
X113535Y489366D01*
X111566Y491335D01*
X110500Y493908D01*
X110500Y496692D01*
X111566Y499265D01*
X113535Y501234D01*
X116108Y502300D01*
X118892Y502300D01*
X121465Y501234D01*
X123434Y499265D01*
X124500Y496692D01*
X124500Y493908D01*
X123434Y491335D01*
X121465Y489366D01*
X118892Y488300D01*
X116108Y488300D01*
G37*
%LPD*%
%LPC*%
G36*
X231108Y488300D02*
X231108Y488300D01*
X228535Y489366D01*
X226566Y491335D01*
X225500Y493908D01*
X225500Y496692D01*
X226566Y499265D01*
X228535Y501234D01*
X231108Y502300D01*
X233892Y502300D01*
X236465Y501234D01*
X238434Y499265D01*
X239500Y496692D01*
X239500Y493908D01*
X238434Y491335D01*
X236465Y489366D01*
X233892Y488300D01*
X231108Y488300D01*
G37*
%LPD*%
%LPC*%
G36*
X231108Y462900D02*
X231108Y462900D01*
X228535Y463966D01*
X226566Y465935D01*
X225500Y468508D01*
X225500Y471292D01*
X226566Y473865D01*
X228535Y475834D01*
X231108Y476900D01*
X233892Y476900D01*
X236465Y475834D01*
X238434Y473865D01*
X239500Y471292D01*
X239500Y468508D01*
X238434Y465935D01*
X236465Y463966D01*
X233892Y462900D01*
X231108Y462900D01*
G37*
%LPD*%
%LPC*%
G36*
X624441Y462900D02*
X624441Y462900D01*
X621868Y463966D01*
X619899Y465935D01*
X618833Y468508D01*
X618833Y471292D01*
X619899Y473865D01*
X621868Y475834D01*
X624441Y476900D01*
X627225Y476900D01*
X629798Y475834D01*
X631767Y473865D01*
X632833Y471292D01*
X632833Y468508D01*
X631767Y465935D01*
X629798Y463966D01*
X627225Y462900D01*
X624441Y462900D01*
G37*
%LPD*%
%LPC*%
G36*
X821108Y462900D02*
X821108Y462900D01*
X818535Y463966D01*
X816566Y465935D01*
X815500Y468508D01*
X815500Y471292D01*
X816566Y473865D01*
X818535Y475834D01*
X821108Y476900D01*
X823892Y476900D01*
X826465Y475834D01*
X828434Y473865D01*
X829500Y471292D01*
X829500Y468508D01*
X828434Y465935D01*
X826465Y463966D01*
X823892Y462900D01*
X821108Y462900D01*
G37*
%LPD*%
%LPC*%
G36*
X706108Y462900D02*
X706108Y462900D01*
X703535Y463966D01*
X701566Y465935D01*
X700500Y468508D01*
X700500Y471292D01*
X701566Y473865D01*
X703535Y475834D01*
X706108Y476900D01*
X708892Y476900D01*
X711465Y475834D01*
X713434Y473865D01*
X714500Y471292D01*
X714500Y468508D01*
X713434Y465935D01*
X711465Y463966D01*
X708892Y462900D01*
X706108Y462900D01*
G37*
%LPD*%
%LPC*%
G36*
X116108Y462900D02*
X116108Y462900D01*
X113535Y463966D01*
X111566Y465935D01*
X110500Y468508D01*
X110500Y471292D01*
X111566Y473865D01*
X113535Y475834D01*
X116108Y476900D01*
X118892Y476900D01*
X121465Y475834D01*
X123434Y473865D01*
X124500Y471292D01*
X124500Y468508D01*
X123434Y465935D01*
X121465Y463966D01*
X118892Y462900D01*
X116108Y462900D01*
G37*
%LPD*%
%LPC*%
G36*
X312775Y462900D02*
X312775Y462900D01*
X310202Y463966D01*
X308233Y465935D01*
X307167Y468508D01*
X307167Y471292D01*
X308233Y473865D01*
X310202Y475834D01*
X312775Y476900D01*
X315559Y476900D01*
X318132Y475834D01*
X320101Y473865D01*
X321167Y471292D01*
X321167Y468508D01*
X320101Y465935D01*
X318132Y463966D01*
X315559Y462900D01*
X312775Y462900D01*
G37*
%LPD*%
%LPC*%
G36*
X509441Y462900D02*
X509441Y462900D01*
X506868Y463966D01*
X504899Y465935D01*
X503833Y468508D01*
X503833Y471292D01*
X504899Y473865D01*
X506868Y475834D01*
X509441Y476900D01*
X512225Y476900D01*
X514798Y475834D01*
X516767Y473865D01*
X517833Y471292D01*
X517833Y468508D01*
X516767Y465935D01*
X514798Y463966D01*
X512225Y462900D01*
X509441Y462900D01*
G37*
%LPD*%
%LPC*%
G36*
X427775Y462900D02*
X427775Y462900D01*
X425202Y463966D01*
X423233Y465935D01*
X422167Y468508D01*
X422167Y471292D01*
X423233Y473865D01*
X425202Y475834D01*
X427775Y476900D01*
X430559Y476900D01*
X433132Y475834D01*
X435101Y473865D01*
X436167Y471292D01*
X436167Y468508D01*
X435101Y465935D01*
X433132Y463966D01*
X430559Y462900D01*
X427775Y462900D01*
G37*
%LPD*%
%LPC*%
G36*
X821108Y488300D02*
X821108Y488300D01*
X818535Y489366D01*
X816566Y491335D01*
X815500Y493908D01*
X815500Y496692D01*
X816566Y499265D01*
X818535Y501234D01*
X821108Y502300D01*
X823892Y502300D01*
X826465Y501234D01*
X828434Y499265D01*
X829500Y496692D01*
X829500Y493908D01*
X828434Y491335D01*
X826465Y489366D01*
X823892Y488300D01*
X821108Y488300D01*
G37*
%LPD*%
%LPC*%
G36*
X706108Y488300D02*
X706108Y488300D01*
X703535Y489366D01*
X701566Y491335D01*
X700500Y493908D01*
X700500Y496692D01*
X701566Y499265D01*
X703535Y501234D01*
X706108Y502300D01*
X708892Y502300D01*
X711465Y501234D01*
X713434Y499265D01*
X714500Y496692D01*
X714500Y493908D01*
X713434Y491335D01*
X711465Y489366D01*
X708892Y488300D01*
X706108Y488300D01*
G37*
%LPD*%
%LPC*%
G36*
X427775Y488300D02*
X427775Y488300D01*
X425202Y489366D01*
X423233Y491335D01*
X422167Y493908D01*
X422167Y496692D01*
X423233Y499265D01*
X425202Y501234D01*
X427775Y502300D01*
X430559Y502300D01*
X433132Y501234D01*
X435101Y499265D01*
X436167Y496692D01*
X436167Y493908D01*
X435101Y491335D01*
X433132Y489366D01*
X430559Y488300D01*
X427775Y488300D01*
G37*
%LPD*%
%LPC*%
G36*
X821108Y437500D02*
X821108Y437500D01*
X818535Y438566D01*
X816566Y440535D01*
X815500Y443108D01*
X815500Y445892D01*
X816566Y448465D01*
X818535Y450434D01*
X821108Y451500D01*
X823892Y451500D01*
X826465Y450434D01*
X828434Y448465D01*
X829500Y445892D01*
X829500Y443108D01*
X828434Y440535D01*
X826465Y438566D01*
X823892Y437500D01*
X821108Y437500D01*
G37*
%LPD*%
%LPC*%
G36*
X427775Y437500D02*
X427775Y437500D01*
X425202Y438566D01*
X423233Y440535D01*
X422167Y443108D01*
X422167Y445892D01*
X423233Y448465D01*
X425202Y450434D01*
X427775Y451500D01*
X430559Y451500D01*
X433132Y450434D01*
X435101Y448465D01*
X436167Y445892D01*
X436167Y443108D01*
X435101Y440535D01*
X433132Y438566D01*
X430559Y437500D01*
X427775Y437500D01*
G37*
%LPD*%
%LPC*%
G36*
X562792Y401743D02*
X562792Y401743D01*
X562792Y412838D01*
X564243Y412608D01*
X566144Y411990D01*
X567926Y411083D01*
X569543Y409907D01*
X570956Y408494D01*
X572132Y406877D01*
X573039Y405095D01*
X573657Y403194D01*
X573887Y401743D01*
X562792Y401743D01*
G37*
%LPD*%
%LPC*%
G36*
X678630Y401743D02*
X678630Y401743D01*
X678630Y412838D01*
X680081Y412608D01*
X681982Y411990D01*
X683764Y411083D01*
X685381Y409907D01*
X686794Y408494D01*
X687970Y406877D01*
X688877Y405095D01*
X689495Y403194D01*
X689725Y401743D01*
X678630Y401743D01*
G37*
%LPD*%
%LPC*%
G36*
X331117Y373803D02*
X331117Y373803D01*
X331117Y384898D01*
X332568Y384668D01*
X334469Y384050D01*
X336251Y383143D01*
X337868Y381967D01*
X339281Y380554D01*
X340457Y378937D01*
X341364Y377155D01*
X341982Y375254D01*
X342212Y373803D01*
X331117Y373803D01*
G37*
%LPD*%
%LPC*%
G36*
X41523Y401743D02*
X41523Y401743D01*
X41523Y412838D01*
X42974Y412608D01*
X44875Y411990D01*
X46657Y411083D01*
X48274Y409907D01*
X49687Y408494D01*
X50863Y406877D01*
X51770Y405095D01*
X52388Y403194D01*
X52618Y401743D01*
X41523Y401743D01*
G37*
%LPD*%
%LPC*%
G36*
X273198Y401743D02*
X273198Y401743D01*
X273198Y412838D01*
X274649Y412608D01*
X276550Y411990D01*
X278332Y411083D01*
X279949Y409907D01*
X281362Y408494D01*
X282538Y406877D01*
X283445Y405095D01*
X284063Y403194D01*
X284293Y401743D01*
X273198Y401743D01*
G37*
%LPD*%
%LPC*%
G36*
X620711Y373803D02*
X620711Y373803D01*
X620711Y384898D01*
X622162Y384668D01*
X624063Y384050D01*
X625845Y383143D01*
X627462Y381967D01*
X628875Y380554D01*
X630051Y378937D01*
X630958Y377155D01*
X631576Y375254D01*
X631806Y373803D01*
X620711Y373803D01*
G37*
%LPD*%
%LPC*%
G36*
X157361Y373803D02*
X157361Y373803D01*
X157361Y384898D01*
X158812Y384668D01*
X160713Y384050D01*
X162495Y383143D01*
X164112Y381967D01*
X165525Y380554D01*
X166701Y378937D01*
X167608Y377155D01*
X168226Y375254D01*
X168456Y373803D01*
X157361Y373803D01*
G37*
%LPD*%
%LPC*%
G36*
X389036Y401743D02*
X389036Y401743D01*
X389036Y412838D01*
X390487Y412608D01*
X392388Y411990D01*
X394170Y411083D01*
X395787Y409907D01*
X397200Y408494D01*
X398376Y406877D01*
X399283Y405095D01*
X399901Y403194D01*
X400131Y401743D01*
X389036Y401743D01*
G37*
%LPD*%
%LPC*%
G36*
X215279Y401743D02*
X215279Y401743D01*
X215279Y412838D01*
X216730Y412608D01*
X218631Y411990D01*
X220413Y411083D01*
X222030Y409907D01*
X223443Y408494D01*
X224619Y406877D01*
X225526Y405095D01*
X226144Y403194D01*
X226374Y401743D01*
X215279Y401743D01*
G37*
%LPD*%
%LPC*%
G36*
X99442Y401743D02*
X99442Y401743D01*
X99442Y412838D01*
X100893Y412608D01*
X102794Y411990D01*
X104576Y411083D01*
X106193Y409907D01*
X107606Y408494D01*
X108782Y406877D01*
X109689Y405095D01*
X110307Y403194D01*
X110537Y401743D01*
X99442Y401743D01*
G37*
%LPD*%
%LPC*%
G36*
X446955Y401743D02*
X446955Y401743D01*
X446955Y412838D01*
X448406Y412608D01*
X450307Y411990D01*
X452089Y411083D01*
X453706Y409907D01*
X455119Y408494D01*
X456295Y406877D01*
X457202Y405095D01*
X457820Y403194D01*
X458050Y401743D01*
X446955Y401743D01*
G37*
%LPD*%
%LPC*%
G36*
X85301Y401743D02*
X85301Y401743D01*
X85531Y403194D01*
X86149Y405095D01*
X87056Y406877D01*
X88232Y408494D01*
X89645Y409907D01*
X91262Y411083D01*
X93044Y411990D01*
X94945Y412608D01*
X96396Y412838D01*
X96396Y401743D01*
X85301Y401743D01*
G37*
%LPD*%
%LPC*%
G36*
X201138Y401743D02*
X201138Y401743D01*
X201368Y403194D01*
X201986Y405095D01*
X202893Y406877D01*
X204069Y408494D01*
X205482Y409907D01*
X207099Y411083D01*
X208881Y411990D01*
X210782Y412608D01*
X212233Y412838D01*
X212233Y401743D01*
X201138Y401743D01*
G37*
%LPD*%
%LPC*%
G36*
X27382Y401743D02*
X27382Y401743D01*
X27612Y403194D01*
X28230Y405095D01*
X29137Y406877D01*
X30313Y408494D01*
X31726Y409907D01*
X33343Y411083D01*
X35125Y411990D01*
X37026Y412608D01*
X38477Y412838D01*
X38477Y401743D01*
X27382Y401743D01*
G37*
%LPD*%
%LPC*%
G36*
X374895Y401743D02*
X374895Y401743D01*
X375125Y403194D01*
X375743Y405095D01*
X376650Y406877D01*
X377826Y408494D01*
X379239Y409907D01*
X380856Y411083D01*
X382638Y411990D01*
X384539Y412608D01*
X385990Y412838D01*
X385990Y401743D01*
X374895Y401743D01*
G37*
%LPD*%
%LPC*%
G36*
X504874Y370757D02*
X504874Y370757D01*
X515969Y370757D01*
X515739Y369306D01*
X515121Y367405D01*
X514214Y365623D01*
X513038Y364006D01*
X511625Y362593D01*
X510008Y361417D01*
X508226Y360510D01*
X506325Y359892D01*
X504874Y359662D01*
X504874Y370757D01*
G37*
%LPD*%
%LPC*%
G36*
X316976Y373803D02*
X316976Y373803D01*
X317206Y375254D01*
X317824Y377155D01*
X318731Y378937D01*
X319907Y380554D01*
X321320Y381967D01*
X322937Y383143D01*
X324719Y384050D01*
X326620Y384668D01*
X328071Y384898D01*
X328071Y373803D01*
X316976Y373803D01*
G37*
%LPD*%
%LPC*%
G36*
X215279Y398697D02*
X215279Y398697D01*
X226374Y398697D01*
X226144Y397246D01*
X225526Y395345D01*
X224619Y393563D01*
X223443Y391946D01*
X222030Y390533D01*
X220413Y389357D01*
X218631Y388450D01*
X216730Y387832D01*
X215279Y387602D01*
X215279Y398697D01*
G37*
%LPD*%
%LPC*%
G36*
X562792Y398697D02*
X562792Y398697D01*
X573887Y398697D01*
X573657Y397246D01*
X573039Y395345D01*
X572132Y393563D01*
X570956Y391946D01*
X569543Y390533D01*
X567926Y389357D01*
X566144Y388450D01*
X564243Y387832D01*
X562792Y387602D01*
X562792Y398697D01*
G37*
%LPD*%
%LPC*%
G36*
X99442Y398697D02*
X99442Y398697D01*
X110537Y398697D01*
X110307Y397246D01*
X109689Y395345D01*
X108782Y393563D01*
X107606Y391946D01*
X106193Y390533D01*
X104576Y389357D01*
X102794Y388450D01*
X100893Y387832D01*
X99442Y387602D01*
X99442Y398697D01*
G37*
%LPD*%
%LPC*%
G36*
X446955Y398697D02*
X446955Y398697D01*
X458050Y398697D01*
X457820Y397246D01*
X457202Y395345D01*
X456295Y393563D01*
X455119Y391946D01*
X453706Y390533D01*
X452089Y389357D01*
X450307Y388450D01*
X448406Y387832D01*
X446955Y387602D01*
X446955Y398697D01*
G37*
%LPD*%
%LPC*%
G36*
X143220Y373803D02*
X143220Y373803D01*
X143450Y375254D01*
X144068Y377155D01*
X144975Y378937D01*
X146151Y380554D01*
X147564Y381967D01*
X149181Y383143D01*
X150963Y384050D01*
X152864Y384668D01*
X154315Y384898D01*
X154315Y373803D01*
X143220Y373803D01*
G37*
%LPD*%
%LPC*%
G36*
X606570Y373803D02*
X606570Y373803D01*
X606800Y375254D01*
X607418Y377155D01*
X608325Y378937D01*
X609501Y380554D01*
X610914Y381967D01*
X612531Y383143D01*
X614313Y384050D01*
X616214Y384668D01*
X617665Y384898D01*
X617665Y373803D01*
X606570Y373803D01*
G37*
%LPD*%
%LPC*%
G36*
X490733Y373803D02*
X490733Y373803D01*
X490963Y375254D01*
X491581Y377155D01*
X492488Y378937D01*
X493664Y380554D01*
X495077Y381967D01*
X496694Y383143D01*
X498476Y384050D01*
X500377Y384668D01*
X501828Y384898D01*
X501828Y373803D01*
X490733Y373803D01*
G37*
%LPD*%
%LPC*%
G36*
X389036Y398697D02*
X389036Y398697D01*
X400131Y398697D01*
X399901Y397246D01*
X399283Y395345D01*
X398376Y393563D01*
X397200Y391946D01*
X395787Y390533D01*
X394170Y389357D01*
X392388Y388450D01*
X390487Y387832D01*
X389036Y387602D01*
X389036Y398697D01*
G37*
%LPD*%
%LPC*%
G36*
X157361Y370757D02*
X157361Y370757D01*
X168456Y370757D01*
X168226Y369306D01*
X167608Y367405D01*
X166701Y365623D01*
X165525Y364006D01*
X164112Y362593D01*
X162495Y361417D01*
X160713Y360510D01*
X158812Y359892D01*
X157361Y359662D01*
X157361Y370757D01*
G37*
%LPD*%
%LPC*%
G36*
X678630Y398697D02*
X678630Y398697D01*
X689725Y398697D01*
X689495Y397246D01*
X688877Y395345D01*
X687970Y393563D01*
X686794Y391946D01*
X685381Y390533D01*
X683764Y389357D01*
X681982Y388450D01*
X680081Y387832D01*
X678630Y387602D01*
X678630Y398697D01*
G37*
%LPD*%
%LPC*%
G36*
X41523Y398697D02*
X41523Y398697D01*
X52618Y398697D01*
X52388Y397246D01*
X51770Y395345D01*
X50863Y393563D01*
X49687Y391946D01*
X48274Y390533D01*
X46657Y389357D01*
X44875Y388450D01*
X42974Y387832D01*
X41523Y387602D01*
X41523Y398697D01*
G37*
%LPD*%
%LPC*%
G36*
X331117Y370757D02*
X331117Y370757D01*
X342212Y370757D01*
X341982Y369306D01*
X341364Y367405D01*
X340457Y365623D01*
X339281Y364006D01*
X337868Y362593D01*
X336251Y361417D01*
X334469Y360510D01*
X332568Y359892D01*
X331117Y359662D01*
X331117Y370757D01*
G37*
%LPD*%
%LPC*%
G36*
X273198Y398697D02*
X273198Y398697D01*
X284293Y398697D01*
X284063Y397246D01*
X283445Y395345D01*
X282538Y393563D01*
X281362Y391946D01*
X279949Y390533D01*
X278332Y389357D01*
X276550Y388450D01*
X274649Y387832D01*
X273198Y387602D01*
X273198Y398697D01*
G37*
%LPD*%
%LPC*%
G36*
X432814Y401743D02*
X432814Y401743D01*
X433044Y403194D01*
X433662Y405095D01*
X434569Y406877D01*
X435745Y408494D01*
X437158Y409907D01*
X438775Y411083D01*
X440557Y411990D01*
X442458Y412608D01*
X443909Y412838D01*
X443909Y401743D01*
X432814Y401743D01*
G37*
%LPD*%
%LPC*%
G36*
X259057Y401743D02*
X259057Y401743D01*
X259287Y403194D01*
X259905Y405095D01*
X260812Y406877D01*
X261988Y408494D01*
X263401Y409907D01*
X265018Y411083D01*
X266800Y411990D01*
X268701Y412608D01*
X270152Y412838D01*
X270152Y401743D01*
X259057Y401743D01*
G37*
%LPD*%
%LPC*%
G36*
X548651Y401743D02*
X548651Y401743D01*
X548881Y403194D01*
X549499Y405095D01*
X550406Y406877D01*
X551582Y408494D01*
X552995Y409907D01*
X554612Y411083D01*
X556394Y411990D01*
X558295Y412608D01*
X559746Y412838D01*
X559746Y401743D01*
X548651Y401743D01*
G37*
%LPD*%
%LPC*%
G36*
X664489Y401743D02*
X664489Y401743D01*
X664719Y403194D01*
X665337Y405095D01*
X666244Y406877D01*
X667420Y408494D01*
X668833Y409907D01*
X670450Y411083D01*
X672232Y411990D01*
X674133Y412608D01*
X675584Y412838D01*
X675584Y401743D01*
X664489Y401743D01*
G37*
%LPD*%
%LPC*%
G36*
X326620Y359892D02*
X326620Y359892D01*
X324719Y360510D01*
X322937Y361417D01*
X321320Y362593D01*
X319907Y364006D01*
X318731Y365623D01*
X317824Y367405D01*
X317206Y369306D01*
X316976Y370757D01*
X328071Y370757D01*
X328071Y359662D01*
X326620Y359892D01*
G37*
%LPD*%
%LPC*%
G36*
X384539Y387832D02*
X384539Y387832D01*
X382638Y388450D01*
X380856Y389357D01*
X379239Y390533D01*
X377826Y391946D01*
X376650Y393563D01*
X375743Y395345D01*
X375125Y397246D01*
X374895Y398697D01*
X385990Y398697D01*
X385990Y387602D01*
X384539Y387832D01*
G37*
%LPD*%
%LPC*%
G36*
X558295Y387832D02*
X558295Y387832D01*
X556394Y388450D01*
X554612Y389357D01*
X552995Y390533D01*
X551582Y391946D01*
X550406Y393563D01*
X549499Y395345D01*
X548881Y397246D01*
X548651Y398697D01*
X559746Y398697D01*
X559746Y387602D01*
X558295Y387832D01*
G37*
%LPD*%
%LPC*%
G36*
X442458Y387832D02*
X442458Y387832D01*
X440557Y388450D01*
X438775Y389357D01*
X437158Y390533D01*
X435745Y391946D01*
X434569Y393563D01*
X433662Y395345D01*
X433044Y397246D01*
X432814Y398697D01*
X443909Y398697D01*
X443909Y387602D01*
X442458Y387832D01*
G37*
%LPD*%
%LPC*%
G36*
X37026Y387832D02*
X37026Y387832D01*
X35125Y388450D01*
X33343Y389357D01*
X31726Y390533D01*
X30313Y391946D01*
X29137Y393563D01*
X28230Y395345D01*
X27612Y397246D01*
X27382Y398697D01*
X38477Y398697D01*
X38477Y387602D01*
X37026Y387832D01*
G37*
%LPD*%
%LPC*%
G36*
X152864Y359892D02*
X152864Y359892D01*
X150963Y360510D01*
X149181Y361417D01*
X147564Y362593D01*
X146151Y364006D01*
X144975Y365623D01*
X144068Y367405D01*
X143450Y369306D01*
X143220Y370757D01*
X154315Y370757D01*
X154315Y359662D01*
X152864Y359892D01*
G37*
%LPD*%
%LPC*%
G36*
X94945Y387832D02*
X94945Y387832D01*
X93044Y388450D01*
X91262Y389357D01*
X89645Y390533D01*
X88232Y391946D01*
X87056Y393563D01*
X86149Y395345D01*
X85531Y397246D01*
X85301Y398697D01*
X96396Y398697D01*
X96396Y387602D01*
X94945Y387832D01*
G37*
%LPD*%
%LPC*%
G36*
X616214Y359892D02*
X616214Y359892D01*
X614313Y360510D01*
X612531Y361417D01*
X610914Y362593D01*
X609501Y364006D01*
X608325Y365623D01*
X607418Y367405D01*
X606800Y369306D01*
X606570Y370757D01*
X617665Y370757D01*
X617665Y359662D01*
X616214Y359892D01*
G37*
%LPD*%
%LPC*%
G36*
X500377Y359892D02*
X500377Y359892D01*
X498476Y360510D01*
X496694Y361417D01*
X495077Y362593D01*
X493664Y364006D01*
X492488Y365623D01*
X491581Y367405D01*
X490963Y369306D01*
X490733Y370757D01*
X501828Y370757D01*
X501828Y359662D01*
X500377Y359892D01*
G37*
%LPD*%
%LPC*%
G36*
X674133Y387832D02*
X674133Y387832D01*
X672232Y388450D01*
X670450Y389357D01*
X668833Y390533D01*
X667420Y391946D01*
X666244Y393563D01*
X665337Y395345D01*
X664719Y397246D01*
X664489Y398697D01*
X675584Y398697D01*
X675584Y387602D01*
X674133Y387832D01*
G37*
%LPD*%
%LPC*%
G36*
X268701Y387832D02*
X268701Y387832D01*
X266800Y388450D01*
X265018Y389357D01*
X263401Y390533D01*
X261988Y391946D01*
X260812Y393563D01*
X259905Y395345D01*
X259287Y397246D01*
X259057Y398697D01*
X270152Y398697D01*
X270152Y387602D01*
X268701Y387832D01*
G37*
%LPD*%
%LPC*%
G36*
X210782Y387832D02*
X210782Y387832D01*
X208881Y388450D01*
X207099Y389357D01*
X205482Y390533D01*
X204069Y391946D01*
X202893Y393563D01*
X201986Y395345D01*
X201368Y397246D01*
X201138Y398697D01*
X212233Y398697D01*
X212233Y387602D01*
X210782Y387832D01*
G37*
%LPD*%
%LPC*%
G36*
X228823Y192623D02*
X228823Y192623D01*
X228823Y201261D01*
X235254Y201261D01*
X235901Y201088D01*
X236480Y200753D01*
X236953Y200280D01*
X237288Y199701D01*
X237461Y199054D01*
X237461Y192623D01*
X228823Y192623D01*
G37*
%LPD*%
%LPC*%
G36*
X296823Y268823D02*
X296823Y268823D01*
X296823Y277461D01*
X303254Y277461D01*
X303901Y277288D01*
X304480Y276953D01*
X304953Y276480D01*
X305288Y275901D01*
X305461Y275254D01*
X305461Y268823D01*
X296823Y268823D01*
G37*
%LPD*%
%LPC*%
G36*
X101823Y268823D02*
X101823Y268823D01*
X101823Y277461D01*
X108254Y277461D01*
X108901Y277288D01*
X109480Y276953D01*
X109953Y276480D01*
X110288Y275901D01*
X110461Y275254D01*
X110461Y268823D01*
X101823Y268823D01*
G37*
%LPD*%
%LPC*%
G36*
X285139Y268823D02*
X285139Y268823D01*
X285139Y275254D01*
X285312Y275901D01*
X285647Y276480D01*
X286120Y276953D01*
X286699Y277288D01*
X287346Y277461D01*
X293777Y277461D01*
X293777Y268823D01*
X285139Y268823D01*
G37*
%LPD*%
%LPC*%
G36*
X90139Y268823D02*
X90139Y268823D01*
X90139Y275254D01*
X90312Y275901D01*
X90647Y276480D01*
X91120Y276953D01*
X91699Y277288D01*
X92346Y277461D01*
X98777Y277461D01*
X98777Y268823D01*
X90139Y268823D01*
G37*
%LPD*%
%LPC*%
G36*
X217139Y192623D02*
X217139Y192623D01*
X217139Y199054D01*
X217312Y199701D01*
X217647Y200280D01*
X218120Y200753D01*
X218699Y201088D01*
X219346Y201261D01*
X225777Y201261D01*
X225777Y192623D01*
X217139Y192623D01*
G37*
%LPD*%
%LPC*%
G36*
X423823Y180939D02*
X423823Y180939D01*
X423823Y189577D01*
X432461Y189577D01*
X432461Y183146D01*
X432288Y182499D01*
X431953Y181920D01*
X431480Y181447D01*
X430901Y181112D01*
X430254Y180939D01*
X423823Y180939D01*
G37*
%LPD*%
%LPC*%
G36*
X228823Y180939D02*
X228823Y180939D01*
X228823Y189577D01*
X237461Y189577D01*
X237461Y183146D01*
X237288Y182499D01*
X236953Y181920D01*
X236480Y181447D01*
X235901Y181112D01*
X235254Y180939D01*
X228823Y180939D01*
G37*
%LPD*%
%LPC*%
G36*
X101823Y257139D02*
X101823Y257139D01*
X101823Y265777D01*
X110461Y265777D01*
X110461Y259346D01*
X110288Y258699D01*
X109953Y258120D01*
X109480Y257647D01*
X108901Y257312D01*
X108254Y257139D01*
X101823Y257139D01*
G37*
%LPD*%
%LPC*%
G36*
X296823Y257139D02*
X296823Y257139D01*
X296823Y265777D01*
X305461Y265777D01*
X305461Y259346D01*
X305288Y258699D01*
X304953Y258120D01*
X304480Y257647D01*
X303901Y257312D01*
X303254Y257139D01*
X296823Y257139D01*
G37*
%LPD*%
%LPC*%
G36*
X92346Y257139D02*
X92346Y257139D01*
X91699Y257312D01*
X91120Y257647D01*
X90647Y258120D01*
X90312Y258699D01*
X90139Y259346D01*
X90139Y265777D01*
X98777Y265777D01*
X98777Y257139D01*
X92346Y257139D01*
G37*
%LPD*%
%LPC*%
G36*
X414346Y180939D02*
X414346Y180939D01*
X413699Y181112D01*
X413120Y181447D01*
X412647Y181920D01*
X412312Y182499D01*
X412139Y183146D01*
X412139Y189577D01*
X420777Y189577D01*
X420777Y180939D01*
X414346Y180939D01*
G37*
%LPD*%
%LPC*%
G36*
X287346Y257139D02*
X287346Y257139D01*
X286699Y257312D01*
X286120Y257647D01*
X285647Y258120D01*
X285312Y258699D01*
X285139Y259346D01*
X285139Y265777D01*
X293777Y265777D01*
X293777Y257139D01*
X287346Y257139D01*
G37*
%LPD*%
%LPC*%
G36*
X219346Y180939D02*
X219346Y180939D01*
X218699Y181112D01*
X218120Y181447D01*
X217647Y181920D01*
X217312Y182499D01*
X217139Y183146D01*
X217139Y189577D01*
X225777Y189577D01*
X225777Y180939D01*
X219346Y180939D01*
G37*
%LPD*%
%LPC*%
G36*
X519123Y257723D02*
X519123Y257723D01*
X519123Y266246D01*
X519979Y266111D01*
X521500Y265616D01*
X522925Y264890D01*
X524219Y263950D01*
X525350Y262819D01*
X526290Y261525D01*
X527016Y260100D01*
X527511Y258579D01*
X527646Y257723D01*
X519123Y257723D01*
G37*
%LPD*%
%LPC*%
G36*
X569923Y105323D02*
X569923Y105323D01*
X569923Y113846D01*
X570779Y113711D01*
X572300Y113216D01*
X573725Y112490D01*
X575019Y111550D01*
X576150Y110419D01*
X577090Y109125D01*
X577816Y107700D01*
X578311Y106179D01*
X578446Y105323D01*
X569923Y105323D01*
G37*
%LPD*%
%LPC*%
G36*
X507554Y257723D02*
X507554Y257723D01*
X507689Y258579D01*
X508184Y260100D01*
X508910Y261525D01*
X509850Y262819D01*
X510981Y263950D01*
X512275Y264890D01*
X513700Y265616D01*
X515221Y266111D01*
X516077Y266246D01*
X516077Y257723D01*
X507554Y257723D01*
G37*
%LPD*%
%LPC*%
G36*
X569923Y102277D02*
X569923Y102277D01*
X578446Y102277D01*
X578311Y101421D01*
X577816Y99900D01*
X577090Y98475D01*
X576150Y97181D01*
X575019Y96050D01*
X573725Y95110D01*
X572300Y94384D01*
X570779Y93889D01*
X569923Y93754D01*
X569923Y102277D01*
G37*
%LPD*%
%LPC*%
G36*
X519123Y254677D02*
X519123Y254677D01*
X527646Y254677D01*
X527511Y253821D01*
X527016Y252300D01*
X526290Y250875D01*
X525350Y249581D01*
X524219Y248450D01*
X522925Y247510D01*
X521500Y246784D01*
X519979Y246289D01*
X519123Y246154D01*
X519123Y254677D01*
G37*
%LPD*%
%LPC*%
G36*
X558354Y105323D02*
X558354Y105323D01*
X558489Y106179D01*
X558984Y107700D01*
X559710Y109125D01*
X560650Y110419D01*
X561781Y111550D01*
X563075Y112490D01*
X564500Y113216D01*
X566021Y113711D01*
X566877Y113846D01*
X566877Y105323D01*
X558354Y105323D01*
G37*
%LPD*%
%LPC*%
G36*
X566021Y93889D02*
X566021Y93889D01*
X564500Y94384D01*
X563075Y95110D01*
X561781Y96050D01*
X560650Y97181D01*
X559710Y98475D01*
X558984Y99900D01*
X558489Y101421D01*
X558354Y102277D01*
X566877Y102277D01*
X566877Y93754D01*
X566021Y93889D01*
G37*
%LPD*%
%LPC*%
G36*
X515221Y246289D02*
X515221Y246289D01*
X513700Y246784D01*
X512275Y247510D01*
X510981Y248450D01*
X509850Y249581D01*
X508910Y250875D01*
X508184Y252300D01*
X507689Y253821D01*
X507554Y254677D01*
X516077Y254677D01*
X516077Y246154D01*
X515221Y246289D01*
G37*
%LPD*%
%LPC*%
G36*
X540923Y186523D02*
X540923Y186523D01*
X540923Y193637D01*
X542977Y193637D01*
X548037Y188577D01*
X548037Y186523D01*
X540923Y186523D01*
G37*
%LPD*%
%LPC*%
G36*
X540923Y216523D02*
X540923Y216523D01*
X540923Y223637D01*
X542977Y223637D01*
X548037Y218577D01*
X548037Y216523D01*
X540923Y216523D01*
G37*
%LPD*%
%LPC*%
G36*
X530763Y216523D02*
X530763Y216523D01*
X530763Y218577D01*
X535823Y223637D01*
X537877Y223637D01*
X537877Y216523D01*
X530763Y216523D01*
G37*
%LPD*%
%LPC*%
G36*
X530763Y186523D02*
X530763Y186523D01*
X530763Y188577D01*
X535823Y193637D01*
X537877Y193637D01*
X537877Y186523D01*
X530763Y186523D01*
G37*
%LPD*%
%LPC*%
G36*
X540923Y176363D02*
X540923Y176363D01*
X540923Y183477D01*
X548037Y183477D01*
X548037Y181423D01*
X542977Y176363D01*
X540923Y176363D01*
G37*
%LPD*%
%LPC*%
G36*
X535823Y176363D02*
X535823Y176363D01*
X530763Y181423D01*
X530763Y183477D01*
X537877Y183477D01*
X537877Y176363D01*
X535823Y176363D01*
G37*
%LPD*%
%LPC*%
G36*
X512356Y446023D02*
X512356Y446023D01*
X512356Y452370D01*
X513171Y452208D01*
X514630Y451603D01*
X515943Y450726D01*
X517059Y449610D01*
X517936Y448297D01*
X518541Y446838D01*
X518703Y446023D01*
X512356Y446023D01*
G37*
%LPD*%
%LPC*%
G36*
X119023Y446023D02*
X119023Y446023D01*
X119023Y452370D01*
X119838Y452208D01*
X121297Y451603D01*
X122610Y450726D01*
X123726Y449610D01*
X124603Y448297D01*
X125208Y446838D01*
X125370Y446023D01*
X119023Y446023D01*
G37*
%LPD*%
%LPC*%
G36*
X709023Y446023D02*
X709023Y446023D01*
X709023Y452370D01*
X709838Y452208D01*
X711297Y451603D01*
X712610Y450726D01*
X713726Y449610D01*
X714603Y448297D01*
X715208Y446838D01*
X715370Y446023D01*
X709023Y446023D01*
G37*
%LPD*%
%LPC*%
G36*
X315690Y446023D02*
X315690Y446023D01*
X315690Y452370D01*
X316505Y452208D01*
X317964Y451603D01*
X319277Y450726D01*
X320393Y449610D01*
X321270Y448297D01*
X321875Y446838D01*
X322037Y446023D01*
X315690Y446023D01*
G37*
%LPD*%
%LPC*%
G36*
X502963Y446023D02*
X502963Y446023D01*
X503125Y446838D01*
X503730Y448297D01*
X504607Y449610D01*
X505723Y450726D01*
X507036Y451603D01*
X508495Y452208D01*
X509310Y452370D01*
X509310Y446023D01*
X502963Y446023D01*
G37*
%LPD*%
%LPC*%
G36*
X306297Y446023D02*
X306297Y446023D01*
X306459Y446838D01*
X307064Y448297D01*
X307941Y449610D01*
X309057Y450726D01*
X310370Y451603D01*
X311829Y452208D01*
X312644Y452370D01*
X312644Y446023D01*
X306297Y446023D01*
G37*
%LPD*%
%LPC*%
G36*
X109630Y446023D02*
X109630Y446023D01*
X109792Y446838D01*
X110397Y448297D01*
X111274Y449610D01*
X112390Y450726D01*
X113703Y451603D01*
X115162Y452208D01*
X115977Y452370D01*
X115977Y446023D01*
X109630Y446023D01*
G37*
%LPD*%
%LPC*%
G36*
X709023Y442977D02*
X709023Y442977D01*
X715370Y442977D01*
X715208Y442162D01*
X714603Y440703D01*
X713726Y439390D01*
X712610Y438274D01*
X711297Y437397D01*
X709838Y436792D01*
X709023Y436630D01*
X709023Y442977D01*
G37*
%LPD*%
%LPC*%
G36*
X699630Y446023D02*
X699630Y446023D01*
X699792Y446838D01*
X700397Y448297D01*
X701274Y449610D01*
X702390Y450726D01*
X703703Y451603D01*
X705162Y452208D01*
X705977Y452370D01*
X705977Y446023D01*
X699630Y446023D01*
G37*
%LPD*%
%LPC*%
G36*
X512356Y442977D02*
X512356Y442977D01*
X518703Y442977D01*
X518541Y442162D01*
X517936Y440703D01*
X517059Y439390D01*
X515943Y438274D01*
X514630Y437397D01*
X513171Y436792D01*
X512356Y436630D01*
X512356Y442977D01*
G37*
%LPD*%
%LPC*%
G36*
X315690Y442977D02*
X315690Y442977D01*
X322037Y442977D01*
X321875Y442162D01*
X321270Y440703D01*
X320393Y439390D01*
X319277Y438274D01*
X317964Y437397D01*
X316505Y436792D01*
X315690Y436630D01*
X315690Y442977D01*
G37*
%LPD*%
%LPC*%
G36*
X119023Y442977D02*
X119023Y442977D01*
X125370Y442977D01*
X125208Y442162D01*
X124603Y440703D01*
X123726Y439390D01*
X122610Y438274D01*
X121297Y437397D01*
X119838Y436792D01*
X119023Y436630D01*
X119023Y442977D01*
G37*
%LPD*%
%LPC*%
G36*
X508495Y436792D02*
X508495Y436792D01*
X507036Y437397D01*
X505723Y438274D01*
X504607Y439390D01*
X503730Y440703D01*
X503125Y442162D01*
X502963Y442977D01*
X509310Y442977D01*
X509310Y436630D01*
X508495Y436792D01*
G37*
%LPD*%
%LPC*%
G36*
X311829Y436792D02*
X311829Y436792D01*
X310370Y437397D01*
X309057Y438274D01*
X307941Y439390D01*
X307064Y440703D01*
X306459Y442162D01*
X306297Y442977D01*
X312644Y442977D01*
X312644Y436630D01*
X311829Y436792D01*
G37*
%LPD*%
%LPC*%
G36*
X705162Y436792D02*
X705162Y436792D01*
X703703Y437397D01*
X702390Y438274D01*
X701274Y439390D01*
X700397Y440703D01*
X699792Y442162D01*
X699630Y442977D01*
X705977Y442977D01*
X705977Y436630D01*
X705162Y436792D01*
G37*
%LPD*%
%LPC*%
G36*
X115162Y436792D02*
X115162Y436792D01*
X113703Y437397D01*
X112390Y438274D01*
X111274Y439390D01*
X110397Y440703D01*
X109792Y442162D01*
X109630Y442977D01*
X115977Y442977D01*
X115977Y436630D01*
X115162Y436792D01*
G37*
%LPD*%
%LPC*%
G36*
X155837Y372279D02*
X155837Y372279D01*
X155837Y372281D01*
X155839Y372281D01*
X155839Y372279D01*
X155837Y372279D01*
G37*
%LPD*%
%LPC*%
G36*
X677106Y400219D02*
X677106Y400219D01*
X677106Y400221D01*
X677108Y400221D01*
X677108Y400219D01*
X677106Y400219D01*
G37*
%LPD*%
%LPC*%
G36*
X561268Y400219D02*
X561268Y400219D01*
X561268Y400221D01*
X561270Y400221D01*
X561270Y400219D01*
X561268Y400219D01*
G37*
%LPD*%
%LPC*%
G36*
X539399Y184999D02*
X539399Y184999D01*
X539399Y185001D01*
X539401Y185001D01*
X539401Y184999D01*
X539399Y184999D01*
G37*
%LPD*%
%LPC*%
G36*
X510832Y444499D02*
X510832Y444499D01*
X510832Y444501D01*
X510834Y444501D01*
X510834Y444499D01*
X510832Y444499D01*
G37*
%LPD*%
%LPC*%
G36*
X445431Y400219D02*
X445431Y400219D01*
X445431Y400221D01*
X445433Y400221D01*
X445433Y400219D01*
X445431Y400219D01*
G37*
%LPD*%
%LPC*%
G36*
X100299Y267299D02*
X100299Y267299D01*
X100299Y267301D01*
X100301Y267301D01*
X100301Y267299D01*
X100299Y267299D01*
G37*
%LPD*%
%LPC*%
G36*
X387512Y400219D02*
X387512Y400219D01*
X387512Y400221D01*
X387514Y400221D01*
X387514Y400219D01*
X387512Y400219D01*
G37*
%LPD*%
%LPC*%
G36*
X329593Y372279D02*
X329593Y372279D01*
X329593Y372281D01*
X329595Y372281D01*
X329595Y372279D01*
X329593Y372279D01*
G37*
%LPD*%
%LPC*%
G36*
X271674Y400219D02*
X271674Y400219D01*
X271674Y400221D01*
X271676Y400221D01*
X271676Y400219D01*
X271674Y400219D01*
G37*
%LPD*%
%LPC*%
G36*
X517599Y256199D02*
X517599Y256199D01*
X517599Y256201D01*
X517601Y256201D01*
X517601Y256199D01*
X517599Y256199D01*
G37*
%LPD*%
%LPC*%
G36*
X568399Y103799D02*
X568399Y103799D01*
X568399Y103801D01*
X568401Y103801D01*
X568401Y103799D01*
X568399Y103799D01*
G37*
%LPD*%
%LPC*%
G36*
X213755Y400219D02*
X213755Y400219D01*
X213755Y400221D01*
X213757Y400221D01*
X213757Y400219D01*
X213755Y400219D01*
G37*
%LPD*%
%LPC*%
G36*
X295299Y267299D02*
X295299Y267299D01*
X295299Y267301D01*
X295301Y267301D01*
X295301Y267299D01*
X295299Y267299D01*
G37*
%LPD*%
%LPC*%
G36*
X117499Y444499D02*
X117499Y444499D01*
X117499Y444501D01*
X117501Y444501D01*
X117501Y444499D01*
X117499Y444499D01*
G37*
%LPD*%
%LPC*%
G36*
X619187Y372279D02*
X619187Y372279D01*
X619187Y372281D01*
X619189Y372281D01*
X619189Y372279D01*
X619187Y372279D01*
G37*
%LPD*%
%LPC*%
G36*
X707499Y444499D02*
X707499Y444499D01*
X707499Y444501D01*
X707501Y444501D01*
X707501Y444499D01*
X707499Y444499D01*
G37*
%LPD*%
%LPC*%
G36*
X503350Y372279D02*
X503350Y372279D01*
X503350Y372281D01*
X503352Y372281D01*
X503352Y372279D01*
X503350Y372279D01*
G37*
%LPD*%
%LPC*%
G36*
X314166Y444499D02*
X314166Y444499D01*
X314166Y444501D01*
X314168Y444501D01*
X314168Y444499D01*
X314166Y444499D01*
G37*
%LPD*%
%LPC*%
G36*
X39999Y400219D02*
X39999Y400219D01*
X39999Y400221D01*
X40001Y400221D01*
X40001Y400219D01*
X39999Y400219D01*
G37*
%LPD*%
%LPC*%
G36*
X97918Y400219D02*
X97918Y400219D01*
X97918Y400221D01*
X97920Y400221D01*
X97920Y400219D01*
X97918Y400219D01*
G37*
%LPD*%
%LPC*%
G36*
X227299Y191099D02*
X227299Y191099D01*
X227299Y191101D01*
X227301Y191101D01*
X227301Y191099D01*
X227299Y191099D01*
G37*
%LPD*%
D10*
X678900Y510500D03*
X678900Y434300D03*
X480033Y510500D03*
X480033Y434300D03*
X281167Y510500D03*
X281167Y434300D03*
X82300Y510500D03*
X82300Y434300D03*
D11*
X725700Y55100D03*
X750700Y55100D03*
X529633Y55100D03*
X554633Y55100D03*
X333567Y55100D03*
X358567Y55100D03*
X137500Y55100D03*
X162500Y55100D03*
X51300Y261550D03*
X51300Y236550D03*
X52000Y160000D03*
X52000Y135000D03*
D12*
X707500Y444500D03*
X707500Y469900D03*
X707500Y495300D03*
X822500Y495300D03*
X822500Y469900D03*
X822500Y444500D03*
X510833Y444500D03*
X510833Y469900D03*
X510833Y495300D03*
X625833Y495300D03*
X625833Y469900D03*
X625833Y444500D03*
X314167Y444500D03*
X314167Y469900D03*
X314167Y495300D03*
X429167Y495300D03*
X429167Y469900D03*
X429167Y444500D03*
X117500Y444500D03*
X117500Y469900D03*
X117500Y495300D03*
X232500Y495300D03*
X232500Y469900D03*
X232500Y444500D03*
D13*
X422300Y89500D03*
X422300Y114900D03*
X422300Y140300D03*
X422300Y165700D03*
D14*
X422300Y191100D03*
D13*
X422300Y216500D03*
X422300Y241900D03*
D14*
X422300Y267300D03*
X295300Y267300D03*
D13*
X295300Y241900D03*
X295300Y216500D03*
X295300Y191100D03*
X295300Y165700D03*
X295300Y140300D03*
X295300Y114900D03*
D15*
X295300Y89500D03*
D13*
X227300Y89500D03*
X227300Y114900D03*
X227300Y140300D03*
X227300Y165700D03*
D14*
X227300Y191100D03*
D13*
X227300Y216500D03*
X227300Y241900D03*
D14*
X227300Y267300D03*
X100300Y267300D03*
D13*
X100300Y241900D03*
X100300Y216500D03*
X100300Y191100D03*
X100300Y165700D03*
X100300Y140300D03*
X100300Y114900D03*
D15*
X100300Y89500D03*
D16*
X561269Y372280D03*
X561269Y400220D03*
X445432Y372280D03*
X445432Y400220D03*
X271675Y372280D03*
X271675Y400220D03*
X97919Y372280D03*
X97919Y400220D03*
X677107Y372280D03*
X677107Y400220D03*
X387513Y372280D03*
X387513Y400220D03*
X213756Y372280D03*
X213756Y400220D03*
X40000Y372280D03*
X40000Y400220D03*
X155838Y372280D03*
X155838Y400220D03*
X329594Y372280D03*
X329594Y400220D03*
X619188Y372280D03*
X619188Y400220D03*
X503351Y372280D03*
X503351Y400220D03*
D11*
X848000Y352500D03*
X848000Y377500D03*
D13*
X670000Y256200D03*
X695400Y256200D03*
X720800Y256200D03*
X746200Y256200D03*
X771600Y256200D03*
X797000Y256200D03*
X644600Y256200D03*
X619200Y256200D03*
X593800Y256200D03*
X568400Y256200D03*
X543000Y256200D03*
X517600Y256200D03*
X492200Y256200D03*
X822400Y256200D03*
X670000Y103800D03*
X644600Y103800D03*
X619200Y103800D03*
X593800Y103800D03*
X568400Y103800D03*
X543000Y103800D03*
X695400Y103800D03*
X720800Y103800D03*
X746200Y103800D03*
X771600Y103800D03*
X797000Y103800D03*
X822400Y103800D03*
X847800Y103800D03*
X517600Y103800D03*
X492200Y103800D03*
X847800Y256200D03*
D17*
X747300Y314400D03*
D18*
X747300Y390600D03*
X772700Y314400D03*
X772700Y390600D03*
D19*
X615600Y185000D03*
X539400Y185000D03*
D20*
X539400Y215000D03*
X615600Y215000D03*
D21*
X465000Y495000D02*
X480000Y510000D01*
X465000Y495000D02*
X465000Y395000D01*
X450000Y380000D01*
X450000Y375000D01*
X480000Y510000D02*
X480033Y510500D01*
X450000Y375000D02*
X445432Y372280D01*
X310000Y495000D02*
X295000Y480000D01*
X295000Y395000D01*
X275000Y375000D01*
X310000Y495000D02*
X314167Y495300D01*
X275000Y375000D02*
X271675Y372280D01*
D22*
X620000Y435000D02*
X625000Y440000D01*
X620000Y435000D02*
X620000Y405000D01*
X625000Y440000D02*
X625833Y444500D01*
X620000Y405000D02*
X619188Y400220D01*
X545000Y280000D02*
X565000Y260000D01*
X545000Y330000D02*
X545000Y355000D01*
X545000Y330000D02*
X545000Y280000D01*
X545000Y355000D02*
X505000Y395000D01*
X505000Y400000D01*
X565000Y260000D02*
X568400Y256200D01*
X505000Y400000D02*
X503351Y400220D01*
X545000Y330000D02*
X615000Y400000D01*
X619188Y400220D01*
X350000Y195000D02*
X295300Y140300D01*
X350000Y195000D02*
X350000Y385000D01*
X330000Y405000D01*
X329594Y400220D01*
D21*
X80000Y260000D02*
X55000Y260000D01*
X80000Y260000D02*
X80000Y285000D01*
X115000Y320000D01*
X55000Y260000D02*
X51300Y261550D01*
D23*
X115000Y320000D03*
D21*
X660000Y415000D02*
X675000Y430000D01*
X660000Y415000D02*
X660000Y390000D01*
X675000Y375000D01*
X675000Y430000D02*
X678900Y434300D01*
X675000Y375000D02*
X677107Y372280D01*
X760000Y270000D02*
X770000Y260000D01*
X760000Y270000D02*
X760000Y325000D01*
X720000Y365000D01*
X680000Y365000D01*
X680000Y370000D01*
X770000Y260000D02*
X771600Y256200D01*
X680000Y370000D02*
X677107Y372280D01*
X480000Y430000D02*
X470000Y420000D01*
X470000Y375000D01*
X455000Y360000D02*
X450000Y355000D01*
X455000Y360000D02*
X470000Y375000D01*
X450000Y355000D02*
X390000Y355000D01*
X390000Y370000D01*
X480000Y430000D02*
X480033Y434300D01*
X390000Y370000D02*
X387513Y372280D01*
X555000Y250000D02*
X565000Y240000D01*
X555000Y250000D02*
X555000Y260000D01*
X455000Y360000D01*
D23*
X565000Y240000D03*
D21*
X280000Y435000D02*
X235000Y435000D01*
X235000Y395000D01*
X215000Y375000D01*
X280000Y435000D02*
X281167Y434300D01*
X215000Y375000D02*
X213756Y372280D01*
X625000Y355000D02*
X720000Y260000D01*
X720800Y256200D01*
D23*
X625000Y355000D03*
D21*
X80000Y430000D02*
X60000Y410000D01*
X60000Y395000D01*
X40000Y375000D01*
X80000Y430000D02*
X82300Y434300D01*
X40000Y375000D02*
X40000Y372280D01*
X605000Y350000D02*
X695000Y260000D01*
X695400Y256200D01*
D23*
X605000Y350000D03*
D24*
X425000Y140000D02*
X465000Y100000D01*
X425000Y140000D02*
X422300Y140300D01*
D25*
X465000Y100000D03*
D24*
X405000Y150000D02*
X420000Y165000D01*
X405000Y150000D02*
X405000Y80000D01*
X420000Y165000D02*
X422300Y165700D01*
D25*
X405000Y80000D03*
D21*
X85000Y235000D02*
X55000Y235000D01*
X85000Y235000D02*
X85000Y280000D01*
X135000Y330000D01*
X55000Y235000D02*
X51300Y236550D01*
D23*
X135000Y330000D03*
D21*
X420000Y35000D02*
X470000Y85000D01*
X615000Y85000D01*
X615000Y100000D01*
X619200Y103800D01*
D23*
X420000Y35000D03*
D21*
X200000Y315000D02*
X105000Y220000D01*
X610000Y165000D02*
X650000Y125000D01*
X650000Y115000D01*
X645000Y110000D01*
X645000Y105000D01*
X105000Y220000D02*
X100300Y216500D01*
X644600Y103800D02*
X645000Y105000D01*
D23*
X200000Y315000D03*
X610000Y165000D03*
D21*
X100000Y240000D02*
X85000Y225000D01*
X85000Y60000D01*
X115000Y30000D01*
X660000Y30000D01*
X660000Y95000D01*
X670000Y105000D01*
X100000Y240000D02*
X100300Y241900D01*
X670000Y105000D02*
X670000Y103800D01*
X555000Y195000D02*
X615000Y255000D01*
X555000Y195000D02*
X555000Y180000D01*
X490000Y115000D01*
X475000Y115000D01*
X475000Y95000D01*
X420000Y40000D01*
X110000Y40000D01*
X110000Y80000D01*
X105000Y85000D01*
X615000Y255000D02*
X619200Y256200D01*
X105000Y85000D02*
X100300Y89500D01*
X335000Y130000D02*
X410000Y205000D01*
X560000Y205000D01*
X560000Y220000D01*
X590000Y250000D01*
X590000Y255000D01*
X593800Y256200D01*
D23*
X335000Y130000D03*
D24*
X225000Y90000D02*
X140000Y90000D01*
X140000Y60000D01*
X225000Y90000D02*
X227300Y89500D01*
X140000Y60000D02*
X137500Y55100D01*
X230000Y140000D02*
X265000Y105000D01*
X265000Y80000D01*
X285000Y60000D01*
X330000Y60000D01*
X230000Y140000D02*
X227300Y140300D01*
X330000Y60000D02*
X333567Y55100D01*
X275000Y120000D02*
X230000Y165000D01*
X275000Y120000D02*
X275000Y85000D01*
X290000Y70000D01*
X355000Y70000D01*
X355000Y60000D01*
X230000Y165000D02*
X227300Y165700D01*
X355000Y60000D02*
X358567Y55100D01*
D21*
X615600Y215000D02*
X735000Y215000D01*
X735000Y295000D01*
X745000Y305000D01*
X745000Y310000D01*
X747300Y314400D01*
X735000Y215000D02*
X845000Y105000D01*
X847800Y103800D01*
X850000Y310000D02*
X775000Y310000D01*
X850000Y310000D02*
X850000Y260000D01*
X775000Y310000D02*
X772700Y314400D01*
X850000Y260000D02*
X847800Y256200D01*
M02*
