G04 EAGLE Gerber RS-274X export*
G75*
%MOMM*%
%FSLAX34Y34*%
%LPD*%
%INSilkscreen Bottom*%
%IPPOS*%
%AMOC8*
5,1,8,0,0,1.08239X$1,22.5*%
G01*
%ADD10C,0.304800*%
%ADD11C,0.152400*%


D10*
X-127000Y-76200D02*
X-139700Y-76200D01*
X63500Y-76200D02*
X76200Y-76200D01*
X279400Y-76200D02*
X292100Y-76200D01*
X495300Y-76200D02*
X508000Y-76200D01*
D11*
X29210Y-127000D02*
X26670Y-127000D01*
X26670Y-129540D01*
X26670Y-127000D02*
X24130Y-127000D01*
X26670Y-127000D02*
X26670Y-124460D01*
X-12700Y-139700D02*
X-12692Y-139077D01*
X-12669Y-138454D01*
X-12631Y-137831D01*
X-12578Y-137210D01*
X-12509Y-136591D01*
X-12425Y-135973D01*
X-12326Y-135358D01*
X-12212Y-134745D01*
X-12083Y-134135D01*
X-11939Y-133528D01*
X-11780Y-132925D01*
X-11606Y-132327D01*
X-11418Y-131732D01*
X-11215Y-131143D01*
X-10998Y-130559D01*
X-10767Y-129980D01*
X-10521Y-129407D01*
X-10261Y-128840D01*
X-9988Y-128280D01*
X-9701Y-127727D01*
X-9400Y-127180D01*
X-9086Y-126642D01*
X-8759Y-126111D01*
X-8419Y-125589D01*
X-8067Y-125074D01*
X-7701Y-124569D01*
X-7324Y-124073D01*
X-6934Y-123586D01*
X-6533Y-123109D01*
X-6120Y-122642D01*
X-5696Y-122186D01*
X-5261Y-121739D01*
X-4814Y-121304D01*
X-4358Y-120880D01*
X-3891Y-120467D01*
X-3414Y-120066D01*
X-2927Y-119676D01*
X-2431Y-119299D01*
X-1926Y-118933D01*
X-1411Y-118581D01*
X-889Y-118241D01*
X-358Y-117914D01*
X180Y-117600D01*
X727Y-117299D01*
X1280Y-117012D01*
X1840Y-116739D01*
X2407Y-116479D01*
X2980Y-116233D01*
X3559Y-116002D01*
X4143Y-115785D01*
X4732Y-115582D01*
X5327Y-115394D01*
X5925Y-115220D01*
X6528Y-115061D01*
X7135Y-114917D01*
X7745Y-114788D01*
X8358Y-114674D01*
X8973Y-114575D01*
X9591Y-114491D01*
X10210Y-114422D01*
X10831Y-114369D01*
X11454Y-114331D01*
X12077Y-114308D01*
X12700Y-114300D01*
X13323Y-114308D01*
X13946Y-114331D01*
X14569Y-114369D01*
X15190Y-114422D01*
X15809Y-114491D01*
X16427Y-114575D01*
X17042Y-114674D01*
X17655Y-114788D01*
X18265Y-114917D01*
X18872Y-115061D01*
X19475Y-115220D01*
X20073Y-115394D01*
X20668Y-115582D01*
X21257Y-115785D01*
X21841Y-116002D01*
X22420Y-116233D01*
X22993Y-116479D01*
X23560Y-116739D01*
X24120Y-117012D01*
X24673Y-117299D01*
X25220Y-117600D01*
X25758Y-117914D01*
X26289Y-118241D01*
X26811Y-118581D01*
X27326Y-118933D01*
X27831Y-119299D01*
X28327Y-119676D01*
X28814Y-120066D01*
X29291Y-120467D01*
X29758Y-120880D01*
X30214Y-121304D01*
X30661Y-121739D01*
X31096Y-122186D01*
X31520Y-122642D01*
X31933Y-123109D01*
X32334Y-123586D01*
X32724Y-124073D01*
X33101Y-124569D01*
X33467Y-125074D01*
X33819Y-125589D01*
X34159Y-126111D01*
X34486Y-126642D01*
X34800Y-127180D01*
X35101Y-127727D01*
X35388Y-128280D01*
X35661Y-128840D01*
X35921Y-129407D01*
X36167Y-129980D01*
X36398Y-130559D01*
X36615Y-131143D01*
X36818Y-131732D01*
X37006Y-132327D01*
X37180Y-132925D01*
X37339Y-133528D01*
X37483Y-134135D01*
X37612Y-134745D01*
X37726Y-135358D01*
X37825Y-135973D01*
X37909Y-136591D01*
X37978Y-137210D01*
X38031Y-137831D01*
X38069Y-138454D01*
X38092Y-139077D01*
X38100Y-139700D01*
X38092Y-140323D01*
X38069Y-140946D01*
X38031Y-141569D01*
X37978Y-142190D01*
X37909Y-142809D01*
X37825Y-143427D01*
X37726Y-144042D01*
X37612Y-144655D01*
X37483Y-145265D01*
X37339Y-145872D01*
X37180Y-146475D01*
X37006Y-147073D01*
X36818Y-147668D01*
X36615Y-148257D01*
X36398Y-148841D01*
X36167Y-149420D01*
X35921Y-149993D01*
X35661Y-150560D01*
X35388Y-151120D01*
X35101Y-151673D01*
X34800Y-152220D01*
X34486Y-152758D01*
X34159Y-153289D01*
X33819Y-153811D01*
X33467Y-154326D01*
X33101Y-154831D01*
X32724Y-155327D01*
X32334Y-155814D01*
X31933Y-156291D01*
X31520Y-156758D01*
X31096Y-157214D01*
X30661Y-157661D01*
X30214Y-158096D01*
X29758Y-158520D01*
X29291Y-158933D01*
X28814Y-159334D01*
X28327Y-159724D01*
X27831Y-160101D01*
X27326Y-160467D01*
X26811Y-160819D01*
X26289Y-161159D01*
X25758Y-161486D01*
X25220Y-161800D01*
X24673Y-162101D01*
X24120Y-162388D01*
X23560Y-162661D01*
X22993Y-162921D01*
X22420Y-163167D01*
X21841Y-163398D01*
X21257Y-163615D01*
X20668Y-163818D01*
X20073Y-164006D01*
X19475Y-164180D01*
X18872Y-164339D01*
X18265Y-164483D01*
X17655Y-164612D01*
X17042Y-164726D01*
X16427Y-164825D01*
X15809Y-164909D01*
X15190Y-164978D01*
X14569Y-165031D01*
X13946Y-165069D01*
X13323Y-165092D01*
X12700Y-165100D01*
X12077Y-165092D01*
X11454Y-165069D01*
X10831Y-165031D01*
X10210Y-164978D01*
X9591Y-164909D01*
X8973Y-164825D01*
X8358Y-164726D01*
X7745Y-164612D01*
X7135Y-164483D01*
X6528Y-164339D01*
X5925Y-164180D01*
X5327Y-164006D01*
X4732Y-163818D01*
X4143Y-163615D01*
X3559Y-163398D01*
X2980Y-163167D01*
X2407Y-162921D01*
X1840Y-162661D01*
X1280Y-162388D01*
X727Y-162101D01*
X180Y-161800D01*
X-358Y-161486D01*
X-889Y-161159D01*
X-1411Y-160819D01*
X-1926Y-160467D01*
X-2431Y-160101D01*
X-2927Y-159724D01*
X-3414Y-159334D01*
X-3891Y-158933D01*
X-4358Y-158520D01*
X-4814Y-158096D01*
X-5261Y-157661D01*
X-5696Y-157214D01*
X-6120Y-156758D01*
X-6533Y-156291D01*
X-6934Y-155814D01*
X-7324Y-155327D01*
X-7701Y-154831D01*
X-8067Y-154326D01*
X-8419Y-153811D01*
X-8759Y-153289D01*
X-9086Y-152758D01*
X-9400Y-152220D01*
X-9701Y-151673D01*
X-9988Y-151120D01*
X-10261Y-150560D01*
X-10521Y-149993D01*
X-10767Y-149420D01*
X-10998Y-148841D01*
X-11215Y-148257D01*
X-11418Y-147668D01*
X-11606Y-147073D01*
X-11780Y-146475D01*
X-11939Y-145872D01*
X-12083Y-145265D01*
X-12212Y-144655D01*
X-12326Y-144042D01*
X-12425Y-143427D01*
X-12509Y-142809D01*
X-12578Y-142190D01*
X-12631Y-141569D01*
X-12669Y-140946D01*
X-12692Y-140323D01*
X-12700Y-139700D01*
X242570Y-127000D02*
X245110Y-127000D01*
X242570Y-127000D02*
X242570Y-129540D01*
X242570Y-127000D02*
X240030Y-127000D01*
X242570Y-127000D02*
X242570Y-124460D01*
X203200Y-139700D02*
X203208Y-139077D01*
X203231Y-138454D01*
X203269Y-137831D01*
X203322Y-137210D01*
X203391Y-136591D01*
X203475Y-135973D01*
X203574Y-135358D01*
X203688Y-134745D01*
X203817Y-134135D01*
X203961Y-133528D01*
X204120Y-132925D01*
X204294Y-132327D01*
X204482Y-131732D01*
X204685Y-131143D01*
X204902Y-130559D01*
X205133Y-129980D01*
X205379Y-129407D01*
X205639Y-128840D01*
X205912Y-128280D01*
X206199Y-127727D01*
X206500Y-127180D01*
X206814Y-126642D01*
X207141Y-126111D01*
X207481Y-125589D01*
X207833Y-125074D01*
X208199Y-124569D01*
X208576Y-124073D01*
X208966Y-123586D01*
X209367Y-123109D01*
X209780Y-122642D01*
X210204Y-122186D01*
X210639Y-121739D01*
X211086Y-121304D01*
X211542Y-120880D01*
X212009Y-120467D01*
X212486Y-120066D01*
X212973Y-119676D01*
X213469Y-119299D01*
X213974Y-118933D01*
X214489Y-118581D01*
X215011Y-118241D01*
X215542Y-117914D01*
X216080Y-117600D01*
X216627Y-117299D01*
X217180Y-117012D01*
X217740Y-116739D01*
X218307Y-116479D01*
X218880Y-116233D01*
X219459Y-116002D01*
X220043Y-115785D01*
X220632Y-115582D01*
X221227Y-115394D01*
X221825Y-115220D01*
X222428Y-115061D01*
X223035Y-114917D01*
X223645Y-114788D01*
X224258Y-114674D01*
X224873Y-114575D01*
X225491Y-114491D01*
X226110Y-114422D01*
X226731Y-114369D01*
X227354Y-114331D01*
X227977Y-114308D01*
X228600Y-114300D01*
X229223Y-114308D01*
X229846Y-114331D01*
X230469Y-114369D01*
X231090Y-114422D01*
X231709Y-114491D01*
X232327Y-114575D01*
X232942Y-114674D01*
X233555Y-114788D01*
X234165Y-114917D01*
X234772Y-115061D01*
X235375Y-115220D01*
X235973Y-115394D01*
X236568Y-115582D01*
X237157Y-115785D01*
X237741Y-116002D01*
X238320Y-116233D01*
X238893Y-116479D01*
X239460Y-116739D01*
X240020Y-117012D01*
X240573Y-117299D01*
X241120Y-117600D01*
X241658Y-117914D01*
X242189Y-118241D01*
X242711Y-118581D01*
X243226Y-118933D01*
X243731Y-119299D01*
X244227Y-119676D01*
X244714Y-120066D01*
X245191Y-120467D01*
X245658Y-120880D01*
X246114Y-121304D01*
X246561Y-121739D01*
X246996Y-122186D01*
X247420Y-122642D01*
X247833Y-123109D01*
X248234Y-123586D01*
X248624Y-124073D01*
X249001Y-124569D01*
X249367Y-125074D01*
X249719Y-125589D01*
X250059Y-126111D01*
X250386Y-126642D01*
X250700Y-127180D01*
X251001Y-127727D01*
X251288Y-128280D01*
X251561Y-128840D01*
X251821Y-129407D01*
X252067Y-129980D01*
X252298Y-130559D01*
X252515Y-131143D01*
X252718Y-131732D01*
X252906Y-132327D01*
X253080Y-132925D01*
X253239Y-133528D01*
X253383Y-134135D01*
X253512Y-134745D01*
X253626Y-135358D01*
X253725Y-135973D01*
X253809Y-136591D01*
X253878Y-137210D01*
X253931Y-137831D01*
X253969Y-138454D01*
X253992Y-139077D01*
X254000Y-139700D01*
X253992Y-140323D01*
X253969Y-140946D01*
X253931Y-141569D01*
X253878Y-142190D01*
X253809Y-142809D01*
X253725Y-143427D01*
X253626Y-144042D01*
X253512Y-144655D01*
X253383Y-145265D01*
X253239Y-145872D01*
X253080Y-146475D01*
X252906Y-147073D01*
X252718Y-147668D01*
X252515Y-148257D01*
X252298Y-148841D01*
X252067Y-149420D01*
X251821Y-149993D01*
X251561Y-150560D01*
X251288Y-151120D01*
X251001Y-151673D01*
X250700Y-152220D01*
X250386Y-152758D01*
X250059Y-153289D01*
X249719Y-153811D01*
X249367Y-154326D01*
X249001Y-154831D01*
X248624Y-155327D01*
X248234Y-155814D01*
X247833Y-156291D01*
X247420Y-156758D01*
X246996Y-157214D01*
X246561Y-157661D01*
X246114Y-158096D01*
X245658Y-158520D01*
X245191Y-158933D01*
X244714Y-159334D01*
X244227Y-159724D01*
X243731Y-160101D01*
X243226Y-160467D01*
X242711Y-160819D01*
X242189Y-161159D01*
X241658Y-161486D01*
X241120Y-161800D01*
X240573Y-162101D01*
X240020Y-162388D01*
X239460Y-162661D01*
X238893Y-162921D01*
X238320Y-163167D01*
X237741Y-163398D01*
X237157Y-163615D01*
X236568Y-163818D01*
X235973Y-164006D01*
X235375Y-164180D01*
X234772Y-164339D01*
X234165Y-164483D01*
X233555Y-164612D01*
X232942Y-164726D01*
X232327Y-164825D01*
X231709Y-164909D01*
X231090Y-164978D01*
X230469Y-165031D01*
X229846Y-165069D01*
X229223Y-165092D01*
X228600Y-165100D01*
X227977Y-165092D01*
X227354Y-165069D01*
X226731Y-165031D01*
X226110Y-164978D01*
X225491Y-164909D01*
X224873Y-164825D01*
X224258Y-164726D01*
X223645Y-164612D01*
X223035Y-164483D01*
X222428Y-164339D01*
X221825Y-164180D01*
X221227Y-164006D01*
X220632Y-163818D01*
X220043Y-163615D01*
X219459Y-163398D01*
X218880Y-163167D01*
X218307Y-162921D01*
X217740Y-162661D01*
X217180Y-162388D01*
X216627Y-162101D01*
X216080Y-161800D01*
X215542Y-161486D01*
X215011Y-161159D01*
X214489Y-160819D01*
X213974Y-160467D01*
X213469Y-160101D01*
X212973Y-159724D01*
X212486Y-159334D01*
X212009Y-158933D01*
X211542Y-158520D01*
X211086Y-158096D01*
X210639Y-157661D01*
X210204Y-157214D01*
X209780Y-156758D01*
X209367Y-156291D01*
X208966Y-155814D01*
X208576Y-155327D01*
X208199Y-154831D01*
X207833Y-154326D01*
X207481Y-153811D01*
X207141Y-153289D01*
X206814Y-152758D01*
X206500Y-152220D01*
X206199Y-151673D01*
X205912Y-151120D01*
X205639Y-150560D01*
X205379Y-149993D01*
X205133Y-149420D01*
X204902Y-148841D01*
X204685Y-148257D01*
X204482Y-147668D01*
X204294Y-147073D01*
X204120Y-146475D01*
X203961Y-145872D01*
X203817Y-145265D01*
X203688Y-144655D01*
X203574Y-144042D01*
X203475Y-143427D01*
X203391Y-142809D01*
X203322Y-142190D01*
X203269Y-141569D01*
X203231Y-140946D01*
X203208Y-140323D01*
X203200Y-139700D01*
X458470Y-127000D02*
X461010Y-127000D01*
X458470Y-127000D02*
X458470Y-129540D01*
X458470Y-127000D02*
X455930Y-127000D01*
X458470Y-127000D02*
X458470Y-124460D01*
X419100Y-139700D02*
X419108Y-139077D01*
X419131Y-138454D01*
X419169Y-137831D01*
X419222Y-137210D01*
X419291Y-136591D01*
X419375Y-135973D01*
X419474Y-135358D01*
X419588Y-134745D01*
X419717Y-134135D01*
X419861Y-133528D01*
X420020Y-132925D01*
X420194Y-132327D01*
X420382Y-131732D01*
X420585Y-131143D01*
X420802Y-130559D01*
X421033Y-129980D01*
X421279Y-129407D01*
X421539Y-128840D01*
X421812Y-128280D01*
X422099Y-127727D01*
X422400Y-127180D01*
X422714Y-126642D01*
X423041Y-126111D01*
X423381Y-125589D01*
X423733Y-125074D01*
X424099Y-124569D01*
X424476Y-124073D01*
X424866Y-123586D01*
X425267Y-123109D01*
X425680Y-122642D01*
X426104Y-122186D01*
X426539Y-121739D01*
X426986Y-121304D01*
X427442Y-120880D01*
X427909Y-120467D01*
X428386Y-120066D01*
X428873Y-119676D01*
X429369Y-119299D01*
X429874Y-118933D01*
X430389Y-118581D01*
X430911Y-118241D01*
X431442Y-117914D01*
X431980Y-117600D01*
X432527Y-117299D01*
X433080Y-117012D01*
X433640Y-116739D01*
X434207Y-116479D01*
X434780Y-116233D01*
X435359Y-116002D01*
X435943Y-115785D01*
X436532Y-115582D01*
X437127Y-115394D01*
X437725Y-115220D01*
X438328Y-115061D01*
X438935Y-114917D01*
X439545Y-114788D01*
X440158Y-114674D01*
X440773Y-114575D01*
X441391Y-114491D01*
X442010Y-114422D01*
X442631Y-114369D01*
X443254Y-114331D01*
X443877Y-114308D01*
X444500Y-114300D01*
X445123Y-114308D01*
X445746Y-114331D01*
X446369Y-114369D01*
X446990Y-114422D01*
X447609Y-114491D01*
X448227Y-114575D01*
X448842Y-114674D01*
X449455Y-114788D01*
X450065Y-114917D01*
X450672Y-115061D01*
X451275Y-115220D01*
X451873Y-115394D01*
X452468Y-115582D01*
X453057Y-115785D01*
X453641Y-116002D01*
X454220Y-116233D01*
X454793Y-116479D01*
X455360Y-116739D01*
X455920Y-117012D01*
X456473Y-117299D01*
X457020Y-117600D01*
X457558Y-117914D01*
X458089Y-118241D01*
X458611Y-118581D01*
X459126Y-118933D01*
X459631Y-119299D01*
X460127Y-119676D01*
X460614Y-120066D01*
X461091Y-120467D01*
X461558Y-120880D01*
X462014Y-121304D01*
X462461Y-121739D01*
X462896Y-122186D01*
X463320Y-122642D01*
X463733Y-123109D01*
X464134Y-123586D01*
X464524Y-124073D01*
X464901Y-124569D01*
X465267Y-125074D01*
X465619Y-125589D01*
X465959Y-126111D01*
X466286Y-126642D01*
X466600Y-127180D01*
X466901Y-127727D01*
X467188Y-128280D01*
X467461Y-128840D01*
X467721Y-129407D01*
X467967Y-129980D01*
X468198Y-130559D01*
X468415Y-131143D01*
X468618Y-131732D01*
X468806Y-132327D01*
X468980Y-132925D01*
X469139Y-133528D01*
X469283Y-134135D01*
X469412Y-134745D01*
X469526Y-135358D01*
X469625Y-135973D01*
X469709Y-136591D01*
X469778Y-137210D01*
X469831Y-137831D01*
X469869Y-138454D01*
X469892Y-139077D01*
X469900Y-139700D01*
X469892Y-140323D01*
X469869Y-140946D01*
X469831Y-141569D01*
X469778Y-142190D01*
X469709Y-142809D01*
X469625Y-143427D01*
X469526Y-144042D01*
X469412Y-144655D01*
X469283Y-145265D01*
X469139Y-145872D01*
X468980Y-146475D01*
X468806Y-147073D01*
X468618Y-147668D01*
X468415Y-148257D01*
X468198Y-148841D01*
X467967Y-149420D01*
X467721Y-149993D01*
X467461Y-150560D01*
X467188Y-151120D01*
X466901Y-151673D01*
X466600Y-152220D01*
X466286Y-152758D01*
X465959Y-153289D01*
X465619Y-153811D01*
X465267Y-154326D01*
X464901Y-154831D01*
X464524Y-155327D01*
X464134Y-155814D01*
X463733Y-156291D01*
X463320Y-156758D01*
X462896Y-157214D01*
X462461Y-157661D01*
X462014Y-158096D01*
X461558Y-158520D01*
X461091Y-158933D01*
X460614Y-159334D01*
X460127Y-159724D01*
X459631Y-160101D01*
X459126Y-160467D01*
X458611Y-160819D01*
X458089Y-161159D01*
X457558Y-161486D01*
X457020Y-161800D01*
X456473Y-162101D01*
X455920Y-162388D01*
X455360Y-162661D01*
X454793Y-162921D01*
X454220Y-163167D01*
X453641Y-163398D01*
X453057Y-163615D01*
X452468Y-163818D01*
X451873Y-164006D01*
X451275Y-164180D01*
X450672Y-164339D01*
X450065Y-164483D01*
X449455Y-164612D01*
X448842Y-164726D01*
X448227Y-164825D01*
X447609Y-164909D01*
X446990Y-164978D01*
X446369Y-165031D01*
X445746Y-165069D01*
X445123Y-165092D01*
X444500Y-165100D01*
X443877Y-165092D01*
X443254Y-165069D01*
X442631Y-165031D01*
X442010Y-164978D01*
X441391Y-164909D01*
X440773Y-164825D01*
X440158Y-164726D01*
X439545Y-164612D01*
X438935Y-164483D01*
X438328Y-164339D01*
X437725Y-164180D01*
X437127Y-164006D01*
X436532Y-163818D01*
X435943Y-163615D01*
X435359Y-163398D01*
X434780Y-163167D01*
X434207Y-162921D01*
X433640Y-162661D01*
X433080Y-162388D01*
X432527Y-162101D01*
X431980Y-161800D01*
X431442Y-161486D01*
X430911Y-161159D01*
X430389Y-160819D01*
X429874Y-160467D01*
X429369Y-160101D01*
X428873Y-159724D01*
X428386Y-159334D01*
X427909Y-158933D01*
X427442Y-158520D01*
X426986Y-158096D01*
X426539Y-157661D01*
X426104Y-157214D01*
X425680Y-156758D01*
X425267Y-156291D01*
X424866Y-155814D01*
X424476Y-155327D01*
X424099Y-154831D01*
X423733Y-154326D01*
X423381Y-153811D01*
X423041Y-153289D01*
X422714Y-152758D01*
X422400Y-152220D01*
X422099Y-151673D01*
X421812Y-151120D01*
X421539Y-150560D01*
X421279Y-149993D01*
X421033Y-149420D01*
X420802Y-148841D01*
X420585Y-148257D01*
X420382Y-147668D01*
X420194Y-147073D01*
X420020Y-146475D01*
X419861Y-145872D01*
X419717Y-145265D01*
X419588Y-144655D01*
X419474Y-144042D01*
X419375Y-143427D01*
X419291Y-142809D01*
X419222Y-142190D01*
X419169Y-141569D01*
X419131Y-140946D01*
X419108Y-140323D01*
X419100Y-139700D01*
X-47420Y-126460D02*
X-49959Y-126544D01*
X-49875Y-129082D01*
X-49959Y-126544D02*
X-52497Y-126628D01*
X-49959Y-126544D02*
X-50043Y-124005D01*
X-88900Y-139700D02*
X-88892Y-139077D01*
X-88869Y-138454D01*
X-88831Y-137831D01*
X-88778Y-137210D01*
X-88709Y-136591D01*
X-88625Y-135973D01*
X-88526Y-135358D01*
X-88412Y-134745D01*
X-88283Y-134135D01*
X-88139Y-133528D01*
X-87980Y-132925D01*
X-87806Y-132327D01*
X-87618Y-131732D01*
X-87415Y-131143D01*
X-87198Y-130559D01*
X-86967Y-129980D01*
X-86721Y-129407D01*
X-86461Y-128840D01*
X-86188Y-128280D01*
X-85901Y-127727D01*
X-85600Y-127180D01*
X-85286Y-126642D01*
X-84959Y-126111D01*
X-84619Y-125589D01*
X-84267Y-125074D01*
X-83901Y-124569D01*
X-83524Y-124073D01*
X-83134Y-123586D01*
X-82733Y-123109D01*
X-82320Y-122642D01*
X-81896Y-122186D01*
X-81461Y-121739D01*
X-81014Y-121304D01*
X-80558Y-120880D01*
X-80091Y-120467D01*
X-79614Y-120066D01*
X-79127Y-119676D01*
X-78631Y-119299D01*
X-78126Y-118933D01*
X-77611Y-118581D01*
X-77089Y-118241D01*
X-76558Y-117914D01*
X-76020Y-117600D01*
X-75473Y-117299D01*
X-74920Y-117012D01*
X-74360Y-116739D01*
X-73793Y-116479D01*
X-73220Y-116233D01*
X-72641Y-116002D01*
X-72057Y-115785D01*
X-71468Y-115582D01*
X-70873Y-115394D01*
X-70275Y-115220D01*
X-69672Y-115061D01*
X-69065Y-114917D01*
X-68455Y-114788D01*
X-67842Y-114674D01*
X-67227Y-114575D01*
X-66609Y-114491D01*
X-65990Y-114422D01*
X-65369Y-114369D01*
X-64746Y-114331D01*
X-64123Y-114308D01*
X-63500Y-114300D01*
X-62877Y-114308D01*
X-62254Y-114331D01*
X-61631Y-114369D01*
X-61010Y-114422D01*
X-60391Y-114491D01*
X-59773Y-114575D01*
X-59158Y-114674D01*
X-58545Y-114788D01*
X-57935Y-114917D01*
X-57328Y-115061D01*
X-56725Y-115220D01*
X-56127Y-115394D01*
X-55532Y-115582D01*
X-54943Y-115785D01*
X-54359Y-116002D01*
X-53780Y-116233D01*
X-53207Y-116479D01*
X-52640Y-116739D01*
X-52080Y-117012D01*
X-51527Y-117299D01*
X-50980Y-117600D01*
X-50442Y-117914D01*
X-49911Y-118241D01*
X-49389Y-118581D01*
X-48874Y-118933D01*
X-48369Y-119299D01*
X-47873Y-119676D01*
X-47386Y-120066D01*
X-46909Y-120467D01*
X-46442Y-120880D01*
X-45986Y-121304D01*
X-45539Y-121739D01*
X-45104Y-122186D01*
X-44680Y-122642D01*
X-44267Y-123109D01*
X-43866Y-123586D01*
X-43476Y-124073D01*
X-43099Y-124569D01*
X-42733Y-125074D01*
X-42381Y-125589D01*
X-42041Y-126111D01*
X-41714Y-126642D01*
X-41400Y-127180D01*
X-41099Y-127727D01*
X-40812Y-128280D01*
X-40539Y-128840D01*
X-40279Y-129407D01*
X-40033Y-129980D01*
X-39802Y-130559D01*
X-39585Y-131143D01*
X-39382Y-131732D01*
X-39194Y-132327D01*
X-39020Y-132925D01*
X-38861Y-133528D01*
X-38717Y-134135D01*
X-38588Y-134745D01*
X-38474Y-135358D01*
X-38375Y-135973D01*
X-38291Y-136591D01*
X-38222Y-137210D01*
X-38169Y-137831D01*
X-38131Y-138454D01*
X-38108Y-139077D01*
X-38100Y-139700D01*
X-38108Y-140323D01*
X-38131Y-140946D01*
X-38169Y-141569D01*
X-38222Y-142190D01*
X-38291Y-142809D01*
X-38375Y-143427D01*
X-38474Y-144042D01*
X-38588Y-144655D01*
X-38717Y-145265D01*
X-38861Y-145872D01*
X-39020Y-146475D01*
X-39194Y-147073D01*
X-39382Y-147668D01*
X-39585Y-148257D01*
X-39802Y-148841D01*
X-40033Y-149420D01*
X-40279Y-149993D01*
X-40539Y-150560D01*
X-40812Y-151120D01*
X-41099Y-151673D01*
X-41400Y-152220D01*
X-41714Y-152758D01*
X-42041Y-153289D01*
X-42381Y-153811D01*
X-42733Y-154326D01*
X-43099Y-154831D01*
X-43476Y-155327D01*
X-43866Y-155814D01*
X-44267Y-156291D01*
X-44680Y-156758D01*
X-45104Y-157214D01*
X-45539Y-157661D01*
X-45986Y-158096D01*
X-46442Y-158520D01*
X-46909Y-158933D01*
X-47386Y-159334D01*
X-47873Y-159724D01*
X-48369Y-160101D01*
X-48874Y-160467D01*
X-49389Y-160819D01*
X-49911Y-161159D01*
X-50442Y-161486D01*
X-50980Y-161800D01*
X-51527Y-162101D01*
X-52080Y-162388D01*
X-52640Y-162661D01*
X-53207Y-162921D01*
X-53780Y-163167D01*
X-54359Y-163398D01*
X-54943Y-163615D01*
X-55532Y-163818D01*
X-56127Y-164006D01*
X-56725Y-164180D01*
X-57328Y-164339D01*
X-57935Y-164483D01*
X-58545Y-164612D01*
X-59158Y-164726D01*
X-59773Y-164825D01*
X-60391Y-164909D01*
X-61010Y-164978D01*
X-61631Y-165031D01*
X-62254Y-165069D01*
X-62877Y-165092D01*
X-63500Y-165100D01*
X-64123Y-165092D01*
X-64746Y-165069D01*
X-65369Y-165031D01*
X-65990Y-164978D01*
X-66609Y-164909D01*
X-67227Y-164825D01*
X-67842Y-164726D01*
X-68455Y-164612D01*
X-69065Y-164483D01*
X-69672Y-164339D01*
X-70275Y-164180D01*
X-70873Y-164006D01*
X-71468Y-163818D01*
X-72057Y-163615D01*
X-72641Y-163398D01*
X-73220Y-163167D01*
X-73793Y-162921D01*
X-74360Y-162661D01*
X-74920Y-162388D01*
X-75473Y-162101D01*
X-76020Y-161800D01*
X-76558Y-161486D01*
X-77089Y-161159D01*
X-77611Y-160819D01*
X-78126Y-160467D01*
X-78631Y-160101D01*
X-79127Y-159724D01*
X-79614Y-159334D01*
X-80091Y-158933D01*
X-80558Y-158520D01*
X-81014Y-158096D01*
X-81461Y-157661D01*
X-81896Y-157214D01*
X-82320Y-156758D01*
X-82733Y-156291D01*
X-83134Y-155814D01*
X-83524Y-155327D01*
X-83901Y-154831D01*
X-84267Y-154326D01*
X-84619Y-153811D01*
X-84959Y-153289D01*
X-85286Y-152758D01*
X-85600Y-152220D01*
X-85901Y-151673D01*
X-86188Y-151120D01*
X-86461Y-150560D01*
X-86721Y-149993D01*
X-86967Y-149420D01*
X-87198Y-148841D01*
X-87415Y-148257D01*
X-87618Y-147668D01*
X-87806Y-147073D01*
X-87980Y-146475D01*
X-88139Y-145872D01*
X-88283Y-145265D01*
X-88412Y-144655D01*
X-88526Y-144042D01*
X-88625Y-143427D01*
X-88709Y-142809D01*
X-88778Y-142190D01*
X-88831Y-141569D01*
X-88869Y-140946D01*
X-88892Y-140323D01*
X-88900Y-139700D01*
X153670Y-127000D02*
X156210Y-127000D01*
X153670Y-127000D02*
X153670Y-129540D01*
X153670Y-127000D02*
X151130Y-127000D01*
X153670Y-127000D02*
X153670Y-124460D01*
X114300Y-139700D02*
X114308Y-139077D01*
X114331Y-138454D01*
X114369Y-137831D01*
X114422Y-137210D01*
X114491Y-136591D01*
X114575Y-135973D01*
X114674Y-135358D01*
X114788Y-134745D01*
X114917Y-134135D01*
X115061Y-133528D01*
X115220Y-132925D01*
X115394Y-132327D01*
X115582Y-131732D01*
X115785Y-131143D01*
X116002Y-130559D01*
X116233Y-129980D01*
X116479Y-129407D01*
X116739Y-128840D01*
X117012Y-128280D01*
X117299Y-127727D01*
X117600Y-127180D01*
X117914Y-126642D01*
X118241Y-126111D01*
X118581Y-125589D01*
X118933Y-125074D01*
X119299Y-124569D01*
X119676Y-124073D01*
X120066Y-123586D01*
X120467Y-123109D01*
X120880Y-122642D01*
X121304Y-122186D01*
X121739Y-121739D01*
X122186Y-121304D01*
X122642Y-120880D01*
X123109Y-120467D01*
X123586Y-120066D01*
X124073Y-119676D01*
X124569Y-119299D01*
X125074Y-118933D01*
X125589Y-118581D01*
X126111Y-118241D01*
X126642Y-117914D01*
X127180Y-117600D01*
X127727Y-117299D01*
X128280Y-117012D01*
X128840Y-116739D01*
X129407Y-116479D01*
X129980Y-116233D01*
X130559Y-116002D01*
X131143Y-115785D01*
X131732Y-115582D01*
X132327Y-115394D01*
X132925Y-115220D01*
X133528Y-115061D01*
X134135Y-114917D01*
X134745Y-114788D01*
X135358Y-114674D01*
X135973Y-114575D01*
X136591Y-114491D01*
X137210Y-114422D01*
X137831Y-114369D01*
X138454Y-114331D01*
X139077Y-114308D01*
X139700Y-114300D01*
X140323Y-114308D01*
X140946Y-114331D01*
X141569Y-114369D01*
X142190Y-114422D01*
X142809Y-114491D01*
X143427Y-114575D01*
X144042Y-114674D01*
X144655Y-114788D01*
X145265Y-114917D01*
X145872Y-115061D01*
X146475Y-115220D01*
X147073Y-115394D01*
X147668Y-115582D01*
X148257Y-115785D01*
X148841Y-116002D01*
X149420Y-116233D01*
X149993Y-116479D01*
X150560Y-116739D01*
X151120Y-117012D01*
X151673Y-117299D01*
X152220Y-117600D01*
X152758Y-117914D01*
X153289Y-118241D01*
X153811Y-118581D01*
X154326Y-118933D01*
X154831Y-119299D01*
X155327Y-119676D01*
X155814Y-120066D01*
X156291Y-120467D01*
X156758Y-120880D01*
X157214Y-121304D01*
X157661Y-121739D01*
X158096Y-122186D01*
X158520Y-122642D01*
X158933Y-123109D01*
X159334Y-123586D01*
X159724Y-124073D01*
X160101Y-124569D01*
X160467Y-125074D01*
X160819Y-125589D01*
X161159Y-126111D01*
X161486Y-126642D01*
X161800Y-127180D01*
X162101Y-127727D01*
X162388Y-128280D01*
X162661Y-128840D01*
X162921Y-129407D01*
X163167Y-129980D01*
X163398Y-130559D01*
X163615Y-131143D01*
X163818Y-131732D01*
X164006Y-132327D01*
X164180Y-132925D01*
X164339Y-133528D01*
X164483Y-134135D01*
X164612Y-134745D01*
X164726Y-135358D01*
X164825Y-135973D01*
X164909Y-136591D01*
X164978Y-137210D01*
X165031Y-137831D01*
X165069Y-138454D01*
X165092Y-139077D01*
X165100Y-139700D01*
X165092Y-140323D01*
X165069Y-140946D01*
X165031Y-141569D01*
X164978Y-142190D01*
X164909Y-142809D01*
X164825Y-143427D01*
X164726Y-144042D01*
X164612Y-144655D01*
X164483Y-145265D01*
X164339Y-145872D01*
X164180Y-146475D01*
X164006Y-147073D01*
X163818Y-147668D01*
X163615Y-148257D01*
X163398Y-148841D01*
X163167Y-149420D01*
X162921Y-149993D01*
X162661Y-150560D01*
X162388Y-151120D01*
X162101Y-151673D01*
X161800Y-152220D01*
X161486Y-152758D01*
X161159Y-153289D01*
X160819Y-153811D01*
X160467Y-154326D01*
X160101Y-154831D01*
X159724Y-155327D01*
X159334Y-155814D01*
X158933Y-156291D01*
X158520Y-156758D01*
X158096Y-157214D01*
X157661Y-157661D01*
X157214Y-158096D01*
X156758Y-158520D01*
X156291Y-158933D01*
X155814Y-159334D01*
X155327Y-159724D01*
X154831Y-160101D01*
X154326Y-160467D01*
X153811Y-160819D01*
X153289Y-161159D01*
X152758Y-161486D01*
X152220Y-161800D01*
X151673Y-162101D01*
X151120Y-162388D01*
X150560Y-162661D01*
X149993Y-162921D01*
X149420Y-163167D01*
X148841Y-163398D01*
X148257Y-163615D01*
X147668Y-163818D01*
X147073Y-164006D01*
X146475Y-164180D01*
X145872Y-164339D01*
X145265Y-164483D01*
X144655Y-164612D01*
X144042Y-164726D01*
X143427Y-164825D01*
X142809Y-164909D01*
X142190Y-164978D01*
X141569Y-165031D01*
X140946Y-165069D01*
X140323Y-165092D01*
X139700Y-165100D01*
X139077Y-165092D01*
X138454Y-165069D01*
X137831Y-165031D01*
X137210Y-164978D01*
X136591Y-164909D01*
X135973Y-164825D01*
X135358Y-164726D01*
X134745Y-164612D01*
X134135Y-164483D01*
X133528Y-164339D01*
X132925Y-164180D01*
X132327Y-164006D01*
X131732Y-163818D01*
X131143Y-163615D01*
X130559Y-163398D01*
X129980Y-163167D01*
X129407Y-162921D01*
X128840Y-162661D01*
X128280Y-162388D01*
X127727Y-162101D01*
X127180Y-161800D01*
X126642Y-161486D01*
X126111Y-161159D01*
X125589Y-160819D01*
X125074Y-160467D01*
X124569Y-160101D01*
X124073Y-159724D01*
X123586Y-159334D01*
X123109Y-158933D01*
X122642Y-158520D01*
X122186Y-158096D01*
X121739Y-157661D01*
X121304Y-157214D01*
X120880Y-156758D01*
X120467Y-156291D01*
X120066Y-155814D01*
X119676Y-155327D01*
X119299Y-154831D01*
X118933Y-154326D01*
X118581Y-153811D01*
X118241Y-153289D01*
X117914Y-152758D01*
X117600Y-152220D01*
X117299Y-151673D01*
X117012Y-151120D01*
X116739Y-150560D01*
X116479Y-149993D01*
X116233Y-149420D01*
X116002Y-148841D01*
X115785Y-148257D01*
X115582Y-147668D01*
X115394Y-147073D01*
X115220Y-146475D01*
X115061Y-145872D01*
X114917Y-145265D01*
X114788Y-144655D01*
X114674Y-144042D01*
X114575Y-143427D01*
X114491Y-142809D01*
X114422Y-142190D01*
X114369Y-141569D01*
X114331Y-140946D01*
X114308Y-140323D01*
X114300Y-139700D01*
X369570Y-127000D02*
X372110Y-127000D01*
X369570Y-127000D02*
X369570Y-129540D01*
X369570Y-127000D02*
X367030Y-127000D01*
X369570Y-127000D02*
X369570Y-124460D01*
X330200Y-139700D02*
X330208Y-139077D01*
X330231Y-138454D01*
X330269Y-137831D01*
X330322Y-137210D01*
X330391Y-136591D01*
X330475Y-135973D01*
X330574Y-135358D01*
X330688Y-134745D01*
X330817Y-134135D01*
X330961Y-133528D01*
X331120Y-132925D01*
X331294Y-132327D01*
X331482Y-131732D01*
X331685Y-131143D01*
X331902Y-130559D01*
X332133Y-129980D01*
X332379Y-129407D01*
X332639Y-128840D01*
X332912Y-128280D01*
X333199Y-127727D01*
X333500Y-127180D01*
X333814Y-126642D01*
X334141Y-126111D01*
X334481Y-125589D01*
X334833Y-125074D01*
X335199Y-124569D01*
X335576Y-124073D01*
X335966Y-123586D01*
X336367Y-123109D01*
X336780Y-122642D01*
X337204Y-122186D01*
X337639Y-121739D01*
X338086Y-121304D01*
X338542Y-120880D01*
X339009Y-120467D01*
X339486Y-120066D01*
X339973Y-119676D01*
X340469Y-119299D01*
X340974Y-118933D01*
X341489Y-118581D01*
X342011Y-118241D01*
X342542Y-117914D01*
X343080Y-117600D01*
X343627Y-117299D01*
X344180Y-117012D01*
X344740Y-116739D01*
X345307Y-116479D01*
X345880Y-116233D01*
X346459Y-116002D01*
X347043Y-115785D01*
X347632Y-115582D01*
X348227Y-115394D01*
X348825Y-115220D01*
X349428Y-115061D01*
X350035Y-114917D01*
X350645Y-114788D01*
X351258Y-114674D01*
X351873Y-114575D01*
X352491Y-114491D01*
X353110Y-114422D01*
X353731Y-114369D01*
X354354Y-114331D01*
X354977Y-114308D01*
X355600Y-114300D01*
X356223Y-114308D01*
X356846Y-114331D01*
X357469Y-114369D01*
X358090Y-114422D01*
X358709Y-114491D01*
X359327Y-114575D01*
X359942Y-114674D01*
X360555Y-114788D01*
X361165Y-114917D01*
X361772Y-115061D01*
X362375Y-115220D01*
X362973Y-115394D01*
X363568Y-115582D01*
X364157Y-115785D01*
X364741Y-116002D01*
X365320Y-116233D01*
X365893Y-116479D01*
X366460Y-116739D01*
X367020Y-117012D01*
X367573Y-117299D01*
X368120Y-117600D01*
X368658Y-117914D01*
X369189Y-118241D01*
X369711Y-118581D01*
X370226Y-118933D01*
X370731Y-119299D01*
X371227Y-119676D01*
X371714Y-120066D01*
X372191Y-120467D01*
X372658Y-120880D01*
X373114Y-121304D01*
X373561Y-121739D01*
X373996Y-122186D01*
X374420Y-122642D01*
X374833Y-123109D01*
X375234Y-123586D01*
X375624Y-124073D01*
X376001Y-124569D01*
X376367Y-125074D01*
X376719Y-125589D01*
X377059Y-126111D01*
X377386Y-126642D01*
X377700Y-127180D01*
X378001Y-127727D01*
X378288Y-128280D01*
X378561Y-128840D01*
X378821Y-129407D01*
X379067Y-129980D01*
X379298Y-130559D01*
X379515Y-131143D01*
X379718Y-131732D01*
X379906Y-132327D01*
X380080Y-132925D01*
X380239Y-133528D01*
X380383Y-134135D01*
X380512Y-134745D01*
X380626Y-135358D01*
X380725Y-135973D01*
X380809Y-136591D01*
X380878Y-137210D01*
X380931Y-137831D01*
X380969Y-138454D01*
X380992Y-139077D01*
X381000Y-139700D01*
X380992Y-140323D01*
X380969Y-140946D01*
X380931Y-141569D01*
X380878Y-142190D01*
X380809Y-142809D01*
X380725Y-143427D01*
X380626Y-144042D01*
X380512Y-144655D01*
X380383Y-145265D01*
X380239Y-145872D01*
X380080Y-146475D01*
X379906Y-147073D01*
X379718Y-147668D01*
X379515Y-148257D01*
X379298Y-148841D01*
X379067Y-149420D01*
X378821Y-149993D01*
X378561Y-150560D01*
X378288Y-151120D01*
X378001Y-151673D01*
X377700Y-152220D01*
X377386Y-152758D01*
X377059Y-153289D01*
X376719Y-153811D01*
X376367Y-154326D01*
X376001Y-154831D01*
X375624Y-155327D01*
X375234Y-155814D01*
X374833Y-156291D01*
X374420Y-156758D01*
X373996Y-157214D01*
X373561Y-157661D01*
X373114Y-158096D01*
X372658Y-158520D01*
X372191Y-158933D01*
X371714Y-159334D01*
X371227Y-159724D01*
X370731Y-160101D01*
X370226Y-160467D01*
X369711Y-160819D01*
X369189Y-161159D01*
X368658Y-161486D01*
X368120Y-161800D01*
X367573Y-162101D01*
X367020Y-162388D01*
X366460Y-162661D01*
X365893Y-162921D01*
X365320Y-163167D01*
X364741Y-163398D01*
X364157Y-163615D01*
X363568Y-163818D01*
X362973Y-164006D01*
X362375Y-164180D01*
X361772Y-164339D01*
X361165Y-164483D01*
X360555Y-164612D01*
X359942Y-164726D01*
X359327Y-164825D01*
X358709Y-164909D01*
X358090Y-164978D01*
X357469Y-165031D01*
X356846Y-165069D01*
X356223Y-165092D01*
X355600Y-165100D01*
X354977Y-165092D01*
X354354Y-165069D01*
X353731Y-165031D01*
X353110Y-164978D01*
X352491Y-164909D01*
X351873Y-164825D01*
X351258Y-164726D01*
X350645Y-164612D01*
X350035Y-164483D01*
X349428Y-164339D01*
X348825Y-164180D01*
X348227Y-164006D01*
X347632Y-163818D01*
X347043Y-163615D01*
X346459Y-163398D01*
X345880Y-163167D01*
X345307Y-162921D01*
X344740Y-162661D01*
X344180Y-162388D01*
X343627Y-162101D01*
X343080Y-161800D01*
X342542Y-161486D01*
X342011Y-161159D01*
X341489Y-160819D01*
X340974Y-160467D01*
X340469Y-160101D01*
X339973Y-159724D01*
X339486Y-159334D01*
X339009Y-158933D01*
X338542Y-158520D01*
X338086Y-158096D01*
X337639Y-157661D01*
X337204Y-157214D01*
X336780Y-156758D01*
X336367Y-156291D01*
X335966Y-155814D01*
X335576Y-155327D01*
X335199Y-154831D01*
X334833Y-154326D01*
X334481Y-153811D01*
X334141Y-153289D01*
X333814Y-152758D01*
X333500Y-152220D01*
X333199Y-151673D01*
X332912Y-151120D01*
X332639Y-150560D01*
X332379Y-149993D01*
X332133Y-149420D01*
X331902Y-148841D01*
X331685Y-148257D01*
X331482Y-147668D01*
X331294Y-147073D01*
X331120Y-146475D01*
X330961Y-145872D01*
X330817Y-145265D01*
X330688Y-144655D01*
X330574Y-144042D01*
X330475Y-143427D01*
X330391Y-142809D01*
X330322Y-142190D01*
X330269Y-141569D01*
X330231Y-140946D01*
X330208Y-140323D01*
X330200Y-139700D01*
X585470Y-127000D02*
X588010Y-127000D01*
X585470Y-127000D02*
X585470Y-129540D01*
X585470Y-127000D02*
X582930Y-127000D01*
X585470Y-127000D02*
X585470Y-124460D01*
X546100Y-139700D02*
X546108Y-139077D01*
X546131Y-138454D01*
X546169Y-137831D01*
X546222Y-137210D01*
X546291Y-136591D01*
X546375Y-135973D01*
X546474Y-135358D01*
X546588Y-134745D01*
X546717Y-134135D01*
X546861Y-133528D01*
X547020Y-132925D01*
X547194Y-132327D01*
X547382Y-131732D01*
X547585Y-131143D01*
X547802Y-130559D01*
X548033Y-129980D01*
X548279Y-129407D01*
X548539Y-128840D01*
X548812Y-128280D01*
X549099Y-127727D01*
X549400Y-127180D01*
X549714Y-126642D01*
X550041Y-126111D01*
X550381Y-125589D01*
X550733Y-125074D01*
X551099Y-124569D01*
X551476Y-124073D01*
X551866Y-123586D01*
X552267Y-123109D01*
X552680Y-122642D01*
X553104Y-122186D01*
X553539Y-121739D01*
X553986Y-121304D01*
X554442Y-120880D01*
X554909Y-120467D01*
X555386Y-120066D01*
X555873Y-119676D01*
X556369Y-119299D01*
X556874Y-118933D01*
X557389Y-118581D01*
X557911Y-118241D01*
X558442Y-117914D01*
X558980Y-117600D01*
X559527Y-117299D01*
X560080Y-117012D01*
X560640Y-116739D01*
X561207Y-116479D01*
X561780Y-116233D01*
X562359Y-116002D01*
X562943Y-115785D01*
X563532Y-115582D01*
X564127Y-115394D01*
X564725Y-115220D01*
X565328Y-115061D01*
X565935Y-114917D01*
X566545Y-114788D01*
X567158Y-114674D01*
X567773Y-114575D01*
X568391Y-114491D01*
X569010Y-114422D01*
X569631Y-114369D01*
X570254Y-114331D01*
X570877Y-114308D01*
X571500Y-114300D01*
X572123Y-114308D01*
X572746Y-114331D01*
X573369Y-114369D01*
X573990Y-114422D01*
X574609Y-114491D01*
X575227Y-114575D01*
X575842Y-114674D01*
X576455Y-114788D01*
X577065Y-114917D01*
X577672Y-115061D01*
X578275Y-115220D01*
X578873Y-115394D01*
X579468Y-115582D01*
X580057Y-115785D01*
X580641Y-116002D01*
X581220Y-116233D01*
X581793Y-116479D01*
X582360Y-116739D01*
X582920Y-117012D01*
X583473Y-117299D01*
X584020Y-117600D01*
X584558Y-117914D01*
X585089Y-118241D01*
X585611Y-118581D01*
X586126Y-118933D01*
X586631Y-119299D01*
X587127Y-119676D01*
X587614Y-120066D01*
X588091Y-120467D01*
X588558Y-120880D01*
X589014Y-121304D01*
X589461Y-121739D01*
X589896Y-122186D01*
X590320Y-122642D01*
X590733Y-123109D01*
X591134Y-123586D01*
X591524Y-124073D01*
X591901Y-124569D01*
X592267Y-125074D01*
X592619Y-125589D01*
X592959Y-126111D01*
X593286Y-126642D01*
X593600Y-127180D01*
X593901Y-127727D01*
X594188Y-128280D01*
X594461Y-128840D01*
X594721Y-129407D01*
X594967Y-129980D01*
X595198Y-130559D01*
X595415Y-131143D01*
X595618Y-131732D01*
X595806Y-132327D01*
X595980Y-132925D01*
X596139Y-133528D01*
X596283Y-134135D01*
X596412Y-134745D01*
X596526Y-135358D01*
X596625Y-135973D01*
X596709Y-136591D01*
X596778Y-137210D01*
X596831Y-137831D01*
X596869Y-138454D01*
X596892Y-139077D01*
X596900Y-139700D01*
X596892Y-140323D01*
X596869Y-140946D01*
X596831Y-141569D01*
X596778Y-142190D01*
X596709Y-142809D01*
X596625Y-143427D01*
X596526Y-144042D01*
X596412Y-144655D01*
X596283Y-145265D01*
X596139Y-145872D01*
X595980Y-146475D01*
X595806Y-147073D01*
X595618Y-147668D01*
X595415Y-148257D01*
X595198Y-148841D01*
X594967Y-149420D01*
X594721Y-149993D01*
X594461Y-150560D01*
X594188Y-151120D01*
X593901Y-151673D01*
X593600Y-152220D01*
X593286Y-152758D01*
X592959Y-153289D01*
X592619Y-153811D01*
X592267Y-154326D01*
X591901Y-154831D01*
X591524Y-155327D01*
X591134Y-155814D01*
X590733Y-156291D01*
X590320Y-156758D01*
X589896Y-157214D01*
X589461Y-157661D01*
X589014Y-158096D01*
X588558Y-158520D01*
X588091Y-158933D01*
X587614Y-159334D01*
X587127Y-159724D01*
X586631Y-160101D01*
X586126Y-160467D01*
X585611Y-160819D01*
X585089Y-161159D01*
X584558Y-161486D01*
X584020Y-161800D01*
X583473Y-162101D01*
X582920Y-162388D01*
X582360Y-162661D01*
X581793Y-162921D01*
X581220Y-163167D01*
X580641Y-163398D01*
X580057Y-163615D01*
X579468Y-163818D01*
X578873Y-164006D01*
X578275Y-164180D01*
X577672Y-164339D01*
X577065Y-164483D01*
X576455Y-164612D01*
X575842Y-164726D01*
X575227Y-164825D01*
X574609Y-164909D01*
X573990Y-164978D01*
X573369Y-165031D01*
X572746Y-165069D01*
X572123Y-165092D01*
X571500Y-165100D01*
X570877Y-165092D01*
X570254Y-165069D01*
X569631Y-165031D01*
X569010Y-164978D01*
X568391Y-164909D01*
X567773Y-164825D01*
X567158Y-164726D01*
X566545Y-164612D01*
X565935Y-164483D01*
X565328Y-164339D01*
X564725Y-164180D01*
X564127Y-164006D01*
X563532Y-163818D01*
X562943Y-163615D01*
X562359Y-163398D01*
X561780Y-163167D01*
X561207Y-162921D01*
X560640Y-162661D01*
X560080Y-162388D01*
X559527Y-162101D01*
X558980Y-161800D01*
X558442Y-161486D01*
X557911Y-161159D01*
X557389Y-160819D01*
X556874Y-160467D01*
X556369Y-160101D01*
X555873Y-159724D01*
X555386Y-159334D01*
X554909Y-158933D01*
X554442Y-158520D01*
X553986Y-158096D01*
X553539Y-157661D01*
X553104Y-157214D01*
X552680Y-156758D01*
X552267Y-156291D01*
X551866Y-155814D01*
X551476Y-155327D01*
X551099Y-154831D01*
X550733Y-154326D01*
X550381Y-153811D01*
X550041Y-153289D01*
X549714Y-152758D01*
X549400Y-152220D01*
X549099Y-151673D01*
X548812Y-151120D01*
X548539Y-150560D01*
X548279Y-149993D01*
X548033Y-149420D01*
X547802Y-148841D01*
X547585Y-148257D01*
X547382Y-147668D01*
X547194Y-147073D01*
X547020Y-146475D01*
X546861Y-145872D01*
X546717Y-145265D01*
X546588Y-144655D01*
X546474Y-144042D01*
X546375Y-143427D01*
X546291Y-142809D01*
X546222Y-142190D01*
X546169Y-141569D01*
X546131Y-140946D01*
X546108Y-140323D01*
X546100Y-139700D01*
X-173990Y-127000D02*
X-176530Y-127000D01*
X-176530Y-129540D01*
X-176530Y-127000D02*
X-179070Y-127000D01*
X-176530Y-127000D02*
X-176530Y-124460D01*
X-215900Y-139700D02*
X-215892Y-139077D01*
X-215869Y-138454D01*
X-215831Y-137831D01*
X-215778Y-137210D01*
X-215709Y-136591D01*
X-215625Y-135973D01*
X-215526Y-135358D01*
X-215412Y-134745D01*
X-215283Y-134135D01*
X-215139Y-133528D01*
X-214980Y-132925D01*
X-214806Y-132327D01*
X-214618Y-131732D01*
X-214415Y-131143D01*
X-214198Y-130559D01*
X-213967Y-129980D01*
X-213721Y-129407D01*
X-213461Y-128840D01*
X-213188Y-128280D01*
X-212901Y-127727D01*
X-212600Y-127180D01*
X-212286Y-126642D01*
X-211959Y-126111D01*
X-211619Y-125589D01*
X-211267Y-125074D01*
X-210901Y-124569D01*
X-210524Y-124073D01*
X-210134Y-123586D01*
X-209733Y-123109D01*
X-209320Y-122642D01*
X-208896Y-122186D01*
X-208461Y-121739D01*
X-208014Y-121304D01*
X-207558Y-120880D01*
X-207091Y-120467D01*
X-206614Y-120066D01*
X-206127Y-119676D01*
X-205631Y-119299D01*
X-205126Y-118933D01*
X-204611Y-118581D01*
X-204089Y-118241D01*
X-203558Y-117914D01*
X-203020Y-117600D01*
X-202473Y-117299D01*
X-201920Y-117012D01*
X-201360Y-116739D01*
X-200793Y-116479D01*
X-200220Y-116233D01*
X-199641Y-116002D01*
X-199057Y-115785D01*
X-198468Y-115582D01*
X-197873Y-115394D01*
X-197275Y-115220D01*
X-196672Y-115061D01*
X-196065Y-114917D01*
X-195455Y-114788D01*
X-194842Y-114674D01*
X-194227Y-114575D01*
X-193609Y-114491D01*
X-192990Y-114422D01*
X-192369Y-114369D01*
X-191746Y-114331D01*
X-191123Y-114308D01*
X-190500Y-114300D01*
X-189877Y-114308D01*
X-189254Y-114331D01*
X-188631Y-114369D01*
X-188010Y-114422D01*
X-187391Y-114491D01*
X-186773Y-114575D01*
X-186158Y-114674D01*
X-185545Y-114788D01*
X-184935Y-114917D01*
X-184328Y-115061D01*
X-183725Y-115220D01*
X-183127Y-115394D01*
X-182532Y-115582D01*
X-181943Y-115785D01*
X-181359Y-116002D01*
X-180780Y-116233D01*
X-180207Y-116479D01*
X-179640Y-116739D01*
X-179080Y-117012D01*
X-178527Y-117299D01*
X-177980Y-117600D01*
X-177442Y-117914D01*
X-176911Y-118241D01*
X-176389Y-118581D01*
X-175874Y-118933D01*
X-175369Y-119299D01*
X-174873Y-119676D01*
X-174386Y-120066D01*
X-173909Y-120467D01*
X-173442Y-120880D01*
X-172986Y-121304D01*
X-172539Y-121739D01*
X-172104Y-122186D01*
X-171680Y-122642D01*
X-171267Y-123109D01*
X-170866Y-123586D01*
X-170476Y-124073D01*
X-170099Y-124569D01*
X-169733Y-125074D01*
X-169381Y-125589D01*
X-169041Y-126111D01*
X-168714Y-126642D01*
X-168400Y-127180D01*
X-168099Y-127727D01*
X-167812Y-128280D01*
X-167539Y-128840D01*
X-167279Y-129407D01*
X-167033Y-129980D01*
X-166802Y-130559D01*
X-166585Y-131143D01*
X-166382Y-131732D01*
X-166194Y-132327D01*
X-166020Y-132925D01*
X-165861Y-133528D01*
X-165717Y-134135D01*
X-165588Y-134745D01*
X-165474Y-135358D01*
X-165375Y-135973D01*
X-165291Y-136591D01*
X-165222Y-137210D01*
X-165169Y-137831D01*
X-165131Y-138454D01*
X-165108Y-139077D01*
X-165100Y-139700D01*
X-165108Y-140323D01*
X-165131Y-140946D01*
X-165169Y-141569D01*
X-165222Y-142190D01*
X-165291Y-142809D01*
X-165375Y-143427D01*
X-165474Y-144042D01*
X-165588Y-144655D01*
X-165717Y-145265D01*
X-165861Y-145872D01*
X-166020Y-146475D01*
X-166194Y-147073D01*
X-166382Y-147668D01*
X-166585Y-148257D01*
X-166802Y-148841D01*
X-167033Y-149420D01*
X-167279Y-149993D01*
X-167539Y-150560D01*
X-167812Y-151120D01*
X-168099Y-151673D01*
X-168400Y-152220D01*
X-168714Y-152758D01*
X-169041Y-153289D01*
X-169381Y-153811D01*
X-169733Y-154326D01*
X-170099Y-154831D01*
X-170476Y-155327D01*
X-170866Y-155814D01*
X-171267Y-156291D01*
X-171680Y-156758D01*
X-172104Y-157214D01*
X-172539Y-157661D01*
X-172986Y-158096D01*
X-173442Y-158520D01*
X-173909Y-158933D01*
X-174386Y-159334D01*
X-174873Y-159724D01*
X-175369Y-160101D01*
X-175874Y-160467D01*
X-176389Y-160819D01*
X-176911Y-161159D01*
X-177442Y-161486D01*
X-177980Y-161800D01*
X-178527Y-162101D01*
X-179080Y-162388D01*
X-179640Y-162661D01*
X-180207Y-162921D01*
X-180780Y-163167D01*
X-181359Y-163398D01*
X-181943Y-163615D01*
X-182532Y-163818D01*
X-183127Y-164006D01*
X-183725Y-164180D01*
X-184328Y-164339D01*
X-184935Y-164483D01*
X-185545Y-164612D01*
X-186158Y-164726D01*
X-186773Y-164825D01*
X-187391Y-164909D01*
X-188010Y-164978D01*
X-188631Y-165031D01*
X-189254Y-165069D01*
X-189877Y-165092D01*
X-190500Y-165100D01*
X-191123Y-165092D01*
X-191746Y-165069D01*
X-192369Y-165031D01*
X-192990Y-164978D01*
X-193609Y-164909D01*
X-194227Y-164825D01*
X-194842Y-164726D01*
X-195455Y-164612D01*
X-196065Y-164483D01*
X-196672Y-164339D01*
X-197275Y-164180D01*
X-197873Y-164006D01*
X-198468Y-163818D01*
X-199057Y-163615D01*
X-199641Y-163398D01*
X-200220Y-163167D01*
X-200793Y-162921D01*
X-201360Y-162661D01*
X-201920Y-162388D01*
X-202473Y-162101D01*
X-203020Y-161800D01*
X-203558Y-161486D01*
X-204089Y-161159D01*
X-204611Y-160819D01*
X-205126Y-160467D01*
X-205631Y-160101D01*
X-206127Y-159724D01*
X-206614Y-159334D01*
X-207091Y-158933D01*
X-207558Y-158520D01*
X-208014Y-158096D01*
X-208461Y-157661D01*
X-208896Y-157214D01*
X-209320Y-156758D01*
X-209733Y-156291D01*
X-210134Y-155814D01*
X-210524Y-155327D01*
X-210901Y-154831D01*
X-211267Y-154326D01*
X-211619Y-153811D01*
X-211959Y-153289D01*
X-212286Y-152758D01*
X-212600Y-152220D01*
X-212901Y-151673D01*
X-213188Y-151120D01*
X-213461Y-150560D01*
X-213721Y-149993D01*
X-213967Y-149420D01*
X-214198Y-148841D01*
X-214415Y-148257D01*
X-214618Y-147668D01*
X-214806Y-147073D01*
X-214980Y-146475D01*
X-215139Y-145872D01*
X-215283Y-145265D01*
X-215412Y-144655D01*
X-215526Y-144042D01*
X-215625Y-143427D01*
X-215709Y-142809D01*
X-215778Y-142190D01*
X-215831Y-141569D01*
X-215869Y-140946D01*
X-215892Y-140323D01*
X-215900Y-139700D01*
X-59690Y-76200D02*
X-59690Y0D01*
X-118110Y0D02*
X-118110Y-76200D01*
X-118110Y0D02*
X-59690Y0D01*
X-59690Y-76200D02*
X-78740Y-76200D01*
X-99060Y-76200D02*
X-118110Y-76200D01*
X-99060Y-76200D02*
X-99057Y-75953D01*
X-99048Y-75705D01*
X-99033Y-75458D01*
X-99012Y-75212D01*
X-98985Y-74966D01*
X-98952Y-74721D01*
X-98913Y-74476D01*
X-98868Y-74233D01*
X-98817Y-73991D01*
X-98760Y-73750D01*
X-98698Y-73511D01*
X-98629Y-73273D01*
X-98555Y-73037D01*
X-98475Y-72803D01*
X-98390Y-72571D01*
X-98298Y-72341D01*
X-98202Y-72113D01*
X-98099Y-71888D01*
X-97992Y-71665D01*
X-97878Y-71445D01*
X-97760Y-71228D01*
X-97636Y-71013D01*
X-97507Y-70802D01*
X-97373Y-70594D01*
X-97234Y-70389D01*
X-97090Y-70188D01*
X-96942Y-69990D01*
X-96788Y-69796D01*
X-96630Y-69606D01*
X-96467Y-69420D01*
X-96300Y-69238D01*
X-96128Y-69060D01*
X-95952Y-68886D01*
X-95772Y-68716D01*
X-95587Y-68551D01*
X-95399Y-68391D01*
X-95207Y-68235D01*
X-95011Y-68083D01*
X-94812Y-67937D01*
X-94609Y-67795D01*
X-94402Y-67659D01*
X-94193Y-67527D01*
X-93980Y-67401D01*
X-93764Y-67280D01*
X-93546Y-67164D01*
X-93324Y-67054D01*
X-93100Y-66949D01*
X-92874Y-66849D01*
X-92645Y-66755D01*
X-92414Y-66667D01*
X-92180Y-66584D01*
X-91945Y-66507D01*
X-91708Y-66436D01*
X-91470Y-66370D01*
X-91230Y-66311D01*
X-90988Y-66257D01*
X-90745Y-66209D01*
X-90502Y-66167D01*
X-90257Y-66131D01*
X-90011Y-66101D01*
X-89765Y-66077D01*
X-89518Y-66059D01*
X-89271Y-66047D01*
X-89024Y-66041D01*
X-88776Y-66041D01*
X-88529Y-66047D01*
X-88282Y-66059D01*
X-88035Y-66077D01*
X-87789Y-66101D01*
X-87543Y-66131D01*
X-87298Y-66167D01*
X-87055Y-66209D01*
X-86812Y-66257D01*
X-86570Y-66311D01*
X-86330Y-66370D01*
X-86092Y-66436D01*
X-85855Y-66507D01*
X-85620Y-66584D01*
X-85386Y-66667D01*
X-85155Y-66755D01*
X-84926Y-66849D01*
X-84700Y-66949D01*
X-84476Y-67054D01*
X-84254Y-67164D01*
X-84036Y-67280D01*
X-83820Y-67401D01*
X-83607Y-67527D01*
X-83398Y-67659D01*
X-83191Y-67795D01*
X-82988Y-67937D01*
X-82789Y-68083D01*
X-82593Y-68235D01*
X-82401Y-68391D01*
X-82213Y-68551D01*
X-82028Y-68716D01*
X-81848Y-68886D01*
X-81672Y-69060D01*
X-81500Y-69238D01*
X-81333Y-69420D01*
X-81170Y-69606D01*
X-81012Y-69796D01*
X-80858Y-69990D01*
X-80710Y-70188D01*
X-80566Y-70389D01*
X-80427Y-70594D01*
X-80293Y-70802D01*
X-80164Y-71013D01*
X-80040Y-71228D01*
X-79922Y-71445D01*
X-79808Y-71665D01*
X-79701Y-71888D01*
X-79598Y-72113D01*
X-79502Y-72341D01*
X-79410Y-72571D01*
X-79325Y-72803D01*
X-79245Y-73037D01*
X-79171Y-73273D01*
X-79102Y-73511D01*
X-79040Y-73750D01*
X-78983Y-73991D01*
X-78932Y-74233D01*
X-78887Y-74476D01*
X-78848Y-74721D01*
X-78815Y-74966D01*
X-78788Y-75212D01*
X-78767Y-75458D01*
X-78752Y-75705D01*
X-78743Y-75953D01*
X-78740Y-76200D01*
X143510Y-76200D02*
X143510Y0D01*
X85090Y0D02*
X85090Y-76200D01*
X85090Y0D02*
X143510Y0D01*
X143510Y-76200D02*
X124460Y-76200D01*
X104140Y-76200D02*
X85090Y-76200D01*
X104140Y-76200D02*
X104143Y-75953D01*
X104152Y-75705D01*
X104167Y-75458D01*
X104188Y-75212D01*
X104215Y-74966D01*
X104248Y-74721D01*
X104287Y-74476D01*
X104332Y-74233D01*
X104383Y-73991D01*
X104440Y-73750D01*
X104502Y-73511D01*
X104571Y-73273D01*
X104645Y-73037D01*
X104725Y-72803D01*
X104810Y-72571D01*
X104902Y-72341D01*
X104998Y-72113D01*
X105101Y-71888D01*
X105208Y-71665D01*
X105322Y-71445D01*
X105440Y-71228D01*
X105564Y-71013D01*
X105693Y-70802D01*
X105827Y-70594D01*
X105966Y-70389D01*
X106110Y-70188D01*
X106258Y-69990D01*
X106412Y-69796D01*
X106570Y-69606D01*
X106733Y-69420D01*
X106900Y-69238D01*
X107072Y-69060D01*
X107248Y-68886D01*
X107428Y-68716D01*
X107613Y-68551D01*
X107801Y-68391D01*
X107993Y-68235D01*
X108189Y-68083D01*
X108388Y-67937D01*
X108591Y-67795D01*
X108798Y-67659D01*
X109007Y-67527D01*
X109220Y-67401D01*
X109436Y-67280D01*
X109654Y-67164D01*
X109876Y-67054D01*
X110100Y-66949D01*
X110326Y-66849D01*
X110555Y-66755D01*
X110786Y-66667D01*
X111020Y-66584D01*
X111255Y-66507D01*
X111492Y-66436D01*
X111730Y-66370D01*
X111970Y-66311D01*
X112212Y-66257D01*
X112455Y-66209D01*
X112698Y-66167D01*
X112943Y-66131D01*
X113189Y-66101D01*
X113435Y-66077D01*
X113682Y-66059D01*
X113929Y-66047D01*
X114176Y-66041D01*
X114424Y-66041D01*
X114671Y-66047D01*
X114918Y-66059D01*
X115165Y-66077D01*
X115411Y-66101D01*
X115657Y-66131D01*
X115902Y-66167D01*
X116145Y-66209D01*
X116388Y-66257D01*
X116630Y-66311D01*
X116870Y-66370D01*
X117108Y-66436D01*
X117345Y-66507D01*
X117580Y-66584D01*
X117814Y-66667D01*
X118045Y-66755D01*
X118274Y-66849D01*
X118500Y-66949D01*
X118724Y-67054D01*
X118946Y-67164D01*
X119164Y-67280D01*
X119380Y-67401D01*
X119593Y-67527D01*
X119802Y-67659D01*
X120009Y-67795D01*
X120212Y-67937D01*
X120411Y-68083D01*
X120607Y-68235D01*
X120799Y-68391D01*
X120987Y-68551D01*
X121172Y-68716D01*
X121352Y-68886D01*
X121528Y-69060D01*
X121700Y-69238D01*
X121867Y-69420D01*
X122030Y-69606D01*
X122188Y-69796D01*
X122342Y-69990D01*
X122490Y-70188D01*
X122634Y-70389D01*
X122773Y-70594D01*
X122907Y-70802D01*
X123036Y-71013D01*
X123160Y-71228D01*
X123278Y-71445D01*
X123392Y-71665D01*
X123499Y-71888D01*
X123602Y-72113D01*
X123698Y-72341D01*
X123790Y-72571D01*
X123875Y-72803D01*
X123955Y-73037D01*
X124029Y-73273D01*
X124098Y-73511D01*
X124160Y-73750D01*
X124217Y-73991D01*
X124268Y-74233D01*
X124313Y-74476D01*
X124352Y-74721D01*
X124385Y-74966D01*
X124412Y-75212D01*
X124433Y-75458D01*
X124448Y-75705D01*
X124457Y-75953D01*
X124460Y-76200D01*
X359410Y-76200D02*
X359410Y0D01*
X300990Y0D02*
X300990Y-76200D01*
X300990Y0D02*
X359410Y0D01*
X359410Y-76200D02*
X340360Y-76200D01*
X320040Y-76200D02*
X300990Y-76200D01*
X320040Y-76200D02*
X320043Y-75953D01*
X320052Y-75705D01*
X320067Y-75458D01*
X320088Y-75212D01*
X320115Y-74966D01*
X320148Y-74721D01*
X320187Y-74476D01*
X320232Y-74233D01*
X320283Y-73991D01*
X320340Y-73750D01*
X320402Y-73511D01*
X320471Y-73273D01*
X320545Y-73037D01*
X320625Y-72803D01*
X320710Y-72571D01*
X320802Y-72341D01*
X320898Y-72113D01*
X321001Y-71888D01*
X321108Y-71665D01*
X321222Y-71445D01*
X321340Y-71228D01*
X321464Y-71013D01*
X321593Y-70802D01*
X321727Y-70594D01*
X321866Y-70389D01*
X322010Y-70188D01*
X322158Y-69990D01*
X322312Y-69796D01*
X322470Y-69606D01*
X322633Y-69420D01*
X322800Y-69238D01*
X322972Y-69060D01*
X323148Y-68886D01*
X323328Y-68716D01*
X323513Y-68551D01*
X323701Y-68391D01*
X323893Y-68235D01*
X324089Y-68083D01*
X324288Y-67937D01*
X324491Y-67795D01*
X324698Y-67659D01*
X324907Y-67527D01*
X325120Y-67401D01*
X325336Y-67280D01*
X325554Y-67164D01*
X325776Y-67054D01*
X326000Y-66949D01*
X326226Y-66849D01*
X326455Y-66755D01*
X326686Y-66667D01*
X326920Y-66584D01*
X327155Y-66507D01*
X327392Y-66436D01*
X327630Y-66370D01*
X327870Y-66311D01*
X328112Y-66257D01*
X328355Y-66209D01*
X328598Y-66167D01*
X328843Y-66131D01*
X329089Y-66101D01*
X329335Y-66077D01*
X329582Y-66059D01*
X329829Y-66047D01*
X330076Y-66041D01*
X330324Y-66041D01*
X330571Y-66047D01*
X330818Y-66059D01*
X331065Y-66077D01*
X331311Y-66101D01*
X331557Y-66131D01*
X331802Y-66167D01*
X332045Y-66209D01*
X332288Y-66257D01*
X332530Y-66311D01*
X332770Y-66370D01*
X333008Y-66436D01*
X333245Y-66507D01*
X333480Y-66584D01*
X333714Y-66667D01*
X333945Y-66755D01*
X334174Y-66849D01*
X334400Y-66949D01*
X334624Y-67054D01*
X334846Y-67164D01*
X335064Y-67280D01*
X335280Y-67401D01*
X335493Y-67527D01*
X335702Y-67659D01*
X335909Y-67795D01*
X336112Y-67937D01*
X336311Y-68083D01*
X336507Y-68235D01*
X336699Y-68391D01*
X336887Y-68551D01*
X337072Y-68716D01*
X337252Y-68886D01*
X337428Y-69060D01*
X337600Y-69238D01*
X337767Y-69420D01*
X337930Y-69606D01*
X338088Y-69796D01*
X338242Y-69990D01*
X338390Y-70188D01*
X338534Y-70389D01*
X338673Y-70594D01*
X338807Y-70802D01*
X338936Y-71013D01*
X339060Y-71228D01*
X339178Y-71445D01*
X339292Y-71665D01*
X339399Y-71888D01*
X339502Y-72113D01*
X339598Y-72341D01*
X339690Y-72571D01*
X339775Y-72803D01*
X339855Y-73037D01*
X339929Y-73273D01*
X339998Y-73511D01*
X340060Y-73750D01*
X340117Y-73991D01*
X340168Y-74233D01*
X340213Y-74476D01*
X340252Y-74721D01*
X340285Y-74966D01*
X340312Y-75212D01*
X340333Y-75458D01*
X340348Y-75705D01*
X340357Y-75953D01*
X340360Y-76200D01*
X575310Y-76200D02*
X575310Y0D01*
X516890Y0D02*
X516890Y-76200D01*
X516890Y0D02*
X575310Y0D01*
X575310Y-76200D02*
X556260Y-76200D01*
X535940Y-76200D02*
X516890Y-76200D01*
X535940Y-76200D02*
X535943Y-75953D01*
X535952Y-75705D01*
X535967Y-75458D01*
X535988Y-75212D01*
X536015Y-74966D01*
X536048Y-74721D01*
X536087Y-74476D01*
X536132Y-74233D01*
X536183Y-73991D01*
X536240Y-73750D01*
X536302Y-73511D01*
X536371Y-73273D01*
X536445Y-73037D01*
X536525Y-72803D01*
X536610Y-72571D01*
X536702Y-72341D01*
X536798Y-72113D01*
X536901Y-71888D01*
X537008Y-71665D01*
X537122Y-71445D01*
X537240Y-71228D01*
X537364Y-71013D01*
X537493Y-70802D01*
X537627Y-70594D01*
X537766Y-70389D01*
X537910Y-70188D01*
X538058Y-69990D01*
X538212Y-69796D01*
X538370Y-69606D01*
X538533Y-69420D01*
X538700Y-69238D01*
X538872Y-69060D01*
X539048Y-68886D01*
X539228Y-68716D01*
X539413Y-68551D01*
X539601Y-68391D01*
X539793Y-68235D01*
X539989Y-68083D01*
X540188Y-67937D01*
X540391Y-67795D01*
X540598Y-67659D01*
X540807Y-67527D01*
X541020Y-67401D01*
X541236Y-67280D01*
X541454Y-67164D01*
X541676Y-67054D01*
X541900Y-66949D01*
X542126Y-66849D01*
X542355Y-66755D01*
X542586Y-66667D01*
X542820Y-66584D01*
X543055Y-66507D01*
X543292Y-66436D01*
X543530Y-66370D01*
X543770Y-66311D01*
X544012Y-66257D01*
X544255Y-66209D01*
X544498Y-66167D01*
X544743Y-66131D01*
X544989Y-66101D01*
X545235Y-66077D01*
X545482Y-66059D01*
X545729Y-66047D01*
X545976Y-66041D01*
X546224Y-66041D01*
X546471Y-66047D01*
X546718Y-66059D01*
X546965Y-66077D01*
X547211Y-66101D01*
X547457Y-66131D01*
X547702Y-66167D01*
X547945Y-66209D01*
X548188Y-66257D01*
X548430Y-66311D01*
X548670Y-66370D01*
X548908Y-66436D01*
X549145Y-66507D01*
X549380Y-66584D01*
X549614Y-66667D01*
X549845Y-66755D01*
X550074Y-66849D01*
X550300Y-66949D01*
X550524Y-67054D01*
X550746Y-67164D01*
X550964Y-67280D01*
X551180Y-67401D01*
X551393Y-67527D01*
X551602Y-67659D01*
X551809Y-67795D01*
X552012Y-67937D01*
X552211Y-68083D01*
X552407Y-68235D01*
X552599Y-68391D01*
X552787Y-68551D01*
X552972Y-68716D01*
X553152Y-68886D01*
X553328Y-69060D01*
X553500Y-69238D01*
X553667Y-69420D01*
X553830Y-69606D01*
X553988Y-69796D01*
X554142Y-69990D01*
X554290Y-70188D01*
X554434Y-70389D01*
X554573Y-70594D01*
X554707Y-70802D01*
X554836Y-71013D01*
X554960Y-71228D01*
X555078Y-71445D01*
X555192Y-71665D01*
X555299Y-71888D01*
X555402Y-72113D01*
X555498Y-72341D01*
X555590Y-72571D01*
X555675Y-72803D01*
X555755Y-73037D01*
X555829Y-73273D01*
X555898Y-73511D01*
X555960Y-73750D01*
X556017Y-73991D01*
X556068Y-74233D01*
X556113Y-74476D01*
X556152Y-74721D01*
X556185Y-74966D01*
X556212Y-75212D01*
X556233Y-75458D01*
X556248Y-75705D01*
X556257Y-75953D01*
X556260Y-76200D01*
M02*
