G04 EAGLE Gerber RS-274X export*
G75*
%MOMM*%
%FSLAX34Y34*%
%LPD*%
%INSoldermask Top*%
%IPPOS*%
%AMOC8*
5,1,8,0,0,1.08239X$1,22.5*%
G01*
%ADD10C,6.000000*%
%ADD11C,3.327000*%
%ADD12P,1.457113X8X292.500000*%
%ADD13C,1.777000*%
%ADD14C,1.222000*%
%ADD15C,1.651000*%
%ADD16R,1.651000X1.651000*%
%ADD17C,1.666241*%
%ADD18R,1.707000X1.707000*%
%ADD19C,1.707000*%
%ADD20P,1.457113X8X202.500000*%
%ADD21P,1.457113X8X22.500000*%
%ADD22C,0.635000*%
%ADD23C,1.270000*%

G36*
X40148Y367132D02*
X40148Y367132D01*
X40239Y367131D01*
X41203Y367262D01*
X41251Y367278D01*
X41340Y367297D01*
X42251Y367639D01*
X42294Y367665D01*
X42378Y367704D01*
X43189Y368241D01*
X43225Y368276D01*
X43298Y368332D01*
X43970Y369036D01*
X43998Y369078D01*
X44056Y369149D01*
X44554Y369985D01*
X44555Y369988D01*
X44557Y369990D01*
X44563Y370009D01*
X44572Y370032D01*
X44612Y370114D01*
X44912Y371040D01*
X44919Y371090D01*
X44941Y371179D01*
X45027Y372148D01*
X45023Y372195D01*
X45026Y372270D01*
X44924Y373246D01*
X44910Y373294D01*
X44894Y373384D01*
X44578Y374313D01*
X44554Y374357D01*
X44517Y374442D01*
X44003Y375277D01*
X43969Y375314D01*
X43915Y375389D01*
X43227Y376089D01*
X43186Y376118D01*
X43117Y376178D01*
X42290Y376707D01*
X42244Y376726D01*
X42163Y376770D01*
X41240Y377102D01*
X41190Y377110D01*
X41101Y377135D01*
X40127Y377253D01*
X40077Y377250D01*
X39991Y377254D01*
X38989Y377159D01*
X38940Y377145D01*
X38850Y377129D01*
X37894Y376813D01*
X37849Y376789D01*
X37765Y376754D01*
X36904Y376232D01*
X36866Y376199D01*
X36791Y376146D01*
X36067Y375446D01*
X36038Y375405D01*
X35977Y375336D01*
X35427Y374493D01*
X35407Y374447D01*
X35363Y374366D01*
X35015Y373422D01*
X35006Y373372D01*
X34981Y373284D01*
X34851Y372286D01*
X34853Y372243D01*
X34852Y372117D01*
X34991Y371106D01*
X35007Y371058D01*
X35026Y370968D01*
X35388Y370013D01*
X35414Y369970D01*
X35453Y369886D01*
X36017Y369036D01*
X36052Y368999D01*
X36109Y368927D01*
X36849Y368223D01*
X36891Y368195D01*
X36962Y368137D01*
X37840Y367616D01*
X37887Y367598D01*
X37969Y367557D01*
X38941Y367244D01*
X38991Y367237D01*
X39080Y367216D01*
X40098Y367127D01*
X40148Y367132D01*
G37*
G36*
X387661Y367132D02*
X387661Y367132D01*
X387752Y367131D01*
X388716Y367262D01*
X388764Y367278D01*
X388853Y367297D01*
X389764Y367639D01*
X389807Y367665D01*
X389891Y367704D01*
X390702Y368241D01*
X390738Y368276D01*
X390811Y368332D01*
X391483Y369036D01*
X391511Y369078D01*
X391569Y369149D01*
X392067Y369985D01*
X392068Y369988D01*
X392070Y369990D01*
X392076Y370009D01*
X392085Y370032D01*
X392125Y370114D01*
X392425Y371040D01*
X392432Y371090D01*
X392454Y371179D01*
X392540Y372148D01*
X392536Y372195D01*
X392539Y372270D01*
X392437Y373246D01*
X392423Y373294D01*
X392407Y373384D01*
X392091Y374313D01*
X392067Y374357D01*
X392030Y374442D01*
X391516Y375277D01*
X391482Y375314D01*
X391428Y375389D01*
X390740Y376089D01*
X390699Y376118D01*
X390630Y376178D01*
X389803Y376707D01*
X389757Y376726D01*
X389676Y376770D01*
X388753Y377102D01*
X388703Y377110D01*
X388614Y377135D01*
X387640Y377253D01*
X387590Y377250D01*
X387504Y377254D01*
X386502Y377159D01*
X386453Y377145D01*
X386363Y377129D01*
X385407Y376813D01*
X385362Y376789D01*
X385278Y376754D01*
X384417Y376232D01*
X384379Y376199D01*
X384304Y376146D01*
X383580Y375446D01*
X383551Y375405D01*
X383490Y375336D01*
X382940Y374493D01*
X382920Y374447D01*
X382876Y374366D01*
X382528Y373422D01*
X382519Y373372D01*
X382494Y373284D01*
X382364Y372286D01*
X382366Y372243D01*
X382365Y372117D01*
X382504Y371106D01*
X382520Y371058D01*
X382539Y370968D01*
X382901Y370013D01*
X382927Y369970D01*
X382966Y369886D01*
X383530Y369036D01*
X383565Y368999D01*
X383622Y368927D01*
X384362Y368223D01*
X384404Y368195D01*
X384475Y368137D01*
X385353Y367616D01*
X385400Y367598D01*
X385482Y367557D01*
X386454Y367244D01*
X386504Y367237D01*
X386593Y367216D01*
X387611Y367127D01*
X387661Y367132D01*
G37*
G36*
X155986Y367132D02*
X155986Y367132D01*
X156077Y367131D01*
X157041Y367262D01*
X157089Y367278D01*
X157178Y367297D01*
X158089Y367639D01*
X158132Y367665D01*
X158216Y367704D01*
X159027Y368241D01*
X159063Y368276D01*
X159136Y368332D01*
X159808Y369036D01*
X159836Y369078D01*
X159894Y369149D01*
X160392Y369985D01*
X160393Y369988D01*
X160395Y369990D01*
X160401Y370009D01*
X160410Y370032D01*
X160450Y370114D01*
X160750Y371040D01*
X160757Y371090D01*
X160779Y371179D01*
X160865Y372148D01*
X160861Y372195D01*
X160864Y372270D01*
X160762Y373246D01*
X160748Y373294D01*
X160732Y373384D01*
X160416Y374313D01*
X160392Y374357D01*
X160355Y374442D01*
X159841Y375277D01*
X159807Y375314D01*
X159753Y375389D01*
X159065Y376089D01*
X159024Y376118D01*
X158955Y376178D01*
X158128Y376707D01*
X158082Y376726D01*
X158001Y376770D01*
X157078Y377102D01*
X157028Y377110D01*
X156939Y377135D01*
X155965Y377253D01*
X155915Y377250D01*
X155829Y377254D01*
X154827Y377159D01*
X154778Y377145D01*
X154688Y377129D01*
X153732Y376813D01*
X153687Y376789D01*
X153603Y376754D01*
X152742Y376232D01*
X152704Y376199D01*
X152629Y376146D01*
X151905Y375446D01*
X151876Y375405D01*
X151815Y375336D01*
X151265Y374493D01*
X151245Y374447D01*
X151201Y374366D01*
X150853Y373422D01*
X150844Y373372D01*
X150819Y373284D01*
X150689Y372286D01*
X150691Y372243D01*
X150690Y372117D01*
X150829Y371106D01*
X150845Y371058D01*
X150864Y370968D01*
X151226Y370013D01*
X151252Y369970D01*
X151291Y369886D01*
X151855Y369036D01*
X151890Y368999D01*
X151947Y368927D01*
X152687Y368223D01*
X152729Y368195D01*
X152800Y368137D01*
X153678Y367616D01*
X153725Y367598D01*
X153807Y367557D01*
X154779Y367244D01*
X154829Y367237D01*
X154918Y367216D01*
X155936Y367127D01*
X155986Y367132D01*
G37*
G36*
X677255Y367132D02*
X677255Y367132D01*
X677346Y367131D01*
X678310Y367262D01*
X678358Y367278D01*
X678447Y367297D01*
X679358Y367639D01*
X679401Y367665D01*
X679485Y367704D01*
X680296Y368241D01*
X680332Y368276D01*
X680405Y368332D01*
X681077Y369036D01*
X681105Y369078D01*
X681163Y369149D01*
X681661Y369985D01*
X681662Y369988D01*
X681664Y369990D01*
X681670Y370009D01*
X681679Y370032D01*
X681719Y370114D01*
X682019Y371040D01*
X682026Y371090D01*
X682048Y371179D01*
X682134Y372148D01*
X682130Y372195D01*
X682133Y372270D01*
X682031Y373246D01*
X682017Y373294D01*
X682001Y373384D01*
X681685Y374313D01*
X681661Y374357D01*
X681624Y374442D01*
X681110Y375277D01*
X681076Y375314D01*
X681022Y375389D01*
X680334Y376089D01*
X680293Y376118D01*
X680224Y376178D01*
X679397Y376707D01*
X679351Y376726D01*
X679270Y376770D01*
X678347Y377102D01*
X678297Y377110D01*
X678208Y377135D01*
X677234Y377253D01*
X677184Y377250D01*
X677098Y377254D01*
X676096Y377159D01*
X676047Y377145D01*
X675957Y377129D01*
X675001Y376813D01*
X674956Y376789D01*
X674872Y376754D01*
X674011Y376232D01*
X673973Y376199D01*
X673898Y376146D01*
X673174Y375446D01*
X673145Y375405D01*
X673084Y375336D01*
X672534Y374493D01*
X672514Y374447D01*
X672470Y374366D01*
X672122Y373422D01*
X672113Y373372D01*
X672088Y373284D01*
X671958Y372286D01*
X671960Y372243D01*
X671959Y372117D01*
X672098Y371106D01*
X672114Y371058D01*
X672133Y370968D01*
X672495Y370013D01*
X672521Y369970D01*
X672560Y369886D01*
X673124Y369036D01*
X673159Y368999D01*
X673216Y368927D01*
X673956Y368223D01*
X673998Y368195D01*
X674069Y368137D01*
X674947Y367616D01*
X674994Y367598D01*
X675076Y367557D01*
X676048Y367244D01*
X676098Y367237D01*
X676187Y367216D01*
X677205Y367127D01*
X677255Y367132D01*
G37*
G36*
X213904Y367132D02*
X213904Y367132D01*
X213995Y367131D01*
X214959Y367262D01*
X215007Y367278D01*
X215096Y367297D01*
X216007Y367639D01*
X216050Y367665D01*
X216134Y367704D01*
X216945Y368241D01*
X216981Y368276D01*
X217054Y368332D01*
X217726Y369036D01*
X217754Y369078D01*
X217812Y369149D01*
X218310Y369985D01*
X218311Y369988D01*
X218313Y369990D01*
X218319Y370009D01*
X218328Y370032D01*
X218368Y370114D01*
X218668Y371040D01*
X218675Y371090D01*
X218697Y371179D01*
X218783Y372148D01*
X218779Y372195D01*
X218782Y372270D01*
X218680Y373246D01*
X218666Y373294D01*
X218650Y373384D01*
X218334Y374313D01*
X218310Y374357D01*
X218273Y374442D01*
X217759Y375277D01*
X217725Y375314D01*
X217671Y375389D01*
X216983Y376089D01*
X216942Y376118D01*
X216873Y376178D01*
X216046Y376707D01*
X216000Y376726D01*
X215919Y376770D01*
X214996Y377102D01*
X214946Y377110D01*
X214857Y377135D01*
X213883Y377253D01*
X213833Y377250D01*
X213747Y377254D01*
X212745Y377159D01*
X212696Y377145D01*
X212606Y377129D01*
X211650Y376813D01*
X211605Y376789D01*
X211521Y376754D01*
X210660Y376232D01*
X210622Y376199D01*
X210547Y376146D01*
X209823Y375446D01*
X209794Y375405D01*
X209733Y375336D01*
X209183Y374493D01*
X209163Y374447D01*
X209119Y374366D01*
X208771Y373422D01*
X208762Y373372D01*
X208737Y373284D01*
X208607Y372286D01*
X208609Y372243D01*
X208608Y372117D01*
X208747Y371106D01*
X208763Y371058D01*
X208782Y370968D01*
X209144Y370013D01*
X209170Y369970D01*
X209209Y369886D01*
X209773Y369036D01*
X209808Y368999D01*
X209865Y368927D01*
X210605Y368223D01*
X210647Y368195D01*
X210718Y368137D01*
X211596Y367616D01*
X211643Y367598D01*
X211725Y367557D01*
X212697Y367244D01*
X212747Y367237D01*
X212836Y367216D01*
X213854Y367127D01*
X213904Y367132D01*
G37*
G36*
X445580Y367132D02*
X445580Y367132D01*
X445671Y367131D01*
X446635Y367262D01*
X446683Y367278D01*
X446772Y367297D01*
X447683Y367639D01*
X447726Y367665D01*
X447810Y367704D01*
X448621Y368241D01*
X448657Y368276D01*
X448730Y368332D01*
X449402Y369036D01*
X449430Y369078D01*
X449488Y369149D01*
X449986Y369985D01*
X449987Y369988D01*
X449989Y369990D01*
X449995Y370009D01*
X450004Y370032D01*
X450044Y370114D01*
X450344Y371040D01*
X450351Y371090D01*
X450373Y371179D01*
X450459Y372148D01*
X450455Y372195D01*
X450458Y372270D01*
X450356Y373246D01*
X450342Y373294D01*
X450326Y373384D01*
X450010Y374313D01*
X449986Y374357D01*
X449949Y374442D01*
X449435Y375277D01*
X449401Y375314D01*
X449347Y375389D01*
X448659Y376089D01*
X448618Y376118D01*
X448549Y376178D01*
X447722Y376707D01*
X447676Y376726D01*
X447595Y376770D01*
X446672Y377102D01*
X446622Y377110D01*
X446533Y377135D01*
X445559Y377253D01*
X445509Y377250D01*
X445423Y377254D01*
X444421Y377159D01*
X444372Y377145D01*
X444282Y377129D01*
X443326Y376813D01*
X443281Y376789D01*
X443197Y376754D01*
X442336Y376232D01*
X442298Y376199D01*
X442223Y376146D01*
X441499Y375446D01*
X441470Y375405D01*
X441409Y375336D01*
X440859Y374493D01*
X440839Y374447D01*
X440795Y374366D01*
X440447Y373422D01*
X440438Y373372D01*
X440413Y373284D01*
X440283Y372286D01*
X440285Y372243D01*
X440284Y372117D01*
X440423Y371106D01*
X440439Y371058D01*
X440458Y370968D01*
X440820Y370013D01*
X440846Y369970D01*
X440885Y369886D01*
X441449Y369036D01*
X441484Y368999D01*
X441541Y368927D01*
X442281Y368223D01*
X442323Y368195D01*
X442394Y368137D01*
X443272Y367616D01*
X443319Y367598D01*
X443401Y367557D01*
X444373Y367244D01*
X444423Y367237D01*
X444512Y367216D01*
X445530Y367127D01*
X445580Y367132D01*
G37*
G36*
X98067Y367132D02*
X98067Y367132D01*
X98158Y367131D01*
X99122Y367262D01*
X99170Y367278D01*
X99259Y367297D01*
X100170Y367639D01*
X100213Y367665D01*
X100297Y367704D01*
X101108Y368241D01*
X101144Y368276D01*
X101217Y368332D01*
X101889Y369036D01*
X101917Y369078D01*
X101975Y369149D01*
X102473Y369985D01*
X102474Y369988D01*
X102476Y369990D01*
X102482Y370009D01*
X102491Y370032D01*
X102531Y370114D01*
X102831Y371040D01*
X102838Y371090D01*
X102860Y371179D01*
X102946Y372148D01*
X102942Y372195D01*
X102945Y372270D01*
X102843Y373246D01*
X102829Y373294D01*
X102813Y373384D01*
X102497Y374313D01*
X102473Y374357D01*
X102436Y374442D01*
X101922Y375277D01*
X101888Y375314D01*
X101834Y375389D01*
X101146Y376089D01*
X101105Y376118D01*
X101036Y376178D01*
X100209Y376707D01*
X100163Y376726D01*
X100082Y376770D01*
X99159Y377102D01*
X99109Y377110D01*
X99020Y377135D01*
X98046Y377253D01*
X97996Y377250D01*
X97910Y377254D01*
X96908Y377159D01*
X96859Y377145D01*
X96769Y377129D01*
X95813Y376813D01*
X95768Y376789D01*
X95684Y376754D01*
X94823Y376232D01*
X94785Y376199D01*
X94710Y376146D01*
X93986Y375446D01*
X93957Y375405D01*
X93896Y375336D01*
X93346Y374493D01*
X93326Y374447D01*
X93282Y374366D01*
X92934Y373422D01*
X92925Y373372D01*
X92900Y373284D01*
X92770Y372286D01*
X92772Y372243D01*
X92771Y372117D01*
X92910Y371106D01*
X92926Y371058D01*
X92945Y370968D01*
X93307Y370013D01*
X93333Y369970D01*
X93372Y369886D01*
X93936Y369036D01*
X93971Y368999D01*
X94028Y368927D01*
X94768Y368223D01*
X94810Y368195D01*
X94881Y368137D01*
X95759Y367616D01*
X95806Y367598D01*
X95888Y367557D01*
X96860Y367244D01*
X96910Y367237D01*
X96999Y367216D01*
X98017Y367127D01*
X98067Y367132D01*
G37*
G36*
X271823Y367132D02*
X271823Y367132D01*
X271914Y367131D01*
X272878Y367262D01*
X272926Y367278D01*
X273015Y367297D01*
X273926Y367639D01*
X273969Y367665D01*
X274053Y367704D01*
X274864Y368241D01*
X274900Y368276D01*
X274973Y368332D01*
X275645Y369036D01*
X275673Y369078D01*
X275731Y369149D01*
X276229Y369985D01*
X276230Y369988D01*
X276232Y369990D01*
X276238Y370009D01*
X276247Y370032D01*
X276287Y370114D01*
X276587Y371040D01*
X276594Y371090D01*
X276616Y371179D01*
X276702Y372148D01*
X276698Y372195D01*
X276701Y372270D01*
X276599Y373246D01*
X276585Y373294D01*
X276569Y373384D01*
X276253Y374313D01*
X276229Y374357D01*
X276192Y374442D01*
X275678Y375277D01*
X275644Y375314D01*
X275590Y375389D01*
X274902Y376089D01*
X274861Y376118D01*
X274792Y376178D01*
X273965Y376707D01*
X273919Y376726D01*
X273838Y376770D01*
X272915Y377102D01*
X272865Y377110D01*
X272776Y377135D01*
X271802Y377253D01*
X271752Y377250D01*
X271666Y377254D01*
X270664Y377159D01*
X270615Y377145D01*
X270525Y377129D01*
X269569Y376813D01*
X269524Y376789D01*
X269440Y376754D01*
X268579Y376232D01*
X268541Y376199D01*
X268466Y376146D01*
X267742Y375446D01*
X267713Y375405D01*
X267652Y375336D01*
X267102Y374493D01*
X267082Y374447D01*
X267038Y374366D01*
X266690Y373422D01*
X266681Y373372D01*
X266656Y373284D01*
X266526Y372286D01*
X266528Y372243D01*
X266527Y372117D01*
X266666Y371106D01*
X266682Y371058D01*
X266701Y370968D01*
X267063Y370013D01*
X267089Y369970D01*
X267128Y369886D01*
X267692Y369036D01*
X267727Y368999D01*
X267784Y368927D01*
X268524Y368223D01*
X268566Y368195D01*
X268637Y368137D01*
X269515Y367616D01*
X269562Y367598D01*
X269644Y367557D01*
X270616Y367244D01*
X270666Y367237D01*
X270755Y367216D01*
X271773Y367127D01*
X271823Y367132D01*
G37*
G36*
X503499Y367132D02*
X503499Y367132D01*
X503590Y367131D01*
X504554Y367262D01*
X504602Y367278D01*
X504691Y367297D01*
X505602Y367639D01*
X505645Y367665D01*
X505729Y367704D01*
X506540Y368241D01*
X506576Y368276D01*
X506649Y368332D01*
X507321Y369036D01*
X507349Y369078D01*
X507407Y369149D01*
X507905Y369985D01*
X507906Y369988D01*
X507908Y369990D01*
X507914Y370009D01*
X507923Y370032D01*
X507963Y370114D01*
X508263Y371040D01*
X508270Y371090D01*
X508292Y371179D01*
X508378Y372148D01*
X508374Y372195D01*
X508377Y372270D01*
X508275Y373246D01*
X508261Y373294D01*
X508245Y373384D01*
X507929Y374313D01*
X507905Y374357D01*
X507868Y374442D01*
X507354Y375277D01*
X507320Y375314D01*
X507266Y375389D01*
X506578Y376089D01*
X506537Y376118D01*
X506468Y376178D01*
X505641Y376707D01*
X505595Y376726D01*
X505514Y376770D01*
X504591Y377102D01*
X504541Y377110D01*
X504452Y377135D01*
X503478Y377253D01*
X503428Y377250D01*
X503342Y377254D01*
X502340Y377159D01*
X502291Y377145D01*
X502201Y377129D01*
X501245Y376813D01*
X501200Y376789D01*
X501116Y376754D01*
X500255Y376232D01*
X500217Y376199D01*
X500142Y376146D01*
X499418Y375446D01*
X499389Y375405D01*
X499328Y375336D01*
X498778Y374493D01*
X498758Y374447D01*
X498714Y374366D01*
X498366Y373422D01*
X498357Y373372D01*
X498332Y373284D01*
X498202Y372286D01*
X498204Y372243D01*
X498203Y372117D01*
X498342Y371106D01*
X498358Y371058D01*
X498377Y370968D01*
X498739Y370013D01*
X498765Y369970D01*
X498804Y369886D01*
X499368Y369036D01*
X499403Y368999D01*
X499460Y368927D01*
X500200Y368223D01*
X500242Y368195D01*
X500313Y368137D01*
X501191Y367616D01*
X501238Y367598D01*
X501320Y367557D01*
X502292Y367244D01*
X502342Y367237D01*
X502431Y367216D01*
X503449Y367127D01*
X503499Y367132D01*
G37*
G36*
X329742Y367132D02*
X329742Y367132D01*
X329833Y367131D01*
X330797Y367262D01*
X330845Y367278D01*
X330934Y367297D01*
X331845Y367639D01*
X331888Y367665D01*
X331972Y367704D01*
X332783Y368241D01*
X332819Y368276D01*
X332892Y368332D01*
X333564Y369036D01*
X333592Y369078D01*
X333650Y369149D01*
X334148Y369985D01*
X334149Y369988D01*
X334151Y369990D01*
X334157Y370009D01*
X334166Y370032D01*
X334206Y370114D01*
X334506Y371040D01*
X334513Y371090D01*
X334535Y371179D01*
X334621Y372148D01*
X334617Y372195D01*
X334620Y372270D01*
X334518Y373246D01*
X334504Y373294D01*
X334488Y373384D01*
X334172Y374313D01*
X334148Y374357D01*
X334111Y374442D01*
X333597Y375277D01*
X333563Y375314D01*
X333509Y375389D01*
X332821Y376089D01*
X332780Y376118D01*
X332711Y376178D01*
X331884Y376707D01*
X331838Y376726D01*
X331757Y376770D01*
X330834Y377102D01*
X330784Y377110D01*
X330695Y377135D01*
X329721Y377253D01*
X329671Y377250D01*
X329585Y377254D01*
X328583Y377159D01*
X328534Y377145D01*
X328444Y377129D01*
X327488Y376813D01*
X327443Y376789D01*
X327359Y376754D01*
X326498Y376232D01*
X326460Y376199D01*
X326385Y376146D01*
X325661Y375446D01*
X325632Y375405D01*
X325571Y375336D01*
X325021Y374493D01*
X325001Y374447D01*
X324957Y374366D01*
X324609Y373422D01*
X324600Y373372D01*
X324575Y373284D01*
X324445Y372286D01*
X324447Y372243D01*
X324446Y372117D01*
X324585Y371106D01*
X324601Y371058D01*
X324620Y370968D01*
X324982Y370013D01*
X325008Y369970D01*
X325047Y369886D01*
X325611Y369036D01*
X325646Y368999D01*
X325703Y368927D01*
X326443Y368223D01*
X326485Y368195D01*
X326556Y368137D01*
X327434Y367616D01*
X327481Y367598D01*
X327563Y367557D01*
X328535Y367244D01*
X328585Y367237D01*
X328674Y367216D01*
X329692Y367127D01*
X329742Y367132D01*
G37*
G36*
X619336Y367132D02*
X619336Y367132D01*
X619427Y367131D01*
X620391Y367262D01*
X620439Y367278D01*
X620528Y367297D01*
X621439Y367639D01*
X621482Y367665D01*
X621566Y367704D01*
X622377Y368241D01*
X622413Y368276D01*
X622486Y368332D01*
X623158Y369036D01*
X623186Y369078D01*
X623244Y369149D01*
X623742Y369985D01*
X623743Y369988D01*
X623745Y369990D01*
X623751Y370009D01*
X623760Y370032D01*
X623800Y370114D01*
X624100Y371040D01*
X624107Y371090D01*
X624129Y371179D01*
X624215Y372148D01*
X624211Y372195D01*
X624214Y372270D01*
X624112Y373246D01*
X624098Y373294D01*
X624082Y373384D01*
X623766Y374313D01*
X623742Y374357D01*
X623705Y374442D01*
X623191Y375277D01*
X623157Y375314D01*
X623103Y375389D01*
X622415Y376089D01*
X622374Y376118D01*
X622305Y376178D01*
X621478Y376707D01*
X621432Y376726D01*
X621351Y376770D01*
X620428Y377102D01*
X620378Y377110D01*
X620289Y377135D01*
X619315Y377253D01*
X619265Y377250D01*
X619179Y377254D01*
X618177Y377159D01*
X618128Y377145D01*
X618038Y377129D01*
X617082Y376813D01*
X617037Y376789D01*
X616953Y376754D01*
X616092Y376232D01*
X616054Y376199D01*
X615979Y376146D01*
X615255Y375446D01*
X615226Y375405D01*
X615165Y375336D01*
X614615Y374493D01*
X614595Y374447D01*
X614551Y374366D01*
X614203Y373422D01*
X614194Y373372D01*
X614169Y373284D01*
X614039Y372286D01*
X614041Y372243D01*
X614040Y372117D01*
X614179Y371106D01*
X614195Y371058D01*
X614214Y370968D01*
X614576Y370013D01*
X614602Y369970D01*
X614641Y369886D01*
X615205Y369036D01*
X615240Y368999D01*
X615297Y368927D01*
X616037Y368223D01*
X616079Y368195D01*
X616150Y368137D01*
X617028Y367616D01*
X617075Y367598D01*
X617157Y367557D01*
X618129Y367244D01*
X618179Y367237D01*
X618268Y367216D01*
X619286Y367127D01*
X619336Y367132D01*
G37*
G36*
X561417Y367132D02*
X561417Y367132D01*
X561508Y367131D01*
X562472Y367262D01*
X562520Y367278D01*
X562609Y367297D01*
X563520Y367639D01*
X563563Y367665D01*
X563647Y367704D01*
X564458Y368241D01*
X564494Y368276D01*
X564567Y368332D01*
X565239Y369036D01*
X565267Y369078D01*
X565325Y369149D01*
X565823Y369985D01*
X565824Y369988D01*
X565826Y369990D01*
X565832Y370009D01*
X565841Y370032D01*
X565881Y370114D01*
X566181Y371040D01*
X566188Y371090D01*
X566210Y371179D01*
X566296Y372148D01*
X566292Y372195D01*
X566295Y372270D01*
X566193Y373246D01*
X566179Y373294D01*
X566163Y373384D01*
X565847Y374313D01*
X565823Y374357D01*
X565786Y374442D01*
X565272Y375277D01*
X565238Y375314D01*
X565184Y375389D01*
X564496Y376089D01*
X564455Y376118D01*
X564386Y376178D01*
X563559Y376707D01*
X563513Y376726D01*
X563432Y376770D01*
X562509Y377102D01*
X562459Y377110D01*
X562370Y377135D01*
X561396Y377253D01*
X561346Y377250D01*
X561260Y377254D01*
X560258Y377159D01*
X560209Y377145D01*
X560119Y377129D01*
X559163Y376813D01*
X559118Y376789D01*
X559034Y376754D01*
X558173Y376232D01*
X558135Y376199D01*
X558060Y376146D01*
X557336Y375446D01*
X557307Y375405D01*
X557246Y375336D01*
X556696Y374493D01*
X556676Y374447D01*
X556632Y374366D01*
X556284Y373422D01*
X556275Y373372D01*
X556250Y373284D01*
X556120Y372286D01*
X556122Y372243D01*
X556121Y372117D01*
X556260Y371106D01*
X556276Y371058D01*
X556295Y370968D01*
X556657Y370013D01*
X556683Y369970D01*
X556722Y369886D01*
X557286Y369036D01*
X557321Y368999D01*
X557378Y368927D01*
X558118Y368223D01*
X558160Y368195D01*
X558231Y368137D01*
X559109Y367616D01*
X559156Y367598D01*
X559238Y367557D01*
X560210Y367244D01*
X560260Y367237D01*
X560349Y367216D01*
X561367Y367127D01*
X561417Y367132D01*
G37*
G36*
X387661Y395123D02*
X387661Y395123D01*
X387752Y395122D01*
X388716Y395253D01*
X388764Y395269D01*
X388853Y395288D01*
X389764Y395630D01*
X389807Y395656D01*
X389891Y395695D01*
X390702Y396232D01*
X390738Y396267D01*
X390811Y396323D01*
X391483Y397027D01*
X391511Y397069D01*
X391569Y397140D01*
X392067Y397976D01*
X392068Y397979D01*
X392070Y397981D01*
X392076Y398001D01*
X392085Y398023D01*
X392125Y398105D01*
X392425Y399031D01*
X392432Y399081D01*
X392454Y399170D01*
X392540Y400139D01*
X392536Y400186D01*
X392539Y400261D01*
X392437Y401237D01*
X392423Y401285D01*
X392407Y401375D01*
X392091Y402304D01*
X392067Y402348D01*
X392030Y402433D01*
X391516Y403268D01*
X391482Y403305D01*
X391428Y403380D01*
X390740Y404080D01*
X390699Y404109D01*
X390630Y404169D01*
X389803Y404698D01*
X389757Y404717D01*
X389676Y404761D01*
X388753Y405093D01*
X388703Y405101D01*
X388614Y405126D01*
X387640Y405244D01*
X387590Y405241D01*
X387504Y405245D01*
X386502Y405150D01*
X386453Y405136D01*
X386363Y405120D01*
X385407Y404804D01*
X385362Y404780D01*
X385278Y404745D01*
X384417Y404223D01*
X384379Y404190D01*
X384304Y404137D01*
X383580Y403437D01*
X383551Y403396D01*
X383490Y403327D01*
X382940Y402484D01*
X382920Y402438D01*
X382876Y402357D01*
X382528Y401413D01*
X382519Y401363D01*
X382494Y401275D01*
X382364Y400277D01*
X382366Y400234D01*
X382365Y400108D01*
X382504Y399097D01*
X382520Y399049D01*
X382539Y398959D01*
X382901Y398004D01*
X382927Y397961D01*
X382966Y397877D01*
X383530Y397027D01*
X383565Y396990D01*
X383622Y396918D01*
X384362Y396214D01*
X384404Y396186D01*
X384475Y396128D01*
X385353Y395607D01*
X385400Y395589D01*
X385482Y395548D01*
X386454Y395235D01*
X386504Y395228D01*
X386593Y395207D01*
X387611Y395118D01*
X387661Y395123D01*
G37*
G36*
X329742Y395123D02*
X329742Y395123D01*
X329833Y395122D01*
X330797Y395253D01*
X330845Y395269D01*
X330934Y395288D01*
X331845Y395630D01*
X331888Y395656D01*
X331972Y395695D01*
X332783Y396232D01*
X332819Y396267D01*
X332892Y396323D01*
X333564Y397027D01*
X333592Y397069D01*
X333650Y397140D01*
X334148Y397976D01*
X334149Y397979D01*
X334151Y397981D01*
X334157Y398001D01*
X334166Y398023D01*
X334206Y398105D01*
X334506Y399031D01*
X334513Y399081D01*
X334535Y399170D01*
X334621Y400139D01*
X334617Y400186D01*
X334620Y400261D01*
X334518Y401237D01*
X334504Y401285D01*
X334488Y401375D01*
X334172Y402304D01*
X334148Y402348D01*
X334111Y402433D01*
X333597Y403268D01*
X333563Y403305D01*
X333509Y403380D01*
X332821Y404080D01*
X332780Y404109D01*
X332711Y404169D01*
X331884Y404698D01*
X331838Y404717D01*
X331757Y404761D01*
X330834Y405093D01*
X330784Y405101D01*
X330695Y405126D01*
X329721Y405244D01*
X329671Y405241D01*
X329585Y405245D01*
X328583Y405150D01*
X328534Y405136D01*
X328444Y405120D01*
X327488Y404804D01*
X327443Y404780D01*
X327359Y404745D01*
X326498Y404223D01*
X326460Y404190D01*
X326385Y404137D01*
X325661Y403437D01*
X325632Y403396D01*
X325571Y403327D01*
X325021Y402484D01*
X325001Y402438D01*
X324957Y402357D01*
X324609Y401413D01*
X324600Y401363D01*
X324575Y401275D01*
X324445Y400277D01*
X324447Y400234D01*
X324446Y400108D01*
X324585Y399097D01*
X324601Y399049D01*
X324620Y398959D01*
X324982Y398004D01*
X325008Y397961D01*
X325047Y397877D01*
X325611Y397027D01*
X325646Y396990D01*
X325703Y396918D01*
X326443Y396214D01*
X326485Y396186D01*
X326556Y396128D01*
X327434Y395607D01*
X327481Y395589D01*
X327563Y395548D01*
X328535Y395235D01*
X328585Y395228D01*
X328674Y395207D01*
X329692Y395118D01*
X329742Y395123D01*
G37*
G36*
X561417Y395123D02*
X561417Y395123D01*
X561508Y395122D01*
X562472Y395253D01*
X562520Y395269D01*
X562609Y395288D01*
X563520Y395630D01*
X563563Y395656D01*
X563647Y395695D01*
X564458Y396232D01*
X564494Y396267D01*
X564567Y396323D01*
X565239Y397027D01*
X565267Y397069D01*
X565325Y397140D01*
X565823Y397976D01*
X565824Y397979D01*
X565826Y397981D01*
X565832Y398001D01*
X565841Y398023D01*
X565881Y398105D01*
X566181Y399031D01*
X566188Y399081D01*
X566210Y399170D01*
X566296Y400139D01*
X566292Y400186D01*
X566295Y400261D01*
X566193Y401237D01*
X566179Y401285D01*
X566163Y401375D01*
X565847Y402304D01*
X565823Y402348D01*
X565786Y402433D01*
X565272Y403268D01*
X565238Y403305D01*
X565184Y403380D01*
X564496Y404080D01*
X564455Y404109D01*
X564386Y404169D01*
X563559Y404698D01*
X563513Y404717D01*
X563432Y404761D01*
X562509Y405093D01*
X562459Y405101D01*
X562370Y405126D01*
X561396Y405244D01*
X561346Y405241D01*
X561260Y405245D01*
X560258Y405150D01*
X560209Y405136D01*
X560119Y405120D01*
X559163Y404804D01*
X559118Y404780D01*
X559034Y404745D01*
X558173Y404223D01*
X558135Y404190D01*
X558060Y404137D01*
X557336Y403437D01*
X557307Y403396D01*
X557246Y403327D01*
X556696Y402484D01*
X556676Y402438D01*
X556632Y402357D01*
X556284Y401413D01*
X556275Y401363D01*
X556250Y401275D01*
X556120Y400277D01*
X556122Y400234D01*
X556121Y400108D01*
X556260Y399097D01*
X556276Y399049D01*
X556295Y398959D01*
X556657Y398004D01*
X556683Y397961D01*
X556722Y397877D01*
X557286Y397027D01*
X557321Y396990D01*
X557378Y396918D01*
X558118Y396214D01*
X558160Y396186D01*
X558231Y396128D01*
X559109Y395607D01*
X559156Y395589D01*
X559238Y395548D01*
X560210Y395235D01*
X560260Y395228D01*
X560349Y395207D01*
X561367Y395118D01*
X561417Y395123D01*
G37*
G36*
X619336Y395123D02*
X619336Y395123D01*
X619427Y395122D01*
X620391Y395253D01*
X620439Y395269D01*
X620528Y395288D01*
X621439Y395630D01*
X621482Y395656D01*
X621566Y395695D01*
X622377Y396232D01*
X622413Y396267D01*
X622486Y396323D01*
X623158Y397027D01*
X623186Y397069D01*
X623244Y397140D01*
X623742Y397976D01*
X623743Y397979D01*
X623745Y397981D01*
X623751Y398001D01*
X623760Y398023D01*
X623800Y398105D01*
X624100Y399031D01*
X624107Y399081D01*
X624129Y399170D01*
X624215Y400139D01*
X624211Y400186D01*
X624214Y400261D01*
X624112Y401237D01*
X624098Y401285D01*
X624082Y401375D01*
X623766Y402304D01*
X623742Y402348D01*
X623705Y402433D01*
X623191Y403268D01*
X623157Y403305D01*
X623103Y403380D01*
X622415Y404080D01*
X622374Y404109D01*
X622305Y404169D01*
X621478Y404698D01*
X621432Y404717D01*
X621351Y404761D01*
X620428Y405093D01*
X620378Y405101D01*
X620289Y405126D01*
X619315Y405244D01*
X619265Y405241D01*
X619179Y405245D01*
X618177Y405150D01*
X618128Y405136D01*
X618038Y405120D01*
X617082Y404804D01*
X617037Y404780D01*
X616953Y404745D01*
X616092Y404223D01*
X616054Y404190D01*
X615979Y404137D01*
X615255Y403437D01*
X615226Y403396D01*
X615165Y403327D01*
X614615Y402484D01*
X614595Y402438D01*
X614551Y402357D01*
X614203Y401413D01*
X614194Y401363D01*
X614169Y401275D01*
X614039Y400277D01*
X614041Y400234D01*
X614040Y400108D01*
X614179Y399097D01*
X614195Y399049D01*
X614214Y398959D01*
X614576Y398004D01*
X614602Y397961D01*
X614641Y397877D01*
X615205Y397027D01*
X615240Y396990D01*
X615297Y396918D01*
X616037Y396214D01*
X616079Y396186D01*
X616150Y396128D01*
X617028Y395607D01*
X617075Y395589D01*
X617157Y395548D01*
X618129Y395235D01*
X618179Y395228D01*
X618268Y395207D01*
X619286Y395118D01*
X619336Y395123D01*
G37*
G36*
X503499Y395123D02*
X503499Y395123D01*
X503590Y395122D01*
X504554Y395253D01*
X504602Y395269D01*
X504691Y395288D01*
X505602Y395630D01*
X505645Y395656D01*
X505729Y395695D01*
X506540Y396232D01*
X506576Y396267D01*
X506649Y396323D01*
X507321Y397027D01*
X507349Y397069D01*
X507407Y397140D01*
X507905Y397976D01*
X507906Y397979D01*
X507908Y397981D01*
X507914Y398001D01*
X507923Y398023D01*
X507963Y398105D01*
X508263Y399031D01*
X508270Y399081D01*
X508292Y399170D01*
X508378Y400139D01*
X508374Y400186D01*
X508377Y400261D01*
X508275Y401237D01*
X508261Y401285D01*
X508245Y401375D01*
X507929Y402304D01*
X507905Y402348D01*
X507868Y402433D01*
X507354Y403268D01*
X507320Y403305D01*
X507266Y403380D01*
X506578Y404080D01*
X506537Y404109D01*
X506468Y404169D01*
X505641Y404698D01*
X505595Y404717D01*
X505514Y404761D01*
X504591Y405093D01*
X504541Y405101D01*
X504452Y405126D01*
X503478Y405244D01*
X503428Y405241D01*
X503342Y405245D01*
X502340Y405150D01*
X502291Y405136D01*
X502201Y405120D01*
X501245Y404804D01*
X501200Y404780D01*
X501116Y404745D01*
X500255Y404223D01*
X500217Y404190D01*
X500142Y404137D01*
X499418Y403437D01*
X499389Y403396D01*
X499328Y403327D01*
X498778Y402484D01*
X498758Y402438D01*
X498714Y402357D01*
X498366Y401413D01*
X498357Y401363D01*
X498332Y401275D01*
X498202Y400277D01*
X498204Y400234D01*
X498203Y400108D01*
X498342Y399097D01*
X498358Y399049D01*
X498377Y398959D01*
X498739Y398004D01*
X498765Y397961D01*
X498804Y397877D01*
X499368Y397027D01*
X499403Y396990D01*
X499460Y396918D01*
X500200Y396214D01*
X500242Y396186D01*
X500313Y396128D01*
X501191Y395607D01*
X501238Y395589D01*
X501320Y395548D01*
X502292Y395235D01*
X502342Y395228D01*
X502431Y395207D01*
X503449Y395118D01*
X503499Y395123D01*
G37*
G36*
X445580Y395123D02*
X445580Y395123D01*
X445671Y395122D01*
X446635Y395253D01*
X446683Y395269D01*
X446772Y395288D01*
X447683Y395630D01*
X447726Y395656D01*
X447810Y395695D01*
X448621Y396232D01*
X448657Y396267D01*
X448730Y396323D01*
X449402Y397027D01*
X449430Y397069D01*
X449488Y397140D01*
X449986Y397976D01*
X449987Y397979D01*
X449989Y397981D01*
X449995Y398001D01*
X450004Y398023D01*
X450044Y398105D01*
X450344Y399031D01*
X450351Y399081D01*
X450373Y399170D01*
X450459Y400139D01*
X450455Y400186D01*
X450458Y400261D01*
X450356Y401237D01*
X450342Y401285D01*
X450326Y401375D01*
X450010Y402304D01*
X449986Y402348D01*
X449949Y402433D01*
X449435Y403268D01*
X449401Y403305D01*
X449347Y403380D01*
X448659Y404080D01*
X448618Y404109D01*
X448549Y404169D01*
X447722Y404698D01*
X447676Y404717D01*
X447595Y404761D01*
X446672Y405093D01*
X446622Y405101D01*
X446533Y405126D01*
X445559Y405244D01*
X445509Y405241D01*
X445423Y405245D01*
X444421Y405150D01*
X444372Y405136D01*
X444282Y405120D01*
X443326Y404804D01*
X443281Y404780D01*
X443197Y404745D01*
X442336Y404223D01*
X442298Y404190D01*
X442223Y404137D01*
X441499Y403437D01*
X441470Y403396D01*
X441409Y403327D01*
X440859Y402484D01*
X440839Y402438D01*
X440795Y402357D01*
X440447Y401413D01*
X440438Y401363D01*
X440413Y401275D01*
X440283Y400277D01*
X440285Y400234D01*
X440284Y400108D01*
X440423Y399097D01*
X440439Y399049D01*
X440458Y398959D01*
X440820Y398004D01*
X440846Y397961D01*
X440885Y397877D01*
X441449Y397027D01*
X441484Y396990D01*
X441541Y396918D01*
X442281Y396214D01*
X442323Y396186D01*
X442394Y396128D01*
X443272Y395607D01*
X443319Y395589D01*
X443401Y395548D01*
X444373Y395235D01*
X444423Y395228D01*
X444512Y395207D01*
X445530Y395118D01*
X445580Y395123D01*
G37*
G36*
X271823Y395123D02*
X271823Y395123D01*
X271914Y395122D01*
X272878Y395253D01*
X272926Y395269D01*
X273015Y395288D01*
X273926Y395630D01*
X273969Y395656D01*
X274053Y395695D01*
X274864Y396232D01*
X274900Y396267D01*
X274973Y396323D01*
X275645Y397027D01*
X275673Y397069D01*
X275731Y397140D01*
X276229Y397976D01*
X276230Y397979D01*
X276232Y397981D01*
X276238Y398001D01*
X276247Y398023D01*
X276287Y398105D01*
X276587Y399031D01*
X276594Y399081D01*
X276616Y399170D01*
X276702Y400139D01*
X276698Y400186D01*
X276701Y400261D01*
X276599Y401237D01*
X276585Y401285D01*
X276569Y401375D01*
X276253Y402304D01*
X276229Y402348D01*
X276192Y402433D01*
X275678Y403268D01*
X275644Y403305D01*
X275590Y403380D01*
X274902Y404080D01*
X274861Y404109D01*
X274792Y404169D01*
X273965Y404698D01*
X273919Y404717D01*
X273838Y404761D01*
X272915Y405093D01*
X272865Y405101D01*
X272776Y405126D01*
X271802Y405244D01*
X271752Y405241D01*
X271666Y405245D01*
X270664Y405150D01*
X270615Y405136D01*
X270525Y405120D01*
X269569Y404804D01*
X269524Y404780D01*
X269440Y404745D01*
X268579Y404223D01*
X268541Y404190D01*
X268466Y404137D01*
X267742Y403437D01*
X267713Y403396D01*
X267652Y403327D01*
X267102Y402484D01*
X267082Y402438D01*
X267038Y402357D01*
X266690Y401413D01*
X266681Y401363D01*
X266656Y401275D01*
X266526Y400277D01*
X266528Y400234D01*
X266527Y400108D01*
X266666Y399097D01*
X266682Y399049D01*
X266701Y398959D01*
X267063Y398004D01*
X267089Y397961D01*
X267128Y397877D01*
X267692Y397027D01*
X267727Y396990D01*
X267784Y396918D01*
X268524Y396214D01*
X268566Y396186D01*
X268637Y396128D01*
X269515Y395607D01*
X269562Y395589D01*
X269644Y395548D01*
X270616Y395235D01*
X270666Y395228D01*
X270755Y395207D01*
X271773Y395118D01*
X271823Y395123D01*
G37*
G36*
X155986Y395123D02*
X155986Y395123D01*
X156077Y395122D01*
X157041Y395253D01*
X157089Y395269D01*
X157178Y395288D01*
X158089Y395630D01*
X158132Y395656D01*
X158216Y395695D01*
X159027Y396232D01*
X159063Y396267D01*
X159136Y396323D01*
X159808Y397027D01*
X159836Y397069D01*
X159894Y397140D01*
X160392Y397976D01*
X160393Y397979D01*
X160395Y397981D01*
X160401Y398001D01*
X160410Y398023D01*
X160450Y398105D01*
X160750Y399031D01*
X160757Y399081D01*
X160779Y399170D01*
X160865Y400139D01*
X160861Y400186D01*
X160864Y400261D01*
X160762Y401237D01*
X160748Y401285D01*
X160732Y401375D01*
X160416Y402304D01*
X160392Y402348D01*
X160355Y402433D01*
X159841Y403268D01*
X159807Y403305D01*
X159753Y403380D01*
X159065Y404080D01*
X159024Y404109D01*
X158955Y404169D01*
X158128Y404698D01*
X158082Y404717D01*
X158001Y404761D01*
X157078Y405093D01*
X157028Y405101D01*
X156939Y405126D01*
X155965Y405244D01*
X155915Y405241D01*
X155829Y405245D01*
X154827Y405150D01*
X154778Y405136D01*
X154688Y405120D01*
X153732Y404804D01*
X153687Y404780D01*
X153603Y404745D01*
X152742Y404223D01*
X152704Y404190D01*
X152629Y404137D01*
X151905Y403437D01*
X151876Y403396D01*
X151815Y403327D01*
X151265Y402484D01*
X151245Y402438D01*
X151201Y402357D01*
X150853Y401413D01*
X150844Y401363D01*
X150819Y401275D01*
X150689Y400277D01*
X150691Y400234D01*
X150690Y400108D01*
X150829Y399097D01*
X150845Y399049D01*
X150864Y398959D01*
X151226Y398004D01*
X151252Y397961D01*
X151291Y397877D01*
X151855Y397027D01*
X151890Y396990D01*
X151947Y396918D01*
X152687Y396214D01*
X152729Y396186D01*
X152800Y396128D01*
X153678Y395607D01*
X153725Y395589D01*
X153807Y395548D01*
X154779Y395235D01*
X154829Y395228D01*
X154918Y395207D01*
X155936Y395118D01*
X155986Y395123D01*
G37*
G36*
X677255Y395123D02*
X677255Y395123D01*
X677346Y395122D01*
X678310Y395253D01*
X678358Y395269D01*
X678447Y395288D01*
X679358Y395630D01*
X679401Y395656D01*
X679485Y395695D01*
X680296Y396232D01*
X680332Y396267D01*
X680405Y396323D01*
X681077Y397027D01*
X681105Y397069D01*
X681163Y397140D01*
X681661Y397976D01*
X681662Y397979D01*
X681664Y397981D01*
X681670Y398001D01*
X681679Y398023D01*
X681719Y398105D01*
X682019Y399031D01*
X682026Y399081D01*
X682048Y399170D01*
X682134Y400139D01*
X682130Y400186D01*
X682133Y400261D01*
X682031Y401237D01*
X682017Y401285D01*
X682001Y401375D01*
X681685Y402304D01*
X681661Y402348D01*
X681624Y402433D01*
X681110Y403268D01*
X681076Y403305D01*
X681022Y403380D01*
X680334Y404080D01*
X680293Y404109D01*
X680224Y404169D01*
X679397Y404698D01*
X679351Y404717D01*
X679270Y404761D01*
X678347Y405093D01*
X678297Y405101D01*
X678208Y405126D01*
X677234Y405244D01*
X677184Y405241D01*
X677098Y405245D01*
X676096Y405150D01*
X676047Y405136D01*
X675957Y405120D01*
X675001Y404804D01*
X674956Y404780D01*
X674872Y404745D01*
X674011Y404223D01*
X673973Y404190D01*
X673898Y404137D01*
X673174Y403437D01*
X673145Y403396D01*
X673084Y403327D01*
X672534Y402484D01*
X672514Y402438D01*
X672470Y402357D01*
X672122Y401413D01*
X672113Y401363D01*
X672088Y401275D01*
X671958Y400277D01*
X671960Y400234D01*
X671959Y400108D01*
X672098Y399097D01*
X672114Y399049D01*
X672133Y398959D01*
X672495Y398004D01*
X672521Y397961D01*
X672560Y397877D01*
X673124Y397027D01*
X673159Y396990D01*
X673216Y396918D01*
X673956Y396214D01*
X673998Y396186D01*
X674069Y396128D01*
X674947Y395607D01*
X674994Y395589D01*
X675076Y395548D01*
X676048Y395235D01*
X676098Y395228D01*
X676187Y395207D01*
X677205Y395118D01*
X677255Y395123D01*
G37*
G36*
X40148Y395123D02*
X40148Y395123D01*
X40239Y395122D01*
X41203Y395253D01*
X41251Y395269D01*
X41340Y395288D01*
X42251Y395630D01*
X42294Y395656D01*
X42378Y395695D01*
X43189Y396232D01*
X43225Y396267D01*
X43298Y396323D01*
X43970Y397027D01*
X43998Y397069D01*
X44056Y397140D01*
X44554Y397976D01*
X44555Y397979D01*
X44557Y397981D01*
X44563Y398001D01*
X44572Y398023D01*
X44612Y398105D01*
X44912Y399031D01*
X44919Y399081D01*
X44941Y399170D01*
X45027Y400139D01*
X45023Y400186D01*
X45026Y400261D01*
X44924Y401237D01*
X44910Y401285D01*
X44894Y401375D01*
X44578Y402304D01*
X44554Y402348D01*
X44517Y402433D01*
X44003Y403268D01*
X43969Y403305D01*
X43915Y403380D01*
X43227Y404080D01*
X43186Y404109D01*
X43117Y404169D01*
X42290Y404698D01*
X42244Y404717D01*
X42163Y404761D01*
X41240Y405093D01*
X41190Y405101D01*
X41101Y405126D01*
X40127Y405244D01*
X40077Y405241D01*
X39991Y405245D01*
X38989Y405150D01*
X38940Y405136D01*
X38850Y405120D01*
X37894Y404804D01*
X37849Y404780D01*
X37765Y404745D01*
X36904Y404223D01*
X36866Y404190D01*
X36791Y404137D01*
X36067Y403437D01*
X36038Y403396D01*
X35977Y403327D01*
X35427Y402484D01*
X35407Y402438D01*
X35363Y402357D01*
X35015Y401413D01*
X35006Y401363D01*
X34981Y401275D01*
X34851Y400277D01*
X34853Y400234D01*
X34852Y400108D01*
X34991Y399097D01*
X35007Y399049D01*
X35026Y398959D01*
X35388Y398004D01*
X35414Y397961D01*
X35453Y397877D01*
X36017Y397027D01*
X36052Y396990D01*
X36109Y396918D01*
X36849Y396214D01*
X36891Y396186D01*
X36962Y396128D01*
X37840Y395607D01*
X37887Y395589D01*
X37969Y395548D01*
X38941Y395235D01*
X38991Y395228D01*
X39080Y395207D01*
X40098Y395118D01*
X40148Y395123D01*
G37*
G36*
X213904Y395123D02*
X213904Y395123D01*
X213995Y395122D01*
X214959Y395253D01*
X215007Y395269D01*
X215096Y395288D01*
X216007Y395630D01*
X216050Y395656D01*
X216134Y395695D01*
X216945Y396232D01*
X216981Y396267D01*
X217054Y396323D01*
X217726Y397027D01*
X217754Y397069D01*
X217812Y397140D01*
X218310Y397976D01*
X218311Y397979D01*
X218313Y397981D01*
X218319Y398001D01*
X218328Y398023D01*
X218368Y398105D01*
X218668Y399031D01*
X218675Y399081D01*
X218697Y399170D01*
X218783Y400139D01*
X218779Y400186D01*
X218782Y400261D01*
X218680Y401237D01*
X218666Y401285D01*
X218650Y401375D01*
X218334Y402304D01*
X218310Y402348D01*
X218273Y402433D01*
X217759Y403268D01*
X217725Y403305D01*
X217671Y403380D01*
X216983Y404080D01*
X216942Y404109D01*
X216873Y404169D01*
X216046Y404698D01*
X216000Y404717D01*
X215919Y404761D01*
X214996Y405093D01*
X214946Y405101D01*
X214857Y405126D01*
X213883Y405244D01*
X213833Y405241D01*
X213747Y405245D01*
X212745Y405150D01*
X212696Y405136D01*
X212606Y405120D01*
X211650Y404804D01*
X211605Y404780D01*
X211521Y404745D01*
X210660Y404223D01*
X210622Y404190D01*
X210547Y404137D01*
X209823Y403437D01*
X209794Y403396D01*
X209733Y403327D01*
X209183Y402484D01*
X209163Y402438D01*
X209119Y402357D01*
X208771Y401413D01*
X208762Y401363D01*
X208737Y401275D01*
X208607Y400277D01*
X208609Y400234D01*
X208608Y400108D01*
X208747Y399097D01*
X208763Y399049D01*
X208782Y398959D01*
X209144Y398004D01*
X209170Y397961D01*
X209209Y397877D01*
X209773Y397027D01*
X209808Y396990D01*
X209865Y396918D01*
X210605Y396214D01*
X210647Y396186D01*
X210718Y396128D01*
X211596Y395607D01*
X211643Y395589D01*
X211725Y395548D01*
X212697Y395235D01*
X212747Y395228D01*
X212836Y395207D01*
X213854Y395118D01*
X213904Y395123D01*
G37*
G36*
X98067Y395123D02*
X98067Y395123D01*
X98158Y395122D01*
X99122Y395253D01*
X99170Y395269D01*
X99259Y395288D01*
X100170Y395630D01*
X100213Y395656D01*
X100297Y395695D01*
X101108Y396232D01*
X101144Y396267D01*
X101217Y396323D01*
X101889Y397027D01*
X101917Y397069D01*
X101975Y397140D01*
X102473Y397976D01*
X102474Y397979D01*
X102476Y397981D01*
X102482Y398001D01*
X102491Y398023D01*
X102531Y398105D01*
X102831Y399031D01*
X102838Y399081D01*
X102860Y399170D01*
X102946Y400139D01*
X102942Y400186D01*
X102945Y400261D01*
X102843Y401237D01*
X102829Y401285D01*
X102813Y401375D01*
X102497Y402304D01*
X102473Y402348D01*
X102436Y402433D01*
X101922Y403268D01*
X101888Y403305D01*
X101834Y403380D01*
X101146Y404080D01*
X101105Y404109D01*
X101036Y404169D01*
X100209Y404698D01*
X100163Y404717D01*
X100082Y404761D01*
X99159Y405093D01*
X99109Y405101D01*
X99020Y405126D01*
X98046Y405244D01*
X97996Y405241D01*
X97910Y405245D01*
X96908Y405150D01*
X96859Y405136D01*
X96769Y405120D01*
X95813Y404804D01*
X95768Y404780D01*
X95684Y404745D01*
X94823Y404223D01*
X94785Y404190D01*
X94710Y404137D01*
X93986Y403437D01*
X93957Y403396D01*
X93896Y403327D01*
X93346Y402484D01*
X93326Y402438D01*
X93282Y402357D01*
X92934Y401413D01*
X92925Y401363D01*
X92900Y401275D01*
X92770Y400277D01*
X92772Y400234D01*
X92771Y400108D01*
X92910Y399097D01*
X92926Y399049D01*
X92945Y398959D01*
X93307Y398004D01*
X93333Y397961D01*
X93372Y397877D01*
X93936Y397027D01*
X93971Y396990D01*
X94028Y396918D01*
X94768Y396214D01*
X94810Y396186D01*
X94881Y396128D01*
X95759Y395607D01*
X95806Y395589D01*
X95888Y395548D01*
X96860Y395235D01*
X96910Y395228D01*
X96999Y395207D01*
X98017Y395118D01*
X98067Y395123D01*
G37*
D10*
X30000Y510000D03*
X30000Y30000D03*
X870000Y510000D03*
X870000Y30000D03*
D11*
X30000Y510000D03*
X30000Y30000D03*
X870000Y510000D03*
X870000Y30000D03*
D12*
X678900Y510500D03*
X678900Y434300D03*
X480033Y510500D03*
X480033Y434300D03*
X281167Y510500D03*
X281167Y434300D03*
X82300Y510500D03*
X82300Y434300D03*
D13*
X725700Y55100D03*
X750700Y55100D03*
X529633Y55100D03*
X554633Y55100D03*
X333567Y55100D03*
X358567Y55100D03*
X137500Y55100D03*
X162500Y55100D03*
X51300Y261550D03*
X51300Y236550D03*
X52000Y160000D03*
X52000Y135000D03*
D14*
X707500Y444500D03*
X707500Y469900D03*
X707500Y495300D03*
X822500Y495300D03*
X822500Y469900D03*
X822500Y444500D03*
X510833Y444500D03*
X510833Y469900D03*
X510833Y495300D03*
X625833Y495300D03*
X625833Y469900D03*
X625833Y444500D03*
X314167Y444500D03*
X314167Y469900D03*
X314167Y495300D03*
X429167Y495300D03*
X429167Y469900D03*
X429167Y444500D03*
X117500Y444500D03*
X117500Y469900D03*
X117500Y495300D03*
X232500Y495300D03*
X232500Y469900D03*
X232500Y444500D03*
D15*
X422300Y89500D03*
X422300Y114900D03*
X422300Y140300D03*
X422300Y165700D03*
D16*
X422300Y191100D03*
D15*
X422300Y216500D03*
X422300Y241900D03*
D16*
X422300Y267300D03*
X295300Y267300D03*
D15*
X295300Y241900D03*
X295300Y216500D03*
X295300Y191100D03*
X295300Y165700D03*
X295300Y140300D03*
X295300Y114900D03*
D17*
X295300Y89500D03*
D15*
X227300Y89500D03*
X227300Y114900D03*
X227300Y140300D03*
X227300Y165700D03*
D16*
X227300Y191100D03*
D15*
X227300Y216500D03*
X227300Y241900D03*
D16*
X227300Y267300D03*
X100300Y267300D03*
D15*
X100300Y241900D03*
X100300Y216500D03*
X100300Y191100D03*
X100300Y165700D03*
X100300Y140300D03*
X100300Y114900D03*
D17*
X100300Y89500D03*
D13*
X848000Y352500D03*
X848000Y377500D03*
D15*
X670000Y256200D03*
X695400Y256200D03*
X720800Y256200D03*
X746200Y256200D03*
X771600Y256200D03*
X797000Y256200D03*
X644600Y256200D03*
X619200Y256200D03*
X593800Y256200D03*
X568400Y256200D03*
X543000Y256200D03*
X517600Y256200D03*
X492200Y256200D03*
X822400Y256200D03*
X670000Y103800D03*
X644600Y103800D03*
X619200Y103800D03*
X593800Y103800D03*
X568400Y103800D03*
X543000Y103800D03*
X695400Y103800D03*
X720800Y103800D03*
X746200Y103800D03*
X771600Y103800D03*
X797000Y103800D03*
X822400Y103800D03*
X847800Y103800D03*
X517600Y103800D03*
X492200Y103800D03*
X847800Y256200D03*
D18*
X747300Y314400D03*
D19*
X747300Y390600D03*
X772700Y314400D03*
X772700Y390600D03*
D20*
X615600Y185000D03*
X539400Y185000D03*
D21*
X539400Y215000D03*
X615600Y215000D03*
D22*
X115000Y320000D03*
X565000Y240000D03*
X625000Y355000D03*
X605000Y350000D03*
D23*
X465000Y100000D03*
X405000Y80000D03*
D22*
X135000Y330000D03*
X420000Y35000D03*
X200000Y315000D03*
X610000Y165000D03*
X335000Y130000D03*
M02*
