G04 EAGLE Gerber RS-274X export*
G75*
%MOMM*%
%FSLAX34Y34*%
%LPD*%
%INSoldermask Bottom*%
%IPPOS*%
%AMOC8*
5,1,8,0,0,1.08239X$1,22.5*%
G01*
%ADD10C,6.000000*%
%ADD11C,3.327000*%
%ADD12P,1.457113X8X292.500000*%
%ADD13C,1.777000*%
%ADD14C,1.222000*%
%ADD15C,1.651000*%
%ADD16R,1.651000X1.651000*%
%ADD17C,1.666241*%
%ADD18R,1.707000X1.707000*%
%ADD19C,1.707000*%
%ADD20P,1.457113X8X202.500000*%
%ADD21P,1.457113X8X22.500000*%
%ADD22C,0.635000*%
%ADD23C,1.270000*%

G36*
X387690Y390043D02*
X387690Y390043D01*
X387762Y390041D01*
X389598Y390246D01*
X389644Y390260D01*
X389719Y390272D01*
X391480Y390832D01*
X391522Y390855D01*
X391594Y390881D01*
X393211Y391774D01*
X393249Y391804D01*
X393314Y391844D01*
X394726Y393035D01*
X394757Y393072D01*
X394813Y393124D01*
X395966Y394568D01*
X395989Y394610D01*
X396033Y394672D01*
X396882Y396313D01*
X396897Y396359D01*
X396928Y396428D01*
X397441Y398203D01*
X397446Y398251D01*
X397464Y398326D01*
X397620Y400166D01*
X397616Y400210D01*
X397620Y400275D01*
X397460Y402106D01*
X397447Y402152D01*
X397437Y402228D01*
X396923Y403992D01*
X396902Y404036D01*
X396877Y404108D01*
X396028Y405738D01*
X395999Y405776D01*
X395960Y405842D01*
X394810Y407275D01*
X394774Y407307D01*
X394723Y407364D01*
X393315Y408545D01*
X393274Y408569D01*
X393213Y408615D01*
X391601Y409499D01*
X391556Y409514D01*
X391487Y409548D01*
X389734Y410100D01*
X389687Y410106D01*
X389613Y410126D01*
X387786Y410326D01*
X387740Y410322D01*
X387671Y410328D01*
X385995Y410205D01*
X385952Y410194D01*
X385886Y410188D01*
X384256Y409777D01*
X384216Y409758D01*
X384152Y409740D01*
X382619Y409052D01*
X382582Y409027D01*
X382522Y408998D01*
X381132Y408054D01*
X381100Y408023D01*
X381046Y407985D01*
X379840Y406814D01*
X379814Y406778D01*
X379768Y406730D01*
X378784Y405368D01*
X378765Y405327D01*
X378728Y405273D01*
X377995Y403760D01*
X377983Y403717D01*
X377956Y403657D01*
X377498Y402040D01*
X377493Y401995D01*
X377477Y401931D01*
X377306Y400259D01*
X377310Y400211D01*
X377306Y400132D01*
X377472Y398460D01*
X377484Y398417D01*
X377493Y398352D01*
X377947Y396734D01*
X377966Y396693D01*
X377986Y396630D01*
X378714Y395116D01*
X378740Y395080D01*
X378770Y395021D01*
X379751Y393656D01*
X379783Y393625D01*
X379823Y393572D01*
X381025Y392398D01*
X381062Y392373D01*
X381110Y392328D01*
X382498Y391381D01*
X382539Y391363D01*
X382595Y391327D01*
X384126Y390635D01*
X384169Y390624D01*
X384230Y390598D01*
X385859Y390183D01*
X385903Y390180D01*
X385968Y390165D01*
X387643Y390039D01*
X387690Y390043D01*
G37*
G36*
X329771Y390043D02*
X329771Y390043D01*
X329843Y390041D01*
X331679Y390246D01*
X331725Y390260D01*
X331800Y390272D01*
X333561Y390832D01*
X333603Y390855D01*
X333675Y390881D01*
X335292Y391774D01*
X335330Y391804D01*
X335395Y391844D01*
X336807Y393035D01*
X336838Y393072D01*
X336894Y393124D01*
X338047Y394568D01*
X338070Y394610D01*
X338114Y394672D01*
X338963Y396313D01*
X338978Y396359D01*
X339009Y396428D01*
X339522Y398203D01*
X339527Y398251D01*
X339545Y398326D01*
X339701Y400166D01*
X339697Y400210D01*
X339701Y400275D01*
X339541Y402106D01*
X339528Y402152D01*
X339518Y402228D01*
X339004Y403992D01*
X338983Y404036D01*
X338958Y404108D01*
X338109Y405738D01*
X338080Y405776D01*
X338041Y405842D01*
X336891Y407275D01*
X336855Y407307D01*
X336804Y407364D01*
X335396Y408545D01*
X335355Y408569D01*
X335294Y408615D01*
X333682Y409499D01*
X333637Y409514D01*
X333568Y409548D01*
X331815Y410100D01*
X331768Y410106D01*
X331694Y410126D01*
X329867Y410326D01*
X329821Y410322D01*
X329752Y410328D01*
X328076Y410205D01*
X328033Y410194D01*
X327967Y410188D01*
X326337Y409777D01*
X326297Y409758D01*
X326233Y409740D01*
X324700Y409052D01*
X324663Y409027D01*
X324603Y408998D01*
X323213Y408054D01*
X323181Y408023D01*
X323127Y407985D01*
X321921Y406814D01*
X321895Y406778D01*
X321849Y406730D01*
X320865Y405368D01*
X320846Y405327D01*
X320809Y405273D01*
X320076Y403760D01*
X320064Y403717D01*
X320037Y403657D01*
X319579Y402040D01*
X319574Y401995D01*
X319558Y401931D01*
X319387Y400259D01*
X319391Y400211D01*
X319387Y400132D01*
X319553Y398460D01*
X319565Y398417D01*
X319574Y398352D01*
X320028Y396734D01*
X320047Y396693D01*
X320067Y396630D01*
X320795Y395116D01*
X320821Y395080D01*
X320851Y395021D01*
X321832Y393656D01*
X321864Y393625D01*
X321904Y393572D01*
X323106Y392398D01*
X323143Y392373D01*
X323191Y392328D01*
X324579Y391381D01*
X324620Y391363D01*
X324676Y391327D01*
X326207Y390635D01*
X326250Y390624D01*
X326311Y390598D01*
X327940Y390183D01*
X327984Y390180D01*
X328049Y390165D01*
X329724Y390039D01*
X329771Y390043D01*
G37*
G36*
X561446Y390043D02*
X561446Y390043D01*
X561518Y390041D01*
X563354Y390246D01*
X563400Y390260D01*
X563475Y390272D01*
X565236Y390832D01*
X565278Y390855D01*
X565350Y390881D01*
X566967Y391774D01*
X567005Y391804D01*
X567070Y391844D01*
X568482Y393035D01*
X568513Y393072D01*
X568569Y393124D01*
X569722Y394568D01*
X569745Y394610D01*
X569789Y394672D01*
X570638Y396313D01*
X570653Y396359D01*
X570684Y396428D01*
X571197Y398203D01*
X571202Y398251D01*
X571220Y398326D01*
X571376Y400166D01*
X571372Y400210D01*
X571376Y400275D01*
X571216Y402106D01*
X571203Y402152D01*
X571193Y402228D01*
X570679Y403992D01*
X570658Y404036D01*
X570633Y404108D01*
X569784Y405738D01*
X569755Y405776D01*
X569716Y405842D01*
X568566Y407275D01*
X568530Y407307D01*
X568479Y407364D01*
X567071Y408545D01*
X567030Y408569D01*
X566969Y408615D01*
X565357Y409499D01*
X565312Y409514D01*
X565243Y409548D01*
X563490Y410100D01*
X563443Y410106D01*
X563369Y410126D01*
X561542Y410326D01*
X561496Y410322D01*
X561427Y410328D01*
X559751Y410205D01*
X559708Y410194D01*
X559642Y410188D01*
X558012Y409777D01*
X557972Y409758D01*
X557908Y409740D01*
X556375Y409052D01*
X556338Y409027D01*
X556278Y408998D01*
X554888Y408054D01*
X554856Y408023D01*
X554802Y407985D01*
X553596Y406814D01*
X553570Y406778D01*
X553524Y406730D01*
X552540Y405368D01*
X552521Y405327D01*
X552484Y405273D01*
X551751Y403760D01*
X551739Y403717D01*
X551712Y403657D01*
X551254Y402040D01*
X551249Y401995D01*
X551233Y401931D01*
X551062Y400259D01*
X551066Y400211D01*
X551062Y400132D01*
X551228Y398460D01*
X551240Y398417D01*
X551249Y398352D01*
X551703Y396734D01*
X551722Y396693D01*
X551742Y396630D01*
X552470Y395116D01*
X552496Y395080D01*
X552526Y395021D01*
X553507Y393656D01*
X553539Y393625D01*
X553579Y393572D01*
X554781Y392398D01*
X554818Y392373D01*
X554866Y392328D01*
X556254Y391381D01*
X556295Y391363D01*
X556351Y391327D01*
X557882Y390635D01*
X557925Y390624D01*
X557986Y390598D01*
X559615Y390183D01*
X559659Y390180D01*
X559724Y390165D01*
X561399Y390039D01*
X561446Y390043D01*
G37*
G36*
X619365Y390043D02*
X619365Y390043D01*
X619437Y390041D01*
X621273Y390246D01*
X621319Y390260D01*
X621394Y390272D01*
X623155Y390832D01*
X623197Y390855D01*
X623269Y390881D01*
X624886Y391774D01*
X624924Y391804D01*
X624989Y391844D01*
X626401Y393035D01*
X626432Y393072D01*
X626488Y393124D01*
X627641Y394568D01*
X627664Y394610D01*
X627708Y394672D01*
X628557Y396313D01*
X628572Y396359D01*
X628603Y396428D01*
X629116Y398203D01*
X629121Y398251D01*
X629139Y398326D01*
X629295Y400166D01*
X629291Y400210D01*
X629295Y400275D01*
X629135Y402106D01*
X629122Y402152D01*
X629112Y402228D01*
X628598Y403992D01*
X628577Y404036D01*
X628552Y404108D01*
X627703Y405738D01*
X627674Y405776D01*
X627635Y405842D01*
X626485Y407275D01*
X626449Y407307D01*
X626398Y407364D01*
X624990Y408545D01*
X624949Y408569D01*
X624888Y408615D01*
X623276Y409499D01*
X623231Y409514D01*
X623162Y409548D01*
X621409Y410100D01*
X621362Y410106D01*
X621288Y410126D01*
X619461Y410326D01*
X619415Y410322D01*
X619346Y410328D01*
X617670Y410205D01*
X617627Y410194D01*
X617561Y410188D01*
X615931Y409777D01*
X615891Y409758D01*
X615827Y409740D01*
X614294Y409052D01*
X614257Y409027D01*
X614197Y408998D01*
X612807Y408054D01*
X612775Y408023D01*
X612721Y407985D01*
X611515Y406814D01*
X611489Y406778D01*
X611443Y406730D01*
X610459Y405368D01*
X610440Y405327D01*
X610403Y405273D01*
X609670Y403760D01*
X609658Y403717D01*
X609631Y403657D01*
X609173Y402040D01*
X609168Y401995D01*
X609152Y401931D01*
X608981Y400259D01*
X608985Y400211D01*
X608981Y400132D01*
X609147Y398460D01*
X609159Y398417D01*
X609168Y398352D01*
X609622Y396734D01*
X609641Y396693D01*
X609661Y396630D01*
X610389Y395116D01*
X610415Y395080D01*
X610445Y395021D01*
X611426Y393656D01*
X611458Y393625D01*
X611498Y393572D01*
X612700Y392398D01*
X612737Y392373D01*
X612785Y392328D01*
X614173Y391381D01*
X614214Y391363D01*
X614270Y391327D01*
X615801Y390635D01*
X615844Y390624D01*
X615905Y390598D01*
X617534Y390183D01*
X617578Y390180D01*
X617643Y390165D01*
X619318Y390039D01*
X619365Y390043D01*
G37*
G36*
X503528Y390043D02*
X503528Y390043D01*
X503600Y390041D01*
X505436Y390246D01*
X505482Y390260D01*
X505557Y390272D01*
X507318Y390832D01*
X507360Y390855D01*
X507432Y390881D01*
X509049Y391774D01*
X509087Y391804D01*
X509152Y391844D01*
X510564Y393035D01*
X510595Y393072D01*
X510651Y393124D01*
X511804Y394568D01*
X511827Y394610D01*
X511871Y394672D01*
X512720Y396313D01*
X512735Y396359D01*
X512766Y396428D01*
X513279Y398203D01*
X513284Y398251D01*
X513302Y398326D01*
X513458Y400166D01*
X513454Y400210D01*
X513458Y400275D01*
X513298Y402106D01*
X513285Y402152D01*
X513275Y402228D01*
X512761Y403992D01*
X512740Y404036D01*
X512715Y404108D01*
X511866Y405738D01*
X511837Y405776D01*
X511798Y405842D01*
X510648Y407275D01*
X510612Y407307D01*
X510561Y407364D01*
X509153Y408545D01*
X509112Y408569D01*
X509051Y408615D01*
X507439Y409499D01*
X507394Y409514D01*
X507325Y409548D01*
X505572Y410100D01*
X505525Y410106D01*
X505451Y410126D01*
X503624Y410326D01*
X503578Y410322D01*
X503509Y410328D01*
X501833Y410205D01*
X501790Y410194D01*
X501724Y410188D01*
X500094Y409777D01*
X500054Y409758D01*
X499990Y409740D01*
X498457Y409052D01*
X498420Y409027D01*
X498360Y408998D01*
X496970Y408054D01*
X496938Y408023D01*
X496884Y407985D01*
X495678Y406814D01*
X495652Y406778D01*
X495606Y406730D01*
X494622Y405368D01*
X494603Y405327D01*
X494566Y405273D01*
X493833Y403760D01*
X493821Y403717D01*
X493794Y403657D01*
X493336Y402040D01*
X493331Y401995D01*
X493315Y401931D01*
X493144Y400259D01*
X493148Y400211D01*
X493144Y400132D01*
X493310Y398460D01*
X493322Y398417D01*
X493331Y398352D01*
X493785Y396734D01*
X493804Y396693D01*
X493824Y396630D01*
X494552Y395116D01*
X494578Y395080D01*
X494608Y395021D01*
X495589Y393656D01*
X495621Y393625D01*
X495661Y393572D01*
X496863Y392398D01*
X496900Y392373D01*
X496948Y392328D01*
X498336Y391381D01*
X498377Y391363D01*
X498433Y391327D01*
X499964Y390635D01*
X500007Y390624D01*
X500068Y390598D01*
X501697Y390183D01*
X501741Y390180D01*
X501806Y390165D01*
X503481Y390039D01*
X503528Y390043D01*
G37*
G36*
X445609Y390043D02*
X445609Y390043D01*
X445681Y390041D01*
X447517Y390246D01*
X447563Y390260D01*
X447638Y390272D01*
X449399Y390832D01*
X449441Y390855D01*
X449513Y390881D01*
X451130Y391774D01*
X451168Y391804D01*
X451233Y391844D01*
X452645Y393035D01*
X452676Y393072D01*
X452732Y393124D01*
X453885Y394568D01*
X453908Y394610D01*
X453952Y394672D01*
X454801Y396313D01*
X454816Y396359D01*
X454847Y396428D01*
X455360Y398203D01*
X455365Y398251D01*
X455383Y398326D01*
X455539Y400166D01*
X455535Y400210D01*
X455539Y400275D01*
X455379Y402106D01*
X455366Y402152D01*
X455356Y402228D01*
X454842Y403992D01*
X454821Y404036D01*
X454796Y404108D01*
X453947Y405738D01*
X453918Y405776D01*
X453879Y405842D01*
X452729Y407275D01*
X452693Y407307D01*
X452642Y407364D01*
X451234Y408545D01*
X451193Y408569D01*
X451132Y408615D01*
X449520Y409499D01*
X449475Y409514D01*
X449406Y409548D01*
X447653Y410100D01*
X447606Y410106D01*
X447532Y410126D01*
X445705Y410326D01*
X445659Y410322D01*
X445590Y410328D01*
X443914Y410205D01*
X443871Y410194D01*
X443805Y410188D01*
X442175Y409777D01*
X442135Y409758D01*
X442071Y409740D01*
X440538Y409052D01*
X440501Y409027D01*
X440441Y408998D01*
X439051Y408054D01*
X439019Y408023D01*
X438965Y407985D01*
X437759Y406814D01*
X437733Y406778D01*
X437687Y406730D01*
X436703Y405368D01*
X436684Y405327D01*
X436647Y405273D01*
X435914Y403760D01*
X435902Y403717D01*
X435875Y403657D01*
X435417Y402040D01*
X435412Y401995D01*
X435396Y401931D01*
X435225Y400259D01*
X435229Y400211D01*
X435225Y400132D01*
X435391Y398460D01*
X435403Y398417D01*
X435412Y398352D01*
X435866Y396734D01*
X435885Y396693D01*
X435905Y396630D01*
X436633Y395116D01*
X436659Y395080D01*
X436689Y395021D01*
X437670Y393656D01*
X437702Y393625D01*
X437742Y393572D01*
X438944Y392398D01*
X438981Y392373D01*
X439029Y392328D01*
X440417Y391381D01*
X440458Y391363D01*
X440514Y391327D01*
X442045Y390635D01*
X442088Y390624D01*
X442149Y390598D01*
X443778Y390183D01*
X443822Y390180D01*
X443887Y390165D01*
X445562Y390039D01*
X445609Y390043D01*
G37*
G36*
X271852Y390043D02*
X271852Y390043D01*
X271924Y390041D01*
X273760Y390246D01*
X273806Y390260D01*
X273881Y390272D01*
X275642Y390832D01*
X275684Y390855D01*
X275756Y390881D01*
X277373Y391774D01*
X277411Y391804D01*
X277476Y391844D01*
X278888Y393035D01*
X278919Y393072D01*
X278975Y393124D01*
X280128Y394568D01*
X280151Y394610D01*
X280195Y394672D01*
X281044Y396313D01*
X281059Y396359D01*
X281090Y396428D01*
X281603Y398203D01*
X281608Y398251D01*
X281626Y398326D01*
X281782Y400166D01*
X281778Y400210D01*
X281782Y400275D01*
X281622Y402106D01*
X281609Y402152D01*
X281599Y402228D01*
X281085Y403992D01*
X281064Y404036D01*
X281039Y404108D01*
X280190Y405738D01*
X280161Y405776D01*
X280122Y405842D01*
X278972Y407275D01*
X278936Y407307D01*
X278885Y407364D01*
X277477Y408545D01*
X277436Y408569D01*
X277375Y408615D01*
X275763Y409499D01*
X275718Y409514D01*
X275649Y409548D01*
X273896Y410100D01*
X273849Y410106D01*
X273775Y410126D01*
X271948Y410326D01*
X271902Y410322D01*
X271833Y410328D01*
X270157Y410205D01*
X270114Y410194D01*
X270048Y410188D01*
X268418Y409777D01*
X268378Y409758D01*
X268314Y409740D01*
X266781Y409052D01*
X266744Y409027D01*
X266684Y408998D01*
X265294Y408054D01*
X265262Y408023D01*
X265208Y407985D01*
X264002Y406814D01*
X263976Y406778D01*
X263930Y406730D01*
X262946Y405368D01*
X262927Y405327D01*
X262890Y405273D01*
X262157Y403760D01*
X262145Y403717D01*
X262118Y403657D01*
X261660Y402040D01*
X261655Y401995D01*
X261639Y401931D01*
X261468Y400259D01*
X261472Y400211D01*
X261468Y400132D01*
X261634Y398460D01*
X261646Y398417D01*
X261655Y398352D01*
X262109Y396734D01*
X262128Y396693D01*
X262148Y396630D01*
X262876Y395116D01*
X262902Y395080D01*
X262932Y395021D01*
X263913Y393656D01*
X263945Y393625D01*
X263985Y393572D01*
X265187Y392398D01*
X265224Y392373D01*
X265272Y392328D01*
X266660Y391381D01*
X266701Y391363D01*
X266757Y391327D01*
X268288Y390635D01*
X268331Y390624D01*
X268392Y390598D01*
X270021Y390183D01*
X270065Y390180D01*
X270130Y390165D01*
X271805Y390039D01*
X271852Y390043D01*
G37*
G36*
X156015Y390043D02*
X156015Y390043D01*
X156087Y390041D01*
X157923Y390246D01*
X157969Y390260D01*
X158044Y390272D01*
X159805Y390832D01*
X159847Y390855D01*
X159919Y390881D01*
X161536Y391774D01*
X161574Y391804D01*
X161639Y391844D01*
X163051Y393035D01*
X163082Y393072D01*
X163138Y393124D01*
X164291Y394568D01*
X164314Y394610D01*
X164358Y394672D01*
X165207Y396313D01*
X165222Y396359D01*
X165253Y396428D01*
X165766Y398203D01*
X165771Y398251D01*
X165789Y398326D01*
X165945Y400166D01*
X165941Y400210D01*
X165945Y400275D01*
X165785Y402106D01*
X165772Y402152D01*
X165762Y402228D01*
X165248Y403992D01*
X165227Y404036D01*
X165202Y404108D01*
X164353Y405738D01*
X164324Y405776D01*
X164285Y405842D01*
X163135Y407275D01*
X163099Y407307D01*
X163048Y407364D01*
X161640Y408545D01*
X161599Y408569D01*
X161538Y408615D01*
X159926Y409499D01*
X159881Y409514D01*
X159812Y409548D01*
X158059Y410100D01*
X158012Y410106D01*
X157938Y410126D01*
X156111Y410326D01*
X156065Y410322D01*
X155996Y410328D01*
X154320Y410205D01*
X154277Y410194D01*
X154211Y410188D01*
X152581Y409777D01*
X152541Y409758D01*
X152477Y409740D01*
X150944Y409052D01*
X150907Y409027D01*
X150847Y408998D01*
X149457Y408054D01*
X149425Y408023D01*
X149371Y407985D01*
X148165Y406814D01*
X148139Y406778D01*
X148093Y406730D01*
X147109Y405368D01*
X147090Y405327D01*
X147053Y405273D01*
X146320Y403760D01*
X146308Y403717D01*
X146281Y403657D01*
X145823Y402040D01*
X145818Y401995D01*
X145802Y401931D01*
X145631Y400259D01*
X145635Y400211D01*
X145631Y400132D01*
X145797Y398460D01*
X145809Y398417D01*
X145818Y398352D01*
X146272Y396734D01*
X146291Y396693D01*
X146311Y396630D01*
X147039Y395116D01*
X147065Y395080D01*
X147095Y395021D01*
X148076Y393656D01*
X148108Y393625D01*
X148148Y393572D01*
X149350Y392398D01*
X149387Y392373D01*
X149435Y392328D01*
X150823Y391381D01*
X150864Y391363D01*
X150920Y391327D01*
X152451Y390635D01*
X152494Y390624D01*
X152555Y390598D01*
X154184Y390183D01*
X154228Y390180D01*
X154293Y390165D01*
X155968Y390039D01*
X156015Y390043D01*
G37*
G36*
X677284Y390043D02*
X677284Y390043D01*
X677356Y390041D01*
X679192Y390246D01*
X679238Y390260D01*
X679313Y390272D01*
X681074Y390832D01*
X681116Y390855D01*
X681188Y390881D01*
X682805Y391774D01*
X682843Y391804D01*
X682908Y391844D01*
X684320Y393035D01*
X684351Y393072D01*
X684407Y393124D01*
X685560Y394568D01*
X685583Y394610D01*
X685627Y394672D01*
X686476Y396313D01*
X686491Y396359D01*
X686522Y396428D01*
X687035Y398203D01*
X687040Y398251D01*
X687058Y398326D01*
X687214Y400166D01*
X687210Y400210D01*
X687214Y400275D01*
X687054Y402106D01*
X687041Y402152D01*
X687031Y402228D01*
X686517Y403992D01*
X686496Y404036D01*
X686471Y404108D01*
X685622Y405738D01*
X685593Y405776D01*
X685554Y405842D01*
X684404Y407275D01*
X684368Y407307D01*
X684317Y407364D01*
X682909Y408545D01*
X682868Y408569D01*
X682807Y408615D01*
X681195Y409499D01*
X681150Y409514D01*
X681081Y409548D01*
X679328Y410100D01*
X679281Y410106D01*
X679207Y410126D01*
X677380Y410326D01*
X677334Y410322D01*
X677265Y410328D01*
X675589Y410205D01*
X675546Y410194D01*
X675480Y410188D01*
X673850Y409777D01*
X673810Y409758D01*
X673746Y409740D01*
X672213Y409052D01*
X672176Y409027D01*
X672116Y408998D01*
X670726Y408054D01*
X670694Y408023D01*
X670640Y407985D01*
X669434Y406814D01*
X669408Y406778D01*
X669362Y406730D01*
X668378Y405368D01*
X668359Y405327D01*
X668322Y405273D01*
X667589Y403760D01*
X667577Y403717D01*
X667550Y403657D01*
X667092Y402040D01*
X667087Y401995D01*
X667071Y401931D01*
X666900Y400259D01*
X666904Y400211D01*
X666900Y400132D01*
X667066Y398460D01*
X667078Y398417D01*
X667087Y398352D01*
X667541Y396734D01*
X667560Y396693D01*
X667580Y396630D01*
X668308Y395116D01*
X668334Y395080D01*
X668364Y395021D01*
X669345Y393656D01*
X669377Y393625D01*
X669417Y393572D01*
X670619Y392398D01*
X670656Y392373D01*
X670704Y392328D01*
X672092Y391381D01*
X672133Y391363D01*
X672189Y391327D01*
X673720Y390635D01*
X673763Y390624D01*
X673824Y390598D01*
X675453Y390183D01*
X675497Y390180D01*
X675562Y390165D01*
X677237Y390039D01*
X677284Y390043D01*
G37*
G36*
X40177Y390043D02*
X40177Y390043D01*
X40249Y390041D01*
X42085Y390246D01*
X42131Y390260D01*
X42206Y390272D01*
X43967Y390832D01*
X44009Y390855D01*
X44081Y390881D01*
X45698Y391774D01*
X45736Y391804D01*
X45801Y391844D01*
X47213Y393035D01*
X47244Y393072D01*
X47300Y393124D01*
X48453Y394568D01*
X48476Y394610D01*
X48520Y394672D01*
X49369Y396313D01*
X49384Y396359D01*
X49415Y396428D01*
X49928Y398203D01*
X49933Y398251D01*
X49951Y398326D01*
X50107Y400166D01*
X50103Y400210D01*
X50107Y400275D01*
X49947Y402106D01*
X49934Y402152D01*
X49924Y402228D01*
X49410Y403992D01*
X49389Y404036D01*
X49364Y404108D01*
X48515Y405738D01*
X48486Y405776D01*
X48447Y405842D01*
X47297Y407275D01*
X47261Y407307D01*
X47210Y407364D01*
X45802Y408545D01*
X45761Y408569D01*
X45700Y408615D01*
X44088Y409499D01*
X44043Y409514D01*
X43974Y409548D01*
X42221Y410100D01*
X42174Y410106D01*
X42100Y410126D01*
X40273Y410326D01*
X40227Y410322D01*
X40158Y410328D01*
X38482Y410205D01*
X38439Y410194D01*
X38373Y410188D01*
X36743Y409777D01*
X36703Y409758D01*
X36639Y409740D01*
X35106Y409052D01*
X35069Y409027D01*
X35009Y408998D01*
X33619Y408054D01*
X33587Y408023D01*
X33533Y407985D01*
X32327Y406814D01*
X32301Y406778D01*
X32255Y406730D01*
X31271Y405368D01*
X31252Y405327D01*
X31215Y405273D01*
X30482Y403760D01*
X30470Y403717D01*
X30443Y403657D01*
X29985Y402040D01*
X29980Y401995D01*
X29964Y401931D01*
X29793Y400259D01*
X29797Y400211D01*
X29793Y400132D01*
X29959Y398460D01*
X29971Y398417D01*
X29980Y398352D01*
X30434Y396734D01*
X30453Y396693D01*
X30473Y396630D01*
X31201Y395116D01*
X31227Y395080D01*
X31257Y395021D01*
X32238Y393656D01*
X32270Y393625D01*
X32310Y393572D01*
X33512Y392398D01*
X33549Y392373D01*
X33597Y392328D01*
X34985Y391381D01*
X35026Y391363D01*
X35082Y391327D01*
X36613Y390635D01*
X36656Y390624D01*
X36717Y390598D01*
X38346Y390183D01*
X38390Y390180D01*
X38455Y390165D01*
X40130Y390039D01*
X40177Y390043D01*
G37*
G36*
X213933Y390043D02*
X213933Y390043D01*
X214005Y390041D01*
X215841Y390246D01*
X215887Y390260D01*
X215962Y390272D01*
X217723Y390832D01*
X217765Y390855D01*
X217837Y390881D01*
X219454Y391774D01*
X219492Y391804D01*
X219557Y391844D01*
X220969Y393035D01*
X221000Y393072D01*
X221056Y393124D01*
X222209Y394568D01*
X222232Y394610D01*
X222276Y394672D01*
X223125Y396313D01*
X223140Y396359D01*
X223171Y396428D01*
X223684Y398203D01*
X223689Y398251D01*
X223707Y398326D01*
X223863Y400166D01*
X223859Y400210D01*
X223863Y400275D01*
X223703Y402106D01*
X223690Y402152D01*
X223680Y402228D01*
X223166Y403992D01*
X223145Y404036D01*
X223120Y404108D01*
X222271Y405738D01*
X222242Y405776D01*
X222203Y405842D01*
X221053Y407275D01*
X221017Y407307D01*
X220966Y407364D01*
X219558Y408545D01*
X219517Y408569D01*
X219456Y408615D01*
X217844Y409499D01*
X217799Y409514D01*
X217730Y409548D01*
X215977Y410100D01*
X215930Y410106D01*
X215856Y410126D01*
X214029Y410326D01*
X213983Y410322D01*
X213914Y410328D01*
X212238Y410205D01*
X212195Y410194D01*
X212129Y410188D01*
X210499Y409777D01*
X210459Y409758D01*
X210395Y409740D01*
X208862Y409052D01*
X208825Y409027D01*
X208765Y408998D01*
X207375Y408054D01*
X207343Y408023D01*
X207289Y407985D01*
X206083Y406814D01*
X206057Y406778D01*
X206011Y406730D01*
X205027Y405368D01*
X205008Y405327D01*
X204971Y405273D01*
X204238Y403760D01*
X204226Y403717D01*
X204199Y403657D01*
X203741Y402040D01*
X203736Y401995D01*
X203720Y401931D01*
X203549Y400259D01*
X203553Y400211D01*
X203549Y400132D01*
X203715Y398460D01*
X203727Y398417D01*
X203736Y398352D01*
X204190Y396734D01*
X204209Y396693D01*
X204229Y396630D01*
X204957Y395116D01*
X204983Y395080D01*
X205013Y395021D01*
X205994Y393656D01*
X206026Y393625D01*
X206066Y393572D01*
X207268Y392398D01*
X207305Y392373D01*
X207353Y392328D01*
X208741Y391381D01*
X208782Y391363D01*
X208838Y391327D01*
X210369Y390635D01*
X210412Y390624D01*
X210473Y390598D01*
X212102Y390183D01*
X212146Y390180D01*
X212211Y390165D01*
X213886Y390039D01*
X213933Y390043D01*
G37*
G36*
X98096Y390043D02*
X98096Y390043D01*
X98168Y390041D01*
X100004Y390246D01*
X100050Y390260D01*
X100125Y390272D01*
X101886Y390832D01*
X101928Y390855D01*
X102000Y390881D01*
X103617Y391774D01*
X103655Y391804D01*
X103720Y391844D01*
X105132Y393035D01*
X105163Y393072D01*
X105219Y393124D01*
X106372Y394568D01*
X106395Y394610D01*
X106439Y394672D01*
X107288Y396313D01*
X107303Y396359D01*
X107334Y396428D01*
X107847Y398203D01*
X107852Y398251D01*
X107870Y398326D01*
X108026Y400166D01*
X108022Y400210D01*
X108026Y400275D01*
X107866Y402106D01*
X107853Y402152D01*
X107843Y402228D01*
X107329Y403992D01*
X107308Y404036D01*
X107283Y404108D01*
X106434Y405738D01*
X106405Y405776D01*
X106366Y405842D01*
X105216Y407275D01*
X105180Y407307D01*
X105129Y407364D01*
X103721Y408545D01*
X103680Y408569D01*
X103619Y408615D01*
X102007Y409499D01*
X101962Y409514D01*
X101893Y409548D01*
X100140Y410100D01*
X100093Y410106D01*
X100019Y410126D01*
X98192Y410326D01*
X98146Y410322D01*
X98077Y410328D01*
X96401Y410205D01*
X96358Y410194D01*
X96292Y410188D01*
X94662Y409777D01*
X94622Y409758D01*
X94558Y409740D01*
X93025Y409052D01*
X92988Y409027D01*
X92928Y408998D01*
X91538Y408054D01*
X91506Y408023D01*
X91452Y407985D01*
X90246Y406814D01*
X90220Y406778D01*
X90174Y406730D01*
X89190Y405368D01*
X89171Y405327D01*
X89134Y405273D01*
X88401Y403760D01*
X88389Y403717D01*
X88362Y403657D01*
X87904Y402040D01*
X87899Y401995D01*
X87883Y401931D01*
X87712Y400259D01*
X87716Y400211D01*
X87712Y400132D01*
X87878Y398460D01*
X87890Y398417D01*
X87899Y398352D01*
X88353Y396734D01*
X88372Y396693D01*
X88392Y396630D01*
X89120Y395116D01*
X89146Y395080D01*
X89176Y395021D01*
X90157Y393656D01*
X90189Y393625D01*
X90229Y393572D01*
X91431Y392398D01*
X91468Y392373D01*
X91516Y392328D01*
X92904Y391381D01*
X92945Y391363D01*
X93001Y391327D01*
X94532Y390635D01*
X94575Y390624D01*
X94636Y390598D01*
X96265Y390183D01*
X96309Y390180D01*
X96374Y390165D01*
X98049Y390039D01*
X98096Y390043D01*
G37*
G36*
X40177Y362052D02*
X40177Y362052D01*
X40249Y362050D01*
X42085Y362255D01*
X42131Y362269D01*
X42206Y362281D01*
X43967Y362841D01*
X44009Y362864D01*
X44081Y362890D01*
X45698Y363783D01*
X45736Y363813D01*
X45801Y363853D01*
X47213Y365044D01*
X47244Y365081D01*
X47300Y365133D01*
X48453Y366577D01*
X48476Y366619D01*
X48520Y366681D01*
X49369Y368322D01*
X49384Y368368D01*
X49415Y368437D01*
X49928Y370212D01*
X49933Y370260D01*
X49951Y370335D01*
X50107Y372175D01*
X50103Y372219D01*
X50107Y372284D01*
X49947Y374115D01*
X49934Y374161D01*
X49924Y374237D01*
X49410Y376001D01*
X49389Y376045D01*
X49364Y376117D01*
X48515Y377747D01*
X48486Y377785D01*
X48447Y377851D01*
X47297Y379284D01*
X47261Y379316D01*
X47210Y379373D01*
X45802Y380554D01*
X45761Y380578D01*
X45700Y380624D01*
X44088Y381508D01*
X44043Y381523D01*
X43974Y381557D01*
X42221Y382109D01*
X42174Y382115D01*
X42100Y382135D01*
X40273Y382335D01*
X40227Y382331D01*
X40158Y382337D01*
X38482Y382214D01*
X38439Y382203D01*
X38373Y382197D01*
X36743Y381786D01*
X36703Y381767D01*
X36639Y381749D01*
X35106Y381061D01*
X35069Y381036D01*
X35009Y381007D01*
X33619Y380063D01*
X33587Y380032D01*
X33533Y379994D01*
X32327Y378823D01*
X32301Y378787D01*
X32255Y378739D01*
X31271Y377377D01*
X31252Y377336D01*
X31215Y377282D01*
X30482Y375769D01*
X30470Y375726D01*
X30443Y375666D01*
X29985Y374049D01*
X29980Y374004D01*
X29964Y373940D01*
X29793Y372268D01*
X29797Y372220D01*
X29793Y372141D01*
X29959Y370469D01*
X29971Y370426D01*
X29980Y370361D01*
X30434Y368743D01*
X30453Y368702D01*
X30473Y368639D01*
X31201Y367125D01*
X31227Y367089D01*
X31257Y367030D01*
X32238Y365665D01*
X32270Y365634D01*
X32310Y365581D01*
X33512Y364407D01*
X33549Y364382D01*
X33597Y364337D01*
X34985Y363390D01*
X35026Y363372D01*
X35082Y363336D01*
X36613Y362644D01*
X36656Y362633D01*
X36717Y362607D01*
X38346Y362192D01*
X38390Y362189D01*
X38455Y362174D01*
X40130Y362048D01*
X40177Y362052D01*
G37*
G36*
X387690Y362052D02*
X387690Y362052D01*
X387762Y362050D01*
X389598Y362255D01*
X389644Y362269D01*
X389719Y362281D01*
X391480Y362841D01*
X391522Y362864D01*
X391594Y362890D01*
X393211Y363783D01*
X393249Y363813D01*
X393314Y363853D01*
X394726Y365044D01*
X394757Y365081D01*
X394813Y365133D01*
X395966Y366577D01*
X395989Y366619D01*
X396033Y366681D01*
X396882Y368322D01*
X396897Y368368D01*
X396928Y368437D01*
X397441Y370212D01*
X397446Y370260D01*
X397464Y370335D01*
X397620Y372175D01*
X397616Y372219D01*
X397620Y372284D01*
X397460Y374115D01*
X397447Y374161D01*
X397437Y374237D01*
X396923Y376001D01*
X396902Y376045D01*
X396877Y376117D01*
X396028Y377747D01*
X395999Y377785D01*
X395960Y377851D01*
X394810Y379284D01*
X394774Y379316D01*
X394723Y379373D01*
X393315Y380554D01*
X393274Y380578D01*
X393213Y380624D01*
X391601Y381508D01*
X391556Y381523D01*
X391487Y381557D01*
X389734Y382109D01*
X389687Y382115D01*
X389613Y382135D01*
X387786Y382335D01*
X387740Y382331D01*
X387671Y382337D01*
X385995Y382214D01*
X385952Y382203D01*
X385886Y382197D01*
X384256Y381786D01*
X384216Y381767D01*
X384152Y381749D01*
X382619Y381061D01*
X382582Y381036D01*
X382522Y381007D01*
X381132Y380063D01*
X381100Y380032D01*
X381046Y379994D01*
X379840Y378823D01*
X379814Y378787D01*
X379768Y378739D01*
X378784Y377377D01*
X378765Y377336D01*
X378728Y377282D01*
X377995Y375769D01*
X377983Y375726D01*
X377956Y375666D01*
X377498Y374049D01*
X377493Y374004D01*
X377477Y373940D01*
X377306Y372268D01*
X377310Y372220D01*
X377306Y372141D01*
X377472Y370469D01*
X377484Y370426D01*
X377493Y370361D01*
X377947Y368743D01*
X377966Y368702D01*
X377986Y368639D01*
X378714Y367125D01*
X378740Y367089D01*
X378770Y367030D01*
X379751Y365665D01*
X379783Y365634D01*
X379823Y365581D01*
X381025Y364407D01*
X381062Y364382D01*
X381110Y364337D01*
X382498Y363390D01*
X382539Y363372D01*
X382595Y363336D01*
X384126Y362644D01*
X384169Y362633D01*
X384230Y362607D01*
X385859Y362192D01*
X385903Y362189D01*
X385968Y362174D01*
X387643Y362048D01*
X387690Y362052D01*
G37*
G36*
X156015Y362052D02*
X156015Y362052D01*
X156087Y362050D01*
X157923Y362255D01*
X157969Y362269D01*
X158044Y362281D01*
X159805Y362841D01*
X159847Y362864D01*
X159919Y362890D01*
X161536Y363783D01*
X161574Y363813D01*
X161639Y363853D01*
X163051Y365044D01*
X163082Y365081D01*
X163138Y365133D01*
X164291Y366577D01*
X164314Y366619D01*
X164358Y366681D01*
X165207Y368322D01*
X165222Y368368D01*
X165253Y368437D01*
X165766Y370212D01*
X165771Y370260D01*
X165789Y370335D01*
X165945Y372175D01*
X165941Y372219D01*
X165945Y372284D01*
X165785Y374115D01*
X165772Y374161D01*
X165762Y374237D01*
X165248Y376001D01*
X165227Y376045D01*
X165202Y376117D01*
X164353Y377747D01*
X164324Y377785D01*
X164285Y377851D01*
X163135Y379284D01*
X163099Y379316D01*
X163048Y379373D01*
X161640Y380554D01*
X161599Y380578D01*
X161538Y380624D01*
X159926Y381508D01*
X159881Y381523D01*
X159812Y381557D01*
X158059Y382109D01*
X158012Y382115D01*
X157938Y382135D01*
X156111Y382335D01*
X156065Y382331D01*
X155996Y382337D01*
X154320Y382214D01*
X154277Y382203D01*
X154211Y382197D01*
X152581Y381786D01*
X152541Y381767D01*
X152477Y381749D01*
X150944Y381061D01*
X150907Y381036D01*
X150847Y381007D01*
X149457Y380063D01*
X149425Y380032D01*
X149371Y379994D01*
X148165Y378823D01*
X148139Y378787D01*
X148093Y378739D01*
X147109Y377377D01*
X147090Y377336D01*
X147053Y377282D01*
X146320Y375769D01*
X146308Y375726D01*
X146281Y375666D01*
X145823Y374049D01*
X145818Y374004D01*
X145802Y373940D01*
X145631Y372268D01*
X145635Y372220D01*
X145631Y372141D01*
X145797Y370469D01*
X145809Y370426D01*
X145818Y370361D01*
X146272Y368743D01*
X146291Y368702D01*
X146311Y368639D01*
X147039Y367125D01*
X147065Y367089D01*
X147095Y367030D01*
X148076Y365665D01*
X148108Y365634D01*
X148148Y365581D01*
X149350Y364407D01*
X149387Y364382D01*
X149435Y364337D01*
X150823Y363390D01*
X150864Y363372D01*
X150920Y363336D01*
X152451Y362644D01*
X152494Y362633D01*
X152555Y362607D01*
X154184Y362192D01*
X154228Y362189D01*
X154293Y362174D01*
X155968Y362048D01*
X156015Y362052D01*
G37*
G36*
X677284Y362052D02*
X677284Y362052D01*
X677356Y362050D01*
X679192Y362255D01*
X679238Y362269D01*
X679313Y362281D01*
X681074Y362841D01*
X681116Y362864D01*
X681188Y362890D01*
X682805Y363783D01*
X682843Y363813D01*
X682908Y363853D01*
X684320Y365044D01*
X684351Y365081D01*
X684407Y365133D01*
X685560Y366577D01*
X685583Y366619D01*
X685627Y366681D01*
X686476Y368322D01*
X686491Y368368D01*
X686522Y368437D01*
X687035Y370212D01*
X687040Y370260D01*
X687058Y370335D01*
X687214Y372175D01*
X687210Y372219D01*
X687214Y372284D01*
X687054Y374115D01*
X687041Y374161D01*
X687031Y374237D01*
X686517Y376001D01*
X686496Y376045D01*
X686471Y376117D01*
X685622Y377747D01*
X685593Y377785D01*
X685554Y377851D01*
X684404Y379284D01*
X684368Y379316D01*
X684317Y379373D01*
X682909Y380554D01*
X682868Y380578D01*
X682807Y380624D01*
X681195Y381508D01*
X681150Y381523D01*
X681081Y381557D01*
X679328Y382109D01*
X679281Y382115D01*
X679207Y382135D01*
X677380Y382335D01*
X677334Y382331D01*
X677265Y382337D01*
X675589Y382214D01*
X675546Y382203D01*
X675480Y382197D01*
X673850Y381786D01*
X673810Y381767D01*
X673746Y381749D01*
X672213Y381061D01*
X672176Y381036D01*
X672116Y381007D01*
X670726Y380063D01*
X670694Y380032D01*
X670640Y379994D01*
X669434Y378823D01*
X669408Y378787D01*
X669362Y378739D01*
X668378Y377377D01*
X668359Y377336D01*
X668322Y377282D01*
X667589Y375769D01*
X667577Y375726D01*
X667550Y375666D01*
X667092Y374049D01*
X667087Y374004D01*
X667071Y373940D01*
X666900Y372268D01*
X666904Y372220D01*
X666900Y372141D01*
X667066Y370469D01*
X667078Y370426D01*
X667087Y370361D01*
X667541Y368743D01*
X667560Y368702D01*
X667580Y368639D01*
X668308Y367125D01*
X668334Y367089D01*
X668364Y367030D01*
X669345Y365665D01*
X669377Y365634D01*
X669417Y365581D01*
X670619Y364407D01*
X670656Y364382D01*
X670704Y364337D01*
X672092Y363390D01*
X672133Y363372D01*
X672189Y363336D01*
X673720Y362644D01*
X673763Y362633D01*
X673824Y362607D01*
X675453Y362192D01*
X675497Y362189D01*
X675562Y362174D01*
X677237Y362048D01*
X677284Y362052D01*
G37*
G36*
X213933Y362052D02*
X213933Y362052D01*
X214005Y362050D01*
X215841Y362255D01*
X215887Y362269D01*
X215962Y362281D01*
X217723Y362841D01*
X217765Y362864D01*
X217837Y362890D01*
X219454Y363783D01*
X219492Y363813D01*
X219557Y363853D01*
X220969Y365044D01*
X221000Y365081D01*
X221056Y365133D01*
X222209Y366577D01*
X222232Y366619D01*
X222276Y366681D01*
X223125Y368322D01*
X223140Y368368D01*
X223171Y368437D01*
X223684Y370212D01*
X223689Y370260D01*
X223707Y370335D01*
X223863Y372175D01*
X223859Y372219D01*
X223863Y372284D01*
X223703Y374115D01*
X223690Y374161D01*
X223680Y374237D01*
X223166Y376001D01*
X223145Y376045D01*
X223120Y376117D01*
X222271Y377747D01*
X222242Y377785D01*
X222203Y377851D01*
X221053Y379284D01*
X221017Y379316D01*
X220966Y379373D01*
X219558Y380554D01*
X219517Y380578D01*
X219456Y380624D01*
X217844Y381508D01*
X217799Y381523D01*
X217730Y381557D01*
X215977Y382109D01*
X215930Y382115D01*
X215856Y382135D01*
X214029Y382335D01*
X213983Y382331D01*
X213914Y382337D01*
X212238Y382214D01*
X212195Y382203D01*
X212129Y382197D01*
X210499Y381786D01*
X210459Y381767D01*
X210395Y381749D01*
X208862Y381061D01*
X208825Y381036D01*
X208765Y381007D01*
X207375Y380063D01*
X207343Y380032D01*
X207289Y379994D01*
X206083Y378823D01*
X206057Y378787D01*
X206011Y378739D01*
X205027Y377377D01*
X205008Y377336D01*
X204971Y377282D01*
X204238Y375769D01*
X204226Y375726D01*
X204199Y375666D01*
X203741Y374049D01*
X203736Y374004D01*
X203720Y373940D01*
X203549Y372268D01*
X203553Y372220D01*
X203549Y372141D01*
X203715Y370469D01*
X203727Y370426D01*
X203736Y370361D01*
X204190Y368743D01*
X204209Y368702D01*
X204229Y368639D01*
X204957Y367125D01*
X204983Y367089D01*
X205013Y367030D01*
X205994Y365665D01*
X206026Y365634D01*
X206066Y365581D01*
X207268Y364407D01*
X207305Y364382D01*
X207353Y364337D01*
X208741Y363390D01*
X208782Y363372D01*
X208838Y363336D01*
X210369Y362644D01*
X210412Y362633D01*
X210473Y362607D01*
X212102Y362192D01*
X212146Y362189D01*
X212211Y362174D01*
X213886Y362048D01*
X213933Y362052D01*
G37*
G36*
X445609Y362052D02*
X445609Y362052D01*
X445681Y362050D01*
X447517Y362255D01*
X447563Y362269D01*
X447638Y362281D01*
X449399Y362841D01*
X449441Y362864D01*
X449513Y362890D01*
X451130Y363783D01*
X451168Y363813D01*
X451233Y363853D01*
X452645Y365044D01*
X452676Y365081D01*
X452732Y365133D01*
X453885Y366577D01*
X453908Y366619D01*
X453952Y366681D01*
X454801Y368322D01*
X454816Y368368D01*
X454847Y368437D01*
X455360Y370212D01*
X455365Y370260D01*
X455383Y370335D01*
X455539Y372175D01*
X455535Y372219D01*
X455539Y372284D01*
X455379Y374115D01*
X455366Y374161D01*
X455356Y374237D01*
X454842Y376001D01*
X454821Y376045D01*
X454796Y376117D01*
X453947Y377747D01*
X453918Y377785D01*
X453879Y377851D01*
X452729Y379284D01*
X452693Y379316D01*
X452642Y379373D01*
X451234Y380554D01*
X451193Y380578D01*
X451132Y380624D01*
X449520Y381508D01*
X449475Y381523D01*
X449406Y381557D01*
X447653Y382109D01*
X447606Y382115D01*
X447532Y382135D01*
X445705Y382335D01*
X445659Y382331D01*
X445590Y382337D01*
X443914Y382214D01*
X443871Y382203D01*
X443805Y382197D01*
X442175Y381786D01*
X442135Y381767D01*
X442071Y381749D01*
X440538Y381061D01*
X440501Y381036D01*
X440441Y381007D01*
X439051Y380063D01*
X439019Y380032D01*
X438965Y379994D01*
X437759Y378823D01*
X437733Y378787D01*
X437687Y378739D01*
X436703Y377377D01*
X436684Y377336D01*
X436647Y377282D01*
X435914Y375769D01*
X435902Y375726D01*
X435875Y375666D01*
X435417Y374049D01*
X435412Y374004D01*
X435396Y373940D01*
X435225Y372268D01*
X435229Y372220D01*
X435225Y372141D01*
X435391Y370469D01*
X435403Y370426D01*
X435412Y370361D01*
X435866Y368743D01*
X435885Y368702D01*
X435905Y368639D01*
X436633Y367125D01*
X436659Y367089D01*
X436689Y367030D01*
X437670Y365665D01*
X437702Y365634D01*
X437742Y365581D01*
X438944Y364407D01*
X438981Y364382D01*
X439029Y364337D01*
X440417Y363390D01*
X440458Y363372D01*
X440514Y363336D01*
X442045Y362644D01*
X442088Y362633D01*
X442149Y362607D01*
X443778Y362192D01*
X443822Y362189D01*
X443887Y362174D01*
X445562Y362048D01*
X445609Y362052D01*
G37*
G36*
X98096Y362052D02*
X98096Y362052D01*
X98168Y362050D01*
X100004Y362255D01*
X100050Y362269D01*
X100125Y362281D01*
X101886Y362841D01*
X101928Y362864D01*
X102000Y362890D01*
X103617Y363783D01*
X103655Y363813D01*
X103720Y363853D01*
X105132Y365044D01*
X105163Y365081D01*
X105219Y365133D01*
X106372Y366577D01*
X106395Y366619D01*
X106439Y366681D01*
X107288Y368322D01*
X107303Y368368D01*
X107334Y368437D01*
X107847Y370212D01*
X107852Y370260D01*
X107870Y370335D01*
X108026Y372175D01*
X108022Y372219D01*
X108026Y372284D01*
X107866Y374115D01*
X107853Y374161D01*
X107843Y374237D01*
X107329Y376001D01*
X107308Y376045D01*
X107283Y376117D01*
X106434Y377747D01*
X106405Y377785D01*
X106366Y377851D01*
X105216Y379284D01*
X105180Y379316D01*
X105129Y379373D01*
X103721Y380554D01*
X103680Y380578D01*
X103619Y380624D01*
X102007Y381508D01*
X101962Y381523D01*
X101893Y381557D01*
X100140Y382109D01*
X100093Y382115D01*
X100019Y382135D01*
X98192Y382335D01*
X98146Y382331D01*
X98077Y382337D01*
X96401Y382214D01*
X96358Y382203D01*
X96292Y382197D01*
X94662Y381786D01*
X94622Y381767D01*
X94558Y381749D01*
X93025Y381061D01*
X92988Y381036D01*
X92928Y381007D01*
X91538Y380063D01*
X91506Y380032D01*
X91452Y379994D01*
X90246Y378823D01*
X90220Y378787D01*
X90174Y378739D01*
X89190Y377377D01*
X89171Y377336D01*
X89134Y377282D01*
X88401Y375769D01*
X88389Y375726D01*
X88362Y375666D01*
X87904Y374049D01*
X87899Y374004D01*
X87883Y373940D01*
X87712Y372268D01*
X87716Y372220D01*
X87712Y372141D01*
X87878Y370469D01*
X87890Y370426D01*
X87899Y370361D01*
X88353Y368743D01*
X88372Y368702D01*
X88392Y368639D01*
X89120Y367125D01*
X89146Y367089D01*
X89176Y367030D01*
X90157Y365665D01*
X90189Y365634D01*
X90229Y365581D01*
X91431Y364407D01*
X91468Y364382D01*
X91516Y364337D01*
X92904Y363390D01*
X92945Y363372D01*
X93001Y363336D01*
X94532Y362644D01*
X94575Y362633D01*
X94636Y362607D01*
X96265Y362192D01*
X96309Y362189D01*
X96374Y362174D01*
X98049Y362048D01*
X98096Y362052D01*
G37*
G36*
X271852Y362052D02*
X271852Y362052D01*
X271924Y362050D01*
X273760Y362255D01*
X273806Y362269D01*
X273881Y362281D01*
X275642Y362841D01*
X275684Y362864D01*
X275756Y362890D01*
X277373Y363783D01*
X277411Y363813D01*
X277476Y363853D01*
X278888Y365044D01*
X278919Y365081D01*
X278975Y365133D01*
X280128Y366577D01*
X280151Y366619D01*
X280195Y366681D01*
X281044Y368322D01*
X281059Y368368D01*
X281090Y368437D01*
X281603Y370212D01*
X281608Y370260D01*
X281626Y370335D01*
X281782Y372175D01*
X281778Y372219D01*
X281782Y372284D01*
X281622Y374115D01*
X281609Y374161D01*
X281599Y374237D01*
X281085Y376001D01*
X281064Y376045D01*
X281039Y376117D01*
X280190Y377747D01*
X280161Y377785D01*
X280122Y377851D01*
X278972Y379284D01*
X278936Y379316D01*
X278885Y379373D01*
X277477Y380554D01*
X277436Y380578D01*
X277375Y380624D01*
X275763Y381508D01*
X275718Y381523D01*
X275649Y381557D01*
X273896Y382109D01*
X273849Y382115D01*
X273775Y382135D01*
X271948Y382335D01*
X271902Y382331D01*
X271833Y382337D01*
X270157Y382214D01*
X270114Y382203D01*
X270048Y382197D01*
X268418Y381786D01*
X268378Y381767D01*
X268314Y381749D01*
X266781Y381061D01*
X266744Y381036D01*
X266684Y381007D01*
X265294Y380063D01*
X265262Y380032D01*
X265208Y379994D01*
X264002Y378823D01*
X263976Y378787D01*
X263930Y378739D01*
X262946Y377377D01*
X262927Y377336D01*
X262890Y377282D01*
X262157Y375769D01*
X262145Y375726D01*
X262118Y375666D01*
X261660Y374049D01*
X261655Y374004D01*
X261639Y373940D01*
X261468Y372268D01*
X261472Y372220D01*
X261468Y372141D01*
X261634Y370469D01*
X261646Y370426D01*
X261655Y370361D01*
X262109Y368743D01*
X262128Y368702D01*
X262148Y368639D01*
X262876Y367125D01*
X262902Y367089D01*
X262932Y367030D01*
X263913Y365665D01*
X263945Y365634D01*
X263985Y365581D01*
X265187Y364407D01*
X265224Y364382D01*
X265272Y364337D01*
X266660Y363390D01*
X266701Y363372D01*
X266757Y363336D01*
X268288Y362644D01*
X268331Y362633D01*
X268392Y362607D01*
X270021Y362192D01*
X270065Y362189D01*
X270130Y362174D01*
X271805Y362048D01*
X271852Y362052D01*
G37*
G36*
X503528Y362052D02*
X503528Y362052D01*
X503600Y362050D01*
X505436Y362255D01*
X505482Y362269D01*
X505557Y362281D01*
X507318Y362841D01*
X507360Y362864D01*
X507432Y362890D01*
X509049Y363783D01*
X509087Y363813D01*
X509152Y363853D01*
X510564Y365044D01*
X510595Y365081D01*
X510651Y365133D01*
X511804Y366577D01*
X511827Y366619D01*
X511871Y366681D01*
X512720Y368322D01*
X512735Y368368D01*
X512766Y368437D01*
X513279Y370212D01*
X513284Y370260D01*
X513302Y370335D01*
X513458Y372175D01*
X513454Y372219D01*
X513458Y372284D01*
X513298Y374115D01*
X513285Y374161D01*
X513275Y374237D01*
X512761Y376001D01*
X512740Y376045D01*
X512715Y376117D01*
X511866Y377747D01*
X511837Y377785D01*
X511798Y377851D01*
X510648Y379284D01*
X510612Y379316D01*
X510561Y379373D01*
X509153Y380554D01*
X509112Y380578D01*
X509051Y380624D01*
X507439Y381508D01*
X507394Y381523D01*
X507325Y381557D01*
X505572Y382109D01*
X505525Y382115D01*
X505451Y382135D01*
X503624Y382335D01*
X503578Y382331D01*
X503509Y382337D01*
X501833Y382214D01*
X501790Y382203D01*
X501724Y382197D01*
X500094Y381786D01*
X500054Y381767D01*
X499990Y381749D01*
X498457Y381061D01*
X498420Y381036D01*
X498360Y381007D01*
X496970Y380063D01*
X496938Y380032D01*
X496884Y379994D01*
X495678Y378823D01*
X495652Y378787D01*
X495606Y378739D01*
X494622Y377377D01*
X494603Y377336D01*
X494566Y377282D01*
X493833Y375769D01*
X493821Y375726D01*
X493794Y375666D01*
X493336Y374049D01*
X493331Y374004D01*
X493315Y373940D01*
X493144Y372268D01*
X493148Y372220D01*
X493144Y372141D01*
X493310Y370469D01*
X493322Y370426D01*
X493331Y370361D01*
X493785Y368743D01*
X493804Y368702D01*
X493824Y368639D01*
X494552Y367125D01*
X494578Y367089D01*
X494608Y367030D01*
X495589Y365665D01*
X495621Y365634D01*
X495661Y365581D01*
X496863Y364407D01*
X496900Y364382D01*
X496948Y364337D01*
X498336Y363390D01*
X498377Y363372D01*
X498433Y363336D01*
X499964Y362644D01*
X500007Y362633D01*
X500068Y362607D01*
X501697Y362192D01*
X501741Y362189D01*
X501806Y362174D01*
X503481Y362048D01*
X503528Y362052D01*
G37*
G36*
X329771Y362052D02*
X329771Y362052D01*
X329843Y362050D01*
X331679Y362255D01*
X331725Y362269D01*
X331800Y362281D01*
X333561Y362841D01*
X333603Y362864D01*
X333675Y362890D01*
X335292Y363783D01*
X335330Y363813D01*
X335395Y363853D01*
X336807Y365044D01*
X336838Y365081D01*
X336894Y365133D01*
X338047Y366577D01*
X338070Y366619D01*
X338114Y366681D01*
X338963Y368322D01*
X338978Y368368D01*
X339009Y368437D01*
X339522Y370212D01*
X339527Y370260D01*
X339545Y370335D01*
X339701Y372175D01*
X339697Y372219D01*
X339701Y372284D01*
X339541Y374115D01*
X339528Y374161D01*
X339518Y374237D01*
X339004Y376001D01*
X338983Y376045D01*
X338958Y376117D01*
X338109Y377747D01*
X338080Y377785D01*
X338041Y377851D01*
X336891Y379284D01*
X336855Y379316D01*
X336804Y379373D01*
X335396Y380554D01*
X335355Y380578D01*
X335294Y380624D01*
X333682Y381508D01*
X333637Y381523D01*
X333568Y381557D01*
X331815Y382109D01*
X331768Y382115D01*
X331694Y382135D01*
X329867Y382335D01*
X329821Y382331D01*
X329752Y382337D01*
X328076Y382214D01*
X328033Y382203D01*
X327967Y382197D01*
X326337Y381786D01*
X326297Y381767D01*
X326233Y381749D01*
X324700Y381061D01*
X324663Y381036D01*
X324603Y381007D01*
X323213Y380063D01*
X323181Y380032D01*
X323127Y379994D01*
X321921Y378823D01*
X321895Y378787D01*
X321849Y378739D01*
X320865Y377377D01*
X320846Y377336D01*
X320809Y377282D01*
X320076Y375769D01*
X320064Y375726D01*
X320037Y375666D01*
X319579Y374049D01*
X319574Y374004D01*
X319558Y373940D01*
X319387Y372268D01*
X319391Y372220D01*
X319387Y372141D01*
X319553Y370469D01*
X319565Y370426D01*
X319574Y370361D01*
X320028Y368743D01*
X320047Y368702D01*
X320067Y368639D01*
X320795Y367125D01*
X320821Y367089D01*
X320851Y367030D01*
X321832Y365665D01*
X321864Y365634D01*
X321904Y365581D01*
X323106Y364407D01*
X323143Y364382D01*
X323191Y364337D01*
X324579Y363390D01*
X324620Y363372D01*
X324676Y363336D01*
X326207Y362644D01*
X326250Y362633D01*
X326311Y362607D01*
X327940Y362192D01*
X327984Y362189D01*
X328049Y362174D01*
X329724Y362048D01*
X329771Y362052D01*
G37*
G36*
X619365Y362052D02*
X619365Y362052D01*
X619437Y362050D01*
X621273Y362255D01*
X621319Y362269D01*
X621394Y362281D01*
X623155Y362841D01*
X623197Y362864D01*
X623269Y362890D01*
X624886Y363783D01*
X624924Y363813D01*
X624989Y363853D01*
X626401Y365044D01*
X626432Y365081D01*
X626488Y365133D01*
X627641Y366577D01*
X627664Y366619D01*
X627708Y366681D01*
X628557Y368322D01*
X628572Y368368D01*
X628603Y368437D01*
X629116Y370212D01*
X629121Y370260D01*
X629139Y370335D01*
X629295Y372175D01*
X629291Y372219D01*
X629295Y372284D01*
X629135Y374115D01*
X629122Y374161D01*
X629112Y374237D01*
X628598Y376001D01*
X628577Y376045D01*
X628552Y376117D01*
X627703Y377747D01*
X627674Y377785D01*
X627635Y377851D01*
X626485Y379284D01*
X626449Y379316D01*
X626398Y379373D01*
X624990Y380554D01*
X624949Y380578D01*
X624888Y380624D01*
X623276Y381508D01*
X623231Y381523D01*
X623162Y381557D01*
X621409Y382109D01*
X621362Y382115D01*
X621288Y382135D01*
X619461Y382335D01*
X619415Y382331D01*
X619346Y382337D01*
X617670Y382214D01*
X617627Y382203D01*
X617561Y382197D01*
X615931Y381786D01*
X615891Y381767D01*
X615827Y381749D01*
X614294Y381061D01*
X614257Y381036D01*
X614197Y381007D01*
X612807Y380063D01*
X612775Y380032D01*
X612721Y379994D01*
X611515Y378823D01*
X611489Y378787D01*
X611443Y378739D01*
X610459Y377377D01*
X610440Y377336D01*
X610403Y377282D01*
X609670Y375769D01*
X609658Y375726D01*
X609631Y375666D01*
X609173Y374049D01*
X609168Y374004D01*
X609152Y373940D01*
X608981Y372268D01*
X608985Y372220D01*
X608981Y372141D01*
X609147Y370469D01*
X609159Y370426D01*
X609168Y370361D01*
X609622Y368743D01*
X609641Y368702D01*
X609661Y368639D01*
X610389Y367125D01*
X610415Y367089D01*
X610445Y367030D01*
X611426Y365665D01*
X611458Y365634D01*
X611498Y365581D01*
X612700Y364407D01*
X612737Y364382D01*
X612785Y364337D01*
X614173Y363390D01*
X614214Y363372D01*
X614270Y363336D01*
X615801Y362644D01*
X615844Y362633D01*
X615905Y362607D01*
X617534Y362192D01*
X617578Y362189D01*
X617643Y362174D01*
X619318Y362048D01*
X619365Y362052D01*
G37*
G36*
X561446Y362052D02*
X561446Y362052D01*
X561518Y362050D01*
X563354Y362255D01*
X563400Y362269D01*
X563475Y362281D01*
X565236Y362841D01*
X565278Y362864D01*
X565350Y362890D01*
X566967Y363783D01*
X567005Y363813D01*
X567070Y363853D01*
X568482Y365044D01*
X568513Y365081D01*
X568569Y365133D01*
X569722Y366577D01*
X569745Y366619D01*
X569789Y366681D01*
X570638Y368322D01*
X570653Y368368D01*
X570684Y368437D01*
X571197Y370212D01*
X571202Y370260D01*
X571220Y370335D01*
X571376Y372175D01*
X571372Y372219D01*
X571376Y372284D01*
X571216Y374115D01*
X571203Y374161D01*
X571193Y374237D01*
X570679Y376001D01*
X570658Y376045D01*
X570633Y376117D01*
X569784Y377747D01*
X569755Y377785D01*
X569716Y377851D01*
X568566Y379284D01*
X568530Y379316D01*
X568479Y379373D01*
X567071Y380554D01*
X567030Y380578D01*
X566969Y380624D01*
X565357Y381508D01*
X565312Y381523D01*
X565243Y381557D01*
X563490Y382109D01*
X563443Y382115D01*
X563369Y382135D01*
X561542Y382335D01*
X561496Y382331D01*
X561427Y382337D01*
X559751Y382214D01*
X559708Y382203D01*
X559642Y382197D01*
X558012Y381786D01*
X557972Y381767D01*
X557908Y381749D01*
X556375Y381061D01*
X556338Y381036D01*
X556278Y381007D01*
X554888Y380063D01*
X554856Y380032D01*
X554802Y379994D01*
X553596Y378823D01*
X553570Y378787D01*
X553524Y378739D01*
X552540Y377377D01*
X552521Y377336D01*
X552484Y377282D01*
X551751Y375769D01*
X551739Y375726D01*
X551712Y375666D01*
X551254Y374049D01*
X551249Y374004D01*
X551233Y373940D01*
X551062Y372268D01*
X551066Y372220D01*
X551062Y372141D01*
X551228Y370469D01*
X551240Y370426D01*
X551249Y370361D01*
X551703Y368743D01*
X551722Y368702D01*
X551742Y368639D01*
X552470Y367125D01*
X552496Y367089D01*
X552526Y367030D01*
X553507Y365665D01*
X553539Y365634D01*
X553579Y365581D01*
X554781Y364407D01*
X554818Y364382D01*
X554866Y364337D01*
X556254Y363390D01*
X556295Y363372D01*
X556351Y363336D01*
X557882Y362644D01*
X557925Y362633D01*
X557986Y362607D01*
X559615Y362192D01*
X559659Y362189D01*
X559724Y362174D01*
X561399Y362048D01*
X561446Y362052D01*
G37*
D10*
X30000Y510000D03*
X30000Y30000D03*
X870000Y510000D03*
X870000Y30000D03*
D11*
X30000Y510000D03*
X30000Y30000D03*
X870000Y510000D03*
X870000Y30000D03*
D12*
X678900Y510500D03*
X678900Y434300D03*
X480033Y510500D03*
X480033Y434300D03*
X281167Y510500D03*
X281167Y434300D03*
X82300Y510500D03*
X82300Y434300D03*
D13*
X725700Y55100D03*
X750700Y55100D03*
X529633Y55100D03*
X554633Y55100D03*
X333567Y55100D03*
X358567Y55100D03*
X137500Y55100D03*
X162500Y55100D03*
X51300Y261550D03*
X51300Y236550D03*
X52000Y160000D03*
X52000Y135000D03*
D14*
X707500Y444500D03*
X707500Y469900D03*
X707500Y495300D03*
X822500Y495300D03*
X822500Y469900D03*
X822500Y444500D03*
X510833Y444500D03*
X510833Y469900D03*
X510833Y495300D03*
X625833Y495300D03*
X625833Y469900D03*
X625833Y444500D03*
X314167Y444500D03*
X314167Y469900D03*
X314167Y495300D03*
X429167Y495300D03*
X429167Y469900D03*
X429167Y444500D03*
X117500Y444500D03*
X117500Y469900D03*
X117500Y495300D03*
X232500Y495300D03*
X232500Y469900D03*
X232500Y444500D03*
D15*
X422300Y89500D03*
X422300Y114900D03*
X422300Y140300D03*
X422300Y165700D03*
D16*
X422300Y191100D03*
D15*
X422300Y216500D03*
X422300Y241900D03*
D16*
X422300Y267300D03*
X295300Y267300D03*
D15*
X295300Y241900D03*
X295300Y216500D03*
X295300Y191100D03*
X295300Y165700D03*
X295300Y140300D03*
X295300Y114900D03*
D17*
X295300Y89500D03*
D15*
X227300Y89500D03*
X227300Y114900D03*
X227300Y140300D03*
X227300Y165700D03*
D16*
X227300Y191100D03*
D15*
X227300Y216500D03*
X227300Y241900D03*
D16*
X227300Y267300D03*
X100300Y267300D03*
D15*
X100300Y241900D03*
X100300Y216500D03*
X100300Y191100D03*
X100300Y165700D03*
X100300Y140300D03*
X100300Y114900D03*
D17*
X100300Y89500D03*
D13*
X848000Y352500D03*
X848000Y377500D03*
D15*
X670000Y256200D03*
X695400Y256200D03*
X720800Y256200D03*
X746200Y256200D03*
X771600Y256200D03*
X797000Y256200D03*
X644600Y256200D03*
X619200Y256200D03*
X593800Y256200D03*
X568400Y256200D03*
X543000Y256200D03*
X517600Y256200D03*
X492200Y256200D03*
X822400Y256200D03*
X670000Y103800D03*
X644600Y103800D03*
X619200Y103800D03*
X593800Y103800D03*
X568400Y103800D03*
X543000Y103800D03*
X695400Y103800D03*
X720800Y103800D03*
X746200Y103800D03*
X771600Y103800D03*
X797000Y103800D03*
X822400Y103800D03*
X847800Y103800D03*
X517600Y103800D03*
X492200Y103800D03*
X847800Y256200D03*
D18*
X747300Y314400D03*
D19*
X747300Y390600D03*
X772700Y314400D03*
X772700Y390600D03*
D20*
X615600Y185000D03*
X539400Y185000D03*
D21*
X539400Y215000D03*
X615600Y215000D03*
D22*
X115000Y320000D03*
X565000Y240000D03*
X625000Y355000D03*
X605000Y350000D03*
D23*
X465000Y100000D03*
X405000Y80000D03*
D22*
X135000Y330000D03*
X420000Y35000D03*
X200000Y315000D03*
X610000Y165000D03*
X335000Y130000D03*
M02*
