G04 EAGLE Gerber RS-274X export*
G75*
%MOMM*%
%FSLAX34Y34*%
%LPD*%
%INSoldermask Bottom*%
%IPPOS*%
%AMOC8*
5,1,8,0,0,1.08239X$1,22.5*%
G01*
%ADD10C,1.903200*%
%ADD11P,1.951982X8X202.500000*%
%ADD12C,1.803400*%
%ADD13P,1.951982X8X204.400000*%
%ADD14C,1.524000*%
%ADD15P,1.649562X8X292.500000*%
%ADD16C,1.511200*%
%ADD17C,1.511200*%
%ADD18C,1.727200*%


D10*
X46000Y-432800D03*
X81000Y-432800D03*
X166650Y-432800D03*
X201650Y-432800D03*
D11*
X-139700Y-139700D03*
D12*
X-114300Y-139700D03*
D11*
X0Y-139700D03*
D12*
X25400Y-139700D03*
D11*
X215900Y-139700D03*
D12*
X241300Y-139700D03*
D11*
X431800Y-139700D03*
D12*
X457200Y-139700D03*
D11*
X63500Y-139700D03*
D12*
X88900Y-139700D03*
D11*
X279400Y-139700D03*
D12*
X304800Y-139700D03*
D11*
X495300Y-139700D03*
D12*
X520700Y-139700D03*
D13*
X-76193Y-140121D03*
D12*
X-50807Y-139279D03*
D11*
X127000Y-139700D03*
D12*
X152400Y-139700D03*
D11*
X342900Y-139700D03*
D12*
X368300Y-139700D03*
D11*
X558800Y-139700D03*
D12*
X584200Y-139700D03*
D11*
X-203200Y-139700D03*
D12*
X-177800Y-139700D03*
D10*
X287300Y-432800D03*
X322300Y-432800D03*
D14*
X-120396Y-63500D02*
X-133604Y-63500D01*
X-133604Y-38100D02*
X-120396Y-38100D01*
X-57404Y-38100D02*
X-44196Y-38100D01*
X-44196Y-63500D02*
X-57404Y-63500D01*
X-120396Y-12700D02*
X-133604Y-12700D01*
X-57404Y-12700D02*
X-44196Y-12700D01*
X69596Y-63500D02*
X82804Y-63500D01*
X82804Y-38100D02*
X69596Y-38100D01*
X145796Y-38100D02*
X159004Y-38100D01*
X159004Y-63500D02*
X145796Y-63500D01*
X82804Y-12700D02*
X69596Y-12700D01*
X145796Y-12700D02*
X159004Y-12700D01*
X285496Y-63500D02*
X298704Y-63500D01*
X298704Y-38100D02*
X285496Y-38100D01*
X361696Y-38100D02*
X374904Y-38100D01*
X374904Y-63500D02*
X361696Y-63500D01*
X298704Y-12700D02*
X285496Y-12700D01*
X361696Y-12700D02*
X374904Y-12700D01*
X501396Y-63500D02*
X514604Y-63500D01*
X514604Y-38100D02*
X501396Y-38100D01*
X577596Y-38100D02*
X590804Y-38100D01*
X590804Y-63500D02*
X577596Y-63500D01*
X514604Y-12700D02*
X501396Y-12700D01*
X577596Y-12700D02*
X590804Y-12700D01*
D15*
X-177800Y-12700D03*
X-177800Y-88900D03*
X25400Y-12700D03*
X25400Y-88900D03*
X241300Y-12700D03*
X241300Y-88900D03*
X457200Y-12700D03*
X457200Y-88900D03*
D16*
X40830Y-342900D02*
X27750Y-342900D01*
X27750Y-317500D02*
X40830Y-317500D01*
X40830Y-292100D02*
X27750Y-292100D01*
X27750Y-266700D02*
X40830Y-266700D01*
X40830Y-241300D02*
X27750Y-241300D01*
X27750Y-215900D02*
X40830Y-215900D01*
X59690Y-349060D02*
X59690Y-362140D01*
X85090Y-362140D02*
X85090Y-349060D01*
X110490Y-349060D02*
X110490Y-362140D01*
X135890Y-362140D02*
X135890Y-349060D01*
X161290Y-349060D02*
X161290Y-362140D01*
X186690Y-362140D02*
X186690Y-349060D01*
X212090Y-349060D02*
X212090Y-362140D01*
X237490Y-362140D02*
X237490Y-349060D01*
X262890Y-349060D02*
X262890Y-362140D01*
X288290Y-362140D02*
X288290Y-349060D01*
X313690Y-349060D02*
X313690Y-362140D01*
X339090Y-362140D02*
X339090Y-349060D01*
X59690Y-209740D02*
X59690Y-196660D01*
X85090Y-196660D02*
X85090Y-209740D01*
X110490Y-209740D02*
X110490Y-196660D01*
X135890Y-196660D02*
X135890Y-209740D01*
X161290Y-209740D02*
X161290Y-196660D01*
X186690Y-196660D02*
X186690Y-209740D01*
X212090Y-209740D02*
X212090Y-196660D01*
X237490Y-196660D02*
X237490Y-209740D01*
X262890Y-209740D02*
X262890Y-196660D01*
X288290Y-196660D02*
X288290Y-209740D01*
X313690Y-209740D02*
X313690Y-196660D01*
X339090Y-196660D02*
X339090Y-209740D01*
X332550Y-241300D02*
X345630Y-241300D01*
X345630Y-266700D02*
X332550Y-266700D01*
X332550Y-292100D02*
X345630Y-292100D01*
D17*
X148590Y-241300D03*
X173990Y-241300D03*
D18*
X393700Y-342900D03*
X419100Y-342900D03*
X444500Y-342900D03*
X469900Y-342900D03*
X495300Y-342900D03*
X520700Y-342900D03*
X546100Y-342900D03*
X571500Y-342900D03*
X571500Y-215900D03*
X546100Y-215900D03*
X520700Y-215900D03*
X495300Y-215900D03*
X469900Y-215900D03*
X444500Y-215900D03*
X419100Y-215900D03*
X393700Y-215900D03*
X-203200Y-342900D03*
X-177800Y-342900D03*
X-152400Y-342900D03*
X-127000Y-342900D03*
X-101600Y-342900D03*
X-76200Y-342900D03*
X-50800Y-342900D03*
X-25400Y-342900D03*
X-25400Y-215900D03*
X-50800Y-215900D03*
X-76200Y-215900D03*
X-101600Y-215900D03*
X-127000Y-215900D03*
X-152400Y-215900D03*
X-177800Y-215900D03*
X-203200Y-215900D03*
D10*
X-182600Y-432800D03*
X-147600Y-432800D03*
X-68300Y-432800D03*
X-33300Y-432800D03*
X401600Y-432800D03*
X436600Y-432800D03*
X528600Y-432800D03*
X563600Y-432800D03*
M02*
